<svg width="567" height="128" viewBox="0 0 567 128" fill="none" xmlns="http://www.w3.org/2000/svg">
<g clip-path="url(#clip0_226_419)">
<path d="M312.094 29.5063C314.863 19.8144 313.465 6.8192 303.652 1.59661C299.396 -0.669411 294.427 -0.430253 290.182 1.74309C285.523 4.12868 282.346 8.48733 280.477 13.2914C278.05 19.5334 277.749 26.5646 277.827 33.1923C277.836 34.0562 279.127 34.0503 279.162 33.1923C279.571 23.342 279.493 11.7668 287.839 4.87904C291.568 1.79989 296.77 0.332061 301.414 2.05698C305.509 3.57862 308.654 7.13609 310.323 11.1091C312.771 16.9266 311.99 23.1835 311.155 29.2432C311.071 29.8501 311.918 30.1311 312.097 29.5033L312.094 29.5063Z" fill="black"/>
<path d="M277.777 25.554C274.752 25.2132 271.416 25.7872 268.382 25.9905C267.592 26.0443 267.58 27.27 268.382 27.2311L268.793 27.2102C269.077 27.1982 269.229 26.9172 269.103 26.6661L268.916 26.2954L268.382 27.2311C271.473 27.0518 274.889 27.2132 277.903 26.4838C278.457 26.3492 278.272 25.6108 277.777 25.554Z" fill="black"/>
<path d="M278.265 34.1039C276.485 32.5554 274.607 31.1115 272.768 29.6347L270.005 27.4165C269.331 26.8754 269.036 26.4927 268.178 26.4897C268.002 26.4897 267.889 26.6572 267.925 26.8216C268.139 27.7543 268.849 28.0951 269.576 28.675L272.339 30.8932C274.068 32.2803 275.776 33.7033 277.558 35.0187C278.089 35.4103 278.766 34.5344 278.265 34.1009V34.1039Z" fill="black"/>
<path d="M311.144 28.7824C310.468 30.8331 310.322 33.1739 310.053 35.3143C309.761 37.6461 309.55 39.9899 309.523 42.3426C309.472 46.4531 309.988 50.6354 311.487 54.4828C314.179 61.3944 319.991 66.2164 326.77 68.8591C327.566 69.17 327.911 67.8816 327.121 67.5767C320.343 64.9459 314.632 59.9505 312.289 52.9103C311.064 49.2303 310.694 45.3261 310.787 41.4637C310.837 39.4069 311.016 37.3591 311.258 35.3173C311.499 33.2755 312.06 31.0245 312.042 28.9079C312.036 28.3788 311.302 28.301 311.141 28.7853L311.144 28.7824Z" fill="black"/>
<path d="M297.264 52.5879C299.234 60.5459 305.13 66.199 311.333 71.0838C314.463 73.5471 317.653 75.9506 320.493 78.7547C322.997 81.2211 324.821 84.2225 326.139 87.49C327.456 90.7575 325.683 93.5048 322.273 93.4898C319.247 93.4749 316.925 91.1461 314.857 89.2179C314.222 88.626 313.283 89.5587 313.903 90.1745C316.91 93.164 321.629 96.8111 325.897 93.8157C329.752 91.1102 327.203 86.4227 325.489 83.2718C321.373 75.7055 313.152 71.5412 307.008 65.8373C302.892 62.0137 300.105 57.6282 298.298 52.3099C298.078 51.6612 297.1 51.9183 297.267 52.5939L297.264 52.5879Z" fill="black"/>
<path d="M313.893 89.5254C313.529 91.4686 312.62 92.9394 310.408 92.9155C308.659 92.8976 307.118 91.7675 306.033 90.4761C304.876 89.0979 304.009 87.4478 303.433 85.7467C303.156 84.9246 302.941 84.0786 302.798 83.2207C302.655 82.3627 302.715 81.4868 302.387 80.6766C302.211 80.2461 301.642 80.2132 301.478 80.6766C300.754 82.7304 301.946 85.8335 302.783 87.7168C303.693 89.7646 304.992 91.8184 306.861 93.1098C308.474 94.2279 310.677 94.7032 312.522 93.8691C314.057 93.1726 315.496 91.2683 314.906 89.5224C314.754 89.071 313.997 88.9754 313.896 89.5224L313.893 89.5254Z" fill="black"/>
<path d="M301.974 80.8593C298.269 80.1179 295.324 77.9476 293.616 74.5516C292.832 72.997 292.334 71.311 291.949 69.6159C291.598 68.0704 291.58 66.2887 290.948 64.8388C290.709 64.2887 289.997 64.6534 289.946 65.1108C289.738 66.9165 290.435 69.1526 290.879 70.8984C291.323 72.6443 291.949 74.4529 292.876 76.0523C294.751 79.2928 297.911 81.5798 301.637 82.085C302.418 82.1896 302.79 81.0238 301.974 80.8593Z" fill="black"/>
<path d="M278.194 32.0712C277.529 34.1848 277.729 36.7437 277.732 38.932C277.732 41.7212 277.839 44.5074 277.967 47.2906C278.092 50.014 278.244 52.7374 278.372 55.4608C278.432 56.7702 278.489 58.0766 278.524 59.386C278.551 60.3904 278.405 61.4218 278.912 62.3216C279.034 62.5428 279.374 62.5428 279.496 62.3216C279.973 61.4607 279.827 60.5369 279.8 59.5803C279.764 58.3486 279.714 57.12 279.657 55.8913C279.526 53.1021 279.365 50.3129 279.231 47.5238C279.097 44.7346 278.986 42.0859 278.957 39.3625C278.933 37.0038 279.285 34.5315 279.073 32.1908C279.028 31.6975 278.355 31.569 278.194 32.0712Z" fill="black"/>
<path d="M330.845 63.6727C332.819 61.6279 334.619 59.4695 336.798 57.631C339.096 55.6908 341.642 54.0317 344.324 52.6834C349.767 49.9451 355.464 48.8868 361.494 48.6686L361.19 47.5475C360.921 47.7598 360.65 47.963 360.367 48.1574C359.982 48.4354 360.2 49.2007 360.719 48.9974C361.026 48.8689 361.336 48.7523 361.649 48.6476C362.29 48.4204 362.176 47.5116 361.488 47.4668C355.487 47.0692 349.192 48.7852 343.847 51.4249C338.664 53.9868 333.063 58.0196 330.196 63.1794C329.972 63.58 330.508 64.0165 330.836 63.6757L330.845 63.6727Z" fill="black"/>
<path d="M361.051 48.7793C359.999 51.1619 358.771 53.1439 356.789 54.8778C354.684 56.7193 352.225 58.1393 349.787 59.4786C344.484 62.3843 338.934 64.4291 333.193 66.2527C332.463 66.4859 332.761 67.595 333.512 67.4066C339.634 65.888 345.617 63.2064 351.081 60.0824C355.203 57.7238 361.004 54.2948 361.773 49.0842C361.832 48.6866 361.251 48.3279 361.051 48.7793Z" fill="black"/>
<path d="M349.801 60.7103C354.183 60.7432 358.639 60.1364 363.003 59.7477L362.463 58.806C355.36 69.4456 342.027 75.2601 329.415 73.3199C328.614 73.1973 328.271 74.429 329.079 74.5486C342.313 76.5455 355.986 70.5068 363.542 59.4398C363.802 59.0601 363.462 58.4623 363.003 58.4981C358.582 58.8389 354.04 58.9794 349.67 59.7447C349.112 59.8434 349.258 60.7103 349.801 60.7163V60.7103Z" fill="black"/>
<path d="M342.353 73.1166C339.417 80.0522 335.31 86.4975 329.265 91.1162C322.954 95.9382 314.811 98.3029 306.921 98.1743C299.508 98.0548 291.361 95.7499 286.422 89.8696C284.332 87.3824 282.213 84.5454 281.051 81.4901C278.702 75.3169 279.268 68.187 279.909 61.7596C279.998 60.8538 278.586 60.8598 278.499 61.7596C277.879 68.0315 277.399 74.8475 279.387 80.946C280.457 84.2344 282.455 86.8771 284.481 89.6155C289.072 95.8186 296.634 98.7094 304.104 99.391C312.277 100.138 320.913 98.2102 327.846 93.7499C334.976 89.1641 340.639 81.5589 343.397 73.5531C343.605 72.9492 342.61 72.5157 342.356 73.1136L342.353 73.1166Z" fill="black"/>
<path d="M302.017 82.1744C303.174 81.2118 303.323 79.0474 303.356 77.6214C303.394 75.8367 302.983 74.1297 302.268 72.5064C301.949 71.786 300.753 72.4526 301.2 73.1312L301.352 73.3644C301.418 73.4631 301.546 73.5348 301.668 73.493L301.898 73.4152L301.2 73.1312C301.874 74.629 302.205 76.2224 302.145 77.8666C302.095 79.2387 301.367 80.6109 301.445 81.9352C301.463 82.2401 301.794 82.3597 302.017 82.1744Z" fill="black"/>
<path d="M314.82 89.409C315.071 87.8156 314.316 85.9412 313.774 84.4584C313.142 82.7305 312.322 81.0953 311.342 79.5408C310.9 78.8412 309.786 79.49 310.233 80.1925C311.204 81.7201 312.036 83.3254 312.656 85.0324C313.181 86.4704 313.294 88.1833 314.003 89.5166C314.173 89.8335 314.761 89.7976 314.82 89.409Z" fill="black"/>
<path d="M361.18 59.1465C364.596 58.2437 366.912 54.6354 367.413 51.2842C367.472 50.8806 367.252 50.4771 366.799 50.4771C364.891 50.4771 361.344 50.4651 359.97 51.9927C359.731 52.2588 359.916 52.6026 360.238 52.6444C361.222 52.776 362.122 52.2917 363.082 52.0884C364.313 51.8253 365.544 51.7416 366.799 51.7536L366.185 50.9464C365.573 54.3305 363.529 56.4052 360.834 58.3214C360.432 58.6054 360.661 59.284 361.18 59.1465Z" fill="black"/>
<path d="M332.568 60.19C331.125 60.8417 329.963 63.0629 329.188 64.3753C328.252 65.9567 327.158 67.858 326.845 69.6906C326.743 70.2795 327.548 70.7279 327.873 70.124C328.767 68.4649 329.316 66.6563 330.279 65.0121C330.735 64.2348 331.226 63.4785 331.751 62.746C332.276 62.0136 332.89 61.4755 333.137 60.6295C333.241 60.2767 332.86 60.0585 332.568 60.19Z" fill="black"/>
<path d="M279.013 26.3672L278.626 34.9081L268.053 26.4389L279.013 26.3672Z" stroke="black" stroke-width="0.25" stroke-miterlimit="10"/>
<path d="M129.151 48.2617C128.683 57.8699 128.972 67.5438 128.966 77.1609C128.963 81.9291 128.969 86.6943 128.975 91.4625C128.975 93.8451 128.975 96.2307 128.984 98.6133C128.993 100.996 128.838 103.316 129.171 105.585C129.234 106.015 129.976 106.015 130.042 105.585C130.361 103.408 130.218 101.107 130.23 98.9093C130.241 96.5267 130.239 94.1411 130.241 91.7585C130.247 86.8916 130.256 82.0248 130.25 77.1579C130.241 67.5408 130.534 57.8639 130.066 48.2587C130.036 47.6698 129.18 47.6668 129.151 48.2587V48.2617Z" fill="black"/>
<path d="M145.209 49.7684C144.964 54.3034 145.134 58.8923 145.125 63.4362C145.116 67.9802 145.116 72.5481 145.116 77.1041C145.116 81.66 145.116 86.216 145.113 90.7719C145.113 92.9512 145.113 95.1306 145.113 97.3099C145.113 98.4997 145.107 99.6865 145.113 100.876C145.119 102.066 145.325 102.822 145.522 103.917C145.567 104.168 145.981 104.168 146.029 103.917C146.222 102.831 146.428 102.006 146.437 100.876C146.446 99.7463 146.437 98.697 146.437 97.6088V90.7749C146.434 86.219 146.431 81.663 146.431 77.1071C146.431 72.5511 146.431 67.9952 146.422 63.4392C146.413 58.8982 146.583 54.3094 146.339 49.7714C146.3 49.045 145.254 49.045 145.215 49.7714L145.209 49.7684Z" fill="black"/>
<path d="M183.628 27.0338C177.463 25.6706 171.073 25.0698 164.828 24.1789C158.741 23.309 152.657 22.442 146.571 21.5721L128.313 18.9653L118.891 17.62C117.32 17.3958 115.749 17.1716 114.178 16.9474C112.912 16.768 111.624 16.4212 110.357 16.6873C110.008 16.759 109.952 17.2852 110.259 17.4496C111.505 18.1163 113.031 18.1252 114.414 18.3225C115.985 18.5467 117.556 18.7709 119.127 18.9952C122.268 19.4436 125.407 19.892 128.549 20.3404L146.806 22.9472C152.893 23.8172 158.977 24.6871 165.063 25.554C171.15 26.421 177.338 27.6078 183.496 28.0144C184.057 28.0503 184.179 27.1504 183.631 27.0308L183.628 27.0338Z" fill="black"/>
<path d="M110.578 16.4748C106.449 17.844 102.411 19.542 98.3537 21.1055C94.2879 22.672 90.1893 24.1757 86.1504 25.8169C85.432 26.1069 85.7241 27.2818 86.4783 27.0067C90.6633 25.4761 94.8036 23.802 98.9588 22.1967C102.974 20.6451 107.055 19.2012 110.992 17.4643C111.55 17.2192 111.153 16.2865 110.578 16.4778V16.4748Z" fill="black"/>
<path d="M86.7728 27.3716C92.8595 33.1054 99.0864 38.621 104.896 44.6508L105.835 43.7091C105.158 43.1799 104.488 42.6598 103.76 42.1994L103.316 43.2577C103.638 43.3294 103.957 43.4131 104.276 43.5058C104.765 43.6403 105.099 42.9109 104.628 42.6658C104.333 42.5193 104.043 42.3638 103.76 42.1994C103.2 41.8855 102.577 42.6448 103.063 43.1082C103.644 43.6642 104.264 44.1575 104.896 44.6508C105.528 45.144 106.446 44.3429 105.835 43.7091C100.064 37.7451 94.0906 31.7243 87.5776 26.5645C87.0172 26.122 86.2243 26.8545 86.7728 27.3716Z" fill="black"/>
<path d="M105.422 44.6863C107.094 45.7536 109.791 45.634 111.714 45.8522C114.176 46.1332 116.641 46.4023 119.103 46.6683C124.031 47.2005 128.958 47.7326 133.882 48.2647C143.835 49.3409 153.785 50.4171 163.737 51.4933C166.498 51.7923 169.255 52.0912 172.015 52.3872C174.775 52.6831 177.768 53.293 180.588 53.2033C181.205 53.1824 181.372 52.2557 180.737 52.0942C178.501 51.5292 176.078 51.4784 173.789 51.2333C171.327 50.9672 168.861 50.7041 166.399 50.4381C161.472 49.9089 156.545 49.3768 151.621 48.8477C141.668 47.7774 131.718 46.7042 121.765 45.634C119.008 45.338 116.248 45.0301 113.488 44.7491C112.107 44.6086 110.73 44.4591 109.35 44.3306C108.077 44.211 106.685 43.93 105.463 44.3784C105.329 44.4292 105.296 44.6056 105.425 44.6863H105.422Z" fill="black"/>
<path d="M113.522 23.7336C112.559 25.9338 112.351 28.6244 111.951 30.9801C111.74 32.2326 111.537 33.4852 111.34 34.7408C111.185 35.7453 110.845 36.8065 111.161 37.7901C111.248 38.0561 111.57 38.08 111.722 37.8648C112.336 37.0008 112.336 35.7901 112.497 34.7587C112.696 33.5032 112.887 32.2476 113.093 30.995C113.471 28.6961 114.223 26.2627 114.258 23.9339C114.264 23.5632 113.68 23.3569 113.516 23.7336H113.522Z" fill="black"/>
<path d="M114.086 24.5016C115.746 25.0068 117.618 24.9948 119.344 25.1144C121.07 25.234 122.936 25.5748 124.623 25.2459C125.007 25.1712 124.948 24.6301 124.623 24.5225C122.989 23.9784 121.055 24.092 119.344 23.9933C117.633 23.8947 115.794 23.6585 114.086 23.9455C113.791 23.9963 113.835 24.4238 114.086 24.4986V24.5016Z" fill="black"/>
<path d="M112.54 31.7453C113.941 32.0741 115.41 32.119 116.838 32.2415C118.409 32.3761 120.004 32.5614 121.581 32.5614C122.189 32.5614 122.37 31.5569 121.73 31.4613C120.299 31.246 118.841 31.1803 117.395 31.0816C115.831 30.974 114.218 30.7677 112.653 30.8933C112.194 30.9291 112.033 31.6287 112.537 31.7453H112.54Z" fill="black"/>
<path d="M126.454 33.467C126.338 34.6 126.183 35.8885 126.314 37.0185C126.418 37.9183 127.697 37.449 127.282 36.7554C127.232 36.6717 127.172 36.6269 127.095 36.5671L127.333 37.156C127.551 35.9812 127.494 34.6568 127.449 33.464C127.426 32.8093 126.516 32.8332 126.451 33.464L126.454 33.467Z" fill="black"/>
<path d="M128.781 28.385L128.668 28.2714C128.623 28.2206 128.566 28.1877 128.504 28.1668C128.444 28.1339 128.379 28.119 128.307 28.122C128.235 28.122 128.17 28.1339 128.11 28.1668C128.048 28.1877 127.991 28.2236 127.946 28.2714C127.857 28.3701 127.791 28.4956 127.797 28.6332L127.815 28.7677C127.839 28.8544 127.884 28.9291 127.946 28.9919L128.069 29.0965C128.113 29.1444 128.167 29.1802 128.229 29.2012C128.289 29.234 128.355 29.246 128.423 29.246C128.492 29.246 128.557 29.234 128.617 29.2012C128.68 29.1802 128.733 29.1473 128.778 29.0965C128.867 29.0009 128.93 28.8753 128.924 28.7408L128.906 28.6063C128.882 28.5196 128.841 28.4478 128.778 28.385H128.781Z" fill="black"/>
<path d="M135.413 26.9261C134.793 28.675 134.552 30.5942 134.227 32.4178C133.932 34.0799 133.413 35.8437 133.458 37.5357C133.473 38.0649 134.158 38.1127 134.337 37.6553C134.999 35.9573 135.118 33.9304 135.419 32.1338C135.702 30.4537 136.078 28.7258 136.084 27.0158C136.084 26.6122 135.538 26.5704 135.41 26.9231L135.413 26.9261Z" fill="black"/>
<path d="M139.827 35.8077C141.654 36.1275 143.565 35.999 145.38 35.6313C146.224 35.4609 147.461 35.159 147.434 34.0738C147.401 32.8421 145.67 32.1725 144.695 31.9214C143.303 31.5656 141.786 31.6942 140.501 32.3518C137.833 33.715 137.618 36.836 140.379 38.2082C143.526 39.7747 147.989 39.9212 151.282 38.8061C151.572 38.7075 151.548 38.1963 151.205 38.2351C149.103 38.4713 147.02 38.6895 144.904 38.4623C142.942 38.2531 137.896 37.4937 139.446 34.4206C139.979 33.3653 141.145 32.7913 142.274 32.6C143.258 32.4326 145.059 32.4625 145.816 33.2397C147.595 35.0603 143.777 35.1171 143.139 35.1709C142.063 35.2606 140.987 35.2128 139.908 35.2128C139.577 35.2128 139.481 35.7509 139.827 35.8107V35.8077Z" fill="black"/>
<path d="M160.387 33.2278C159.455 33.0514 158.548 33.0365 157.603 33.159C156.822 33.2607 155.502 33.3264 154.843 33.8675C153.979 34.579 154.539 35.5805 155.371 36.002C156.202 36.4235 157.165 36.6866 158.048 37.0035C158.984 37.3413 161.806 37.8824 162.227 38.8809C162.856 40.3726 161.046 40.54 160.325 40.5789C159.481 40.6237 158.614 40.561 157.782 40.4175C156.542 40.2022 155.413 39.709 154.214 39.3592C153.815 39.2426 153.621 39.7897 153.943 40.0049C155.43 41.0094 163.827 43.1498 163.124 39.0842C162.817 37.3084 160.125 36.9018 158.766 36.4564C158.068 36.2292 157.359 36.0259 156.665 35.7928C156.024 35.5745 154.608 35.3981 155.684 34.2024C156.053 33.7928 157.767 33.7091 158.206 33.6732C158.912 33.6164 159.624 33.6194 160.334 33.6045C160.542 33.6015 160.605 33.2667 160.385 33.2248L160.387 33.2278Z" fill="black"/>
<path d="M145.089 84.4884C144.836 89.1609 145.006 93.8903 145.009 98.5688C145.012 103.247 144.594 107.755 145.438 112.126C145.483 112.353 145.852 112.353 145.897 112.126C146.744 107.752 146.323 103.035 146.326 98.5688C146.329 94.1025 146.502 89.158 146.246 84.4884C146.204 83.741 145.128 83.738 145.086 84.4884H145.089Z" fill="black"/>
<path d="M109.182 116.807C112.262 112.466 116.271 109.044 121.371 107.343C126.444 105.65 131.988 105.899 136.939 107.905C139.539 108.957 142.01 110.505 144.019 112.475C146.028 114.446 147.745 117.821 144.722 119.614C142.537 120.912 139.592 120.699 137.154 120.702C134.132 120.705 131.109 120.577 128.095 120.311C124.584 120.003 121.088 119.507 117.627 118.828C115.868 118.484 114.101 118.123 112.372 117.65C111.308 117.36 109.871 116.969 109.108 116.144C108.759 115.764 108.157 116.251 108.404 116.688C109.659 118.906 112.819 119.276 115.022 119.761C118.593 120.544 122.203 121.133 125.836 121.534C129.687 121.958 133.559 122.161 137.434 122.137C140.057 122.119 143.086 122.236 145.429 120.837C147.53 119.581 148.254 117.217 147.396 114.945C146.38 112.251 143.831 110.242 141.491 108.73C136.331 105.396 129.905 104.102 123.875 105.286C117.555 106.529 111.397 110.556 108.19 116.23C107.82 116.885 108.759 117.405 109.179 116.81L109.182 116.807Z" fill="black"/>
<path d="M145.455 112.099C146.233 112.159 146.537 111.453 147.014 110.909C147.688 110.144 148.373 109.39 149.08 108.658C150.549 107.136 152.108 105.701 153.742 104.356C156.976 101.695 160.517 99.4055 164.252 97.5221C172.041 93.597 180.235 91.9468 188.867 91.3369C189.326 91.304 189.332 90.6374 188.867 90.6165C180.357 90.2009 171.51 92.7569 163.948 96.5326C160.123 98.4429 156.514 100.778 153.199 103.483C151.5 104.87 149.882 106.356 148.358 107.934C147.595 108.724 146.856 109.534 146.153 110.38C145.691 110.936 145.142 111.292 145.36 112.03C145.372 112.075 145.41 112.099 145.455 112.102V112.099Z" fill="black"/>
<path d="M188.739 91.1249C186.68 91.4926 184.668 92.3446 182.709 93.0651C180.843 93.7497 178.992 94.4731 177.168 95.2593C173.382 96.8946 169.695 98.8258 166.389 101.31C160.964 105.385 155.688 111.543 154.729 118.523C154.639 119.178 155.572 119.492 155.754 118.807C156.657 115.364 157.861 112.24 159.951 109.325C162.115 106.308 164.857 103.714 167.886 101.585C171.075 99.3429 174.569 97.5702 178.152 96.0545C179.997 95.2743 181.869 94.5598 183.75 93.8782C185.514 93.2385 187.374 92.7183 189.037 91.8364C189.449 91.6182 189.148 91.0532 188.739 91.1249Z" fill="black"/>
<path d="M145.728 100.829C146.556 99.5165 146.878 97.8634 147.463 96.4314C148.16 94.7214 148.962 93.0533 149.868 91.445C151.582 88.4047 153.642 85.5797 156.059 83.0625C161.055 77.8638 167.234 74.6053 173.878 72.0224C174.081 71.9447 174.006 71.6458 173.786 71.6906C166.805 73.1255 160.366 77.3497 155.436 82.4347C152.965 84.9848 150.801 87.8666 149.072 90.9727C148.258 92.4375 147.531 93.9531 146.908 95.5137C146.285 97.0742 145.394 98.9994 145.448 100.751C145.454 100.901 145.647 100.954 145.728 100.826V100.829Z" fill="black"/>
<path d="M172.471 72.1658C171.258 72.5305 170.191 73.6037 169.222 74.4019C167.991 75.4183 166.808 76.4915 165.681 77.6246C163.52 79.8069 161.55 82.1775 159.794 84.6976C156.268 89.7588 153.114 95.7945 153.821 102.156C153.892 102.811 154.92 102.823 154.855 102.156C154.22 95.8842 157.4 90.0189 160.876 85.0384C162.581 82.593 164.501 80.3031 166.599 78.1866C167.604 77.1731 168.641 76.1896 169.717 75.2509C170.716 74.378 172.009 73.6396 172.757 72.5395C172.883 72.3541 172.674 72.103 172.468 72.1628L172.471 72.1658Z" fill="black"/>
<path d="M123.624 104.882C122.322 100.855 119.141 97.2621 115.937 94.6164C112.733 91.9707 108.592 89.5104 104.41 88.8707C103.883 88.7899 103.671 89.4955 104.187 89.6808C108.252 91.1546 112.008 92.6852 115.376 95.4953C118.652 98.2277 120.813 101.567 123.106 105.103C123.273 105.361 123.726 105.205 123.621 104.885L123.624 104.882Z" fill="black"/>
<path d="M104.392 89.7169C108.911 89.1609 113.227 89.125 117.615 90.536C122.003 91.947 125.899 94.4941 129.002 97.8871C129.482 98.4133 130.242 97.636 129.777 97.1099C123.821 90.3566 113.147 86.297 104.303 89.0473C103.957 89.1549 103.999 89.7647 104.392 89.7139V89.7169Z" fill="black"/>
<path d="M116.566 108.966C115.714 110.015 116.34 111.489 117.41 112.156C119.732 113.605 122.465 111.638 124.874 111.893C126.203 112.033 127.342 112.786 128.632 113.082C129.768 113.342 130.916 113.238 132.036 112.96C135.056 112.206 138.046 110.852 140.943 109.725C141.441 109.531 141.235 108.721 140.719 108.909C138.523 109.698 136.353 110.562 134.159 111.363C131.965 112.165 129.875 112.685 127.532 111.782C125.896 111.151 124.558 110.84 122.823 111.226C121.696 111.477 120.563 111.973 119.392 111.97C117.773 111.964 116.56 110.786 116.837 109.127C116.861 108.987 116.682 108.831 116.569 108.972L116.566 108.966Z" fill="black"/>
<path d="M301.627 98.4759C301.031 99.5431 301.007 100.906 300.873 102.111C300.694 103.696 300.601 105.289 300.718 106.882C300.905 109.393 301.37 112.344 302.709 114.517C303.066 115.097 303.991 114.727 303.815 114.051C303.12 111.426 302.181 109.133 302.038 106.362C301.97 105.041 302.008 103.719 302.119 102.404C302.229 101.089 302.601 99.8092 302.315 98.5716C302.244 98.2577 301.788 98.2068 301.633 98.4819L301.627 98.4759Z" fill="black"/>
<path d="M303.63 114.912C304.903 114.909 306.164 114.377 307.425 114.18C308.954 113.94 310.495 113.902 312.039 113.985L311.702 112.739L311.315 112.957C311.043 113.109 311.04 113.534 311.315 113.683L311.702 113.896C312.656 114.416 313.154 112.709 312.039 112.649C310.554 112.568 309.076 112.613 307.6 112.822C306.217 113.017 304.539 113.208 303.398 114.057C303.055 114.314 303.138 114.912 303.627 114.912H303.63Z" fill="black"/>
<path d="M303.238 113.815C301.062 112.009 296.895 112.356 294.305 112.813C293.539 112.948 293.706 114.269 294.49 114.188C294.785 114.159 294.928 114.144 295.202 114.045C295.411 113.97 295.563 113.716 295.423 113.504C295.274 113.28 295.19 113.178 294.984 112.993L294.677 114.165C296.111 113.907 297.554 113.83 299.006 113.97C300.308 114.099 301.602 114.673 302.898 114.64C303.283 114.631 303.578 114.096 303.238 113.815Z" fill="black"/>
<path d="M303.594 114.275L303.505 114.069C303.418 113.872 303.171 113.77 302.971 113.761C301.57 113.713 300.163 114.06 298.882 114.61C297.853 115.053 296.5 115.651 295.99 116.7C295.805 117.083 296.112 117.564 296.56 117.441C297.335 117.229 297.907 116.655 298.61 116.272C299.478 115.8 300.414 115.462 301.376 115.25C301.648 115.19 303.985 115.16 303.597 114.272L303.594 114.275Z" fill="black"/>
<path d="M313.252 98.6347C312.909 104.276 313.225 110.036 313.303 115.687C313.315 116.551 314.653 116.554 314.644 115.687C314.591 110.033 314.772 104.267 314.301 98.6347C314.245 97.965 313.294 97.9531 313.252 98.6347Z" fill="black"/>
<path d="M313.828 115.286C312.224 114.679 309.804 115.411 308.182 115.773C306.561 116.135 304.021 116.46 302.867 117.722C302.545 118.075 302.981 118.738 303.407 118.422L303.639 118.248C303.908 118.048 303.824 117.629 303.467 117.608L303.183 117.59V118.481C304.075 118.559 304.823 118.144 305.666 117.871C306.614 117.567 307.574 117.3 308.546 117.076C309.425 116.873 310.316 116.703 311.211 116.562C312.105 116.422 313.088 116.425 313.92 115.955C314.215 115.788 314.114 115.39 313.834 115.283L313.828 115.286Z" fill="black"/>
<path d="M313.401 115.863C312.301 115.525 310.918 116.849 310.096 117.477C309.011 118.305 307.938 119.238 307.121 120.335C306.569 121.074 308.107 121.749 308.265 120.819L308.319 120.5C308.373 120.18 308.131 119.893 307.794 119.973L307.493 120.045L308.101 121.094C309.136 120.129 310.075 119.124 311.219 118.281C311.991 117.713 313.36 117.265 313.646 116.296C313.702 116.108 313.58 115.917 313.398 115.86L313.401 115.863Z" fill="black"/>
<path d="M314.222 116.117L314.383 116.32C314.523 116.497 314.788 116.524 314.991 116.482C317.656 115.914 320.267 116.153 322.786 117.193L322.493 116.081L322.291 116.278C322.079 116.485 322.168 116.775 322.374 116.933L322.625 117.127C323.316 117.663 324.106 116.308 323.137 115.911C320.41 114.799 317.518 114.586 314.657 115.274C314.469 115.319 314.252 115.507 314.222 115.71C314.204 115.836 314.132 116.003 314.222 116.114V116.117Z" fill="black"/>
<path d="M282.637 17.4646C283.358 16.7381 284.222 16.1582 285.298 16.4422C286.374 16.7262 286.98 17.7785 286.977 18.8367C286.977 19.5422 288.076 19.5452 288.07 18.8367C288.059 17.348 287.179 15.8981 285.713 15.4467C284.345 15.0252 282.565 15.5603 281.9 16.8966C281.671 17.3599 282.243 17.8592 282.637 17.4646Z" fill="black"/>
<path d="M261.412 46.1933C259.737 45.5864 258.813 50.1723 258.673 51.1588C258.294 53.7985 258.714 56.501 259.728 58.9583C261.692 63.7235 266.408 67.2003 271.594 67.3886C271.815 67.3976 272.107 67.2541 272.199 67.0418C272.292 66.8296 272.345 66.7279 272.271 66.5007C272.164 66.1808 271.922 66.0164 271.597 65.9865C266.527 65.4933 262.273 62.3364 260.658 57.4247C259.898 55.1168 259.659 52.5877 260.243 50.2111C260.515 49.105 261.159 48.1962 261.507 47.1439C261.564 46.9735 261.743 46.3099 261.415 46.1903L261.412 46.1933Z" fill="black"/>
<path d="M268.118 66.2077C266.541 69.9864 267.721 74.5543 270.38 77.5318C271.689 78.9966 273.361 80.1117 275.173 80.8531C276.446 81.3733 279.329 82.4853 280.578 81.5317C280.768 81.3852 280.896 81.0594 280.661 80.871C280.142 80.4525 279.898 80.4734 279.215 80.4107C278.288 80.327 277.373 80.1326 276.488 79.8426C274.75 79.2717 273.129 78.315 271.823 77.0236C268.961 74.1896 268.341 70.3092 269.197 66.5066C269.361 65.7832 268.389 65.559 268.118 66.2077Z" fill="black"/>
<path d="M261.602 46.1575C260.162 42.4117 258.955 37.8528 262.171 34.6302C262.871 33.9276 263.772 33.3686 264.755 33.2012C265.608 33.0547 266.55 33.2251 267.006 34.092C267.271 34.5973 266.779 35.518 266.606 36.0382C266.049 37.7243 265.831 39.4731 265.995 41.2458C266.651 48.3189 272.195 53.2874 278.467 55.7418C279.275 56.0586 279.629 54.7493 278.825 54.4384C274.598 52.8031 270.66 50.002 268.609 45.8436C267.521 43.6374 267.024 41.1143 267.313 38.6629C267.506 37.0157 268.904 34.8514 267.98 33.243C266.091 29.9606 261.53 33.0547 260.177 35.1922C257.983 38.66 258.704 43.18 260.785 46.5043C261.041 46.9139 261.792 46.6538 261.602 46.1575Z" fill="black"/>
<path d="M260.404 45.3952C260.83 46.872 262.123 48.6358 263.656 49.0872C264.347 49.2905 264.609 48.3847 264.112 48.005C263.548 47.5745 262.931 47.2875 262.419 46.7763C261.906 46.2651 261.542 45.6822 261.199 45.0604C260.961 44.6299 260.269 44.9199 260.406 45.3952H260.404Z" fill="black"/>
<path d="M284.414 11.6708C285.841 11.2702 287.147 10.7859 288.539 11.6708C289.219 12.1013 289.663 12.7769 289.94 13.5213C290.116 13.9966 290.152 14.3583 290.521 14.6961C290.566 14.738 290.638 14.732 290.67 14.6782C291.484 13.2672 289.824 11.3898 288.64 10.7919C287.299 10.1133 285.21 10.185 284.345 11.5841C284.315 11.6319 284.363 11.6917 284.417 11.6768L284.414 11.6708Z" fill="black"/>
<path d="M266.529 36.6597C265.721 38.6088 264.704 40.1275 262.931 41.3143C262.385 41.679 262.883 42.5579 263.45 42.2022C265.292 41.0512 266.901 39.0513 267.307 36.875C267.405 36.3518 266.725 36.1844 266.529 36.6597Z" fill="black"/>
<path d="M261.084 20.8278C259.987 19.339 258.115 18.481 256.422 17.8533C254.729 17.2255 252.261 16.4901 250.458 17.1089C250.261 17.1776 250.252 17.4557 250.458 17.5214C252.234 18.0745 254.172 17.9579 255.981 18.5349C257.79 19.1118 259.29 20.197 261.018 20.9115C261.066 20.9294 261.114 20.8636 261.084 20.8248V20.8278Z" fill="black"/>
<path d="M264.034 16.3822C264.612 14.3464 263.628 11.7067 262.913 9.80243C262.54 8.80395 262.102 7.82939 261.607 6.88471C261.151 6.01478 260.824 5.06413 259.861 4.72333C259.658 4.65158 259.485 4.83693 259.47 5.01929C259.402 5.91015 259.998 6.52 260.415 7.2853C260.996 8.34955 261.506 9.45566 261.932 10.5917C262.63 12.4481 262.788 14.6962 263.769 16.4121C263.831 16.5198 263.998 16.4958 264.031 16.3793L264.034 16.3822Z" fill="black"/>
<path d="M0.431467 117.289C5.64484 117.564 10.8999 117.441 16.1223 117.444C21.3535 117.45 26.5818 117.456 31.8131 117.459C42.2726 117.471 52.7321 117.48 63.1917 117.486C66.0532 117.486 68.9148 117.489 71.7763 117.492C74.6528 117.492 77.6425 117.734 80.4921 117.322C80.966 117.253 80.966 116.431 80.4921 116.362C78.1164 116.018 75.6543 116.189 73.2548 116.189C70.59 116.189 67.9251 116.189 65.2633 116.192C60.0321 116.192 54.8038 116.195 49.5725 116.201C39.113 116.213 28.6534 116.222 18.1939 116.234C12.286 116.24 6.3334 116.081 0.431467 116.392C-0.143822 116.422 -0.143822 117.259 0.431467 117.289Z" fill="black"/>
<path d="M61.8187 108.709C64.0394 109.002 66.3763 108.858 68.6149 108.861C70.8802 108.867 73.1456 108.87 75.411 108.876C79.9418 108.885 84.4726 108.897 89.0034 108.897C98.0619 108.897 107.135 108.999 116.188 108.784C116.817 108.769 116.817 107.818 116.188 107.803C107.135 107.588 98.0619 107.69 89.0034 107.69C84.4726 107.69 79.9418 107.701 75.411 107.71C73.244 107.716 71.077 107.719 68.91 107.725C66.576 107.731 64.1348 107.573 61.8187 107.881C61.2911 107.95 61.2881 108.637 61.8187 108.709Z" fill="black"/>
<path d="M178.65 107.25C183.151 107.671 187.789 107.399 192.305 107.405C196.821 107.411 201.211 107.417 205.665 107.423C210.118 107.429 214.571 107.435 219.025 107.441C223.478 107.447 228.217 107.818 232.679 107.238C233.252 107.163 233.255 106.416 232.679 106.341C228.214 105.761 223.52 106.132 219.025 106.138L205.665 106.156L192.305 106.174C187.786 106.18 183.151 105.908 178.65 106.329C178.057 106.386 178.057 107.199 178.65 107.253V107.25Z" fill="black"/>
<path d="M291.503 118.727C289.738 118.404 287.869 118.547 286.081 118.535C284.11 118.52 282.14 118.511 280.17 118.508C276.328 118.502 272.485 118.499 268.643 118.493C260.845 118.485 253.081 118.452 245.298 118.903C245.041 118.918 245.041 119.289 245.298 119.304C253.081 119.758 260.845 119.725 268.643 119.713C272.485 119.707 276.328 119.704 280.17 119.698C282.14 119.698 284.11 119.683 286.081 119.671C287.869 119.659 289.738 119.8 291.503 119.48C291.872 119.411 291.872 118.798 291.503 118.73V118.727Z" fill="black"/>
<path d="M182.687 27.7152C181.897 29.8048 181.575 32.1845 181.214 34.3847C180.854 36.585 180.6 38.6208 180.409 40.7523C180.207 43.0243 180.096 45.3022 180.079 47.5802C180.064 49.3978 179.742 51.7804 180.481 53.4695C180.621 53.7893 181.089 53.6638 181.175 53.3768C181.474 52.4172 181.295 51.4247 181.265 50.4292C181.235 49.3859 181.226 48.3395 181.235 47.2962C181.253 45.1109 181.357 42.9286 181.545 40.7523C181.736 38.5311 182.013 36.3189 182.383 34.1186C182.752 31.9184 183.322 29.9394 183.563 27.8348C183.626 27.2967 182.851 27.2787 182.684 27.7152H182.687Z" fill="black"/>
<path d="M129.235 19.315C129.709 18.759 129.647 18.3913 129.659 17.6559C129.671 16.9205 129.682 16.1671 129.677 15.4227C129.671 14.8278 128.758 14.8278 128.755 15.4227C128.75 16.1671 128.761 16.9115 128.776 17.6559C128.791 18.4003 128.726 18.759 129.2 19.315C129.209 19.327 129.229 19.327 129.238 19.315H129.235Z" fill="black"/>
<path d="M129.333 15.7994C131.905 15.8353 134.454 15.5214 137.035 15.6529C139.753 15.7904 142.445 16.197 145.095 16.8098C145.733 16.9593 146.007 15.9728 145.366 15.8233C142.719 15.2105 140.037 14.8099 137.321 14.6694C134.606 14.5289 131.816 14.4512 129.24 15.1178C128.859 15.2165 128.945 15.7934 129.333 15.7994Z" fill="black"/>
<path d="M145.036 16.1041C144.812 18.1937 144.949 20.382 144.979 22.4806C144.988 23.0934 145.921 23.0934 145.93 22.4806C145.96 20.379 146.097 18.1937 145.873 16.1041C145.817 15.563 145.092 15.563 145.036 16.1041Z" fill="black"/>
<path d="M504.589 54.8388C504.091 65.4096 504.41 76.058 504.404 86.6378C504.401 91.8873 504.407 97.1398 504.413 102.389C504.413 104.966 504.413 107.54 504.422 110.117C504.431 112.694 504.255 115.405 504.609 117.964C504.669 118.395 505.417 118.395 505.48 117.964C505.835 115.405 505.662 112.697 505.668 110.117C505.674 107.537 505.674 104.966 505.677 102.389C505.682 97.1398 505.691 91.8873 505.685 86.6378C505.677 76.0551 505.995 65.4096 505.501 54.8388C505.474 54.2499 504.612 54.2469 504.586 54.8388H504.589Z" fill="black"/>
<path d="M488.323 56.2318C488.058 61.2691 488.249 66.3661 488.24 71.4124C488.231 76.4586 488.231 81.5317 488.231 86.5929C488.231 91.654 488.231 96.5149 488.228 101.474C488.228 104.054 488.228 106.634 488.228 109.214C488.228 110.404 488.222 111.597 488.228 112.787C488.234 114.102 488.416 115.16 488.639 116.428C488.684 116.679 489.101 116.679 489.146 116.428C489.369 115.151 489.548 114.123 489.557 112.787C489.563 111.597 489.557 110.404 489.557 109.214C489.557 106.733 489.557 104.255 489.557 101.773C489.557 96.7122 489.557 91.654 489.554 86.5929C489.554 81.6333 489.554 76.6708 489.545 71.7113C489.536 66.5664 489.733 61.3707 489.462 56.2318C489.423 55.5054 488.377 55.5054 488.338 56.2318H488.323Z" fill="black"/>
<path d="M451.161 34.594C457.322 34.1874 463.486 33.0066 469.594 32.1336C475.681 31.2637 481.764 30.3938 487.851 29.5268C493.938 28.6599 500.022 27.787 506.108 26.92C509.25 26.4716 512.389 26.0232 515.531 25.5747L520.243 24.9021C521.626 24.7048 523.152 24.6929 524.398 24.0292C524.705 23.8648 524.649 23.3416 524.3 23.2669C523.033 23.0008 521.745 23.3476 520.479 23.527L515.766 24.1996L506.344 25.5449L488.087 28.1517C482 29.0216 475.916 29.8885 469.829 30.7585C463.585 31.6493 457.194 32.2502 451.03 33.6134C450.487 33.733 450.597 34.6358 451.164 34.597L451.161 34.594Z" fill="black"/>
<path d="M523.662 24.0385C527.6 25.7754 531.68 27.2193 535.695 28.7708C539.711 30.3224 543.991 32.0503 548.176 33.5809C548.93 33.8559 549.222 32.684 548.504 32.3911C544.465 30.7528 540.369 29.2462 536.301 27.6797C532.241 26.1162 528.205 24.4212 524.076 23.049C523.507 22.8607 523.099 23.7874 523.662 24.0355V24.0385Z" fill="black"/>
<path d="M547.076 33.1382C540.563 38.298 534.592 44.3188 528.819 50.2828C528.205 50.9166 529.102 51.7357 529.757 51.2245C530.413 50.7133 531.012 50.238 531.591 49.6819C532.071 49.2216 531.457 48.4562 530.893 48.7731C530.61 48.9376 530.321 49.093 530.026 49.2395C529.561 49.4786 529.886 50.2141 530.377 50.0795C530.693 49.9869 531.015 49.9032 531.337 49.8314L530.893 48.7731C530.166 49.2305 529.495 49.7537 528.819 50.2828L529.757 51.2245C535.567 45.1947 541.797 39.6792 547.881 33.9454C548.429 33.4282 547.636 32.6958 547.076 33.1382Z" fill="black"/>
<path d="M529.194 50.9552C527.209 50.2258 524.413 50.9941 522.35 51.2063C519.885 51.4575 517.423 51.7235 514.961 51.9896C510.034 52.5187 505.106 53.0508 500.182 53.58C490.229 54.6502 480.279 55.7234 470.327 56.7937C467.566 57.0896 464.809 57.3886 462.049 57.6845C459.378 57.9715 456.526 58.0163 453.917 58.674C453.288 58.8325 453.443 59.7622 454.066 59.7831C456.502 59.8608 459.035 59.3556 461.456 59.0955C463.918 58.8295 466.383 58.5634 468.845 58.2974C473.772 57.7652 478.7 57.2331 483.624 56.701C493.577 55.6248 503.526 54.5486 513.479 53.4724C516.24 53.1734 519 52.8834 521.757 52.5695C523.137 52.4111 524.517 52.2676 525.894 52.0882C527.036 51.9388 528.243 51.8999 529.23 51.2691C529.358 51.1884 529.325 51.012 529.191 50.9612L529.194 50.9552Z" fill="black"/>
<path d="M451.089 34.4116C451.321 36.4235 451.881 38.4175 452.221 40.4144C452.612 42.7044 452.907 45.0122 453.107 47.3291C453.285 49.4097 453.387 51.4994 453.414 53.589C453.429 54.728 453.417 55.87 453.387 57.009C453.36 58.0044 453.181 58.9999 453.476 59.9566C453.563 60.2406 454.034 60.3661 454.171 60.0492C454.91 58.3602 454.588 55.9806 454.573 54.16C454.555 51.879 454.442 49.6011 454.242 47.3321C454.054 45.2006 453.783 43.075 453.437 40.9645C453.077 38.7672 452.755 36.3846 451.965 34.295C451.801 33.8645 451.023 33.8705 451.086 34.4146L451.089 34.4116Z" fill="black"/>
<path d="M505.462 25.8917C505.936 25.3356 505.873 24.9679 505.885 24.2325C505.897 23.4971 505.912 22.7438 505.906 21.9994C505.9 21.4045 504.991 21.4045 504.985 21.9994C504.976 22.7438 504.991 23.4882 505.003 24.2325C505.015 24.9769 504.952 25.3356 505.426 25.8917C505.435 25.9036 505.456 25.9036 505.465 25.8917H505.462Z" fill="black"/>
<path d="M505.414 21.6945C502.845 21.0308 499.969 21.1115 497.334 21.2461C494.699 21.3806 491.935 21.7842 489.288 22.4C488.651 22.5495 488.919 23.536 489.56 23.3865C492.213 22.7707 494.901 22.3671 497.62 22.2296C500.338 22.0921 502.75 22.4119 505.322 22.3761C505.707 22.3701 505.799 21.7931 505.414 21.6945Z" fill="black"/>
<path d="M488.782 22.6812C488.558 24.7708 488.695 26.9591 488.725 29.0577C488.734 29.6706 489.667 29.6706 489.676 29.0577C489.706 26.9561 489.843 24.7708 489.619 22.6812C489.563 22.1401 488.838 22.1401 488.782 22.6812Z" fill="black"/>
<path d="M466.986 38.5673C466.614 39.5658 466.939 40.7556 467.055 41.8019C467.192 43.0486 467.341 44.2952 467.487 45.5418C467.621 46.6927 467.755 47.8437 467.898 48.9946C468.027 50.029 467.979 51.165 468.557 52.0498L469.171 51.6911L469.046 51.4729C468.939 51.2905 468.608 51.3055 468.566 51.5357L468.521 51.7748C468.438 52.2232 469.055 52.3996 469.207 51.9631C469.562 50.9408 469.219 49.7629 469.091 48.7046C468.939 47.458 468.775 46.2114 468.614 44.9648C468.483 43.9544 468.354 42.9439 468.22 41.9335C468.071 40.8214 468.11 39.4373 467.466 38.5046C467.332 38.3103 467.067 38.3521 466.986 38.5673Z" fill="black"/>
<path d="M467.183 39.1383C470.375 38.6839 473.577 37.9096 476.718 37.1772L476.006 36.6331L476.024 36.8663C476.045 37.1084 476.256 37.3207 476.516 37.24L476.718 37.1772C477.416 36.9589 477.127 35.9515 476.42 36.089C473.258 36.7019 470.018 37.2968 466.921 38.1846C466.295 38.364 466.572 39.225 467.183 39.1383Z" fill="black"/>
<path d="M468.667 46.253C470.596 46.2829 472.655 45.6551 474.545 45.2994C475.365 45.1439 474.784 43.7 473.997 44.3577L473.755 44.549C473.6 44.6656 473.579 44.8809 473.755 44.9975C473.878 45.0722 473.997 45.1559 474.11 45.2426L474.244 44.2112C472.396 44.573 470.304 44.7463 468.56 45.4698C468.166 45.6312 468.184 46.2471 468.667 46.253Z" fill="black"/>
<path d="M468.737 52.1662C470.552 52.3694 472.612 51.7297 474.397 51.4098C476.338 51.063 478.624 50.9614 480.442 50.1991C480.913 50.0018 480.883 49.2963 480.317 49.2694C478.38 49.1827 476.275 49.8553 474.367 50.1961C472.46 50.5369 470.266 50.6475 468.561 51.5055C468.215 51.6789 468.427 52.1303 468.74 52.1662H468.737Z" fill="black"/>
<path d="M481.789 42.5074C481.556 43.5059 482.039 44.4924 482.209 45.4879C482.447 46.8959 482.373 48.28 482.504 49.6881C482.579 50.4713 483.753 50.274 483.541 49.5476L483.422 49.135C483.297 48.7045 482.698 48.8899 482.763 49.3174L482.799 49.5446C482.835 49.7688 483.172 49.7897 483.273 49.6074L483.389 49.3981L482.802 49.0543L482.582 49.422L483.547 49.8286C483.789 48.5551 483.661 47.2098 483.482 45.9333C483.318 44.7764 483.222 43.171 482.304 42.3728C482.14 42.2294 481.851 42.2712 481.798 42.5074H481.789Z" fill="black"/>
<path d="M483.245 45.6463C483.699 44.7435 483.931 43.7899 484.652 43.0425C485.901 41.7541 487.887 41.5837 488.542 43.4879C488.861 44.4207 489.013 45.4311 489.171 46.3997C489.329 47.3683 489.189 48.3907 489.91 49.1141C490.042 49.2457 490.256 49.2098 490.352 49.0573L490.384 49.0035C490.495 48.8212 490.307 48.5401 490.092 48.6238L490.036 48.6448L490.352 49.0573C491.162 47.8496 490.256 45.2697 489.928 43.9573C489.618 42.7226 489.106 41.3774 487.785 40.9409C485.32 40.1248 481.943 43.0037 482.822 45.5895C482.882 45.7659 483.153 45.8377 483.251 45.6463H483.245Z" fill="black"/>
<path d="M489.869 43.0245C490.28 39.8258 494 39.6374 494.859 42.7046C495.255 44.1187 494.936 46.3398 495.985 47.4041C496.113 47.5356 496.364 47.5147 496.45 47.3443C496.802 46.6687 496.659 46.2501 496.543 45.4878C496.409 44.603 496.304 43.7031 496.108 42.8302C495.8 41.476 495.133 40.2324 493.815 39.6494C491.511 38.63 488.697 40.4267 489.01 43.0275C489.076 43.5835 489.8 43.5806 489.869 43.0275V43.0245Z" fill="black"/>
<path d="M505.023 40.8092C503.008 37.1172 496.298 41.44 499.172 44.7403C500.224 45.9481 502.772 46.3008 504.194 45.7568C506.323 44.9436 506.209 42.4654 505.825 40.6149L504.662 40.9377C505.166 42.3846 505.658 43.8315 506.156 45.2814C506.403 46.0049 507.557 45.694 507.306 44.9616C506.811 43.5147 506.314 42.0648 505.825 40.6149C505.574 39.8735 504.513 40.1724 504.662 40.9377C504.883 42.0737 505.208 43.7957 504.024 44.5669C503.175 45.117 501.333 44.845 500.501 44.3487C498.742 43.2994 500.191 41.1081 501.646 40.7046C502.787 40.3877 503.586 41.0035 504.573 41.3981C504.916 41.5356 505.175 41.0902 505.023 40.8122V40.8092Z" fill="black"/>
<path d="M510.148 39.1144C510.097 40.1846 510.44 41.222 510.642 42.2683C510.872 43.4432 511.024 44.63 511.257 45.8018C511.361 46.322 512.207 46.2084 512.184 45.6763C512.088 43.5986 511.781 40.7407 510.571 39.0008C510.443 38.8155 510.16 38.8812 510.148 39.1144Z" fill="black"/>
<path d="M509.015 35.0663L509.048 35.0813L508.792 34.7464V34.7524C508.822 34.8511 508.872 34.9378 508.944 35.0125C509.018 35.0842 509.102 35.1351 509.203 35.165H509.209C509.313 35.1949 509.418 35.1949 509.522 35.165C509.62 35.1381 509.707 35.0872 509.781 35.0125L509.874 34.8929C509.928 34.8003 509.954 34.7016 509.954 34.597C509.957 34.5163 509.939 34.4415 509.904 34.3698C509.88 34.298 509.838 34.2323 509.781 34.1814C509.707 34.1097 509.62 34.0589 509.522 34.029C509.418 34.0021 509.313 34.0021 509.209 34.029H509.203C509.105 34.0589 509.018 34.1097 508.944 34.1814C508.872 34.2562 508.822 34.3399 508.792 34.4415V34.4475C508.875 34.3369 508.962 34.2233 509.045 34.1127L509.012 34.1276C508.932 34.1755 508.866 34.2412 508.819 34.3219C508.771 34.4056 508.744 34.4983 508.744 34.597C508.744 34.6956 508.768 34.7853 508.819 34.872C508.866 34.9527 508.932 35.0185 509.012 35.0663H509.015Z" fill="black"/>
<path d="M514.971 33.984C515.033 36.0318 515.519 38.1125 515.919 40.1184C516.318 42.1244 516.488 44.3934 517.516 46.0585C517.713 46.3784 518.178 46.2319 518.199 45.8731C518.321 43.9868 517.513 41.9241 517.135 40.0796C516.714 38.0198 516.476 35.8794 515.913 33.8555C515.77 33.3443 514.956 33.431 514.974 33.984H514.971Z" fill="black"/>
<path d="M349.949 113.262C353.791 113.516 357.681 113.361 361.532 113.364C365.383 113.367 369.055 113.364 372.817 113.367C380.439 113.367 388.064 113.373 395.686 113.373C410.834 113.379 425.979 113.382 441.128 113.388C445.384 113.388 449.641 113.388 453.897 113.391C458.24 113.391 462.628 113.564 466.965 113.331C467.8 113.286 467.803 112.072 466.965 112.027C459.382 111.618 451.691 111.968 444.096 111.971C436.475 111.971 428.85 111.977 421.228 111.977C406.08 111.983 390.934 111.986 375.786 111.992C371.529 111.992 367.273 111.992 363.016 111.995C358.676 111.995 354.28 111.809 349.949 112.096C349.203 112.144 349.201 113.211 349.949 113.259V113.262Z" fill="black"/>
<path d="M401.274 127.662C404.401 127.964 407.605 127.829 410.747 127.838C413.707 127.847 416.667 127.853 419.627 127.862C425.547 127.877 431.466 127.874 437.386 127.88C449.402 127.886 461.501 128.299 473.495 127.581C473.91 127.557 473.91 126.962 473.495 126.936C461.501 126.218 449.402 126.631 437.386 126.637C431.466 126.64 425.547 126.637 419.627 126.655L410.747 126.678C407.608 126.687 404.404 126.55 401.274 126.855C400.752 126.906 400.752 127.617 401.274 127.668V127.662Z" fill="black"/>
<path d="M528.376 119.803C531.243 120.577 534.609 120.129 537.554 120.135C540.782 120.141 544.01 120.147 547.238 120.147C553.686 120.147 560.172 120.344 566.607 119.919C567.129 119.887 567.129 119.142 566.607 119.106C560.172 118.682 553.686 118.882 547.238 118.879C544.108 118.879 540.976 118.882 537.846 118.888C536.182 118.891 534.519 118.894 532.856 118.897C531.363 118.9 529.827 118.828 528.373 119.22C528.087 119.298 528.087 119.725 528.373 119.8L528.376 119.803Z" fill="black"/>
<path d="M488.626 117.406C490.748 119.669 493.869 121.02 496.936 121.247C499.723 121.456 503.61 120.691 505.581 118.542C506.066 118.009 505.461 117.346 504.856 117.6C503.542 118.156 502.424 119.002 501.029 119.426C499.702 119.83 498.319 120 496.936 119.908C493.973 119.71 491.595 118.293 489.303 116.521C488.784 116.12 488.209 116.957 488.626 117.4V117.406Z" fill="black"/>
<path d="M489.548 109.432C489.634 107.289 488.34 104.93 487.178 103.199C485.857 101.232 484.188 99.5162 482.313 98.0723C480.054 96.3324 477.517 95.0021 474.906 93.881C472.474 92.8377 469.776 91.615 467.129 91.3161C466.938 91.2951 466.891 91.5732 467.037 91.6628C469.275 93.026 472.024 93.6658 474.426 94.7031C476.829 95.7405 479.028 96.8825 481.088 98.3712C483.049 99.7852 484.841 101.501 486.227 103.492C487.613 105.483 488.084 107.495 489.029 109.573C489.151 109.839 489.533 109.683 489.545 109.432H489.548Z" fill="black"/>
<path d="M467.093 92.306C476.822 95.7319 483.323 104.844 484.023 115.05C484.074 115.779 485.186 115.797 485.168 115.05C484.915 104.497 477.227 94.6497 467.355 91.3404C466.741 91.1341 466.488 92.0937 467.09 92.306H467.093Z" fill="black"/>
<path d="M483.387 107.699C482.743 106.584 481.268 105.923 480.168 105.337C478.764 104.593 477.291 104.01 475.759 103.588C474.307 103.191 472.82 102.93 471.318 102.838C469.973 102.757 468.346 102.62 467.097 103.214C466.975 103.274 467.011 103.472 467.136 103.501C468.31 103.794 469.622 103.591 470.832 103.678C472.415 103.791 473.989 104.049 475.518 104.47C476.966 104.868 478.394 105.4 479.744 106.06C480.892 106.622 481.989 107.618 483.226 107.905C483.345 107.932 483.452 107.806 483.387 107.693V107.699Z" fill="black"/>
<path d="M467.482 103.49C470.608 104.679 473.658 106.075 476.391 108.028C477.73 108.984 478.97 110.093 479.9 111.462C480.949 113.005 480.973 114.518 481.494 116.213C481.628 116.649 482.225 116.634 482.365 116.213C483.408 113.071 480.15 109.424 477.932 107.666C474.96 105.316 471.389 103.516 467.783 102.392C467.076 102.171 466.814 103.232 467.482 103.487V103.49Z" fill="black"/>
<path d="M492.732 58.3124C492.654 58.3812 492.577 58.4081 492.514 58.5008C492.431 58.6263 492.428 58.7788 492.419 58.9253C492.401 59.2481 492.467 59.562 492.574 59.861C492.601 59.9327 492.705 59.9596 492.747 59.8849C492.89 59.6218 492.997 59.3408 493.033 59.0389C493.048 58.9073 493.072 58.7459 493.039 58.6144C493 58.4589 492.902 58.4201 492.812 58.3124C492.792 58.2855 492.75 58.2915 492.729 58.3124H492.732Z" fill="black"/>
<path d="M492.755 58.5099C491.828 60.0584 492.195 61.8999 492.651 63.5531C493.011 64.8685 493.339 66.127 493.426 67.4992C493.497 68.6262 493.223 69.825 493.518 70.9072C493.56 71.0567 493.772 71.0866 493.849 70.952C494.707 69.4454 494.239 67.0837 493.894 65.4574C493.393 63.0987 492.254 61.042 492.91 58.5786C492.937 58.483 492.803 58.4262 492.749 58.5099H492.755Z" fill="black"/>
<path d="M499.816 76.3242C499.172 77.9116 498.88 79.6963 499.172 81.4093C499.53 83.5019 500.922 85.2178 500.987 87.3852C501.068 90.01 499.479 94.1205 502.111 96.0308C502.338 96.1952 502.558 95.8873 502.46 95.681C501.762 94.2042 501.458 92.8828 501.613 91.2446C501.768 89.6064 502.15 88.0369 501.902 86.4226C501.655 84.8083 500.764 83.6544 500.242 82.2015C499.557 80.2912 500.105 78.3331 500.168 76.375C500.174 76.1568 499.887 76.1538 499.819 76.3272L499.816 76.3242Z" fill="black"/>
<path d="M493.701 89.4688C493.415 91.5524 492.994 94.1682 493.689 96.213C494.055 97.2922 494.786 98.1293 495.006 99.2832C495.313 100.895 494.723 102.132 494.172 103.585C494.085 103.812 494.419 103.992 494.574 103.821C495.898 102.374 495.886 99.9797 495.2 98.2399C494.664 96.8767 493.951 95.5703 493.689 94.1144C493.426 92.6585 493.599 90.9994 493.707 89.4688C493.707 89.4658 493.701 89.4628 493.701 89.4688Z" fill="black"/>
<path d="M500.549 116.772C500.129 115.091 499.992 113.175 499.876 111.447C499.777 109.988 499.944 108.494 499.7 107.053C499.673 106.891 499.455 106.93 499.411 107.053C498.227 110.171 499.393 113.845 500.403 116.813C500.436 116.906 500.576 116.87 500.552 116.772H500.549Z" fill="black"/>
<path d="M493.807 24.0146C493.649 24.5288 493.682 25.0759 493.691 25.608C493.7 26.0923 493.711 26.5587 493.947 26.9921C493.995 27.0818 494.141 27.0848 494.188 26.9921C494.412 26.5527 494.412 26.0953 494.406 25.608C494.4 25.0759 494.418 24.5228 494.245 24.0146C494.173 23.8024 493.875 23.7934 493.807 24.0146Z" fill="black"/>
<path d="M132.716 52.0315C131.821 52.6144 131.973 53.9447 132.152 54.8804C132.525 56.8475 133.598 58.4678 133.735 60.5335C133.735 60.5783 133.804 60.6052 133.827 60.5574C134.394 59.2779 133.938 58.1778 133.461 56.9162C133.189 56.1988 132.894 55.4723 132.719 54.725C132.486 53.7295 132.808 53.018 132.802 52.0793C132.802 52.0374 132.754 52.0075 132.719 52.0315H132.716Z" fill="black"/>
<path d="M139.22 60.1749C137.873 62.2316 138.472 64.5215 139.187 66.7188C139.637 68.0999 140.096 69.4601 140.332 70.9011C140.567 72.342 140.323 73.8128 140.818 75.1043C140.862 75.2208 141.038 75.2747 141.104 75.1431C142.013 73.3345 141.208 70.4317 140.666 68.5872C139.846 65.81 138.603 63.2062 139.363 60.2346C139.384 60.148 139.271 60.1031 139.223 60.1749H139.22Z" fill="black"/>
<path d="M133.697 71.5198C131.903 74.6199 133.384 78.853 134.103 82.0487C134.565 84.1144 134.8 86.1891 134.606 88.3057C134.499 89.4776 134.278 90.6375 133.945 91.7645C133.691 92.6225 133.199 93.4147 133.247 94.3115C133.256 94.4939 133.453 94.5597 133.587 94.452C134.836 93.4446 135.11 90.9633 135.331 89.4536C135.581 87.7347 135.572 86.0068 135.322 84.2878C135.015 82.1833 134.389 80.1444 133.995 78.0548C133.575 75.8157 133.709 73.8307 133.974 71.5916C133.992 71.4421 133.769 71.4002 133.7 71.5168L133.697 71.5198Z" fill="black"/>
<path d="M139.839 104.371C139.839 103.203 139.52 102.07 139.565 100.889C139.61 99.7079 140.039 98.5868 140.021 97.4299C140.021 97.3043 139.866 97.2774 139.801 97.3701C138.617 99.0233 138.686 102.682 139.667 104.419C139.714 104.5 139.842 104.464 139.842 104.371H139.839Z" fill="black"/>
<path d="M141.295 92.0964C141.02 90.6674 140.716 89.2355 140.645 87.7796C140.579 86.4672 140.821 85.1549 140.728 83.8544C140.713 83.6571 140.409 83.5196 140.311 83.7408C139.217 86.24 139.783 89.8692 140.871 92.2728C140.985 92.5239 141.339 92.3356 141.292 92.0934L141.295 92.0964Z" fill="black"/>
<path d="M138.412 16.3136C137.485 17.9697 138.972 20.1999 140.901 19.611C140.966 19.59 140.948 19.5004 140.886 19.4944C140.114 19.4167 139.521 19.1476 139.127 18.4391C138.796 17.8442 138.847 17.2104 139.076 16.5946C139.223 16.203 138.611 15.9608 138.412 16.3136Z" fill="black"/>
<path d="M504.962 106.864C507.156 103.696 509.051 100.59 512.42 98.5088C514.092 97.4745 515.949 96.7391 517.872 96.3325C518.974 96.0993 520.101 95.9828 521.228 95.9708C522.015 95.9618 522.644 96.0993 523.365 95.7855C523.562 95.6988 523.514 95.4237 523.365 95.3251C521.946 94.3744 519.198 95.05 517.612 95.3938C515.538 95.8452 513.532 96.6584 511.737 97.8033C508.598 99.8063 505.492 103.056 504.92 106.849C504.917 106.873 504.944 106.885 504.959 106.864H504.962Z" fill="black"/>
<path d="M521.695 95.0862C517.417 96.9666 513.867 100.581 511.882 104.805C510.806 107.095 510.168 109.561 509.98 112.084C509.876 113.468 509.918 114.856 510.096 116.231C510.231 117.268 510.236 118.545 511.08 119.247C511.268 119.403 511.515 119.34 511.599 119.11C511.956 118.123 511.438 116.993 511.313 115.974C511.163 114.772 511.134 113.552 511.208 112.344C511.363 109.815 512.022 107.298 513.155 105.029C515.14 101.05 518.374 98.1115 522.273 96.0787C522.941 95.7319 522.353 94.7962 521.695 95.0862Z" fill="black"/>
</g>
<defs>
<clipPath id="clip0_226_419">
<rect width="567" height="128" fill="white"/>
</clipPath>
</defs>
</svg>
