<svg xmlns="http://www.w3.org/2000/svg" viewBox="0 0 300 67"><path fill-opacity=".5" d="m79.2 58.7-.5-34-2.9 36.6-35.3-2.8zm133.5 8.7h37.5v1.2h-37.5z"/><path fill="none" stroke="#000" stroke-opacity=".5" stroke-width=".6" d="M191.5 26.5q-24.3 44-62.6 37.3"/><path fill-opacity=".5" d="m192.2 61.2 55-2.9v1.2l-55 2.9zm65.8-26 2.5-20-.8 29.3v41.6z"/><path fill="none" stroke="#000" stroke-opacity=".5" stroke-width=".6" d="M100.3-18.2Q61.1-.2 70.6 65.1"/><path fill-opacity=".5" d="m151.9 80-6-61.5 16-36.7L147.1 13z"/><path fill="none" stroke="#000" stroke-opacity=".5" stroke-width=".6" d="M234.5 20.1q34.8-6.5 51.5-7"/><path fill="none" stroke="#000" stroke-opacity=".5" stroke-width=".6" d="M270 81.8Q265.8 31 270 3M108 22.1Q62.6.8 39.5 19.6"/><path fill-opacity=".5" d="M167.6 55.5 166 45l6.2 9.3-20-16.4z"/><path fill="none" stroke="#000" stroke-opacity=".5" stroke-width=".6" d="M165.7 65q1.5-32.6 24.6-39.8"/><path fill-opacity=".5" d="m136 19.8 14.8 15.6L141 21l-2.4 10.2z"/><path fill="none" stroke="#000" stroke-opacity=".5" stroke-width=".6" d="M-5.1 62q7.2-1 87.4 3"/><path fill-opacity=".5" d="M171 52.3 161.8 66l-8-32.6 10.5 32.3z"/><path fill="none" stroke="#000" stroke-opacity=".5" stroke-width=".6" d="M235.3 30.8q43.8 4 56.2-15M44.8 18.1q32.6 12.4 56.1 9m63.8-45.3q0 49.7 3.6 81.3"/><path fill-opacity=".5" d="m126.8 57-67.5-1.2 76.6 3-38.5-3.7zm126.1-35.2 19 .6-32.3 2H270z"/><path fill="none" stroke="#000" stroke-opacity=".5" stroke-width=".6" d="M147.7 34.7q38.1 12.3 45.7-4.5"/><path fill-opacity=".5" d="m64.3 9 43.3 8.2-49.7-6.8 30-.3z"/><path fill="none" stroke="#000" stroke-opacity=".5" stroke-width=".6" d="M99 48q-5.2 8.7-58.3 10m257.1 5.3Q286 70 250.6 50.4"/><circle r="1" fill-opacity=".5" transform="rotate(161.3 123 50) scale(1.76177 4.25546)"/><path fill="none" stroke="#000" stroke-opacity=".5" stroke-width=".6" d="M55.9 47.3q42 8.8 41-34.9"/><path fill-opacity=".5" d="m187.1 33.6 7-9.5-12.6 11.5-20.6 3z"/><path fill="none" stroke="#000" stroke-opacity=".5" stroke-width=".6" d="M136.2 29.4q19.3 33 38.1 19M239 28.9q47 7.5 48.8-12"/><path fill-opacity=".5" d="m114.7-18.2 49.5 23.4-13-23.4 3.6 11.5z"/><path fill="none" stroke="#000" stroke-opacity=".5" stroke-width=".6" d="M103.7 49.2q-27.2 3.8-47.2 0m220.1 0q-15.9 37-86.7 25"/></svg>