<svg xmlns="http://www.w3.org/2000/svg" viewBox="0 0 300 153"><g transform="translate(.6 .6) scale(1.17188)"><path fill="#2c2c2c" fill-opacity=".5" d="M129 10h127v12H129z"/><path fill="#313131" fill-opacity=".5" d="M228 47h28v12h-28z"/><path fill="#282828" fill-opacity=".5" d="M146 10h110v10H146z"/><path fill="#fff" fill-opacity=".5" d="M151 13h21v7h-21z"/><ellipse cx="216" fill-opacity=".5" rx="68" ry="1"/><path fill-opacity=".5" d="m180.8 18.8 16.6-7.4 71.5-3 2.1 12.8z"/><path fill="#4b4b4b" fill-opacity=".5" d="M252 47.7v7l-24-.4v-7z"/><path fill-opacity=".5" d="M59 120h84v1H59zm208.9-18.1-12.8-46.3-.3-18 .4-53.6z"/><ellipse cx="159" cy="16" fill="#fff" fill-opacity=".5" rx="7" ry="3"/><path fill-opacity=".5" d="M45 130h29v1H45z"/><ellipse cx="129" cy="54" fill-opacity=".5" rx="1" ry="44"/><path fill="none" stroke="#000" stroke-opacity=".5" stroke-width=".5" d="M215.1 91.6q-88-2.3-114 6"/><path fill-opacity=".5" d="M129 79h46v1h-46zm41-69h86v10h-86z"/><ellipse cx="198" cy="79" fill-opacity=".5" rx="46" ry="1"/><path fill="#737373" fill-opacity=".5" d="M175 12h18v7h-18z"/><ellipse cx="241" cy="52" fill="#a7a7a7" fill-opacity=".5" rx="10" ry="2"/><path fill="none" stroke="#000" stroke-opacity=".5" stroke-width=".5" d="M102.4 63.2q59.7 15.9 94.3 22.7"/><path fill="none" stroke="#000" stroke-opacity=".5" stroke-width=".5" d="M146.5 12.8q17.1 79-86.5 89.9"/><ellipse cx="189" cy="90" fill-opacity=".5" rx="50" ry="1"/><path fill-opacity=".5" d="m91.6 116.3 19.9.3-23.9 8.8 24.4.7z"/><path fill="none" stroke="#000" stroke-opacity=".5" stroke-width=".5" d="M193.7 52q-44.2-12-61-13.3"/><path fill-opacity=".5" d="m206.9 64.1-13.5 25.4L207.1 61l21.9 2.3z"/><ellipse cx="244" cy="70" fill-opacity=".5" rx="1" ry="22"/><path fill-opacity=".5" d="m124.7 104.9 34.4-4.8-36.3 3.2-55.1 2.6z"/><path fill="none" stroke="#000" stroke-opacity=".5" stroke-width=".5" d="M170.6 68.2q61.6-15.6 61.1-30.7"/><path fill-opacity=".5" d="m115.8 89.7-12-34.7 15.6 41.6 14.4 8.6zm-45.2 1.7 4.6 14-8-12.9 21.1 3.8zM246 57.9v1l-46-.8v-1z"/><circle r="1" fill-opacity=".5" transform="matrix(.03723 .9993 -24.06335 .89651 167 8.2)"/><path fill-opacity=".5" d="m142.4 91.8-12.1-15.4 5.8-7.6-10.6-5.6z"/></g></svg>