<svg xmlns="http://www.w3.org/2000/svg" viewBox="0 0 300 162"><g fill-opacity=".5" transform="translate(.6 .6) scale(1.17188)"><ellipse cx="61" cy="67" fill="#fff" rx="54" ry="66"/><path fill="#bcfeff" d="M-16 23h142L60 154z"/><circle r="1" fill="#fff" transform="matrix(-30.7477 1.02 -1.70505 -51.3981 56.6 86)"/><circle r="1" fill="#012835" transform="matrix(.76612 16.87121 -88.76686 4.03088 202.7 110.7)"/><path fill="#0069f2" d="m62-2-78 40 146 9z"/><ellipse cx="183" cy="58" fill="#012531" rx="52" ry="18"/><ellipse cx="20" cy="58" fill="#0042cc" rx="12" ry="40"/><path fill="#004597" d="m79 131 37-56-17-50z"/><ellipse cx="59" cy="70" fill="#fff" rx="30" ry="40"/><path fill="#001627" d="M69 48h10v24H69z"/><path fill="#013142" d="m163.4 100.1-32.9-22.4-16.2 43.5 2.8-39z"/><path fill="#0060d6" d="m3.2 72.3 52.7-42.5 64.7 12.9L49.5-1.4z"/><path fill="#012f3f" d="m134.2 36.2 69.4 16-63-23.5 2.7 109.5z"/><path fill="#02384b" d="m223.1 69.6-.4-33.1 7.8-7.3.1 48.9z"/><ellipse cx="56" cy="99" fill="#fff" rx="30" ry="31"/><path fill="#026cd6" d="M115 27 64 2l37 71z"/><path d="m17.2 109.6 27.4 24.3L67.9 150 13.6 95.9z"/><path fill="#f4ffff" d="m108.9 70 5.1-42.2-19 79.8-2.3-34z"/><path fill="#02455d" d="M250 82h6v46h-6z"/><circle r="1" transform="rotate(-61.7 134.7 -34.8) scale(27.58976 4.99551)"/><path d="m16.2 102.2-28.1-86.5 5.7-1.9 28.1 86.5z"/><circle r="1" fill="#ffffc9" transform="matrix(-.53443 -1.06549 60.3355 -30.26328 36.9 16.6)"/><circle r="1" transform="matrix(-1.94912 3.24212 -25.22457 -15.16466 76.6 7.3)"/><path fill="#006ae1" d="m2 35 23 55 13-70z"/><path fill="#fff" d="M104.1 30.5 60.5 8.2l1.4-2.7 43.6 22.3z"/><path d="m53.9 148.3 41.1-29-32.1 14.5L-16 154z"/><ellipse cx="60" cy="46" fill="#fffffc" rx="24" ry="13"/><path fill="#013446" d="M197 44h46v5h-46z"/><path fill="#013648" d="m140.4 127.2-22.5-.4 5.3-4.8 21.2-1.6z"/><path fill="#000600" d="m105.1 77.5 16-56.1-8 7.7 9.3 20.7z"/><path fill="#0c1702" d="m-13.2 36.2 49.4-25.7L3.9 33.8l3.6 19.6z"/><path d="M64.9.6 36.7 14.9l-22.5 9.9L48.7.8z"/></g></svg>