<svg xmlns="http://www.w3.org/2000/svg" viewBox="0 0 300 198"><g transform="translate(.6 .6) scale(1.17188)"><path fill-opacity=".5" d="M121-29h1l-3 168h-1z"/><ellipse cx="166" cy="155" fill-opacity=".5" rx="78" ry="1"/><path fill-opacity=".5" d="M106 0h1v80h-1z"/><ellipse cx="165" cy="113" fill-opacity=".5" rx="2" ry="28"/><ellipse cx="17" cy="163" fill-opacity=".5" rx="49" ry="1"/><path fill-opacity=".5" d="M179 162h21v4h-21zM106 37h1v120h-1z"/><path fill-opacity=".5" d="M63 78h47v1H63zm41.5-58.2v-1l73-2.6v1z"/><path fill-opacity=".5" d="m114.4 59.7-66.1 4.5 72.6-72.3L52.5 60zm57.7 57.1 23.8 45-6.2-94.7 4.4 86.9zM119 135h2v34h-2z"/><circle r="1" fill-opacity=".5" transform="rotate(88.7 59.3 102.2) scale(1 39.43376)"/><path fill-opacity=".5" d="m244.1 114.7-14.9 1.8-21 30.1-16.7 5.6zM160.4 142l-24 8.9-11.8 14.3 21.6-24z"/><path fill="none" stroke="#000" stroke-opacity=".5" stroke-width=".5" d="M247.8 155q-58.8-.6-96-.5"/><path fill-opacity=".5" d="m185.1 164.2-7.1-15.5-43.4-37.8 51.6 47.6z"/><path fill-opacity=".5" d="M153.8 101.8 175.5 67l-5 11.7-27.2 44zM281.3 169l-56.7-5v-1l56.8 5zm-162.7-1.3-38.4 2.6 41.2 1.5-53-12.1z"/><path fill="none" stroke="#000" stroke-opacity=".5" stroke-width=".5" d="M49.8 156.8q76.9-1.1 78.5 4.1"/><path fill-opacity=".5" d="M132.4-16 116.1 6.5l-6.3-3-26.6-18z"/><path fill="none" stroke="#000" stroke-opacity=".5" stroke-width=".5" d="M235.2 109.7q-22 .2-30.3 17.3"/><path fill-opacity=".5" d="m184.1 38-31.4 19.2 48-29.1-24.6 12.4zM139 28h21v5h-21z"/><path fill="none" stroke="#000" stroke-opacity=".5" stroke-width=".5" d="m151 85.8 63.4 63M146.2 133q-.8 26-89.7 23.7"/><path fill-opacity=".5" d="m196.2 29.5-23-12.2.6-.8 23 12.2zm23 94.1-21.8 2.4 9.4-1.7 19.5-6.4z"/><path fill="none" stroke="#000" stroke-opacity=".5" stroke-width=".5" d="M164.3 123.1q-31-12.6-50 59.3"/><path fill="none" stroke="#000" stroke-opacity=".5" stroke-width=".5" d="M90.4 140.4q16.3-.2 32.8 28"/><path fill-opacity=".5" d="m53.6 79.3 4.1.1-20-15.9 4.8 6.8z"/></g></svg>