<svg width="638" height="327" viewBox="0 0 638 327" fill="none" xmlns="http://www.w3.org/2000/svg">
<g clip-path="url(#clip0_443_1008)">
<path d="M240.458 208.429C239.528 200.389 238.336 192.039 242.266 184.531C245.572 178.223 251.988 173.465 259.381 174.393C267.342 175.397 273.186 181.696 276.076 188.808C279.248 196.602 279.058 204.87 279.463 213.111C279.53 214.457 281.548 214.476 281.576 213.111C281.834 200.022 280.369 183.589 268.368 175.606C263.331 172.257 256.863 171.053 251.153 173.365C245.806 175.525 241.741 180.121 239.523 185.359C236.485 192.538 236.661 201.278 238.937 208.643C239.18 209.428 240.554 209.338 240.454 208.439L240.458 208.429Z" fill="black"/>
<path d="M281.204 205.042C284.896 206.007 289.18 205.803 292.982 206.017L292.037 204.78L291.923 205.184C291.837 205.475 292.023 205.822 292.323 205.889L292.724 205.984C294.098 206.307 294.427 204.161 292.986 204.066C289.256 203.819 285.116 203.096 281.405 203.586C280.637 203.686 280.322 204.813 281.209 205.042H281.204Z" fill="black"/>
<path d="M281.777 215.528C284.014 213.891 286.161 212.126 288.326 210.399C289.981 209.076 293.196 207.492 293.64 205.332C293.697 205.065 293.521 204.809 293.234 204.804C291.098 204.761 289.209 207.173 287.62 208.439C285.288 210.299 282.907 212.126 280.656 214.086C279.878 214.762 280.923 216.151 281.772 215.532L281.777 215.528Z" fill="black"/>
<path d="M239.012 207.849C238.97 210.223 239.547 212.635 239.838 214.99C240.153 217.521 240.396 220.062 240.482 222.612C240.644 227.388 240.248 232.227 238.788 236.799C235.988 245.558 228.962 251.753 220.529 255.026C219.279 255.511 219.827 257.538 221.087 257.048C229.534 253.751 236.709 247.827 240.076 239.259C241.922 234.554 242.557 229.434 242.499 224.405C242.466 221.556 242.213 218.71 241.86 215.88C241.507 213.049 241.316 210.237 240.434 207.654C240.176 206.902 239.032 207.007 239.017 207.844L239.012 207.849Z" fill="black"/>
<path d="M249.632 255.554C257.956 258.708 267.038 260.392 275.848 261.482C284.964 262.61 294.199 262.814 303.353 262.101C309.029 261.658 319.447 260.797 318.774 252.661C318.102 244.526 308.695 243.684 302.542 243.926C301.173 243.979 301.158 246.062 302.542 246.058C306.095 246.048 310.016 245.839 313.15 247.804C316.284 249.769 317.982 253.993 314.949 256.934C312.206 259.593 307.817 259.688 304.23 260.002C300.643 260.316 297.132 260.483 293.579 260.511C286.262 260.573 278.935 260.064 271.699 258.96C264.324 257.838 257.26 255.863 250.076 253.936C249.007 253.651 248.631 255.183 249.627 255.559L249.632 255.554Z" fill="black"/>
<path d="M302.956 245.748C305.298 244.502 305.67 241.124 304.721 238.864C303.619 236.243 300.943 234.601 298.209 234.149C294.789 233.583 291.183 234.62 288.087 236.009C285.402 237.218 281.457 239.259 280.312 242.099C280.04 242.775 280.889 243.165 281.405 242.937C283.346 242.085 284.858 240.172 286.723 239.073C288.889 237.798 291.293 236.837 293.778 236.414C296.263 235.99 299.321 236.076 301.372 237.884C303.671 239.906 303.208 242.275 301.82 244.616C301.386 245.349 302.235 246.124 302.951 245.744L302.956 245.748Z" fill="black"/>
<path d="M282.32 241.933L282.386 241.666C282.501 241.205 282.305 240.791 281.924 240.534C277.392 237.441 271.754 236.856 266.574 238.579C263.969 239.444 261.551 240.8 259.285 242.337C257.258 243.712 254.782 245.239 253.299 247.204C252.731 247.956 253.785 248.674 254.463 248.365C256.495 247.428 258.174 245.653 260.024 244.388C262.018 243.022 264.136 241.757 266.412 240.915C271.353 239.078 276.371 239.625 280.908 242.271C281.208 242.447 281.628 242.466 281.924 242.271C282.019 242.209 282.282 242.094 282.32 241.937V241.933Z" fill="black"/>
<path d="M279.644 211.878C279.429 214.253 279.864 216.736 279.945 219.124C280.035 221.698 280.035 224.277 279.935 226.856C279.844 229.282 279.663 231.704 279.401 234.116C279.167 236.238 278.151 238.969 278.91 241.019C279.038 241.367 279.53 241.6 279.816 241.257C281.094 239.73 281.013 237.399 281.247 235.472C281.576 232.76 281.795 230.039 281.9 227.308C282.001 224.734 282.005 222.155 281.9 219.576C281.795 216.998 281.834 214.157 281.047 211.683C280.794 210.889 279.711 211.084 279.639 211.874L279.644 211.878Z" fill="black"/>
<path d="M216.913 249.788C213.484 243.379 206.472 238.398 200.075 235.253C193.678 232.108 185.665 229.91 178.214 230.395C177.164 230.462 176.902 231.937 177.961 232.256C178.352 232.365 178.743 232.489 179.125 232.636C179.964 232.931 180.27 231.775 179.678 231.323L178.886 230.676L178.214 232.294C185.636 232.589 192.643 233.883 199.336 237.246C202.536 238.855 205.584 240.819 208.342 243.108C211.099 245.396 213.355 248.089 215.888 250.587C216.422 251.115 217.262 250.444 216.913 249.797V249.788Z" fill="black"/>
<path d="M177.708 232.46C178.543 238.721 185.159 242.87 190.143 245.777C197.122 249.85 204.787 253.299 212.653 255.249C213.836 255.544 214.313 253.798 213.154 253.432C206.037 251.177 199.14 248.655 192.571 245.059C189.747 243.512 186.9 241.88 184.429 239.797C181.958 237.713 180.312 235.134 178.886 232.141C178.628 231.599 177.627 231.842 177.708 232.46Z" fill="black"/>
<path d="M192.839 245.487C187.463 244.459 181.815 244.312 176.363 243.907C175.638 243.855 175.099 244.792 175.509 245.392C184.949 259.041 201.773 266.449 218.234 264.018C219.508 263.828 218.969 261.891 217.7 262.081C202.226 264.422 185.936 257.376 177.217 244.397L176.363 245.882C181.724 246.367 187.248 247.147 192.634 247.014C193.473 246.995 193.731 245.663 192.839 245.491V245.487Z" fill="black"/>
<path d="M205.581 264.408C210.332 278.762 223.511 289.928 237.979 293.639C252.447 297.35 270.807 295.038 279.183 282.011C283.299 275.612 283.781 266.734 279.03 260.549C278.167 259.427 276.225 260.535 277.098 261.677C281.258 267.082 281.029 274.566 277.637 280.313C274.246 286.06 267.468 289.928 260.871 291.646C246.708 295.338 231.02 291.451 220.039 281.878C214.253 276.835 210.322 270.655 207.217 263.718C206.802 262.79 205.256 263.452 205.571 264.408H205.581Z" fill="black"/>
<path d="M281.686 240.51C280.933 241.043 280.756 241.761 280.341 242.565C279.831 243.56 279.201 244.497 278.481 245.353C276.973 247.147 275.075 248.551 272.914 249.459L274.016 249.907C273.735 249.535 273.658 249.378 273.172 249.426C271.607 249.578 272.179 251.881 273.663 251.243C276.048 250.221 278.156 248.689 279.821 246.695C280.933 245.363 283.05 242.684 282.473 240.834C282.378 240.529 281.977 240.306 281.686 240.515V240.51Z" fill="black"/>
<path d="M301.983 244.725C299.974 245.449 298.238 247.047 296.325 248.042C294.031 249.236 291.612 250.116 289.113 250.777C287.849 251.11 288.388 253.08 289.652 252.733C292.185 252.048 294.632 251.129 296.965 249.926C298.982 248.884 301.482 247.685 302.789 245.772C303.127 245.273 302.56 244.516 301.983 244.725Z" fill="black"/>
<path d="M237.721 292.711C237.01 296.318 237.602 300.086 236.853 303.74C236.104 307.394 234.64 310.353 232.126 313.031C231.196 314.021 232.608 315.41 233.614 314.516C236.343 312.08 237.964 308.555 238.756 305.039C239.61 301.261 240.106 296.513 239.233 292.716C239.066 291.988 237.874 291.955 237.726 292.716L237.721 292.711Z" fill="black"/>
<path d="M232.649 314.53L232.678 314.682C232.759 315.082 233.217 315.425 233.627 315.401C236.117 315.282 238.598 315.396 241.049 315.881C243.315 316.329 245.381 317.351 247.608 317.851C248.586 318.07 249.044 316.852 248.266 316.29C244.407 313.512 238.216 313.117 233.627 313.436C233.098 313.474 232.645 313.855 232.645 314.416C232.645 314.454 232.645 314.492 232.645 314.525L232.649 314.53Z" fill="black"/>
<path d="M234.196 313.541C236.5 313.398 238.718 312.456 241.036 312.218C243.584 311.951 246.117 312.051 248.64 312.499C249.899 312.722 250.438 310.8 249.174 310.572C244.547 309.744 237.688 309.401 233.757 312.484C233.338 312.817 233.686 313.574 234.196 313.541Z" fill="black"/>
<path d="M232.501 312.489C230.393 311.856 228.146 311.852 225.99 312.232C224.397 312.513 221.921 312.86 221.392 314.606C221.292 314.935 221.511 315.23 221.812 315.339C223.266 315.886 224.774 314.739 226.243 314.459C228.261 314.069 230.212 314.24 232.234 314.468C233.403 314.601 233.555 312.803 232.501 312.484V312.489Z" fill="black"/>
<path d="M251.14 294.805C251.426 296.223 252.351 297.36 253.014 298.63C253.792 300.119 254.45 301.67 254.984 303.264C255.461 304.682 255.843 306.133 256.124 307.603C256.425 309.187 256.339 310.9 256.959 312.394C257.245 313.084 258.261 313.212 258.5 312.394C259.378 309.392 257.889 305.162 256.873 302.322C255.857 299.482 254.593 295.671 252.103 294.063C251.588 293.73 251.025 294.277 251.135 294.805H251.14Z" fill="black"/>
<path d="M258.622 312.123C261.06 311.433 263.249 309.972 265.696 309.211C267.924 308.521 270.457 308.516 272.561 307.584C273.152 307.322 272.961 306.38 272.384 306.237C270.009 305.657 267.037 306.666 264.776 307.403C262.515 308.141 259.638 309.135 257.921 310.919C257.43 311.428 257.921 312.323 258.622 312.123Z" fill="black"/>
<path d="M258.037 313.859C260.67 313.831 263.093 313.507 265.712 314.073C266.928 314.335 268.13 314.725 269.261 315.244C270.291 315.715 270.744 316.152 271.861 316.038C272.142 316.01 272.466 315.743 272.333 315.415C271.503 313.326 268.245 312.641 266.227 312.199C263.556 311.614 260.417 311.395 257.837 312.437C257.126 312.722 257.145 313.869 258.027 313.859H258.037Z" fill="black"/>
<path d="M257.182 311.623C255.771 311.847 254.359 312.066 252.947 312.294C251.888 312.465 250.652 312.365 250.175 313.469C250.061 313.736 250.07 313.993 250.271 314.211C251.096 315.115 252.169 314.64 253.247 314.449C254.745 314.183 256.238 313.897 257.736 313.621C259.062 313.379 258.485 311.409 257.182 311.618V311.623Z" fill="black"/>
<path d="M179.253 243.883C176.029 241.371 173.429 239.021 172.647 234.81L171.674 236.081C173.319 236.062 174.922 236.19 176.53 236.561C177.727 236.832 178.719 237.418 179.921 237.07C180.279 236.966 180.508 236.509 180.284 236.176C179.478 234.977 178.094 234.829 176.725 234.549C175.06 234.211 173.367 234.073 171.669 234.068C170.949 234.068 170.605 234.706 170.696 235.339C171.292 239.449 174.235 244.15 178.547 245.073C179.172 245.206 179.854 244.354 179.244 243.879L179.253 243.883Z" fill="black"/>
<path d="M239.424 233.707C229.965 235.562 222.452 244.254 223.148 254.098C223.244 255.421 225.185 255.445 225.228 254.098C225.505 245.068 230.919 237.684 240.006 235.805C241.384 235.519 240.798 233.44 239.429 233.707H239.424Z" fill="black"/>
<path d="M213.03 246.776C213.622 248.722 215.41 250.382 216.46 252.147C217.667 254.179 218.373 256.42 219.494 258.475C220.004 259.412 221.282 258.732 221.12 257.79C220.715 255.473 219.389 253.137 218.191 251.139C217.171 249.44 215.802 246.933 213.951 246.077C213.488 245.862 212.873 246.219 213.04 246.776H213.03Z" fill="black"/>
<path d="M265.225 174.274C267.558 173.398 269.643 171.519 271.67 170.082C273.969 168.45 276.268 166.814 278.567 165.177L285.083 160.543C287.287 158.978 289.777 157.541 291.699 155.643C292.448 154.905 291.504 153.801 290.616 154.244C288.274 155.405 286.166 157.246 284.039 158.768C281.744 160.41 279.45 162.051 277.155 163.697C274.99 165.248 272.819 166.799 270.654 168.35C268.617 169.811 266.132 171.153 264.534 173.084C264.128 173.574 264.491 174.554 265.23 174.279L265.225 174.274Z" fill="black"/>
<path d="M290.865 154.739C293.407 156.442 296.889 157.179 299.766 158.226C302.976 159.397 306.191 160.562 309.406 161.728C315.836 164.054 322.266 166.376 328.696 168.703C329.993 169.174 330.628 166.971 329.268 166.628C328.605 166.462 328.472 166.433 327.799 166.481C327.174 166.528 326.836 167.242 327.284 167.718C327.732 168.193 327.837 168.27 328.438 168.593L329.268 166.628C322.838 164.302 316.408 161.98 309.978 159.653C306.763 158.493 303.548 157.336 300.328 156.18C297.443 155.143 294.333 153.54 291.28 153.216C290.402 153.121 290.254 154.334 290.865 154.744V154.739Z" fill="black"/>
<path d="M328.486 168.036C328.123 171.115 329.01 174.574 329.044 177.709C329.082 181.13 328.863 184.555 328.362 187.943C327.909 191.007 327.236 194.042 326.358 197.011C325.404 200.227 323.706 203.296 322.914 206.521C322.652 207.582 324.002 208.049 324.598 207.23C326.544 204.566 327.56 200.726 328.481 197.596C329.454 194.304 330.165 190.945 330.627 187.548C331.09 184.151 331.31 180.72 331.248 177.29C331.195 174.255 331.314 170.43 330.045 167.618C329.664 166.771 328.567 167.323 328.481 168.041L328.486 168.036Z" fill="black"/>
<path d="M297.051 230.586C294.299 229.258 291.646 227.745 289.133 226.009C286.619 224.272 284.544 221.922 281.997 220.333C281.286 219.89 280.332 220.79 280.818 221.508C282.412 223.863 285.116 225.657 287.415 227.298C290.134 229.239 293.02 230.885 296.044 232.298C297.194 232.836 298.205 231.142 297.051 230.586Z" fill="black"/>
<path d="M365.114 127.601C366.116 126.569 366.383 125.355 366.851 124.004C367.442 122.282 368.034 120.56 368.611 118.828C369.761 115.374 370.967 111.934 372.041 108.456L370.486 109.089L370.81 109.246C371.144 109.408 371.611 109.355 371.797 108.989L371.936 108.713C372.623 107.357 370.519 106.444 369.999 107.899C368.826 111.187 367.776 114.522 366.674 117.829C366.15 119.413 365.63 120.997 365.119 122.586C364.609 124.175 363.903 125.579 364.103 127.187C364.16 127.663 364.723 128.01 365.114 127.606V127.601Z" fill="black"/>
<path d="M371.502 108.946C374.116 104.345 379.817 105.316 384.138 106.258C388.708 107.257 393.268 108.299 397.823 109.341C406.939 111.43 416.045 113.575 425.132 115.778C443.311 120.184 461.432 124.837 479.482 129.732C489.714 132.506 499.922 135.365 510.106 138.291C511.413 138.667 511.976 136.636 510.669 136.26C472.322 125.227 433.661 115.274 394.728 106.491C389.834 105.387 384.801 103.836 379.788 103.413C375.891 103.08 371.712 104.269 369.885 108.004C369.365 109.07 370.897 109.997 371.498 108.946H371.502Z" fill="black"/>
<path d="M509.691 137.611C514.771 140.218 514.256 145.614 512.996 150.405C511.67 155.438 510.125 160.429 508.503 165.377C506.881 170.325 505.212 174.992 503.38 179.731C502.464 182.1 501.519 184.46 500.537 186.806C499.554 189.151 498.018 191.706 497.527 194.266C497.331 195.293 498.543 195.74 499.154 194.951C500.785 192.819 501.624 189.865 502.66 187.391C503.814 184.631 504.925 181.858 505.989 179.065C508.179 173.341 510.187 167.546 512.009 161.699C513.621 156.523 515.911 150.795 516.04 145.323C516.125 141.589 514.365 137.021 510.339 136.084C509.447 135.875 508.813 137.159 509.695 137.611H509.691Z" fill="black"/>
<path d="M373.123 106.477C374.678 109.588 377.358 112.386 379.486 115.136C381.613 117.886 383.655 120.436 385.778 123.057C390.271 128.605 394.85 134.081 399.515 139.481C408.769 150.195 418.371 160.605 428.298 170.705C429.257 171.681 430.759 170.182 429.8 169.207C419.979 159.216 410.467 148.92 401.295 138.329C396.72 133.048 392.227 127.691 387.819 122.272C385.558 119.494 383.326 116.692 381.093 113.894C378.861 111.097 376.9 107.89 374.306 105.563C373.662 104.983 372.736 105.706 373.123 106.477Z" fill="black"/>
<path d="M428.999 170.924C443.515 167.133 457.806 162.213 472.14 157.779C479.247 155.581 486.35 153.383 493.457 151.19C500.565 148.996 508.087 146.969 515.213 144.396C516.377 143.977 515.924 142.207 514.698 142.526C507.362 144.419 500.145 146.955 492.909 149.191C485.801 151.389 478.699 153.587 471.591 155.781C457.257 160.215 442.675 164.221 428.551 169.278C427.53 169.645 427.926 171.205 429.004 170.924H428.999Z" fill="black"/>
<path d="M226.444 186.396C225.624 185.131 224.694 185.183 223.215 184.841C221.297 184.393 219.375 183.946 217.457 183.504C215.688 183.095 213.913 182.69 212.139 182.286C210.512 181.915 208.847 181.201 207.221 181.72C206.749 181.872 206.534 182.49 206.92 182.857C208.089 183.97 209.53 184.041 211.085 184.398C213.007 184.841 214.924 185.288 216.847 185.726C218.621 186.13 220.396 186.53 222.17 186.934C223.668 187.272 224.903 187.905 226.268 187.081C226.492 186.948 226.597 186.629 226.444 186.401V186.396Z" fill="black"/>
<path d="M229.507 179.374C226.826 177.404 224.136 175.454 221.436 173.513C220.291 172.689 219.194 174.583 220.33 175.401C223.029 177.338 225.739 179.26 228.458 181.168C229.56 181.943 230.571 180.154 229.507 179.379V179.374Z" fill="black"/>
<path d="M236.185 177.728C236.514 176.177 236.118 174.726 235.875 173.165C235.565 171.186 235.226 169.207 234.897 167.228C234.591 165.401 234.286 163.578 233.981 161.752C233.676 159.925 233.594 157.826 232.669 156.176C232.359 155.619 231.338 155.681 231.219 156.366C230.942 157.95 231.338 159.392 231.61 160.976C231.944 162.95 232.292 164.925 232.631 166.899C232.946 168.722 233.251 170.548 233.575 172.366C233.9 174.183 234 176.286 234.968 177.885C235.25 178.346 236.061 178.303 236.185 177.728Z" fill="black"/>
<path d="M275.923 196.973C275.813 194.356 272.608 192.672 270.232 193.005C268.014 193.319 264.89 195.95 265.815 198.443C266.059 199.104 266.974 199.313 267.37 198.647C268.258 197.139 268.382 195.412 270.514 195.074C272.536 194.756 273.471 196.197 274.616 197.515C275.05 198.015 275.952 197.615 275.923 196.973Z" fill="black"/>
<path d="M272.451 187.538C271.393 184.198 264.962 184.869 263.155 187.077C262.544 187.824 263.288 188.789 264.171 188.39C265.578 187.752 266.718 187.1 268.335 187.205C269.628 187.291 270.725 188.085 271.984 188.147C272.289 188.161 272.537 187.828 272.447 187.538H272.451Z" fill="black"/>
<path d="M627.35 119.889H568.492V137.892H627.35V119.889Z" fill="black" stroke="black" stroke-width="0.25" stroke-miterlimit="10"/>
<path d="M369.16 50.617L637.151 49.1278L637.161 24.7875L368.516 26.8333L369.16 50.617Z" fill="black"/>
<path d="M369.509 110.778C370.587 106.62 369.919 101.581 369.928 97.2993C369.938 93.0174 369.943 88.4262 369.938 83.9921L369.895 56.4309C369.881 47.2438 369.871 38.0567 369.857 28.8696C369.843 19.6826 370.372 10.3908 369.256 1.3084C369.199 0.837387 368.574 0.837387 368.516 1.3084C367.4 10.3908 367.925 19.7349 367.915 28.8696C367.906 38.0044 367.892 47.2438 367.877 56.4309L367.834 83.9921C367.83 88.4262 367.834 92.8652 367.844 97.2993C367.849 101.595 367.186 106.61 368.264 110.778C368.421 111.392 369.356 111.396 369.513 110.778H369.509Z" fill="black"/>
<path d="M635.992 1.30364C635.239 10.5526 635.811 20.0537 635.802 29.3311C635.792 38.6086 635.797 48.0145 635.802 57.3586C635.802 76.2038 635.816 95.0442 635.806 113.889C635.806 124.423 635.053 135.289 636.383 145.718C636.455 146.289 637.204 146.294 637.28 145.718C638.454 136.512 637.862 126.992 637.857 117.691C637.857 108.347 637.848 99.0073 637.853 89.6633C637.862 70.8181 637.881 51.9777 637.862 33.1325C637.857 27.9086 637.848 22.6799 637.843 17.456C637.838 12.0988 638.101 6.64651 637.667 1.30364C637.581 0.237919 636.088 0.233161 636.002 1.30364H635.992Z" fill="black"/>
<path d="M636.833 144.419C632.134 143.691 627.092 144.167 622.346 144.167H607.144C597.008 144.167 586.871 144.172 576.735 144.177C566.598 144.181 556.462 144.191 546.326 144.196C541.26 144.196 536.189 144.215 531.124 144.224L523.52 144.243C521.226 144.248 518.955 144.124 516.742 144.805C516.284 144.943 516.284 145.59 516.742 145.728C518.955 146.408 521.226 146.284 523.52 146.289L531.124 146.308C536.189 146.322 541.26 146.337 546.326 146.337L576.735 146.356C586.871 146.36 597.008 146.365 607.144 146.365H622.346C627.097 146.365 632.134 146.836 636.833 146.113C637.677 145.985 637.677 144.543 636.833 144.415V144.419Z" fill="black"/>
<path d="M636.374 0.209351C618.959 -0.228355 601.491 0.147502 584.07 0.147502C566.793 0.147502 549.521 0.147502 532.244 0.161775C497.537 0.190321 462.825 0.218867 428.118 0.23314C418.292 0.23314 408.465 0.23314 398.639 0.23314C388.813 0.23314 378.843 -0.42342 369.16 0.84688C368.65 0.913488 368.65 1.57005 369.16 1.63665C377.765 2.76898 386.647 2.2504 395.31 2.2504C403.972 2.2504 412.744 2.2504 421.459 2.2504C438.736 2.2504 456.009 2.26943 473.286 2.27894C507.993 2.29797 542.704 2.33128 577.411 2.33603C597.05 2.33603 616.74 2.76898 636.369 2.27418C637.705 2.24088 637.71 0.23314 636.369 0.199836L636.374 0.209351Z" fill="black"/>
<path d="M369.103 27.6992C403.757 27.8514 438.426 27.3566 473.081 27.1521C507.582 26.9475 542.084 26.7334 576.581 26.5478C596.138 26.4432 615.691 26.3575 635.248 26.2196C636.522 26.21 636.522 24.2404 635.248 24.2451C600.589 24.4164 565.93 24.6971 531.27 24.9112C496.769 25.1253 462.267 25.3299 427.77 25.5487C408.217 25.6724 388.655 25.6534 369.103 25.9722C367.987 25.9912 367.987 27.6944 369.103 27.6992Z" fill="black"/>
<path d="M368.888 51.9158C403.51 52.0585 438.14 51.5447 472.756 51.2926C507.54 51.0404 542.318 50.793 577.101 50.5408C596.635 50.3981 616.173 50.2601 635.706 50.1174C636.98 50.1079 636.98 48.1335 635.706 48.143C601.085 48.3999 566.459 48.6521 531.838 48.909C497.217 49.1659 462.277 49.418 427.493 49.6845C407.96 49.8367 388.422 49.8748 368.888 50.2411C367.81 50.2601 367.806 51.9111 368.888 51.9158Z" fill="black"/>
<path d="M387.658 33.7843C396.344 33.8033 405.035 33.8224 413.722 33.8462C416.355 33.8509 419.078 33.8795 421.478 34.9642C423.877 36.049 425.861 38.5039 425.532 41.1111C425.251 43.333 423.362 45.0838 421.268 45.8736C419.169 46.6633 416.87 46.6776 414.628 46.6776C405.46 46.6776 396.292 46.6871 387.124 46.6919C383.713 46.6919 379.544 46.2304 378.18 43.1141C377.054 40.5354 378.719 37.4239 381.137 35.9681C383.556 34.517 385.182 33.9698 387.997 33.7938" fill="white"/>
<path d="M387.658 34.7454C396.607 34.7929 405.565 34.7311 414.513 34.8595C418.081 34.9119 424.464 35.5304 424.516 40.4593C424.569 45.6785 417.227 45.5548 413.674 45.5596C404.825 45.5691 395.967 45.6595 387.119 45.5786C384.243 45.55 378.857 45.2931 378.9 41.2634C378.953 36.5438 384.743 35.4638 388.221 34.6169C389.213 34.3743 388.917 33.0041 387.992 32.9327C382.716 32.5093 374.097 37.7094 377.364 43.9229C378.657 46.3826 381.404 47.2961 384.004 47.6244C388.44 48.1858 393.091 47.7957 397.551 47.7957C402.45 47.7957 407.349 47.7957 412.252 47.7909C416.035 47.7909 420.342 48.143 423.605 45.845C426.043 44.1275 427.302 41.1777 426.167 38.3231C425.031 35.4685 422.093 33.7462 419.131 33.1944C414.389 32.3047 409.219 32.8328 404.415 32.8328C398.829 32.8328 393.244 32.828 387.658 32.8328C386.422 32.8328 386.418 34.7454 387.658 34.7501V34.7454Z" fill="white"/>
<path d="M412.824 43.5233C411.403 43.5899 410.339 41.958 410.592 40.564C410.85 39.17 412.042 38.109 413.33 37.5143C414.618 36.9196 416.14 36.6817 417.466 37.1955C418.792 37.7094 419.813 39.1034 419.598 40.5021C419.331 42.2577 417.404 43.2616 415.643 43.5233C414.055 43.7564 412.409 43.6184 410.883 43.1189" fill="white"/>
<path d="M412.987 42.9333C410.402 42.2244 411.666 39.4888 413.311 38.542C414.957 37.5952 417.976 37.3002 418.582 39.6077C419.112 41.6488 416.636 42.4718 415.048 42.6146C413.626 42.743 412.095 42.1483 410.75 42.6336C410.478 42.7335 410.23 43.0999 410.445 43.3806C412.157 45.6119 416.855 44.7603 418.854 43.2521C421.144 41.5251 420.982 38.2946 418.549 36.7531C415.949 35.107 411.885 36.3773 410.301 38.9083C409.042 40.9161 409.953 44.5129 412.82 44.1418C413.464 44.0609 413.707 43.1379 412.982 42.9381L412.987 42.9333Z" fill="black"/>
<path d="M450.394 32.1905C445.767 30.5728 439.494 30.9344 436.627 35.497C433.956 39.7409 436.232 44.4558 440.634 46.1971C445.037 47.9384 450.389 46.8108 452.951 42.6859C455.197 39.0605 454.238 33.5987 450.065 31.8098C448.82 31.277 447.766 32.9136 448.977 33.6701C451.777 35.4209 452.889 38.6609 451.066 41.5916C449.068 44.8126 444.875 45.5405 441.517 44.2179C437.624 42.6811 436.284 38.2565 439.733 35.3591C442.619 32.9327 446.449 33.4465 449.874 34.0697C451.1 34.2934 451.582 32.6139 450.389 32.2L450.394 32.1905Z" fill="white"/>
<path d="M458.571 32.3142C458.38 36.7483 457.55 41.7392 458.29 46.121C458.437 47.0011 459.678 46.8346 459.916 46.121C460.035 45.8403 460.107 45.5501 460.131 45.2456L459.22 44.9934L459.072 45.3455C458.915 45.7213 459.496 46.0353 459.754 45.7404L460.007 45.4501C460.365 45.041 459.921 44.4748 459.434 44.7127C459.153 44.8221 458.9 44.9696 458.671 45.1694L459.911 46.121C460.408 44.0086 460.264 41.7201 460.331 39.5601C460.408 37.148 460.446 34.7311 460.498 32.3142C460.527 31.0677 458.619 31.0772 458.566 32.3142H458.571Z" fill="white"/>
<path d="M459.925 33.1991C463.899 37.2288 467.648 41.4584 471.178 45.8783C471.812 46.6728 473.048 45.9687 473.072 45.098C473.196 40.5449 473.296 35.9918 473.405 31.4435C473.439 30.0019 471.192 30.0019 471.159 31.4435C471.059 35.9966 470.944 40.5497 470.853 45.098L472.747 44.3178C469.184 39.9264 465.406 35.7302 461.399 31.7337C460.45 30.7869 458.99 32.2475 459.93 33.1991H459.925Z" fill="white"/>
<path d="M397.247 9.53915C406.306 9.66285 415.373 9.56294 424.437 9.53439C428.887 9.52012 433.342 9.50109 437.793 9.48681L444.471 9.46303C446.369 9.45827 448.296 9.74373 450.052 8.96823C450.481 8.77792 450.486 8.02145 450.052 7.83114C448.416 7.12225 446.713 7.36489 444.948 7.36965L438.27 7.38868C433.657 7.40295 429.049 7.41247 424.437 7.42674C415.373 7.45053 406.31 7.40771 397.247 7.5885C395.988 7.61229 395.988 9.52487 397.247 9.53915Z" fill="black"/>
<path d="M397.246 20.2392C404.12 20.753 411.142 20.4009 418.03 20.4009C424.918 20.4009 432.201 20.4009 439.285 20.4009H460.068C467.137 20.4009 474.316 20.791 481.324 19.8871C481.991 19.8014 481.991 18.9356 481.324 18.8499C474.464 17.9602 467.457 18.3361 460.54 18.3361C453.457 18.3361 446.369 18.3361 439.285 18.3361H418.502C411.456 18.3361 404.273 17.9697 397.246 18.4931C396.121 18.5787 396.116 20.1583 397.246 20.2439V20.2392Z" fill="black"/>
<path d="M378.148 9.32503C381.301 10.0672 385.217 9.48204 388.447 9.36785C389.758 9.32028 389.768 7.31254 388.447 7.32681C385.217 7.35535 381.263 6.93668 378.148 7.81685C377.428 8.02143 377.38 9.13948 378.148 9.32028V9.32503Z" fill="black"/>
<path d="M378.413 20.439C381.004 20.7007 383.708 20.439 386.308 20.3534C388.144 20.2915 390.281 20.7388 391.727 19.4685C391.96 19.2639 391.846 18.9451 391.641 18.7834C390.029 17.5606 387.305 18.2743 385.383 18.3409C382.997 18.4218 380.546 18.3837 378.189 18.7834C377.183 18.9546 377.541 20.3486 378.413 20.439Z" fill="black"/>
<path d="M386.371 71.5365C388.16 71.565 389.963 71.4318 391.752 71.3367C393.135 71.2653 394.466 71.4746 395.563 70.5707C395.897 70.2947 395.745 69.7809 395.434 69.5716C394.261 68.7961 392.763 69.2052 391.413 69.2813C389.734 69.3765 388.036 69.4336 386.371 69.6429C385.193 69.7904 385.112 71.5175 386.371 71.5365Z" fill="black"/>
<path d="M405.676 71.5793C409.01 72.2834 412.878 71.703 416.279 71.6221C420.062 71.5317 423.845 71.4413 427.627 71.3509C431.41 71.2605 435.193 71.1701 438.975 71.0797C442.481 70.9988 446.159 71.2034 449.622 70.661C450.738 70.485 450.328 68.9435 449.374 68.8436C445.673 68.4487 441.752 68.9007 438.026 68.9959C434.301 69.091 430.776 69.1814 427.15 69.2766C423.525 69.3717 419.9 69.4621 416.275 69.5573C412.869 69.6429 408.967 69.2433 405.671 70.1139C404.97 70.2995 404.922 71.4175 405.671 71.5745L405.676 71.5793Z" fill="black"/>
<path d="M386.647 86.7943C390.959 87.5841 395.805 86.9894 400.175 86.899C402.479 86.8514 404.783 86.8086 407.082 86.761C408.99 86.7229 411.218 87.1226 412.887 86.0997C413.231 85.8903 413.254 85.3622 412.887 85.1577C411.17 84.2061 408.995 84.6867 407.082 84.7295C404.778 84.7818 402.474 84.8294 400.175 84.8817C395.805 84.9769 390.916 84.5772 386.647 85.5478C386.046 85.6858 386.013 86.6801 386.647 86.7943Z" fill="black"/>
<path d="M447.365 84.7343C458.632 85.7952 470.132 85.5003 481.442 85.7667C492.752 86.0331 504.162 86.2805 515.519 86.5374C516.85 86.566 516.85 84.5012 515.519 84.4726C504.162 84.23 492.8 83.9778 481.442 83.7447C470.132 83.5116 458.66 82.7123 447.365 83.2737C446.411 83.3212 446.435 84.6486 447.365 84.7343Z" fill="black"/>
<path d="M567.662 119.308C566.817 122.329 567.337 126.007 567.347 129.128C567.352 130.808 567.361 132.492 567.375 134.171C567.39 135.656 567.189 136.869 567.957 138.153C568.196 138.553 568.802 138.563 569.04 138.153C569.779 136.869 569.574 135.632 569.565 134.171C569.551 132.492 569.536 130.808 569.512 129.128C569.469 125.993 569.937 122.325 569.04 119.308C568.84 118.637 567.852 118.623 567.662 119.308Z" fill="black"/>
<path d="M568.052 120.583C578.155 120.988 588.329 120.659 598.442 120.664H613.639C616.172 120.669 618.705 120.674 621.238 120.674C623.499 120.674 625.87 120.907 628.074 120.336C628.751 120.16 628.751 119.147 628.074 118.971C625.87 118.404 623.499 118.633 621.238 118.633C618.705 118.633 616.172 118.633 613.639 118.633H598.442C588.329 118.642 578.155 118.314 568.052 118.718C566.85 118.766 566.85 120.531 568.052 120.579V120.583Z" fill="black"/>
<path d="M626.696 119.732C626.487 123 626.592 126.293 626.596 129.566C626.596 132.187 626.014 135.47 627.121 137.887C627.331 138.349 628.151 138.358 628.356 137.887C629.42 135.456 628.795 132.183 628.757 129.566C628.709 126.293 628.767 123 628.504 119.732C628.414 118.576 626.768 118.561 626.692 119.732H626.696Z" fill="black"/>
<path d="M567.934 138.491C570.162 138.962 572.533 138.753 574.803 138.762C577.341 138.777 579.883 138.786 582.421 138.786C587.501 138.786 592.577 138.791 597.657 138.796C602.737 138.801 607.812 138.801 612.892 138.805C615.43 138.805 617.972 138.81 620.51 138.805C622.795 138.805 625.137 138.986 627.374 138.467C628.085 138.301 628.085 137.202 627.374 137.035C625.137 136.517 622.795 136.698 620.51 136.698C617.972 136.698 615.43 136.698 612.892 136.698L597.657 136.707C592.577 136.707 587.501 136.712 582.421 136.717C579.883 136.717 577.341 136.731 574.803 136.74C572.533 136.75 570.162 136.545 567.934 137.012C567.209 137.164 567.209 138.32 567.934 138.472V138.491Z" fill="black"/>
<path d="M581.728 123.39C580.392 122.415 578.551 121.797 576.967 122.61C575.694 123.267 574.826 124.789 575.317 126.202C575.865 127.796 577.597 128.319 579.066 128.709C580.392 129.066 584.285 130.341 581.699 132.197C581.151 132.592 576.047 132.753 576.901 131.031C577.139 130.546 576.862 129.732 576.199 129.813C574.081 130.075 574.129 132.649 575.632 133.753C577.425 135.07 580.95 135.256 582.849 134.167C584.747 133.077 585.42 130.641 583.946 128.843C583.097 127.806 581.928 127.335 580.674 126.973C579.901 126.749 578.365 126.721 577.788 126.107C577.893 124.456 578.56 123.895 579.801 124.428C580.235 124.57 580.669 124.713 581.108 124.856C582.043 125.165 582.424 123.885 581.733 123.376L581.728 123.39Z" fill="white"/>
<path d="M586.493 131.507C588.067 132.478 591.406 131.35 591.325 129.233C591.239 126.925 588.215 126.492 586.626 127.501C584.8 128.657 584.585 131.302 585.911 132.906C587.433 134.747 590.089 134.823 591.964 133.496C592.226 133.31 592.484 133.01 592.446 132.658L592.422 132.449C592.389 132.14 592.226 131.859 591.907 131.773C590.924 131.507 590.247 132.492 589.245 132.539C588.067 132.596 586.86 131.693 586.917 130.446C586.965 129.399 588.067 128.429 589.116 128.985C590.452 129.694 587.003 130.318 586.622 130.475C586.183 130.651 586.04 131.231 586.488 131.502L586.493 131.507Z" fill="white"/>
<path d="M592.847 127.91C592.623 129.561 592.9 131.341 592.986 133.001C593.01 133.462 593.291 133.853 593.739 133.986C594.054 134.081 594.24 134.014 594.531 133.881C594.822 133.748 595.061 133.324 595.037 132.996C594.913 131.255 594.965 129.371 594.517 127.682C594.25 126.683 592.967 127.021 592.847 127.905V127.91Z" fill="white"/>
<path d="M593.955 130.712C595.276 130.946 595.848 129.295 597.198 129.28C598.839 129.266 598.09 131.816 598.147 132.815C598.224 134.186 600.346 134.2 600.299 132.815C600.251 131.564 600.604 130.313 600.141 129.1C599.779 128.158 599.001 127.515 598.019 127.311C597.036 127.106 596.006 127.377 595.171 127.924C594.336 128.472 593.315 129.214 593.516 130.27C593.554 130.47 593.759 130.679 593.959 130.712H593.955Z" fill="white"/>
<path d="M606.815 129.447C606.209 127.539 603.753 126.84 602.116 127.953C600.48 129.066 600.142 131.745 601.654 133.167C603.166 134.59 605.489 134.324 606.686 132.782C608.356 130.627 607.788 126.825 607.864 124.29C607.903 122.962 605.837 122.962 605.794 124.29C605.756 125.493 605.718 126.697 605.684 127.901C605.656 128.843 605.751 129.956 605.422 130.855C604.993 132.04 602.875 132.749 602.694 130.95C602.503 129.062 604.602 129.433 605.527 130.184C606.071 130.627 607.058 130.232 606.805 129.442L606.815 129.447Z" fill="white"/>
<path d="M605.966 128.357C605.679 129.1 605.865 129.989 605.927 130.774C605.994 131.64 606.08 132.501 606.156 133.363C606.271 134.623 608.265 134.623 608.136 133.363C608.041 132.44 607.95 131.512 607.835 130.589C607.735 129.785 607.754 128.881 607.311 128.181C606.948 127.615 606.19 127.772 605.961 128.357H605.966Z" fill="white"/>
<path d="M614.208 125.541C615.915 127.982 618.663 129.561 621.496 130.351L621.797 128.139C618.801 128.519 616.178 129.951 614.294 132.321C613.988 132.706 613.836 133.22 614.117 133.672C614.303 133.967 614.446 134.105 614.785 134.186C615.143 134.271 615.624 134.205 615.873 133.9C617.49 131.902 619.56 130.77 622.093 130.351C623.223 130.165 623.113 128.438 622.093 128.177C619.503 127.515 617.652 126.155 615.739 124.356C614.966 123.628 613.54 124.594 614.203 125.541H614.208Z" fill="white"/>
<path d="M279.883 204.742L280.36 215.209L293.387 204.832L279.883 204.742Z" stroke="black" stroke-width="0.25" stroke-miterlimit="10"/>
<path d="M297.957 233.445C298.797 226.518 292.753 212.806 303.033 210.432C307.555 209.385 312.616 209.661 317.238 209.4C322.237 209.119 327.236 208.834 332.235 208.553C336.618 208.305 342.7 206.888 345.448 211.312C347.924 215.304 347.303 221.303 347.551 225.837C347.833 230.895 348.129 235.952 348.424 241.01C348.553 243.222 348.682 245.434 348.816 247.647C348.982 250.454 349.402 253.337 345.992 254.127C343.573 254.688 340.964 254.712 338.498 254.95C335.722 255.216 332.946 255.483 330.174 255.744C324.927 256.249 319.313 256.253 314.19 257.5C313.088 257.766 313.384 259.351 314.447 259.408C320.209 259.693 326.282 258.504 332.025 257.961C334.954 257.685 337.883 257.409 340.811 257.129C343.115 256.91 345.682 256.915 347.857 256.03C352.393 254.184 351.258 249.226 351.014 245.273C350.647 239.268 350.285 233.259 349.898 227.255C349.574 222.222 350.051 216.179 347.924 211.488C345.973 207.192 342.133 206.031 337.697 206.203C331.815 206.426 325.934 206.864 320.057 207.192C314.624 207.497 308.995 207.406 303.614 208.234C299.007 208.943 295.949 211.921 295.105 216.493C294.055 222.184 296.598 227.736 296.006 233.435C295.877 234.692 297.814 234.663 297.962 233.435L297.957 233.445Z" fill="black"/>
<path d="M309.239 207.754C309.697 206.036 309.277 204.123 309.558 202.339C309.864 200.398 310.512 198.5 311.5 196.797C313.603 193.171 317.195 190.697 321.412 190.321C325.629 189.946 329.674 191.611 332.011 195.146C334.348 198.681 334.801 203.081 335.026 207.197C335.107 208.681 337.425 208.691 337.353 207.197C337.12 202.354 336.433 197.158 333.37 193.2C330.466 189.446 325.772 187.681 321.083 188.18C316.394 188.68 312.678 191.078 310.155 194.822C308.041 197.957 305.656 204.338 307.779 207.934C308.123 208.52 309.062 208.41 309.239 207.744V207.754Z" fill="black"/>
<path d="M321.063 231.547C317.81 230.6 318.63 225.447 321.922 225.309C325.213 225.171 326.73 230.181 323.377 231.328C321.989 231.799 322.585 234.006 323.987 233.531C329.769 231.556 327.861 222.921 321.927 223.026C315.993 223.13 314.748 232.089 320.462 233.75C321.879 234.163 322.485 231.956 321.073 231.547H321.063Z" fill="black"/>
<path d="M320.137 232.698C319.078 236.276 318.539 240.063 317.814 243.722C317.695 244.335 318.095 245.087 318.815 245.035C322.259 244.792 325.703 244.549 329.147 244.312C330.483 244.221 330.493 242.128 329.147 242.228C325.703 242.475 322.259 242.718 318.815 242.965L319.817 244.278C320.571 240.534 321.534 236.747 321.945 232.945C322.059 231.884 320.418 231.737 320.132 232.703L320.137 232.698Z" fill="black"/>
<path d="M329.964 243.37C330.007 241.609 328.7 239.82 327.985 238.236C327.088 236.243 326.153 234.268 325.085 232.36C324.407 231.152 322.537 232.237 323.22 233.445C324.298 235.353 325.204 237.332 326.148 239.306C326.902 240.881 327.546 242.956 329.111 243.855C329.487 244.074 329.95 243.793 329.96 243.37H329.964Z" fill="black"/>
<path d="M497.751 193.4C495.819 197.572 494.45 202.049 492.881 206.369C492.089 208.548 491.378 211.098 489.175 212.269C487.567 213.125 485.692 213.158 483.923 212.987C479.253 212.53 474.578 211.003 470.023 209.937C465.467 208.872 460.516 207.711 455.765 206.597C446.263 204.371 436.756 202.139 427.254 199.913C422.503 198.8 417.748 197.701 412.992 196.592C410.54 196.021 408.084 195.45 405.632 194.879C403.418 194.365 401.148 193.614 398.863 193.628C397.971 193.633 397.532 194.946 398.391 195.374C401.735 197.044 405.947 197.467 409.581 198.314C413.722 199.275 417.862 200.236 422.003 201.197C430.131 203.086 438.269 204.951 446.397 206.826C454.525 208.7 462.663 210.575 470.796 212.454C474.483 213.306 478.17 214.329 481.9 214.952C484.428 215.375 487.295 215.58 489.656 214.362C492.418 212.935 493.544 210.051 494.536 207.297C496.115 202.905 497.961 198.505 499.149 193.994C499.363 193.186 498.123 192.596 497.751 193.404V193.4Z" fill="black"/>
<path d="M364.69 124.656C361.757 132.244 359.443 140.118 356.882 147.84C354.32 155.562 351.468 162.998 349.355 170.71C347.823 176.291 349.03 181.42 354.492 184.113C357.154 185.426 360.068 186.063 362.935 186.763C366.927 187.738 370.915 188.709 374.908 189.684C379.358 190.769 383.809 191.858 388.264 192.943C390.41 193.466 392.562 193.99 394.708 194.518C396.697 195.003 398.615 195.688 400.661 195.265C401 195.193 401.157 194.679 400.876 194.456C399.259 193.143 397.289 192.867 395.305 192.381C393.158 191.858 391.007 191.33 388.86 190.807C384.257 189.684 379.649 188.556 375.046 187.433C370.443 186.311 365.83 185.202 361.232 184.06C357.86 183.223 353.691 182.271 351.725 179.108C349.25 175.125 351.825 169.787 353.128 165.819C354.592 161.352 356.057 156.88 357.521 152.412C360.488 143.354 363.817 134.314 366.336 125.122C366.632 124.047 365.081 123.676 364.695 124.67L364.69 124.656Z" fill="black"/>
<path d="M365.873 27.1854C365.315 26.1625 364.547 26.1862 363.416 26.1054C361.384 25.9674 359.295 26.0673 357.254 26.0625C353.304 26.0578 349.354 26.0721 345.405 26.0768C341.455 26.0816 337.506 26.0863 333.556 26.0911C329.878 26.0911 325.528 25.4821 321.965 26.4622C321.197 26.6715 321.197 27.7991 321.965 28.0084C325.805 29.0646 330.532 28.3748 334.505 28.3795C338.77 28.3795 343.039 28.3891 347.303 28.3938C351.568 28.3986 355.837 28.4128 360.101 28.3938C360.483 28.3938 366.66 28.6222 365.878 27.1854H365.873Z" fill="black"/>
<path d="M321.268 27.233C320.901 36.2012 321.125 45.217 321.096 54.19C321.068 63.1772 321.082 72.1645 321.077 81.147C321.068 98.9597 321.058 116.777 321.063 134.59C321.063 139.633 321.063 144.681 321.063 149.724C321.063 154.767 320.529 159.81 321.321 164.62C321.459 165.463 322.885 165.463 323.023 164.62C323.691 160.553 323.281 156.204 323.281 152.089C323.281 147.517 323.281 142.944 323.281 138.372C323.281 129.385 323.281 120.398 323.281 111.415L323.257 57.9723C323.257 47.7433 323.496 37.4525 323.076 27.2282C323.028 26.0673 321.311 26.0626 321.263 27.2282L321.268 27.233Z" fill="black"/>
<path d="M348.481 228.311C382.315 228.64 416.159 228.392 449.993 228.397C483.832 228.397 517.666 228.402 551.505 228.407C560.878 228.407 570.251 228.407 579.624 228.407C589.264 228.407 599.081 228.935 608.697 228.216C609.838 228.131 609.842 226.527 608.697 226.442C600.34 225.814 591.821 226.247 583.44 226.247C575.021 226.247 566.602 226.247 558.183 226.247C541.187 226.247 524.186 226.247 507.191 226.251C473.352 226.251 439.518 226.256 405.679 226.261C386.618 226.261 367.552 226.156 348.491 226.342C347.227 226.356 347.222 228.292 348.491 228.302L348.481 228.311Z" fill="black"/>
<path d="M610.577 226.071C611.559 223.168 610.977 219.448 610.977 216.403V205.984C610.982 199.194 610.987 192.405 610.987 185.616C610.987 178.827 610.992 172.038 610.982 165.248C610.973 158.631 611.469 151.741 610.543 145.171C610.448 144.51 609.298 144.51 609.208 145.171C608.282 151.741 608.778 158.626 608.769 165.248C608.759 172.038 608.759 178.827 608.764 185.616C608.769 192.405 608.764 199.194 608.769 205.984C608.769 209.457 608.769 212.93 608.769 216.403C608.769 219.438 608.192 223.173 609.169 226.071C609.403 226.756 610.338 226.76 610.572 226.071H610.577Z" fill="black"/>
<path d="M328.017 33.8271C331.208 34.6026 334.939 34.1458 338.216 34.1506C341.493 34.1554 345.337 34.7548 348.409 33.8366C348.996 33.6606 348.991 32.828 348.409 32.6519C345.323 31.7242 341.426 32.3189 338.216 32.3141C335.005 32.3094 331.199 31.8479 328.017 32.6139C327.416 32.7566 327.416 33.6844 328.017 33.8271Z" fill="black"/>
<path d="M347.007 33.3133C346.849 37.1099 346.764 40.9065 346.659 44.7032C346.63 45.7451 348.261 45.7451 348.28 44.7032C348.352 40.9065 348.443 37.1099 348.462 33.3133C348.462 32.376 347.045 32.3855 347.007 33.3133Z" fill="black"/>
<path d="M346.569 43.8325C343.268 43.5708 339.934 43.6469 336.624 43.6089C333.609 43.5708 330.365 43.2235 327.393 43.7516C326.549 43.9038 326.564 45.2788 327.393 45.4406C330.356 46.0162 333.614 45.7165 336.624 45.726C339.929 45.7403 343.268 45.8735 346.569 45.6594C347.752 45.5833 347.743 43.9229 346.569 43.8325Z" fill="black"/>
<path d="M327.684 33.0278C327.221 36.9529 327.25 41.0255 327.197 44.9743C327.183 45.9687 328.7 45.9592 328.738 44.9743C328.905 41.0302 329.158 36.9672 328.915 33.0278C328.867 32.2238 327.775 32.2571 327.684 33.0278Z" fill="black"/>
<path d="M330.422 33.3037C329.936 32.9517 329.692 33.0516 329.101 33.1467C328.438 33.2562 328.295 34.1696 328.719 34.5931C331.457 37.3335 334.563 39.5839 338.04 41.3014C339.065 41.8105 339.977 40.2737 338.941 39.7599C335.607 38.1042 332.597 35.9823 329.94 33.3703V34.5931C330.145 34.3837 330.894 33.6463 330.422 33.3037Z" fill="black"/>
<path d="M347.594 33.2324C344.04 35.2354 340.658 37.6 337.262 39.8503C336.356 40.4498 337.195 41.9104 338.121 41.3157C341.551 39.1081 345.08 36.9577 348.343 34.5122C349.087 33.9556 348.448 32.7471 347.594 33.2324Z" fill="black"/>
<path d="M320.724 53.3336C322.275 54.1376 323.858 54.0329 325.576 54.052C327.779 54.0758 329.978 54.0758 332.182 54.0853C336.27 54.0996 340.363 54.1186 344.451 54.1233C348.539 54.1281 352.631 54.1233 356.719 54.1281C360.817 54.1281 365.1 54.4754 369.122 53.5952C369.608 53.4906 369.608 52.7246 369.122 52.6152C365.096 51.735 360.817 52.0775 356.719 52.0823C352.631 52.0823 348.539 52.0823 344.451 52.0871C340.363 52.0918 336.27 52.1108 332.182 52.1251C329.978 52.1346 327.779 52.1346 325.576 52.1584C323.873 52.1774 322.265 52.0775 320.724 52.8768C320.553 52.9672 320.553 53.2384 320.724 53.3288V53.3336Z" fill="black"/>
<path d="M322.475 80.9186C323.081 81.9748 323.682 81.8083 324.908 81.8416C326.959 81.8987 329.019 81.8749 331.07 81.8797C335.02 81.8892 338.97 81.8939 342.919 81.8987C346.869 81.9035 350.818 81.913 354.768 81.913C358.355 81.913 362.891 82.6409 366.312 81.48C366.903 81.2802 366.908 80.4761 366.312 80.2763C364.447 79.6436 362.41 79.8386 360.459 79.8386H353.824C349.559 79.8481 345.29 79.8529 341.026 79.8624C336.761 79.8719 332.492 79.8624 328.227 79.891C327.827 79.891 321.745 79.6388 322.475 80.9139V80.9186Z" fill="black"/>
<path d="M322.685 118.642C325.967 119.27 329.573 118.894 332.907 118.904C336.561 118.913 340.215 118.913 343.869 118.918C351.157 118.918 358.546 119.304 365.787 118.409C366.488 118.323 366.493 117.405 365.787 117.315C358.541 116.42 351.157 116.801 343.869 116.806C340.372 116.806 336.88 116.806 333.384 116.815C329.887 116.825 326.11 116.42 322.685 117.077C321.907 117.224 321.907 118.5 322.685 118.647V118.642Z" fill="black"/>
<path d="M324.322 157.379L324.365 157.622C324.441 158.036 324.894 158.317 325.29 158.326C329.95 158.44 334.62 158.416 339.281 158.416C343.64 158.416 348.21 158.821 352.489 157.907C353.023 157.793 353.023 156.946 352.489 156.832C348.215 155.919 343.636 156.323 339.281 156.323C334.616 156.323 329.95 156.299 325.29 156.413C324.899 156.423 324.441 156.699 324.365 157.118C324.408 156.899 324.307 157.317 324.322 157.384V157.379Z" fill="black"/>
<path d="M328.447 199.275C335.578 199.627 342.771 199.375 349.912 199.38C357.053 199.385 364.222 199.394 371.377 199.394C378.533 199.394 385.368 199.394 392.366 199.394C399.363 199.394 407.062 199.789 414.308 198.876C415.004 198.79 415.004 197.881 414.308 197.796C407.22 196.901 399.983 197.277 392.843 197.277C385.688 197.277 378.533 197.277 371.377 197.277C364.38 197.277 357.387 197.282 350.389 197.291C343.392 197.301 335.736 197.034 328.447 197.396C327.226 197.458 327.221 199.233 328.447 199.29V199.275Z" fill="black"/>
<path d="M496.774 199.076C501.186 199.699 505.861 199.328 510.321 199.337C515.081 199.351 519.846 199.351 524.607 199.351C533.813 199.351 543.019 199.356 552.225 199.361L579.844 199.37C584.605 199.37 589.37 199.38 594.131 199.37C598.605 199.361 603.237 199.665 607.673 199.061C608.426 198.957 608.426 197.648 607.673 197.544C603.237 196.939 598.6 197.244 594.131 197.234C589.37 197.225 584.605 197.234 579.844 197.234C570.638 197.234 561.432 197.239 552.225 197.244C543.019 197.244 533.813 197.249 524.607 197.253C519.846 197.253 515.081 197.253 510.321 197.268C505.861 197.282 501.191 196.906 496.774 197.529C496.01 197.639 496.01 198.957 496.774 199.066V199.076Z" fill="black"/>
<path d="M513.706 157.755C521.73 158.364 529.944 157.907 537.986 157.907C546.028 157.907 554.176 157.907 562.266 157.907C570.356 157.907 578.136 157.907 586.073 157.907C590.199 157.907 594.325 157.922 598.451 157.893C602.291 157.865 606.26 158.064 610.066 157.531C610.744 157.436 610.744 156.261 610.066 156.166C606.26 155.638 602.291 155.833 598.451 155.804C594.611 155.776 590.514 155.79 586.55 155.79C578.455 155.79 570.36 155.79 562.27 155.79C554.18 155.79 546.4 155.79 538.463 155.79C530.526 155.79 521.882 155.319 513.706 155.942C512.538 156.033 512.533 157.669 513.706 157.76V157.755Z" fill="black"/>
<path d="M396.501 101.472C398.871 101.986 401.395 101.791 403.813 101.805C406.508 101.819 409.203 101.838 411.898 101.848C417.446 101.871 422.998 101.857 428.546 101.857C434.093 101.857 439.326 101.857 444.716 101.862C450.245 101.862 455.873 102.147 461.364 101.419C462.137 101.315 462.141 100.316 461.364 100.216C456.026 99.5116 450.564 99.7685 445.193 99.7733C439.822 99.778 434.093 99.7733 428.546 99.778C422.998 99.7828 417.765 99.7685 412.375 99.7875C409.68 99.7971 406.985 99.8161 404.29 99.8304C401.595 99.8446 399.024 99.621 396.501 100.168C395.857 100.306 395.857 101.329 396.501 101.467V101.472Z" fill="black"/>
<path d="M481.948 102.4C483.761 103.099 485.826 102.847 487.748 102.856C490.11 102.866 492.466 102.88 494.827 102.885C499.387 102.894 503.952 102.947 508.508 102.809C509.676 102.775 509.672 100.934 508.508 101.001C507.878 101.034 507.582 101.072 506.972 101.205C506.28 101.353 506.28 102.452 506.972 102.604C507.582 102.737 507.883 102.775 508.508 102.809C509.672 102.875 509.676 101.034 508.508 101.001C503.952 100.863 499.383 100.915 494.827 100.925C492.623 100.929 490.424 100.944 488.221 100.953C486.17 100.963 483.889 100.658 481.953 101.41C481.466 101.6 481.466 102.209 481.953 102.4H481.948Z" fill="black"/>
<path d="M461.623 118.618C465.63 119.537 470.033 119.147 474.125 119.166C478.218 119.185 482.702 119.199 486.995 119.204C495.324 119.213 504.134 120.012 512.377 118.661C512.815 118.59 512.815 117.852 512.377 117.781C504.134 116.43 495.328 117.229 486.995 117.239C482.707 117.243 478.418 117.253 474.125 117.277C469.832 117.301 465.635 116.906 461.623 117.824C461.227 117.914 461.227 118.528 461.623 118.618Z" fill="black"/>
<path d="M334.59 69.4811C333.383 67.9872 332.582 65.9509 333.956 64.2382C335.058 62.868 337.476 62.5254 338.802 63.7529C340.128 64.9804 340.214 67.4639 338.664 68.5344C337.347 69.4478 335.191 68.9721 333.999 68.03C333.712 67.8017 333.169 68.0015 333.317 68.4249C333.765 69.7381 334.552 70.4993 335.95 70.8085C337.347 71.1178 338.783 70.7943 339.88 69.9521C342.141 68.2156 342.17 64.5712 340.214 62.592C338.258 60.6128 334.547 60.8412 332.673 62.9631C330.798 65.085 331.079 69.1624 333.627 70.7181C334.442 71.2177 335.11 70.1377 334.581 69.4811H334.59Z" fill="black"/>
<path d="M335.069 102.309C333.862 100.815 333.06 98.7789 334.434 97.0662C335.536 95.696 337.955 95.3534 339.281 96.5809C340.607 97.8084 340.693 100.292 339.142 101.362C337.826 102.276 335.67 101.8 334.477 100.858C334.191 100.63 333.647 100.83 333.795 101.253C334.243 102.566 335.03 103.327 336.428 103.637C337.826 103.946 339.262 103.622 340.359 102.78C342.62 101.044 342.648 97.3992 340.693 95.42C338.737 93.4408 335.026 93.6692 333.151 95.7911C331.276 97.913 331.558 101.99 334.105 103.546C334.921 104.046 335.589 102.966 335.059 102.309H335.069Z" fill="black"/>
<path d="M335.069 140.699C333.862 139.205 333.06 137.169 334.434 135.456C335.536 134.086 337.955 133.743 339.281 134.971C340.607 136.198 340.693 138.682 339.142 139.752C337.826 140.666 335.67 140.19 334.477 139.248C334.191 139.019 333.647 139.219 333.795 139.643C334.243 140.956 335.03 141.717 336.428 142.026C337.826 142.335 339.262 142.012 340.359 141.17C342.62 139.433 342.648 135.789 340.693 133.81C338.737 131.831 335.026 132.059 333.151 134.181C331.276 136.303 331.558 140.38 334.105 141.936C334.921 142.435 335.589 141.355 335.059 140.699H335.069Z" fill="black"/>
<path d="M335.069 183.042C333.862 181.548 333.06 179.512 334.434 177.799C335.536 176.429 337.955 176.086 339.281 177.314C340.607 178.541 340.693 181.025 339.142 182.095C337.826 183.009 335.67 182.533 334.477 181.591C334.191 181.363 333.647 181.563 333.795 181.986C334.243 183.299 335.03 184.06 336.428 184.37C337.826 184.679 339.262 184.355 340.359 183.513C342.62 181.777 342.648 178.132 340.693 176.153C338.737 174.174 335.026 174.402 333.151 176.524C331.276 178.646 331.558 182.723 334.105 184.279C334.921 184.779 335.589 183.699 335.059 183.042H335.069Z" fill="black"/>
<path d="M579.61 192.577C580.635 193.319 581.384 193.195 582.644 193.2C584.351 193.209 586.059 193.219 587.767 193.228C591.029 193.243 594.287 193.262 597.545 193.157C598.824 193.114 598.805 191.087 597.545 191.183C597.044 191.221 596.825 191.244 596.357 191.411C595.613 191.673 595.609 192.662 596.357 192.929C596.83 193.095 597.044 193.119 597.545 193.157C598.805 193.252 598.824 191.225 597.545 191.183C594.287 191.078 591.025 191.092 587.767 191.111C586.216 191.116 584.661 191.125 583.111 191.135C581.69 191.144 580.755 190.93 579.61 191.763C579.305 191.982 579.305 192.362 579.61 192.581V192.577Z" fill="black"/>
<path d="M580.577 218.658C580.616 218.658 580.616 218.601 580.577 218.601C580.539 218.601 580.539 218.658 580.577 218.658Z" fill="black"/>
<path d="M580.135 219.272C582.778 220.143 585.497 220.033 588.244 220.047C590.992 220.062 593.778 220.385 596.401 219.453C596.978 219.248 596.754 218.382 596.144 218.53L596.077 218.544C595.633 218.649 595.633 219.329 596.077 219.438L596.144 219.453L596.401 218.53C593.768 217.597 591.006 217.921 588.244 217.935C585.482 217.949 582.783 217.84 580.135 218.71C579.859 218.801 579.859 219.177 580.135 219.272Z" fill="black"/>
<path d="M147.706 302.032C154.255 302.826 161.071 302.365 167.664 302.369C174.318 302.379 180.967 302.369 187.621 302.369C200.61 302.369 213.599 302.37 226.588 302.365C252.881 302.365 279.178 302.355 305.471 302.35C320.377 302.35 335.255 302.417 350.137 301.761C350.729 301.737 350.729 300.871 350.137 300.847C323.893 299.691 297.533 300.252 271.255 300.248C244.962 300.248 218.665 300.238 192.372 300.238H170.511C162.989 300.238 155.166 299.672 147.701 300.576C146.761 300.69 146.761 301.922 147.701 302.036L147.706 302.032Z" fill="black"/>
<path d="M110.341 326.258C113.518 326.367 116.595 326.905 119.791 326.929C122.987 326.952 126.092 326.948 129.24 326.948C135.541 326.948 141.838 326.948 148.139 326.948C154.44 326.948 160.422 326.948 166.566 326.948C173.005 326.948 179.526 327.195 185.937 326.486C186.724 326.401 186.729 325.349 185.937 325.259C179.679 324.569 173.325 324.797 167.038 324.797H148.139C141.995 324.797 135.856 324.797 129.712 324.797C126.564 324.797 123.411 324.792 120.263 324.816C116.91 324.84 113.671 325.373 110.341 325.492C109.85 325.511 109.85 326.234 110.341 326.248V326.258Z" fill="black"/>
<path d="M0.581186 300.386C13.4937 300.438 26.3777 300.842 39.2854 300.852C52.1169 300.861 65.2155 301.618 77.9897 300.39C78.772 300.314 78.772 299.248 77.9897 299.177C65.2155 297.95 52.1169 298.706 39.2854 298.716C26.3729 298.725 13.4937 299.13 0.581186 299.182C-0.196333 299.182 -0.196333 300.381 0.581186 300.386Z" fill="black"/>
</g>
<defs>
<clipPath id="clip0_443_1008">
<rect width="638" height="327" fill="white"/>
</clipPath>
</defs>
</svg>
