<svg width="326" height="244" fill="none" xmlns="http://www.w3.org/2000/svg"><path d="M67.615 144.553c1.698-6.306 8.186-7.478 11.218-7.276 1.718.505 5.7 1.88 7.883 3.335 2.729 1.819 5.154 7.58 6.064 12.128.728 3.638.707 9.399.606 11.824 0 3.537-.303 11.764-1.516 16.372-1.516 5.761-.606 13.341 1.516 17.585 1.698 3.396.708 5.862 0 6.671H48.211l-3.941-7.883c4.042-1.516 12.067-4.851 11.824-6.064-.303-1.516 1.213-6.367 2.426-8.186 1.212-1.82 5.76-5.458 7.883-5.458 2.122 0 1.212-14.553 0-18.798-1.213-4.244-.91-6.367 1.212-14.25Z" fill="#fff"/><path d="M95.508 181.846h-6.973l3.032 13.644c6.771.202 21.163.182 24.558-1.516 3.396-1.698 2.224-5.155 1.213-6.671-3.335-2.829-10.551-8.671-12.734-9.398-2.183-.728-6.973 2.324-9.096 3.941ZM26.38 176.085c12.128.607 11.219 3.032 17.89 5.761 4.678 1.914 7.834 8.165 9.222 12.128.16.505-1.097 1.879-7.404 3.335-9.399.606-18.494-9.096-19.707-10.006-1.213-.909-.91-1.819-.91-3.031-1.94-.243-3.638-4.346-4.244-6.367l4.244.909.91-.909c-.101-.304-.243-1.092 0-1.82Z" fill="#fff"/><path d="M109.23 165.17h-.078c.457-.608.913-1.193.078 0h32.364v23.649h-35.17l-.607-10.612c-.303-2.324-.303-7.822 2.123-11.218.6-.84 1.015-1.426 1.29-1.819Z" fill="#fff"/><path fill="#fff" d="M77.924 48.745h216.478V165.17H77.924z"/><path d="m124.918 133.032-23.042-8.186-3.032 1.213-10.915 7.883c-1.112.606-3.638 2.244-4.85 3.941 4.365.243 7.882 7.984 9.095 11.825l2.122 19.404 8.793 6.367c.404.101 1.455.243 2.425 0-.303-9.399 5.761-10.915 6.064-12.128.303-1.212 2.122-1.212 10.915-4.851 4.851-10.672 3.638-21.425 2.425-25.468Z" fill="#fff"/><path d="M286.694 144.653h-47.467v14.6h47.467v-14.6Z" fill="#000" stroke="#000" stroke-width=".25" stroke-miterlimit="10"/><path d="m78.47 88.473 216.128-1.21.007-19.739-216.658 1.66.522 19.289ZM66.9 160.444c-.617-5.361-1.411-10.928 1.196-15.931 2.187-4.199 6.434-7.37 11.33-6.751 5.271.667 9.138 4.866 11.053 9.598 2.104 5.196 1.974 10.713 2.246 16.207.048.933 1.437.943 1.453 0 .17-8.744-.804-19.711-8.775-25.043-3.348-2.238-7.649-3.041-11.44-1.498-3.554 1.444-6.256 4.51-7.73 8.011-2.02 4.796-1.903 10.636-.393 15.553.17.552 1.13.485 1.057-.143l.003-.003Z" fill="#000"/><path d="M93.898 158.209c2.452.648 5.297.508 7.819.654l-.652-.857-.054.276c-.041.213.057.4.266.47l.257.089c.892.301 1.212-1.264.18-1.33-2.475-.165-5.221-.648-7.683-.321-.538.07-.757.86-.14 1.022l.007-.003Z" fill="#000"/><path d="M94.298 165.202c1.488-1.092 2.912-2.273 4.352-3.428 1.079-.867 3.291-1.962 3.506-3.4.028-.187-.073-.339-.269-.352-1.405-.108-2.709 1.578-3.744 2.406-1.547 1.241-3.126 2.46-4.62 3.768-.538.469.184 1.437.772 1.006h.003ZM65.888 160.056c-.028 1.584.355 3.193.548 4.765.209 1.688.37 3.383.427 5.084.108 3.187-.155 6.409-1.123 9.459-1.855 5.834-6.51 9.963-12.098 12.144-.858.336-.484 1.739.383 1.4 5.61-2.203 10.38-6.158 12.616-11.884 1.225-3.139 1.65-6.561 1.608-9.916-.022-1.901-.19-3.799-.424-5.687-.234-1.889-.36-3.771-.946-5.495-.18-.53-.981-.454-.99.134v-.004ZM72.95 191.905c5.522 2.104 11.553 3.228 17.401 3.954a90.557 90.557 0 0 0 18.247.413c3.785-.298 10.699-.879 10.259-6.326-.44-5.446-6.696-6.015-10.794-5.853-.94.038-.949 1.476 0 1.473 2.351-.006 4.949-.146 7.025 1.162 2.121 1.336 3.187 4.101 1.19 6.049-1.816 1.768-4.721 1.832-7.091 2.041a90.904 90.904 0 0 1-21.576-.692c-4.797-.733-9.579-2.066-14.345-3.351-.74-.2-1.003.869-.31 1.133l-.006-.003Z" fill="#000"/><path d="M108.348 185.363c1.567-.838 1.817-3.104 1.184-4.625-.734-1.758-2.516-2.859-4.339-3.161-2.275-.378-4.677.311-6.734 1.244-1.79.81-4.408 2.175-5.17 4.079-.19.473.401.746.762.587 1.288-.568 2.291-1.844 3.529-2.577 1.433-.848 3.028-1.489 4.674-1.774 1.645-.286 3.658-.226 5.012.974 1.516 1.343 1.209 2.907.294 4.46-.3.511.292 1.053.788.79v.003Z" fill="#000"/><path d="m94.646 182.795.07-.171c.12-.298-.086-.625-.32-.787-3.01-2.07-6.763-2.46-10.203-1.308-1.73.578-3.338 1.486-4.841 2.511-1.352.92-2.994 1.942-3.981 3.256-.396.527.338 1.026.807.81 1.348-.622 2.462-1.81 3.69-2.654 1.322-.911 2.724-1.752 4.23-2.314 3.273-1.222 6.592-.86 9.598.902a.712.712 0 0 0 .842-.108c.054-.051.086-.073.11-.137h-.002Z" fill="#000"/><path d="M92.869 162.745c-.222 1.66.133 3.463.183 5.139a72.01 72.01 0 0 1-.025 5.158 66.937 66.937 0 0 1-.377 4.843c-.161 1.416-.8 3.038-.23 4.39.088.213.42.228.566.073.898-.968.82-2.587.974-3.86a66.638 66.638 0 0 0 .434-10.604c-.07-1.701-.006-3.653-.592-5.266-.193-.527-.864-.4-.933.127ZM51.256 188.036c-1.032-2.213-3.05-4.063-4.886-5.609a31.211 31.211 0 0 0-6.272-4.11c-4.408-2.178-9.57-3.571-14.516-3.244-.724.047-.905 1.069-.174 1.292.26.073.52.155.772.254.589.206.801-.607.39-.924l-.523-.425-.462 1.123c4.918.197 9.564 1.06 14 3.301a31.631 31.631 0 0 1 5.968 3.904c1.823 1.521 3.263 3.403 5.026 4.971.38.336.889-.08.68-.527l-.003-.006Z" fill="#000"/><path d="M25.246 176.476c.427 4.167 4.981 6.998 8.234 8.906 4.633 2.717 9.718 5.021 14.94 6.323.816.203 1.145-1.007.348-1.264-4.722-1.504-9.291-3.186-13.649-5.583-1.873-1.031-3.76-2.12-5.395-3.507-1.636-1.387-2.693-3.123-3.696-5.088-.184-.359-.823-.206-.782.213Z" fill="#000"/><path d="M35.287 185.141c-3.57-.686-7.316-.784-10.94-1.057-.5-.038-.873.616-.588 1.028 6.269 9.116 17.44 14.061 28.373 12.439.88-.13.506-1.475-.37-1.342-10.254 1.562-21.05-3.139-26.83-11.785l-.588 1.028c3.557.324 7.222.844 10.794.756.586-.013.766-.946.143-1.067h.006Z" fill="#000"/><path d="M43.71 197.796c3.155 9.585 11.905 17.041 21.512 19.52 9.171 2.365 21.8.93 27.367-7.767 2.734-4.275 3.057-10.21-.101-14.346-.592-.778-1.928-.01-1.326.777 2.753 3.6 2.604 8.58.357 12.408-2.354 4.008-6.737 6.402-11.107 7.547-9.386 2.46-19.785-.13-27.063-6.509-3.838-3.365-6.443-7.485-8.503-12.109-.288-.645-1.357-.188-1.14.482l.004-.003ZM94.222 181.846c-.541.312-.64.819-.915 1.359-.338.66-.753 1.285-1.228 1.857a9.715 9.715 0 0 1-3.683 2.733l.655.174c-.17-.159-.247-.184-.478-.197-.993-.063-.791 1.746.342 1.26a10.89 10.89 0 0 0 4.088-3.037c.703-.848 2.219-2.752 1.74-3.929-.084-.21-.303-.34-.521-.213v-.007ZM107.684 184.643c-1.339.45-2.497 1.542-3.763 2.203-1.522.793-3.123 1.38-4.779 1.821-.87.232-.5 1.594.374 1.356 1.683-.461 3.31-1.07 4.857-1.876 1.333-.692 3.029-1.492 3.864-2.787.228-.352-.152-.857-.553-.72v.003Z" fill="#000"/><path d="M65.034 216.662c-.472 2.406-.08 4.92-.576 7.358-.488 2.39-1.465 4.402-3.13 6.186-.64.685.33 1.647 1.022 1.025 1.813-1.628 2.893-3.987 3.418-6.335.566-2.527.895-5.698.316-8.234-.117-.511-.946-.533-1.05 0Z" fill="#000"/><path d="M62.343 231.831c1.648-.08 3.294-.007 4.914.317 1.503.298 2.873.981 4.351 1.314.68.153.997-.698.456-1.089-2.563-1.856-6.677-2.12-9.725-1.907-.864.06-.88 1.406 0 1.362l.004.003Z" fill="#000"/><path d="M62.72 230.568c1.512-.019 3.015-.699 4.538-.857a17.877 17.877 0 0 1 5.037.187c.867.156 1.24-1.178.367-1.333-1.882-.34-3.775-.451-5.677-.2-1.522.2-3.367.46-4.556 1.501-.273.238-.051.708.29.705v-.003ZM61.602 229.841c-1.402-.423-2.899-.426-4.332-.172-1.019.181-2.791.419-3.041 1.609-.035.162.019.372.183.451.96.46 1.833-.263 2.814-.473 1.417-.301 2.769-.206 4.196-.041.803.092.911-1.155.186-1.374h-.006ZM73.958 218.068c.146.959.782 1.714 1.222 2.565.515.993.952 2.021 1.303 3.085.317.946.57 1.914.757 2.895.199 1.056.142 2.199.553 3.196.2.482.905.574 1.073 0 .586-2.006-.402-4.831-1.079-6.736-.623-1.758-1.513-4.535-3.19-5.503-.36-.21-.696.133-.642.495l.003.003Z" fill="#000"/><path d="M78.928 229.647c1.617-.46 3.066-1.434 4.693-1.942 1.48-.464 3.161-.464 4.56-1.089.411-.184.282-.847-.123-.946-1.583-.387-3.554.283-5.064.778-1.51.495-3.417 1.158-4.56 2.352-.345.358 0 .987.49.844l.004.003Z" fill="#000"/><path d="M78.533 230.806c1.835-.019 3.522-.238 5.344.203 1.292.314 2.602 1.434 3.915 1.209.168-.029.278-.248.228-.403-.456-1.419-2.744-1.882-4.044-2.171-1.776-.394-3.864-.537-5.58.159-.496.203-.48 1.006.137.999v.004Z" fill="#000"/><path d="M77.96 229.263c-1.373.219-2.747.432-4.117.673-.247.044-.465.292-.525.527-.06.235-.067.374.076.581.205.304.5.406.85.346 1.368-.232 2.732-.492 4.099-.743.914-.168.516-1.53-.38-1.387l-.003.003ZM26.287 184.081c-2.13-1.692-3.854-3.231-4.373-6.047l-.671.883c1.088-.013 2.148.073 3.215.317.788.181 1.471.603 2.256.314.244-.089.38-.352.24-.596-.474-.842-1.458-.927-2.354-1.111a16.773 16.773 0 0 0-3.36-.321c-.497 0-.735.444-.671.882.395 2.74 2.36 5.914 5.227 6.507.434.089.909-.495.485-.831l.006.003ZM66.178 177.282c-6.285 1.238-11.278 7.053-10.816 13.629.063.914 1.402.933 1.43 0 .18-6.015 3.769-10.928 9.785-12.179.946-.196.544-1.634-.399-1.45ZM48.675 186.026c.313 1.295 1.567 2.438 2.25 3.597.8 1.355 1.269 2.85 2.013 4.221.354.654 1.237.178 1.126-.476-.281-1.628-1.23-3.276-2.082-4.666-.693-1.133-1.529-2.676-2.797-3.183-.307-.124-.573.231-.507.507h-.003ZM106.394 178.174c-1.462-5.514 1.316-11.57 6.009-14.614 5.199-3.374 11.949-3.599 17.93-4.129 13.509-1.193 27.091-1.216 40.639-.828 6.009.171 12.942-.184 17.993 3.653 4.503 3.425 6.436 9.274 4.307 14.613-2.257 5.663-7.605 8.503-13.345 9.446-6.266 1.028-12.803 1.07-19.142 1.346-14.038.612-28.085.517-42.126.143-.968-.026-.968 1.482 0 1.511 13.946.387 27.895.485 41.838-.112 3.563-.152 7.123-.346 10.68-.571 3.317-.213 6.671-.355 9.943-.974 5.592-1.06 10.649-4.035 13.142-9.338 2.298-4.885 1.624-10.471-1.781-14.658-3.842-4.726-9.744-5.986-15.541-6.281-14.968-.762-30.107-.708-45.05.501-6.911.559-15.019.679-20.882 4.888-4.836 3.473-7.605 9.935-5.959 15.778.243.867 1.576.502 1.345-.371v-.003Z" fill="#000"/><path d="M175.617 181.218c-5.285.466-9.49-3.819-8.319-9.183 1.076-4.932 6.588-7.76 11.31-6.579 4.721 1.18 7.167 6.03 5.664 10.461-.674 1.981-2.237 3.533-4.108 4.409-2.066.971-4.025.758-6.205.466-.646-.085-.851.915-.323 1.2 3.516 1.892 8.465-.111 10.734-3.082 2.481-3.244 2.339-7.979-.016-11.258-5.759-8.021-19.55-2.66-18.673 7.084.433 4.838 5.151 9.031 10.075 7.507.538-.165.472-1.086-.139-1.032v.007ZM83.308 137.67c1.55-.542 2.95-1.831 4.285-2.783 1.525-1.089 3.05-2.181 4.576-3.273l4.322-3.091c1.462-1.048 3.12-2.006 4.396-3.276.516-.514-.136-1.282-.75-.974-1.554.774-2.953 2.003-4.364 3.018l-4.566 3.289-4.314 3.104c-1.344.968-3.031 1.863-4.056 3.171-.266.339-.038.993.471.815Z" fill="#000"/><path d="M100.299 124.647c1.69 1.137 4.003 1.629 5.911 2.327 2.13.781 4.263 1.558 6.396 2.336l12.797 4.653c.892.324 1.329-1.197.395-1.435-.436-.111-.538-.133-.981-.098-.443.035-.674.533-.36.87.313.336.373.374.769.587l.572-1.359-12.797-4.653c-2.133-.774-4.266-1.546-6.402-2.317-1.917-.692-3.981-1.765-6.012-1.98-.611-.064-.712.78-.288 1.066v.003Z" fill="#000"/><path d="M125.244 133.493c-.24 2.054.349 4.361.371 6.453a43.556 43.556 0 0 1-.453 6.818 44.316 44.316 0 0 1-1.329 6.05c-.633 2.145-1.759 4.193-2.285 6.345-.18.736.75 1.063 1.165.491 1.294-1.78 1.965-4.345 2.579-6.433a45.492 45.492 0 0 0 1.424-6.707 45.03 45.03 0 0 0 .411-6.846c-.034-2.029.045-4.587-.8-6.466-.266-.59-1.026-.206-1.086.295h.003ZM104.431 175.203a39.21 39.21 0 0 1-5.253-3.053c-1.667-1.159-3.044-2.727-4.734-3.787-.493-.308-1.155.317-.816.819 1.06 1.574 2.857 2.774 4.386 3.872a36.115 36.115 0 0 0 5.724 3.336c.792.375 1.491-.8.693-1.187ZM119.918 130.951c1.206-1.137 1.516-3.346 2.028-4.888.665-2.003 1.355-4 1.975-6.015l-.896.511.146.038c.241.06.427-.048.57-.232l.107-.139c.592-.772-.946-1.654-1.332-.562-.703 1.99-1.339 4.002-2 6.005-.513 1.555-1.541 3.466-1.253 5.11.054.308.459.359.658.175l-.003-.003Z" fill="#000"/><path d="M123.591 120.353c1.472-2.533 4.614-1.993 7.016-1.466 2.402.526 5.029 1.129 7.538 1.707 5.225 1.203 10.44 2.441 15.645 3.711a1161.783 1161.783 0 0 1 48.107 12.816c.902.261 1.285-1.146.386-1.406a1157.137 1157.137 0 0 0-66.166-17.067c-3.833-.866-11.253-3.85-13.643 1.048-.36.739.693 1.381 1.114.654l.003.003Z" fill="#000"/><path d="M201.641 136.702c2.996 1.606 2.43 4.806 1.67 7.615a165.723 165.723 0 0 1-2.531 8.398 167.404 167.404 0 0 1-2.842 7.977 151.665 151.665 0 0 1-1.573 3.929c-.563 1.358-1.382 2.752-1.664 4.202-.139.715.706 1.029 1.126.476.924-1.225 1.405-2.856 1.994-4.275a170.12 170.12 0 0 0 1.902-4.777 164.52 164.52 0 0 0 3.446-10.008c.924-2.986 2.307-6.37 2.244-9.537-.041-2.118-1.098-4.533-3.326-5.066-.624-.149-1.051.746-.45 1.066h.004ZM124.324 118.94c.87 1.46 2.209 2.685 3.351 3.939a235.89 235.89 0 0 0 3.636 3.885 343.795 343.795 0 0 0 7.899 7.986 347.486 347.486 0 0 0 16.335 14.978c.709.613 1.75-.422 1.032-1.035a341.715 341.715 0 0 1-24.044-22.735c-1.228-1.279-2.446-2.568-3.665-3.857-1.234-1.301-2.386-2.809-3.826-3.881-.436-.327-.974.298-.721.723l.003-.003Z" fill="#000"/><path d="M156.06 149.849c8.035-1.193 16.015-3.212 23.968-4.872l11.661-2.431c4.076-.851 8.237-1.534 12.262-2.603.855-.229.475-1.425-.357-1.298-4.016.612-8.003 1.622-11.981 2.45l-11.968 2.495c-7.946 1.657-16.066 2.99-23.905 5.107-.756.203-.421 1.257.317 1.149l.003.003ZM78.659 137.242c.636-2.644.297-5.641.3-8.348l.01-8.548c.006-5.805-.01-11.607-.02-17.412-.015-11.608-.028-23.218-.04-34.826-.007-6.535.23-13.121-.421-19.628a.245.245 0 0 0-.49 0c-.58 5.78-.415 11.607-.422 17.413l-.019 17.412c-.012 11.608-.038 23.218-.044 34.826 0 3.164.006 6.332.01 9.497.003 3.094-.424 6.595.3 9.61.098.41.731.413.83 0l.006.004ZM293.754 48.48c-.503 7.545-.12 15.229-.126 22.792-.007 7.6-.004 15.195 0 22.793 0 15.194.009 30.388.003 45.582v12.662l-.006 6.646c0 1.054-.013 2.111.003 3.164.015 1.188.288 2.302.411 3.482a.298.298 0 0 0 .595 0c.203-1.952.415-3.726.415-5.697v-5.697l-.007-11.395c0-7.599-.006-15.194-.003-22.793.006-15.194.019-30.388.006-45.582l-.012-12.661c-.003-4.418.174-8.887-.117-13.296-.051-.746-1.108-.746-1.159 0h-.003Z" fill="#000"/><path d="M294.152 164.624c-3.098-.393-6.345-.149-9.468-.149h-28.401c-12.624.006-25.247.006-37.867.019-3.576.003-7.152.016-10.727.022-3.282.007-7-.482-10.184.41-.304.085-.304.533 0 .615 2.817.791 6.019.4 8.921.407l9.468.019c6.31.012 12.623.009 18.933.012 12.623.007 25.247.013 37.867.013h10.727c3.532 0 7.222.298 10.728-.149.785-.098.788-1.127 0-1.228l.003.009ZM293.972 47.718c-13.997-.289-28.025-.041-42.025-.041-14.009 0-28.018 0-42.024.01-28.019.018-56.034.04-84.052.047h-23.383c-7.946 0-16.117-.517-24.015.438-.339.041-.339.489 0 .527 6.974.844 14.154.435 21.17.435h20.854c14.009.003 28.019.013 42.025.019 28.018.013 56.033.035 84.052.038 15.791 0 31.61.286 47.398-.041.921-.02.921-1.416 0-1.435v.003ZM78.422 69.787c27.987.073 55.98-.292 83.964-.457 27.778-.165 55.556-.337 83.333-.492 15.782-.089 31.566-.162 47.348-.27.876-.006.879-1.374 0-1.368-27.987.146-55.977.362-83.964.534-27.778.17-55.556.34-83.334.514-15.781.098-31.569.101-47.347.336-.772.013-.775 1.203 0 1.206v-.003ZM78.248 89.431c27.974.06 55.955-.323 83.929-.526l83.929-.61 47.328-.346c.876-.006.879-1.374 0-1.368-27.978.206-55.952.416-83.929.622-27.977.21-55.951.413-83.929.626-15.775.12-31.553.168-47.328.434-.75.013-.75 1.165 0 1.168Z" fill="#000"/><path d="m93.387 74.821 21.022.048c2.123.006 4.323.025 6.256.904 1.934.88 3.535 2.873 3.269 4.984-.228 1.8-1.75 3.221-3.44 3.862-1.69.642-3.547.651-5.357.651l-22.18.013c-2.753 0-6.114-.375-7.212-2.904-.908-2.092.437-4.615 2.383-5.793 1.946-1.177 3.262-1.622 5.534-1.765" fill="#fff"/><path d="M93.386 75.488c5.77.028 11.541.047 17.31.07 2.709.01 5.633-.264 8.285.387 2.652.65 5.5 3.279 3.699 6.104-1.579 2.478-4.968 2.45-7.547 2.456-2.877.01-5.75.003-8.626.007l-8.627.006c-2.535 0-5.206.241-7.715-.181-2.845-.48-5.114-2.682-3.256-5.574 1.5-2.339 4.424-2.834 6.908-3.358.687-.146.484-1.14-.158-1.177-4.124-.232-11.044 3.73-8.478 8.719 1.08 2.095 3.459 2.787 5.64 3.009 3.436.352 6.999.095 10.451.095h11.399c3.082-.006 6.702.38 9.417-1.403 1.937-1.273 3.114-3.536 2.345-5.837-.883-2.64-3.528-4.025-6.11-4.428-3.88-.603-8.032-.216-11.949-.222-4.329-.003-8.655-.006-12.984-.006-.855 0-.855 1.326 0 1.333h-.004Z" fill="#fff"/><path d="M113.68 82.722c-1.145.057-2.006-1.27-1.797-2.4.209-1.13 1.168-1.99 2.209-2.473 1.038-.482 2.266-.676 3.332-.257 1.066.42 1.892 1.546 1.721 2.682-.215 1.425-1.769 2.238-3.189 2.45a8.417 8.417 0 0 1-3.839-.326" fill="#fff"/><path d="M113.791 82.328c-2.196-.537-1.142-2.94.235-3.74 1.376-.799 3.892-1.012 4.398.928.453 1.736-1.592 2.456-2.946 2.58-1.149.105-2.345-.352-3.446-.032-.256.077-.313.375-.149.565 1.434 1.664 5.225.927 6.744-.333 1.737-1.444 1.395-3.983-.538-5.088-2.032-1.162-5.152-.127-6.348 1.816-.991 1.606-.295 4.33 1.943 4.104.427-.045.588-.686.107-.803v.003Z" fill="#000"/><path d="M143.952 73.638c-3.661-1.254-8.563-1.013-10.899 2.551-2.186 3.336-.436 7.113 3.019 8.545 3.456 1.431 7.731.562 9.82-2.695 1.835-2.856 1.085-7.297-2.238-8.706-.854-.362-1.588.771-.75 1.285 2.614 1.6 3.32 4.806 1.276 7.234-1.893 2.247-5.19 2.6-7.772 1.412-2.782-1.282-3.788-4.542-1.551-6.89 2.237-2.35 5.791-2.013 8.737-1.435.848.165 1.181-1.016.358-1.298v-.004ZM150.687 73.63c-.079 1.94-.167 3.876-.228 5.816-.053 1.752-.303 3.624-.019 5.358.105.628.953.482 1.13 0 .105-.223.171-.458.2-.702l-.573-.241-.133.292c-.114.257.212.587.424.33l.199-.241c.219-.267-.05-.673-.379-.492a2.22 2.22 0 0 0-.602.393l.861.664c.396-1.711.256-3.606.31-5.358.063-1.936.098-3.876.143-5.815.019-.863-1.301-.86-1.336 0l.003-.003Z" fill="#fff"/><path d="M151.757 74.26a128.78 128.78 0 0 1 9.079 10.277c.437.55 1.285.063 1.301-.54.098-3.691.177-7.382.265-11.074.026-.996-1.518-.996-1.544 0-.082 3.692-.174 7.383-.247 11.074l1.301-.54a128.678 128.678 0 0 0-9.145-10.21c-.652-.654-1.662.356-1.013 1.016l.003-.004Z" fill="#fff"/><path d="M101.118 55.044c7.263.08 14.525.01 21.788-.016l10.737-.038 5.367-.02c1.503-.005 3.275.33 4.642-.358.285-.143.288-.616 0-.758-1.288-.638-2.914-.337-4.326-.33l-5.367.015-11.053.032c-7.263.02-14.528-.003-21.788.117-.867.016-.87 1.346 0 1.356ZM101.117 63.735c5.608.4 11.333.108 16.953.108h33.904c5.658 0 11.329.184 16.952-.372a.346.346 0 0 0 0-.692c-5.623-.555-11.294-.368-16.952-.368H118.07c-5.62 0-11.345-.295-16.953.105-.781.057-.781 1.165 0 1.219ZM85.738 54.901c2.61.492 5.636.086 8.282 0 .905-.029.911-1.425 0-1.413-2.649.032-5.7-.247-8.282.362-.506.121-.535.956 0 1.054v-.003ZM85.931 63.903c2.023.2 4.14-.023 6.171-.09 1.383-.044 3.462.372 4.522-.647.105-.101.12-.31 0-.41-1.196-.996-3.367-.396-4.832-.345-1.987.07-4.054.01-6.016.34-.699.117-.449 1.094.156 1.155v-.003ZM92.35 105.33c1.354.006 2.715-.089 4.069-.159 1.07-.057 2.3.13 3.196-.511.25-.178.298-.565 0-.733-.968-.549-2.117-.251-3.196-.19-1.354.076-2.718.127-4.07.279-.82.092-.867 1.314 0 1.317v-.003ZM107.94 105.393c1.374.277 2.817.115 4.212.089 1.567-.028 3.133-.07 4.7-.108l8.768-.209 8.769-.21c2.931-.069 6.044.131 8.94-.327.772-.12.487-1.193-.171-1.263-2.848-.305-5.905.061-8.769.134l-9.082.234-8.769.226c-2.734.07-5.943-.261-8.598.409-.49.124-.522.921 0 1.025ZM92.595 117.725c1.655.352 3.475.168 5.158.146 1.893-.026 3.782-.051 5.674-.089l5.358-.108c1.506-.032 3.604.343 4.911-.489.228-.143.244-.489 0-.628-1.278-.74-3.168-.327-4.595-.296l-5.674.124c-1.784.041-3.572.092-5.357.143-1.785.051-3.737-.079-5.472.368-.398.102-.42.743 0 .832l-.003-.003ZM141.539 116.065c9.126.654 18.338.584 27.483.796 9.146.213 18.323.416 27.484.622.918.023.918-1.409 0-1.428-9.161-.2-18.323-.403-27.484-.593-9.145-.194-18.341-.67-27.483-.423-.665.02-.652.981 0 1.026ZM57.578 145.742c-.497-.883-1.165-.835-2.136-1.064-1.272-.298-2.547-.596-3.82-.891-1.173-.273-2.35-.543-3.528-.813-1.073-.248-2.209-.752-3.272-.352-.317.12-.45.495-.2.758.741.784 1.728.816 2.757 1.054 1.275.295 2.547.594 3.823.886 1.177.269 2.354.536 3.531.806.984.225 1.848.679 2.728.073.149-.102.212-.289.117-.454v-.003ZM59.621 141.035a641.807 641.807 0 0 0-5.354-3.911c-.788-.568-1.541.743-.76 1.305a641.893 641.893 0 0 0 5.393 3.847c.76.536 1.452-.702.721-1.241ZM64.036 139.962c.266-1.029-.019-2.006-.18-3.051-.206-1.32-.43-2.64-.649-3.961l-.608-3.653c-.205-1.241-.259-2.622-.873-3.726-.215-.391-.927-.35-1.01.133-.183 1.06.08 2.028.26 3.088.222 1.317.453 2.635.677 3.952.21 1.216.412 2.434.627 3.647.215 1.212.263 2.641.95 3.675.202.305.705.28.806-.104ZM90.428 152.798c-.073-1.762-2.212-2.898-3.804-2.673-1.484.21-3.57 1.981-2.952 3.66.17.46.803.606 1.079.143.585-1 .661-2.149 2.066-2.371 1.333-.21 1.946.749 2.7 1.618.3.349.93.07.91-.377ZM88.096 146.507c-.225-1.099-1.788-1.448-2.731-1.518-1.184-.088-2.674.229-3.456 1.191-.424.52.092 1.196.706.917.93-.422 1.683-.857 2.75-.787.838.054 1.604.65 2.42.603a.325.325 0 0 0 .307-.406h.004ZM238.634 144.203c-.63 2.428-.212 5.383-.202 7.881.006 1.342.012 2.685.025 4.028.009 1.123-.212 2.342.418 3.31a.42.42 0 0 0 .718 0c.617-.981.377-2.184.367-3.31a771.608 771.608 0 0 0-.041-4.028c-.032-2.508.345-5.456-.326-7.881-.13-.47-.832-.48-.959 0Z" fill="#000"/><path d="M238.871 145.11c8.126.311 16.307.051 24.439.054h11.908c2.089.003 4.178.007 6.266.007 1.858 0 3.972.279 5.766-.251.446-.133.449-.778 0-.911-1.798-.533-3.905-.251-5.766-.251H263.31c-8.132.006-16.313-.251-24.439.057-.829.032-.832 1.264 0 1.295Z" fill="#000"/><path d="M286.269 144.529c-.152 2.606-.06 5.234-.054 7.843.003 1.254.009 2.511.019 3.765.006 1.101-.127 2.075.357 3.069.152.314.69.324.839 0 .43-.921.323-1.736.316-2.755-.012-1.359-.025-2.72-.044-4.079-.035-2.609.016-5.24-.177-7.843-.06-.803-1.206-.812-1.253 0h-.003Z" fill="#000"/><path d="M238.796 159.663c1.854.391 3.889.175 5.778.184 1.984.01 3.968.016 5.953.016l12.218.007 11.904.006c2.089 0 4.178.003 6.266.003 1.915 0 3.889.149 5.775-.225.494-.099.497-.905 0-1.003-1.886-.375-3.86-.226-5.775-.226-1.914 0-3.968 0-5.952.003l-12.218.007-11.905.006c-2.089 0-4.177.007-6.266.016-1.889.006-3.927-.206-5.778.184-.507.105-.507.921 0 1.025v-.003Z" fill="#000"/><path d="M249.853 147.573c-1.183-.822-2.822-1.317-4.091-.371-.934.698-1.355 1.961-.706 2.999.788 1.257 2.503 1.362 3.766 1.768.592.191 1.427.502 1.731 1.117.5 1.003-.234 1.645-1.048 1.902-.62.196-4.414.016-3.579-1.337.206-.33-.053-.907-.487-.85-1.601.212-1.484 2.199-.364 3.012 1.519 1.101 4.576 1.228 6.07.041 1.493-1.187 1.376-3.091.009-4.294-.823-.721-1.873-.952-2.902-1.213-.705-.177-2.389-.384-1.981-1.634.408-1.251 2.431-.362 3.146-.102.636.229.93-.689.433-1.035l.003-.003Z" fill="#fff"/><path d="M253.783 154.007c1.259.793 4.151-.273 3.718-2.07-.434-1.796-2.918-1.774-4.003-.688-1.31 1.307-.943 3.52.544 4.523a3.397 3.397 0 0 0 2.481.511c.741-.134 1.93-.534 1.902-1.438-.006-.191-.139-.416-.342-.451-.785-.143-1.31.6-2.12.635-1.006.044-2.029-.737-1.984-1.806.038-.927 1.019-1.781 1.94-1.279 1.303.707-1.712 1.241-2.045 1.38-.291.121-.383.502-.088.686l-.003-.003ZM258.964 151.16c-.095.965.022 1.958.073 2.923.037.711-.124 1.52.582 1.908.12.066.3.085.418 0 .699-.515.433-1.302.379-2.079-.066-.969-.082-1.962-.297-2.911-.158-.695-1.095-.467-1.158.159h.003Z" fill="#fff"/><path d="M259.896 153.359c.99.089 1.484-1.279 2.589-1.209 1.335.086.737 2.139.781 2.99.051.946 1.516.959 1.478 0-.06-1.603.452-3.796-1.636-4.329-.693-.178-1.465-.029-2.082.317-.617.346-1.63 1.028-1.551 1.809.025.245.174.403.424.426l-.003-.004ZM270.048 152.426c-.535-1.425-2.351-2.012-3.636-1.136-1.285.876-1.535 2.945-.364 4.047 1.105 1.041 2.943.891 3.873-.289 1.342-1.708.874-4.815.934-6.828.028-.92-1.396-.917-1.424 0l-.089 2.93c-.022.778.048 1.685-.215 2.428-.37 1.041-2.054 1.654-2.414.197-.174-.705.424-1.451 1.117-1.479.522-.022.965.314 1.329.647.364.334 1.092.016.892-.52l-.003.003Z" fill="#fff"/><path d="M269.523 151.544c-.18.619-.047 1.301.003 1.939.057.702.127 1.4.19 2.101.079.873 1.456.873 1.364 0-.076-.749-.149-1.501-.237-2.25-.076-.648-.079-1.327-.38-1.911-.209-.406-.823-.286-.943.124l.003-.003ZM276.194 149.183c1.399 1.936 3.544 3.196 5.816 3.824l.206-1.526c-1.484.193-2.858.676-4.085 1.552-.807.574-2.393 1.647-1.985 2.786a.458.458 0 0 0 .421.324c.978.022 1.598-1.225 2.348-1.761 1.048-.753 2.241-1.168 3.507-1.375.778-.127.699-1.32 0-1.498-2.099-.543-3.643-1.65-5.171-3.145-.529-.518-1.526.177-1.06.819h.003Z" fill="#fff"/><path d="m93.027 157.984.317 6.983 8.645-6.923-8.962-.06Z" stroke="#000" stroke-width=".25" stroke-miterlimit="10"/><path fill="#fff" d="M149.268 163.133h10.453v24.391h-10.453z"/></svg>