<svg width="443" height="490" fill="none" xmlns="http://www.w3.org/2000/svg"><g clip-path="url(#a)" fill="#000"><path d="M132.502 159.121c-5.816 4.356-11.162-1.854-13.435-6.891-2.641-5.853-1.518-15.597 6.852-15.224 6.037.27 11.389 5.485 12.242 11.398.853 5.912-3.17 10.236-8.445 12.247-.702.27-.627 1.313.183 1.345 7.285.298 11.48-8.56 10.136-14.792-1.528-7.069-9.002-13.468-16.475-11.917-8.262 1.713-8.981 11.528-6.07 17.867 1.561 3.4 3.974 7.048 7.549 8.561 2.938 1.243 6.302.827 8.289-1.772.362-.471-.351-1.173-.821-.822h-.005Z"/><path d="M105.725 139.795c2.711-6.599 6.761-12.366 14.169-13.987 7.409-1.622 13.808 1.653 18.268 7.004.637.767 1.977-.254 1.393-1.076-4.384-6.193-12.733-9.176-20.077-7.442-6.857 1.622-13.931 8.032-14.142 15.447-.005.237.308.243.383.054h.006Z"/><path d="M106.178 135.79c-5.027 4.232-2.295 13.463-.902 18.775 1.82 6.934 5.422 13.155 11.994 16.457 11.501 5.778 25.725 1.308 30.579-10.89 2.657-6.675 2.198-14.409-1.647-20.516-.712-1.135-2.521-.086-1.803 1.054 8.202 12.977-.762 31.168-16.427 31.201-7.452.016-14.569-3.821-18.214-10.382-2.176-3.919-3.18-8.372-3.985-12.744-.734-3.989-1.69-8.723 1.366-11.993.605-.649-.297-1.513-.956-.957l-.005-.005ZM139.09 133.109c6.923-4.853 13.143-11.187 19.364-16.905a853.792 853.792 0 0 0 19.229-18.252 831.147 831.147 0 0 0 36.677-38.286 837.58 837.58 0 0 0 9.606-10.874c3.17-3.653 6.718-7.29 9.472-11.322.61-.897-.729-1.865-1.469-1.135-3.078 3.005-5.708 6.556-8.521 9.815a816.539 816.539 0 0 1-8.581 9.776 842.306 842.306 0 0 1-17.604 19.154c-12.047 12.706-24.461 25.061-37.265 37.011a1324.18 1324.18 0 0 1-10.67 9.825c-3.575 3.259-7.673 6.486-11.064 10.118-.508.54.167 1.54.826 1.075Z"/><path d="M146.024 139.702c10.287-8.895 19.877-18.672 29.748-28.022a6304.15 6304.15 0 0 0 29.559-28.212c.956-.919-.497-2.362-1.447-1.449a6368.016 6368.016 0 0 0-29.484 28.288c-9.795 9.463-19.958 18.592-29.294 28.477-.583.616.291 1.47.923.924l-.005-.006Z"/><path d="m204.564 82.176 5.881 5.48c1.463 1.362 3.164 3.757 5.173 4.167.265.054.524-.167.443-.443-.556-1.983-3.019-3.48-4.493-4.848-1.96-1.826-3.926-3.648-5.886-5.474-.745-.692-1.868.421-1.118 1.118Z"/><path d="M216.775 91.029a689.562 689.562 0 0 0 5.918-6.059c1.436-1.491 4.093-3.29 4.439-5.399.048-.286-.162-.519-.459-.46-2.106.422-3.775 3.125-5.216 4.627a693.816 693.816 0 0 0-5.827 6.145c-.713.762.41 1.892 1.145 1.146Z"/><path d="M226.959 80.582c-.227-2.102-2.365-3.826-3.667-5.383-1.911-2.291-3.877-4.534-5.821-6.793-.788-.914-2.111.416-1.323 1.324 1.852 2.145 3.683 4.307 5.568 6.42 1.382 1.551 2.883 4.108 4.973 4.643.124.032.286-.065.27-.206v-.005Z"/><path d="M217.811 69.751c-.071.032-.141.07-.211.092a.638.638 0 0 0-.27.119c-.07.06-.059.184 0 .243.076.076.173.097.27.135.076.027.14.076.211.114a.41.41 0 0 0 .61-.352c0-.324-.34-.48-.61-.35ZM216.894 69.757c2.311-1.595 4.525-3.503 6.588-5.405.821-.757-.367-1.86-1.199-1.2-2.149 1.703-4.325 3.55-6.21 5.54-.507.535.162 1.519.821 1.065ZM231.915 37.2c.627 2.448 3.445 4.426 5.146 6.226 2.301 2.426 4.601 4.864 6.912 7.285 4.617 4.843 9.24 9.685 13.889 14.5.783.811 2.009-.421 1.237-1.237a3200.7 3200.7 0 0 0-13.905-14.484c-2.203-2.281-4.412-4.551-6.621-6.826-1.825-1.881-3.812-5-6.361-5.762-.178-.054-.34.125-.297.298Z"/><path d="M258.181 64.19c-3.153 1.81-5.713 5.361-8.224 7.972l-8.586 8.901c-.95.984.556 2.497 1.501 1.502l8.538-8.95c2.511-2.631 5.95-5.323 7.635-8.56.286-.552-.297-1.195-.864-.865Z"/><path d="M222.449 63.644c2.333 3.492 5.68 6.464 8.542 9.529 3.122 3.345 6.156 6.804 9.418 10.014.54.535 1.307-.26.821-.821-2.868-3.34-5.989-6.48-8.991-9.696-3.003-3.216-5.789-6.837-9.202-9.48-.302-.232-.847.065-.588.454ZM115.796 17.868c6.555 9.074 13.818 17.705 20.735 26.51 7.101 9.041 14.219 18.072 21.336 27.098.82 1.037 2.165-.287 1.701-1.314-.373-.827-.821-1.605-1.194-2.437-.189-.416-.869-.2-.848.232.038.925-.01 1.827.027 2.751l1.847-.767c-7.009-8.88-14.023-17.76-21.054-26.623-7.009-8.847-13.765-17.997-21.13-26.547-.664-.768-2.025.26-1.42 1.097ZM191.81 7.41c.724 4.8 2.527 9.566 3.915 14.209.707 2.356 1.415 4.707 2.122 7.058.546 1.816.816 3.691 2.068 5.145.314.362.794.032.843-.351.264-2.119-.81-4.275-1.426-6.297-.713-2.35-1.42-4.702-2.144-7.053-1.333-4.366-2.419-9.004-4.357-13.149-.292-.627-1.118-.14-1.032.432l.011.006ZM254.304 31.736c4.828-4.173 8.521-10.085 12.388-15.139 1.965-2.567 3.936-5.128 5.891-7.696 1.955-2.567 4.255-5.112 5.497-8.123.281-.68-.653-.978-1.091-.632-2.295 1.805-3.969 4.432-5.718 6.756-2.047 2.724-4.083 5.453-6.124 8.182-3.855 5.156-8.629 10.404-11.367 16.257-.156.34.227.649.519.4l.005-.005ZM276.774 68.535c3.24.352 6.528.26 9.784.276 2.851.016 6.156.503 8.916-.281.567-.162.567-.99 0-1.146-2.765-.784-6.059-.292-8.916-.28-3.256.015-6.544-.076-9.784.275a.576.576 0 0 0 0 1.151v.005ZM238.785 104.027c4.028 1.719 8.521 2.594 12.695 3.956a271.765 271.765 0 0 1 12.895 4.594 258.819 258.819 0 0 1 13.44 5.605c2.198.989 4.38 2.005 6.545 3.048 1.933.935 3.813 2.102 5.935 2.513.664.13 1.279-.686.707-1.216-3.137-2.908-8.224-4.507-12.085-6.237a270.957 270.957 0 0 0-13.019-5.437 254.841 254.841 0 0 0-13.381-4.75c-4.266-1.379-8.829-3.173-13.29-3.724-.853-.108-1.236 1.313-.448 1.654l.006-.006ZM190.179 126.775c1.863 8.777 4.628 17.43 6.977 26.083.373 1.367 2.506.783 2.122-.584-2.397-8.642-4.444-17.495-7.322-25.991-.384-1.129-2.031-.675-1.782.492h.005ZM148.558 177.649c-.756 4.166-1.118 8.425-1.631 12.63-.481 3.989-1.625 8.534-.907 12.528.07.384.707.481.869.113 1.517-3.496 1.501-7.858 1.928-11.609.507-4.464 1.182-8.95 1.425-13.435.049-.946-1.506-1.184-1.679-.227h-.005ZM82.743 115.398c-6.874-1.291-13.786-2.383-20.704-3.426-6.917-1.043-13.348-2.329-20.05-2.838-1.204-.091-1.468 1.86-.286 2.114 6.815 1.486 13.883 2.14 20.79 3.113 6.907.973 13.349 1.821 20.05 2.518.837.087 1.031-1.324.2-1.481ZM100.277 87.014c2.808 1.383 5.8 2.41 8.716 3.55 2.916 1.14 5.81 2.751 8.839 2.973.454.032.492-.546.206-.768-2.295-1.762-5.476-2.491-8.16-3.496-3.029-1.135-6.053-2.41-9.169-3.28-.594-.163-1.01.734-.426 1.015l-.006.006ZM59.307 192.97c-1.107.168-2.197.254-3.31.341l.675 1.632c5.044-3.918 9.963-8.015 14.931-12.031 4.968-4.015 10.508-7.615 14.645-12.317.459-.518-.12-1.329-.75-.972-5.39 3.021-10.088 7.674-14.878 11.555-5.103 4.129-10.276 8.187-15.298 12.414-.756.632.06 1.832.929 1.594 1.14-.313 2.273-.616 3.434-.848.907-.184.508-1.503-.378-1.368ZM184.543 367.738c-4.158-4.075-6.744-9.528-4.665-15.392 2.079-5.864 8.769-9.426 14.774-8.291 6.005 1.135 10.611 7.118 10.433 13.225-.195 6.545-5.859 11.966-12.253 12.479-1.382.114-1.388 2.286 0 2.168 7.15-.611 13.484-6.216 14.245-13.517.756-7.221-4.417-14.652-11.518-16.284-7.101-1.632-14.569 2.194-17.312 8.734-2.533 6.042-.627 14.727 5.346 18.099.767.433 1.598-.599.95-1.232v.011Z"/><path d="M183.615 368.235c-7.873 9.798-14.229 20.862-21.567 31.065-.475.66.07 1.427.68 1.676a5480.406 5480.406 0 0 1 25.931 10.614c.777.319 1.517-.475 1.549-1.178.33-6.869.881-13.727 1.426-20.586.259-3.248.513-6.502.724-9.755.194-2.919 1.096-6.686-.087-9.409-.243-.563-1.123-.487-1.388 0-1.414 2.599-.869 6.49-1.063 9.409a666.555 666.555 0 0 1-.74 9.755c-.556 6.859-1.059 13.712-1.312 20.586l1.549-1.178a5745.832 5745.832 0 0 1-25.979-10.452l.681 1.675c7.273-10.128 14.412-20.527 21.135-31.033.583-.913-.826-2.054-1.528-1.184l-.011-.005Z"/><path d="M12.194 373.65c40.31 15.463 80.858 30.309 121.298 45.42 40.376 15.09 80.746 30.174 121.121 45.258l68.531 25.607c.621.232 1.22-.265 1.425-.811 15.714-42.128 31.212-84.343 46.828-126.51 2.231-6.015 4.461-12.036 6.696-18.051 1.118-3.016 2.241-6.032 3.365-9.042.561-1.508 1.123-3.016 1.684-4.529.26-.697.767-3.237 1.361-3.513 1.004-.459.562-1.821-.281-2.135l-121.525-45.409c-40.511-15.138-81.016-30.271-121.526-45.409-22.858-8.539-45.721-17.084-68.58-25.623-.674-.254-1.57.411-1.495 1.14.114 1.065-.653 2.427-1.01 3.394-.502 1.346-.999 2.686-1.5 4.032-1 2.681-1.999 5.367-2.998 8.053-1.927 5.188-3.855 10.382-5.788 15.57-3.915 10.518-7.82 21.03-11.73 31.552a15501.724 15501.724 0 0 0-23.273 63.077 4549.405 4549.405 0 0 0-13.11 36.286c-.352.979 1.17 1.368 1.538.427 16.55-42.512 32.114-85.408 47.935-128.196a7713.828 7713.828 0 0 1 6.523-17.576l3.37-9.058c.805-2.162 2.657-5.221 2.408-7.55l-1.495 1.14c40.51 15.133 81.02 30.266 121.525 45.399 40.51 15.133 81.021 30.265 121.526 45.398l68.579 25.618-.281-2.135c-1.366.622-1.582 2.616-2.057 3.902-1.064 2.848-2.122 5.702-3.181 8.55-2.052 5.518-4.104 11.042-6.15 16.565-4.083 11.009-8.149 22.018-12.215 33.027-8.122 21.997-16.232 43.999-24.375 65.985a21360.271 21360.271 0 0 1-13.009 35.016l1.426-.811c-40.44-15.105-80.886-30.217-121.326-45.322-40.375-15.085-80.751-30.163-121.126-45.242-22.842-8.534-45.646-17.181-68.558-25.515-1.28-.465-1.803 1.551-.556 2.027l.006-.006Z"/><path d="M71.16 211.4c21.325 40.972 44.372 81.241 75.719 115.463 9.488 10.361 19.575 20.154 30.029 29.525 1.166 1.049 2.9-.675 1.728-1.729-17.663-15.798-34.155-32.876-48.724-51.592-13.732-17.641-25.649-36.6-36.698-56.013-6.917-12.15-13.483-24.488-20.11-36.795-.69-1.28-2.613-.145-1.943 1.141ZM381.987 326.858c-21.395 10.079-43.4 18.889-66.171 25.347-22.772 6.459-46.008 10.458-69.535 12.177-14.569 1.064-29.181 1.27-43.777.87-1.604-.043-1.604 2.454 0 2.497 25.325.681 50.705-.557 75.728-4.648 22.993-3.762 45.522-9.955 67.327-18.16 12.765-4.799 25.266-10.252 37.567-16.132 1.312-.627.168-2.562-1.139-1.946v-.005Z"/><path d="M13.235 373.364c19.964-4.691 39.722-9.923 59.89-13.749 20.45-3.881 41.078-6.858 61.803-8.772a603.662 603.662 0 0 1 25.401-1.81c2.825-.141 5.811.054 8.527-.805.675-.217.745-1.26 0-1.444-4.574-1.102-10.093-.059-14.764.211-5.189.303-10.373.681-15.551 1.124a616.684 616.684 0 0 0-30.229 3.34c-20.58 2.789-41.018 6.567-61.262 11.182-11.497 2.616-23.09 5.297-34.35 8.815-1.214.379-.712 2.195.524 1.908h.011ZM220.685 367.435c27.723 30.936 56.3 61.18 81.523 94.25 6.874 9.01 13.478 18.23 19.683 27.715.836 1.275 2.888.092 2.052-1.2-22.599-34.881-50.468-66.206-78.375-96.866-7.749-8.512-15.514-17.014-23.328-25.461-.966-1.043-2.5.508-1.555 1.557v.005ZM34.688 311.33c-5.205-22.115-10.772-44.15-16.216-66.206-2.7-10.944-5.432-21.878-8.153-32.811-2.765-11.101-5.265-22.299-8.327-33.319-.351-1.27-2.246-.735-1.966.54 2.441 11.177 5.454 22.251 8.192 33.357 2.7 10.945 5.384 21.889 8.105 32.828 5.481 22.045 10.843 44.128 16.562 66.108.302 1.168 2.084.676 1.803-.497ZM341.345 185.734c-2.224-11.085-4.811-22.1-7.273-33.13-2.457-11.01-4.671-22.148-7.539-33.06-.34-1.286-2.203-.735-1.965.54 2.084 11.09 4.854 22.105 7.354 33.109 2.501 11.02 4.882 22.072 7.62 33.038.297 1.178 2.041.675 1.803-.497Z"/><path d="M149.513 153.306c20.099-3.037 40.322-7.166 60.393-10.841 31.676-5.8 63.352-11.604 95.028-17.403l15.682-2.87c1.382-.254 2.802-.438 4.152-.811.351-.097.702-.221 1.048-.34.551-.189.907-.908.189-.076.011-.016.081-.016.102-.021 1.167-.217.676-2-.491-1.784-.475.086 1.194-.032-.005-.022-.308 0-.621.027-.934.044-1.188.07-2.36.34-3.527.556l-12.684 2.335c-14.072 2.594-28.145 5.183-42.217 7.777-31.762 5.848-63.53 11.663-95.276 17.603-7.306 1.367-14.65 2.621-21.913 4.199-1.102.238-.61 1.822.459 1.66l-.006-.006ZM1.863 179.275c8.618-1.135 17.194-2.962 25.742-4.534 9.018-1.66 18.03-3.335 27.042-5 8.84-1.632 17.674-3.269 26.514-4.902l13.257-2.453c4.142-.768 9.012-1.011 12.884-2.681.902-.389.362-1.692-.464-1.724-4.207-.173-8.888 1.4-13.03 2.173l-12.723 2.372-26.502 4.945-26.503 4.946c-8.834 1.648-17.739 3.053-26.444 5.15-.918.222-.75 1.821.227 1.692v.016ZM319.769 105.693s.011-.012 0-.012c-.012 0-.012.012 0 .012Z"/><path d="M324.364 119.727c-27.621 38.843-58.503 75.254-92.76 108.4a777.118 777.118 0 0 1-29.927 27.455c-1.058.924.486 2.454 1.539 1.54a744.029 744.029 0 0 0 99.111-104.308c8.186-10.49 16.108-21.186 23.684-32.125.707-1.016-.945-1.956-1.652-.967l.005.005ZM1.544 179.129c10.551 6.567 21.643 12.382 32.454 18.505 5.265 2.984 10.535 5.951 15.8 8.929 5.232 2.956 10.53 6.701 16.135 8.874 1.182.459 1.62-1.238.788-1.875-4.687-3.6-10.584-6.145-15.735-9.037-5.433-3.048-10.86-6.102-16.297-9.139-10.698-5.977-21.265-12.355-32.2-17.889-1.08-.546-1.987.984-.95 1.632h.005ZM283.604 289.015c-1.474-8.382-3.121-16.565-3.553-25.093a131.836 131.836 0 0 1 1.004-24.532c2.198-16.521 7.538-32.568 15.757-47.063.691-1.221-1.188-2.318-1.879-1.097a132.985 132.985 0 0 0-16.087 47.863 131.965 131.965 0 0 0-.95 25.288c.497 8.442 1.517 17.122 4.196 25.056.329.967 1.685.572 1.512-.417v-.005Z"/><path d="M296.02 191.554c14.833-.616 29.699-2.816 44.457-4.367 14.818-1.556 29.64-3.118 44.458-4.675 1.501-.156 1.517-2.529 0-2.367-15.001 1.589-29.997 3.183-44.998 4.772-15.001 1.589-29.591 2.519-44.144 4.994-.929.157-.713 1.681.221 1.643h.006ZM382.25 330.403c7.436-3.745 14.288-9.096 20.503-14.603a131.73 131.73 0 0 0 17.178-18.467 132.789 132.789 0 0 0 22.609-45.437c.373-1.351-1.728-1.929-2.1-.578-4.407 15.987-11.918 31.022-21.946 44.22a133.354 133.354 0 0 1-16.664 18.165c-6.091 5.518-13.332 10.48-20.374 15.344-.832.573-.119 1.816.794 1.356Z"/><path d="M442.859 250.324c-8.537-12.053-18.403-23.283-27.68-34.768l-28.447-35.216c-.955-1.184-2.624.497-1.673 1.675l28.133 34.773c9.38 11.593 18.301 23.624 28.355 34.552.632.686 1.869-.227 1.312-1.011v-.005ZM121.002 156.922c5.648-.47 11.318-1.384 16.918-2.249 1.037-.162.804-1.988-.249-1.853-5.626.713-11.323 1.394-16.885 2.497-.891.178-.702 1.68.216 1.605Z"/></g><defs><clipPath id="a"><path fill="#fff" d="M0 0h443v490H0z"/></clipPath></defs></svg>