<svg width="619" height="411" fill="none" xmlns="http://www.w3.org/2000/svg"><g clip-path="url(#a)"><path d="M466.396 229.462c5.499-19.172 2.723-44.884-16.767-55.222-8.452-4.482-18.324-4.009-26.752.29-9.25 4.719-15.565 13.341-19.276 22.851-4.818 12.347-5.416 26.262-5.262 39.373.018 1.721 2.592 1.709 2.664 0 .81-19.486.656-42.378 17.222-56.009 7.404-6.091 17.726-8.988 26.947-5.576 8.127 3.01 14.371 10.047 17.691 17.906 4.859 11.508 3.308 23.886 1.651 35.867-.166 1.206 1.527 1.768 1.888.52h-.006Z" fill="#000"/><path d="M398.257 221.644c-6.007-.674-12.63.462-18.655.864-1.575.106-1.598 2.56 0 2.472l.817-.048c.562-.029.864-.579.615-1.076l-.367-.739-1.065 1.857c6.137-.355 12.92-.036 18.903-1.479 1.107-.266.74-1.738-.248-1.851Z" fill="#000"/><path d="M399.228 238.557c-3.533-3.063-7.262-5.919-10.914-8.841l-5.486-4.388c-1.338-1.07-1.924-1.833-3.634-1.827-.349 0-.574.331-.503.656.414 1.851 1.835 2.52 3.273 3.673l5.486 4.388c3.433 2.744 6.824 5.559 10.364 8.161 1.059.78 2.408-.964 1.414-1.828v.006ZM464.504 228.031c-1.344 4.057-1.634 8.687-2.166 12.921-.581 4.613-1.001 9.249-1.054 13.903-.101 8.132.923 16.405 3.9 24.022 5.345 13.678 16.886 23.217 30.345 28.444 1.592.615 2.278-1.945.704-2.554-13.459-5.204-24.793-15.086-29.445-29.007-2.432-7.28-3.166-15.003-2.983-22.643.101-4.069.456-8.12.935-12.159.48-4.039 1.593-8.492 1.557-12.679-.012-1.052-1.48-1.212-1.799-.242l.006-.006ZM436.941 275.128c3.912 15.742 15.619 26.93 27.936 36.593 6.214 4.873 12.547 9.628 18.187 15.175 4.966 4.879 8.594 10.81 11.21 17.28 2.616 6.469-.906 11.886-7.67 11.856-6.008-.029-10.618-4.636-14.72-8.45-1.266-1.177-3.137.68-1.906 1.904 5.978 5.92 15.347 13.134 23.822 7.203 7.653-5.358 2.599-14.631-.81-20.869-8.174-14.968-24.497-23.206-36.701-34.495-8.174-7.564-13.702-16.239-17.294-26.759-.438-1.289-2.397-.781-2.06.567l.006-.005Z" fill="#000"/><path d="M469.961 348.191c-.723 3.838-2.528 6.747-6.913 6.706-3.469-.035-6.534-2.271-8.683-4.825-2.296-2.727-4.018-5.985-5.155-9.35a32.21 32.21 0 0 1-1.26-4.997c-.285-1.697-.166-3.43-.817-5.033-.349-.857-1.492-.928-1.817 0-1.438 4.063.929 10.202 2.592 13.933 1.805 4.051 4.386 8.114 8.097 10.674 3.208 2.212 7.581 3.158 11.245 1.502 3.048-1.378 5.912-5.151 4.735-8.604-.302-.899-1.817-1.088-2.019 0l-.005-.006Z" fill="#000"/><path d="M446.297 331.041c-7.351-1.466-13.199-5.76-16.596-12.472-1.556-3.075-2.545-6.41-3.308-9.757-.699-3.064-.74-6.582-1.989-9.456-.479-1.1-1.9-.373-2 .544-.415 3.572.97 7.995 1.852 11.449.882 3.453 2.125 7.031 3.966 10.195 3.728 6.41 9.996 10.94 17.4 11.934 1.562.207 2.302-2.112.675-2.437ZM399.079 234.536c-1.355 4.146-.929 9.267-.923 13.572 0 5.518.213 11.029.468 16.535.254 5.505.55 10.775.804 16.162.119 2.59.231 5.174.302 7.765.054 1.981-.248 4.044.776 5.807.254.431.911.437 1.16 0 .97-1.692.663-3.537.609-5.423a421.33 421.33 0 0 0-.284-7.298c-.26-5.517-.58-11.034-.846-16.552-.266-5.517-.486-10.757-.545-16.144-.047-4.648.693-9.574.225-14.187-.1-.976-1.42-1.23-1.746-.237ZM503.624 297.055c3.948-4.015 7.499-8.308 11.825-11.945 4.563-3.838 9.612-7.114 14.944-9.787 10.802-5.417 22.118-7.505 34.091-7.942l-.604-2.23c-.532.42-1.071.822-1.633 1.207-.769.55-.337 2.081.704 1.673a26.9 26.9 0 0 1 1.847-.692c1.278-.455 1.053-2.259-.32-2.353-11.914-.787-24.414 2.607-35.026 7.829-10.611 5.222-21.507 13.04-27.106 23.259-.438.792.615 1.656 1.272.981h.006Z" fill="#000"/><path d="M563.604 267.594c-2.09 4.707-4.534 8.628-8.47 12.057-4.172 3.637-9.055 6.452-13.902 9.102-10.529 5.748-21.55 9.793-32.949 13.4-1.462.461-.864 2.667.634 2.3 12.162-3.004 24.035-8.308 34.889-14.494 8.185-4.666 19.715-11.449 21.23-21.762.112-.787-1.036-1.496-1.432-.603Z" fill="#000"/><path d="M541.261 291.201c8.7.065 17.548-1.135 26.213-1.904l-1.077-1.875c-14.104 21.047-40.572 32.543-65.607 28.705-1.598-.242-2.284 2.206-.675 2.448 26.279 3.957 53.433-7.995 68.436-29.893.515-.751-.16-1.946-1.077-1.875-8.777.674-17.797.952-26.473 2.466-1.119.195-.823 1.922.26 1.934v-.006Z" fill="#000"/><path d="M526.47 315.731c-5.824 13.719-13.985 26.463-25.988 35.606-12.53 9.539-28.699 14.216-44.359 13.962-14.72-.236-30.895-4.796-40.702-16.428-4.149-4.92-8.357-10.532-10.659-16.576-4.664-12.212-3.54-26.316-2.267-39.024.178-1.798-2.64-1.786-2.817 0-1.231 12.407-2.178 25.896 1.763 37.954 2.125 6.505 6.091 11.732 10.115 17.155 9.121 12.271 24.13 17.989 38.968 19.344 16.228 1.478 33.38-2.336 47.147-11.159 13.766-8.824 25.408-24.116 30.877-39.959.414-1.2-1.575-2.07-2.078-.875Z" fill="#000"/><path d="M446.386 333.655c2.308-1.886 2.598-6.197 2.664-9.006.076-3.531-.74-6.908-2.167-10.119-.639-1.437-3.042-.094-2.13 1.242l.307.456c.137.201.385.331.628.254l.456-.142-1.391-.568c1.337 2.957 1.994 6.115 1.876 9.367-.101 2.709-1.557 5.435-1.385 8.049.041.603.686.84 1.136.473l.006-.006ZM471.807 347.96c.52-3.14-1.001-6.871-2.072-9.793-1.255-3.418-2.882-6.653-4.829-9.734-.882-1.389-3.108-.1-2.214 1.295 1.93 3.022 3.581 6.198 4.812 9.575 1.036 2.838 1.255 6.25 2.681 8.87.343.627 1.497.556 1.622-.213ZM563.863 288.108c6.783-1.786 11.387-8.93 12.382-15.559.118-.798-.32-1.609-1.225-1.609-3.771 0-10.861-.029-13.56 3.01-.331.373-.272 1.177.332 1.26 1.923.266 3.421-.514 5.309-.946 2.627-.597 5.231-.81 7.919-.787l-1.226-1.608c-1.213 6.694-5.273 10.798-10.623 14.589-.805.568-.344 1.922.692 1.644v.006ZM507.045 290.16c-2.87 1.26-5.185 5.689-6.718 8.273-1.858 3.129-4.03 6.896-4.651 10.521-.202 1.177 1.402 2.064 2.053.863 1.776-3.282 2.865-6.86 4.776-10.112a59.086 59.086 0 0 1 2.924-4.483c1.042-1.449 2.267-2.507 2.746-4.192.202-.704-.55-1.124-1.13-.87Z" fill="#000"/><path d="m400.708 223.259-.77 16.889-20.993-16.747 21.763-.142Z" stroke="#000" stroke-width=".25" stroke-miterlimit="10"/><path d="M256.431 4.21c-.722 48.18-.349 96.382-.361 144.56-.012 48.179 0 96.375.012 144.56 0 13.377 0 26.748.024 40.124.017 13.744-.302 27.576.337 41.301.053 1.159 1.752 1.159 1.805 0 .568-12.164.296-24.405.332-36.582.035-11.999.017-23.997.023-35.99l.03-71.987c.018-48.185-.012-96.375-.024-144.56-.006-27.144.065-54.287-.343-81.425-.018-1.177-1.811-1.177-1.829 0h-.006ZM288.316 6.263c-.811 46.416-.178 92.898-.184 139.32l-.012 139.911v38.965c0 6.494-.017 12.987 0 19.48.018 6.493.409 13.353.799 20.071.042.668 1.001.668 1.042 0 .343-5.931.769-11.75.787-17.711.018-5.961.012-11.414.012-17.12v-34.832l-.012-69.663c0-46.635 0-93.276-.029-139.911-.018-26.162.295-52.354-.16-78.516-.024-1.443-2.22-1.45-2.249 0l.006.006Z" fill="#000"/><path d="M289.62 46.99c23.071-.969 46.076-2.264 69.182-2.347 23.076-.089 46.157.485 69.198 1.857V44c-1.929.225-3.5 0-5.052-.213-1.403.26-1.374 2.296.052 2.213 1.5 0 2.588.277 5 .5 1.675-.207 1.764-2.4 0-2.5-23.041-1.307-46.116-2.1-69.198-2-23.017.1-46.242.467-69.182 2.543-1.55.142-1.598 2.519 0 2.454v-.006Z" fill="#000"/><path d="M427.53 46.227c7.481 5.169 16.075 9.137 24.018 13.554l24.106 13.407c1.515.84 2.847-1.431 1.355-2.324a35.893 35.893 0 0 0-2.947-1.562c-1.012-.485-2.385.893-1.338 1.733a37.275 37.275 0 0 0 2.93 2.153l1.355-2.324-24.124-13.377c-7.954-4.412-15.867-9.61-24.206-13.235-1.338-.58-2.392 1.124-1.155 1.975h.006Z" fill="#000"/><path d="M474.86 72.803c-7.256 3.673-14.376 7.629-21.532 11.485l-10.233 5.505c-3.681 1.981-7.801 3.732-11.174 6.198-.994.727-.456 2.69.917 2.176 3.687-1.372 7.138-3.625 10.6-5.488l10.748-5.778c7.327-3.938 14.726-7.788 21.958-11.91 1.426-.816.166-2.927-1.278-2.188h-.006Z" fill="#000"/><path d="M432.5 96c-12.163-.089-20.684-.684-32.834-.145l-35.938 1.602-35.937 1.603c-12.157.544-24.396.721-36.523 1.667-1.9.148-1.527 2.993.349 2.579a17.352 17.352 0 0 1 2.403-.42c1.148-.148 1.202-1.733 0-1.827a18.437 18.437 0 0 1-2.403-.284l-.349 2.578c12.162-.13 24.366-1.041 36.523-1.579l35.937-1.591 35.938-1.59C411.822 98.054 420 98 432.5 98.5c1.349-.13 2.409-2.994 1-3l-1 .5ZM255.053 147.836c-10.115-.988-20.532-.414-30.688-.45l-30.096-.106-30.095-.106-15.341-.054-7.079-.023c-2.178-.006-4.32-.326-6.315.597-.544.248-.538 1.171 0 1.425 2.007.946 4.12.633 6.315.639l7.079.024 15.341.059 30.095.112 30.096.112c10.156.036 20.567.686 30.688-.224 1.284-.119 1.284-1.869 0-1.999v-.006Z" fill="#000"/><path d="M136 147.5c-6.339 3.022-11.759 5.305-17.909 8.699-6.167 3.401-12.387 6.707-18.49 10.219-1.372.793-.153 2.857 1.238 2.117 6.22-3.294 12.34-6.8 18.495-10.207 6.143-3.4 12.236-5.073 18.166-8.828 1.184-.751-.263-2.591-1.5-2Z" fill="#000"/><path d="M99.905 168.713c11.506 8.326 23.224 16.221 34.339 25.086l1.604-2.076c-1.189-.698-2.373-1.36-3.628-1.934l-.58 2.141c.55.036 1.101.089 1.651.166 1.095.13 1.137-1.461.243-1.798a21.234 21.234 0 0 1-1.586-.627c-1.296-.538-1.841 1.396-.888 2.099 1.113.822 2.261 1.532 3.456 2.23 1.255.733 2.812-1.118 1.604-2.076-11.209-8.894-22.75-17.853-35.067-25.174-1.284-.763-2.308 1.123-1.148 1.963Z" fill="#000"/><path d="M133.812 193.56c1.746 1.142 4.007.793 6.031.775 2.735-.023 5.475-.112 8.209-.183 5.084-.13 10.162-.302 15.246-.456l31.078-.94 31.079-.94 15.246-.461c5.054-.154 10.588.289 15.548-.722 1.035-.213 1.106-2.01 0-2.164-5.019-.704-10.488.059-15.548.213l-15.246.473-31.079.958-31.078.958c-5.084.159-10.168.296-15.246.473-2.734.095-5.474.171-8.209.319-2.053.107-4.338-.124-6.031 1.13-.201.148-.225.426 0 .573v-.006ZM308.49 62.283c-1.515 2.56-.556 6.7-.621 9.615-.083 3.903-.391 7.794-.764 11.68-.142 1.448 2.362 1.803 2.563.349.113-.81.19-1.45.249-2.265.041-.544-.687-.781-1.042-.432-.491.45-.953.922-1.385 1.425l2.225.923c.427-3.88.64-7.777.681-11.68.03-2.862.752-7.232-1.018-9.615-.225-.302-.675-.361-.888 0Z" fill="#000"/><path d="M308.568 64.151c3.794.012 7.671-.892 11.411-1.478 3.96-.615 8.428-.858 12.186-2.241.906-.331.805-1.71-.236-1.727-3.764-.077-7.718 1.047-11.417 1.697-3.995.704-8.28 1.147-12.121 2.484-.669.23-.586 1.265.171 1.265h.006ZM311.729 74.483c4.356.07 9.653-.213 13.855-1.396 1.041-.296.793-1.78-.249-1.84-4.338-.242-9.588.634-13.819 1.639-.906.213-.687 1.579.213 1.59v.007ZM308.064 85.996c7.114.645 14.696-.715 21.828-1.058 1.337-.065 1.817-2.271.337-2.478-1.059-.148-1.385-.195-2.456-.16-1.178.042-1.249 1.52-.261 1.934a6.243 6.243 0 0 0 2.048.657l.338-2.478c-7.215.603-14.998.242-22.065 1.839-1.035.236-.704 1.656.237 1.744h-.006ZM337.048 69.444c-.137 3.761.011 7.534.088 11.295.024 1.218 2.03 1.609 2.226.302.544-3.655 1.148-8.202 4.752-10.154 2.066-1.118 4.64-.857 5.836 1.366 1.261 2.348.468 5.275-.124 7.688l2.284.633c.87-3.767 1.983-8.7 6.232-9.97 6.487-1.946 6.037 6.782 5.404 10.466-.272 1.591 2.16 2.283 2.45.675.882-4.938.965-13.129-5.859-13.708-6.7-.574-9.31 6.718-10.511 11.916-.344 1.484 1.923 2.117 2.284.633 1.166-4.731 1.32-12.65-5.587-12.55-6.575.095-8.54 7.186-9.351 12.42l2.225.301c-.053-3.761-.029-7.54-.29-11.295-.094-1.319-2.018-1.343-2.065 0l.006-.018ZM383.407 71.277c-2.51-2.537-7.067-3.152-9.949-.857-2.415 1.922-3.356 5.434-1.456 8.037 2.237 3.069 6.853 3.571 10.144 2.105 3.557-1.585 5.469-5.216 5.143-9.036-.106-1.213-2.125-1.727-2.32-.314-.467 3.365.213 7.9 3.504 9.693.805.437 1.592-.426 1.207-1.207-1.414-2.862-2.835-4.796-2.385-8.172h-2.361c.479 5.192-5.013 9.692-9.896 6.7-3.119-1.91-1.64-6.014 1.485-6.825 2.208-.573 4.137.438 6.126 1.201.769.296 1.29-.793.769-1.319l-.011-.006ZM396.465 70.29c-.58 1.449.094 3.193.213 4.713.142 1.762.023 3.519.083 5.281.041 1.236 2.059 1.65 2.272.307.314-1.963.219-3.967.012-5.937-.172-1.579-.166-3.548-1.373-4.677-.426-.397-1.006-.184-1.207.319v-.006ZM399.334 59.882l-.254-.107.284.119c-.083-.042-.142-.077-.231-.113a1.175 1.175 0 0 0-.533-.1c-.207.006-.426.059-.603.165l-.243.19a.876.876 0 0 0-.249.384.61.61 0 0 0-.082.301.578.578 0 0 0 0 .32.61.61 0 0 0 .082.302.875.875 0 0 0 .249.384c.089.07.178.142.266.207a.363.363 0 0 0 .172.083.922.922 0 0 0 .468.106h.065l-.32-.035c.101.017.201.047.302.076.296.077.639.036.911-.118.243-.142.48-.426.545-.703.071-.302.053-.64-.119-.911l-.183-.237a1.134 1.134 0 0 0-.521-.301l-.006-.012ZM415.077 56.481c-1.45 3.354-.995 7.854-1.16 11.461-.202 4.5-.533 9.025-.509 13.53l2.267-.614-.35-.692c-.367-.728-1.29-.402-1.544.2l-.326.781c-.627 1.485 2.231 2.253 2.385.326.343-4.3.361-8.634.497-12.945.119-3.69.989-8.404-.23-11.916-.142-.403-.817-.615-1.024-.136l-.006.005ZM142.045 158.344c-1.142 3.88-.858 8.421-.982 12.437a380.732 380.732 0 0 0-.142 6.41c-.018 1.532-.296 2.868.556 4.169.266.403.787.379 1.053 0 .805-1.147.646-2.188.681-3.589.047-2.135.077-4.276.124-6.411.089-4.169.811-8.681.267-12.809-.113-.833-1.279-1.129-1.551-.213l-.006.006Z" fill="#000"/><path d="M143.192 159.503c2.77.515 5.724.13 8.517-.059 2.794-.183 5.919-.047 8.564-1.017.628-.231.781-1.271 0-1.431-2.758-.574-5.776 0-8.564.225-2.787.23-5.859.272-8.517 1.188-.485.166-.597.988 0 1.094ZM142.5 171.473c4.67.508 10.085-.018 14.737-.686 1.279-.183.918-2.17-.295-2.194-4.67-.089-10.115.1-14.667 1.189-1.012.242-.674 1.59.231 1.685l-.006.006ZM164.86 170.858c.035 1.892.047 4.151.591 5.967.35 1.159 1.948.869 2.042-.278.16-1.881-.313-4.105-.669-5.955-.213-1.112-1.982-.846-1.964.266ZM167.678 162.129l-.208-.16a.728.728 0 0 0-.378-.118.79.79 0 0 0-.409.018.79.79 0 0 0-.349.183.711.711 0 0 0-.26.284l-.101.242a1.067 1.067 0 0 0 0 .544l.101.243c.088.154.213.272.367.367l.219.136a.786.786 0 0 0 .372.118.788.788 0 0 0 .403-.018.763.763 0 0 0 .343-.177.811.811 0 0 0 .261-.284l.1-.243a1 1 0 0 0 0-.532l-.1-.242a.97.97 0 0 0-.361-.361ZM177.845 158.445c-.645 2.856-.657 5.854-.781 8.77-.125 2.915-.557 5.961-.036 8.829.16.881 1.503.81 1.711 0 .728-2.815.491-5.937.58-8.829.088-2.892.266-5.878-.166-8.77-.101-.674-1.172-.621-1.308 0ZM187.055 171.851c2.308.101 13.695-.739 11.689-5.157-1.787-3.92-9.114-2.554-11.736-.597-3.617 2.697-3.551 7.516.846 9.302 5.38 2.188 13.204 1.295 18.241-1.36.598-.313.172-1.189-.444-1.053-3.273.734-6.475 1.562-9.848 1.674-3.22.112-13.299-.574-8.931-6.197 1.207-1.556 3.231-2.461 5.178-2.614 1.362-.107 4.534-.036 4.534 1.685 0 1.277-.716 1.189-1.888 1.585-.841.284-1.699.52-2.563.71-1.728.384-3.486.561-5.232.833-.698.107-.485 1.154.16 1.183l-.006.006ZM219.281 162.987c-2.551-.166-6.617.354-8.635 2.111-1.539 1.342-.343 2.927 1.131 3.578 1.473.65 3.42.804 4.953 1.129.995.213 5.398.491 5.984 1.396l-1.136 3.282c-.823.201-1.658.331-2.504.396a20.71 20.71 0 0 1-2.35.053c-2.047-.065-3.989-.615-6.007-.863-.698-.083-.941.999-.355 1.307 2.918 1.508 15.802 3.022 14.897-3.158-.432-2.957-4.433-3.182-6.658-3.584-.947-.171-7.623-.562-6.475-2.903.669-1.367 6.001-1.769 7.25-1.993.444-.083.302-.722-.101-.751h.006ZM288.078 333.259c-.503 9.243-.166 18.598-.16 27.853.006 9.255-.823 18.173.858 26.819.089.449.823.449.911 0 1.681-8.652.853-17.978.859-26.819.006-8.841.349-18.616-.16-27.853-.083-1.49-2.237-1.49-2.314 0h.006Z" fill="#000"/><path d="M216.794 397.192c6.114-8.587 14.075-15.352 24.195-18.717 10.068-3.347 21.082-2.857 30.907 1.112 5.161 2.081 10.067 5.144 14.05 9.042 3.984 3.897 7.393 10.567 1.397 14.11-4.338 2.566-10.186 2.146-15.021 2.152a202.68 202.68 0 0 1-17.986-.775 198.278 198.278 0 0 1-20.78-2.933c-3.492-.68-7.002-1.395-10.435-2.33-2.113-.573-4.965-1.348-6.475-2.98-.698-.757-1.899.213-1.402 1.082 2.491 4.388 8.771 5.121 13.145 6.079a205.785 205.785 0 0 0 21.472 3.507c7.647.84 15.335 1.242 23.029 1.195 5.208-.036 11.228.195 15.879-2.573 4.179-2.484 5.617-7.167 3.913-11.668-2.019-5.334-7.079-9.308-11.731-12.3-10.245-6.594-23.011-9.16-34.984-6.812-12.547 2.46-24.781 10.425-31.149 21.649-.74 1.301 1.136 2.336 1.976 1.154v.006Z" fill="#000"/><path d="M288.811 387.878c1.545.136 2.154-1.278 3.101-2.348a133.05 133.05 0 0 1 4.102-4.453 110.594 110.594 0 0 1 9.256-8.51 113.046 113.046 0 0 1 20.869-13.519c15.459-7.764 31.741-11.034 48.869-12.241.912-.065.923-1.384 0-1.425-16.909-.822-34.463 4.228-49.485 11.697a115.297 115.297 0 0 0-21.342 13.749 110.188 110.188 0 0 0-9.611 8.806 86.902 86.902 0 0 0-4.38 4.837c-.917 1.094-2.018 1.816-1.568 3.265.029.088.1.136.189.142Z" fill="#000"/><path d="M374.755 346.387c-4.09.698-8.096 2.407-11.979 3.832-3.883 1.425-7.38 2.786-11.003 4.341-7.516 3.235-14.837 7.055-21.401 11.969-10.772 8.06-21.247 20.243-23.153 34.051-.178 1.307 1.687 1.928 2.048.562 1.793-6.813 4.184-12.987 8.333-18.758 4.297-5.967 9.742-11.094 15.755-15.311 6.333-4.435 13.269-7.942 20.383-10.94 3.664-1.544 7.381-2.957 11.115-4.305 3.498-1.266 7.209-2.283 10.494-4.045.817-.438.219-1.544-.592-1.408v.012ZM289.35 365.583c1.645-2.596 2.285-5.866 3.445-8.699a85.386 85.386 0 0 1 4.782-9.858c3.409-6.008 7.487-11.609 12.287-16.582 9.919-10.284 22.188-16.73 35.38-21.839.403-.154.255-.745-.183-.657-13.867 2.839-26.645 11.195-36.434 21.254-4.907 5.045-9.216 10.739-12.642 16.89a77.486 77.486 0 0 0-4.291 8.982c-1.231 3.082-3.007 6.896-2.9 10.361a.3.3 0 0 0 .556.148Z" fill="#000"/><path d="M342.451 308.883c-2.415.721-4.533 2.838-6.451 4.417a97.092 97.092 0 0 0-7.031 6.375 106.12 106.12 0 0 0-11.689 13.992c-7.008 10.018-13.264 21.951-11.861 34.542.142 1.301 2.202 1.33 2.066 0-1.261-12.407 5.054-24.01 11.955-33.856a102.616 102.616 0 0 1 11.364-13.554 117.139 117.139 0 0 1 6.19-5.808c1.983-1.726 4.552-3.193 6.031-5.369.249-.367-.165-.864-.574-.745v.006ZM245.464 373.602c-2.587-7.972-8.896-15.074-15.258-20.313-6.357-5.234-14.607-10.166-22.893-11.366-1.048-.154-1.468 1.224-.444 1.602 8.061 2.981 15.507 5.932 22.212 11.502 6.706 5.571 10.802 12.011 15.353 19.001.331.508 1.231.201 1.024-.432l.006.006Z" fill="#000"/><path d="M207.278 343.602c8.973-1.1 17.549-1.165 26.255 1.632 8.706 2.797 16.441 7.83 22.603 14.542.958 1.046 2.48-.497 1.55-1.55-11.837-13.365-33.019-21.384-50.585-15.943-.687.213-.604 1.419.177 1.319ZM231.449 381.68c-1.693 2.076-.45 4.991 1.675 6.31 4.61 2.868 10.038-1.023 14.82-.521 2.639.278 4.9 1.769 7.463 2.354 2.255.514 4.534.307 6.759-.242 5.995-1.491 11.932-4.17 17.685-6.399.988-.384.58-1.987-.444-1.615-4.362 1.562-8.671 3.271-13.027 4.856-4.356 1.584-8.505 2.613-13.157.828-3.249-1.248-5.907-1.863-9.351-1.1-2.237.496-4.486 1.478-6.812 1.472-3.214-.012-5.623-2.342-5.073-5.624.048-.278-.307-.585-.532-.307l-.006-.012ZM268.055 16.954c-1.006 4.56-.994 9.657-1.178 14.317-.183 4.66-.088 8.971 1.101 13.324 0 .006.018 0 .012 0-2.338-9.084 1.006-18.45.16-27.629 0-.053-.083-.07-.095-.012ZM280.81 49.137c-6.493 2.513-8.055 12.093-5.481 17.74 1.018 2.23 2.581 4.229 3.303 6.594 1.065 3.483-.219 6.907-.787 10.337-.569 3.43-.551 7.375 2.45 9.805a.39.39 0 0 0 .55-.55c-3.184-3.974-1.485-8.805-.669-13.258.651-3.537.344-6.582-1.355-9.775-1.87-3.519-3.977-6.636-3.445-10.822.533-4.187 3.025-6.517 5.895-9.273.326-.313-.006-.976-.467-.798h.006ZM266.345 141.213c1.568 4.807-2.386 8.403-3.315 12.838-.775 3.708 1.113 6.57 2.971 9.61 4.871 7.983 3.273 18.882 2.119 27.694-.041.301.468.366.533.071 1.799-8.463 3.563-17.463-.486-25.642-1.053-2.123-2.402-4.11-3.343-6.286-1.439-3.324-.474-6.003 1.035-9.09 1.509-3.087 2.883-6.233.882-9.361-.124-.195-.473-.077-.39.166h-.006ZM269.05 100.036c-1.302 3.169-3.054 6.428-3.758 9.811-.32 1.525.012 2.507 1.414 3.288 2.498 1.389 5.132 1.425 7.345 3.607 3.338 3.294 3.131 7.705 2.149 11.922-.036.142.165.236.242.1 2.427-4.257.746-9.775-2.616-13.027a11.167 11.167 0 0 0-2.912-2.035c-.864-.414-2.018-.473-2.805-.97-2.906-1.827-1.332-4.417-.562-6.771.639-1.951 1.041-3.926 1.574-5.907.012-.042-.053-.06-.065-.018h-.006ZM283.326 194.163c-9.174 7.321-1.107 22.177-.876 31.355.313 12.318-6.375 25.079-1.208 37.102.231.544 1.119.154.953-.402-3.687-12.064 2.001-23.519 1.805-35.612-.177-10.988-7.919-21.94-.142-32.029.255-.331-.26-.633-.532-.414ZM270.63 233.182c.202 7.765-2.71 15.015-3.977 22.578-.509 3.052-.769 6.151-.385 9.232.474 3.761 1.971 7.267 3.113 10.851 1.368 4.276 1.634 8.262.805 12.691-.686 3.655-1.544 7.25-2 10.946-.977 7.848-.894 16.28 1.468 23.891.13.426.876.373.816-.112-1.018-8.474-1.84-16.724-.58-25.234 1.107-7.475 3.486-14.116 1.125-21.62-1.077-3.436-2.622-6.73-3.267-10.29-.764-4.163-.189-8.368.675-12.466 1.432-6.806 3.557-13.465 2.409-20.491-.018-.118-.208-.088-.208.03l.006-.006ZM277.679 368.658c.976-3.696.881-7.693 1.1-11.49.255-4.382.569-8.758.983-13.128.811-8.522 2.267-16.996 2.918-25.524.023-.331-.486-.384-.574-.077-2.249 8.102-3.167 16.677-3.989 25.033-.409 4.181-.74 8.368-.983 12.561-.243 4.192-.704 8.557.19 12.631.041.178.301.166.349 0l.006-.006ZM445.611 365.902c-1.196 2.1-1.237 4.808-1.503 7.191-.356 3.134-.539 6.286-.308 9.438.373 4.968 1.296 10.811 3.953 15.104.716 1.153 2.563.414 2.208-.929-1.379-5.192-3.243-9.728-3.528-15.21-.136-2.613-.059-5.227.16-7.829.219-2.602.965-5.139.379-7.582-.148-.62-1.048-.721-1.355-.177l-.006-.006Z" fill="#000"/><path d="M449.588 398.421c2.533-.005 5.031-1.058 7.534-1.448 3.036-.473 6.096-.55 9.156-.385l-.675-2.478-.763.438c-.533.308-.545 1.135 0 1.437l.763.426c1.888 1.047 2.912-2.36.675-2.478-2.953-.16-5.883-.071-8.813.343-2.746.384-6.078.763-8.345 2.442-.686.509-.521 1.709.462 1.703h.006Z" fill="#000"/><path d="M448.814 396.239c-4.327-3.572-12.601-2.886-17.744-1.981-1.533.272-1.196 2.898.373 2.738.592-.059.864-.083 1.414-.289.414-.154.71-.645.438-1.071a4.313 4.313 0 0 0-.864-1.017l-.615 2.33c2.846-.509 5.711-.662 8.593-.384 2.587.254 5.155 1.389 7.73 1.324.769-.018 1.361-1.082.68-1.644l-.005-.006Z" fill="#000"/><path d="m449.553 397.251-.089-.213c-.219-.526-.592-.887-1.189-.905-2.782-.094-5.576.592-8.12 1.68-2.042.875-4.735 2.058-5.741 4.139-.373.763.242 1.721 1.136 1.479 2.196-.604 3.995-2.431 6.161-3.3 2.166-.869 4.534-1.242 6.895-1.579.438-.065.716-.491.864-.864.042-.112.148-.307.089-.443l-.006.006ZM468.682 366.21c-.681 11.159-.054 22.554.1 33.731.024 1.721 2.693 1.727 2.676 0-.107-11.182.254-22.59-.681-33.731-.113-1.337-2.012-1.355-2.095 0Z" fill="#000"/><path d="M469.836 399.149c-3.167-1.218-8.002.243-11.21.958-3.208.716-8.268 1.36-10.553 3.862-.639.698.237 2.034 1.078 1.395l.455-.349c.533-.402.367-1.212-.343-1.265l-.562-.041v1.774c1.769.153 3.261-.669 4.93-1.207a70.728 70.728 0 0 1 5.717-1.573 76.069 76.069 0 0 1 5.291-1.017c1.776-.278 3.735-.266 5.38-1.206.586-.337.385-1.118-.171-1.331h-.012Z" fill="#000"/><path d="M468.989 400.296c-2.172-.697-4.942 1.952-6.569 3.188-2.155 1.638-4.285 3.483-5.913 5.659-1.107 1.479 1.995 2.803 2.285.964l.1-.633c.101-.638-.367-1.194-1.041-1.04l-.598.136 1.219 2.087c2.048-1.91 3.918-3.897 6.191-5.565 1.521-1.117 4.273-2.01 4.818-3.932.106-.373-.131-.745-.492-.864ZM470.576 400.734l.166.213c.361.467.811.698 1.408.573 5.292-1.123 10.476-.65 15.471 1.408l-.586-2.212-.396.396c-.29.29-.349.887 0 1.165l.396.314c1.681 1.33 3.285-1.402 1.291-2.212-5.416-2.2-11.157-2.626-16.839-1.26-.585.142-.846.663-.911 1.201-.012.077-.077.307 0 .414ZM407.904 205.654c1.432-1.432 3.143-2.585 5.279-2.023 2.137.562 3.332 2.638 3.326 4.731 0 1.407 2.196 1.407 2.19 0-.023-2.963-1.775-5.801-4.687-6.712-2.711-.852-6.262.237-7.576 2.868-.462.923.687 1.916 1.468 1.136ZM365.759 262.478c-3.314-1.247-5.173 7.889-5.445 9.823-.752 5.228.083 10.568 2.095 15.435 3.9 9.432 13.263 16.31 23.568 16.682.662.024 1.124-.461 1.343-1.023.118-.296.095-.438 0-.739-.195-.639-.71-.964-1.343-1.023-10.068-.976-18.508-7.221-21.71-16.937-1.509-4.565-1.982-9.568-.822-14.264.538-2.188 1.823-3.986 2.509-6.067.119-.355.462-1.638-.189-1.887h-.006Z" fill="#000"/><path d="M379.068 302.064c-3.19 7.617-.71 16.837 4.782 22.733 2.593 2.785 5.872 4.908 9.393 6.315 2.693 1.077 8.156 3.141 10.73 1.136.332-.26.314-.917 0-1.177-1.018-.846-1.515-.798-2.87-.917a24.551 24.551 0 0 1-5.415-1.123c-3.451-1.13-6.671-3.022-9.257-5.571-5.682-5.606-6.907-13.276-5.214-20.798.325-1.443-1.61-1.887-2.155-.592l.006-.006ZM366.142 262.401c-2.858-7.404-5.255-16.422 1.125-22.797 1.391-1.39 3.172-2.49 5.125-2.827 1.687-.289 3.557.048 4.457 1.757.527.999-.45 2.815-.793 3.844-1.107 3.335-1.539 6.794-1.213 10.301 1.302 13.998 12.31 23.826 24.769 28.681 1.61.627 2.32-1.975.716-2.59-8.393-3.229-16.205-8.77-20.277-16.996-2.16-4.364-3.149-9.355-2.569-14.198.391-3.259 3.161-7.546 1.326-10.728-3.752-6.499-12.819-.378-15.506 3.856-4.362 6.86-2.924 15.807 1.207 22.383.515.816 2.018.296 1.633-.686Z" fill="#000"/><path d="M363.758 260.893c.84 2.928 3.409 6.417 6.457 7.31 1.379.408 1.906-1.396.912-2.153-1.119-.852-2.344-1.419-3.362-2.431-1.018-1.011-1.74-2.164-2.427-3.388-.473-.852-1.846-.278-1.574.662h-.006ZM411.432 194.181c2.835-.792 5.427-1.75 8.191 0 1.349.852 2.231 2.189 2.782 3.661.349.94.42 1.656 1.154 2.324a.191.191 0 0 0 .296-.035c1.615-2.792-1.681-6.505-4.031-7.688-2.663-1.343-6.812-1.201-8.528 1.567-.06.095.035.213.142.183l-.006-.012ZM375.921 243.614c-1.598 3.849-3.634 6.853-7.15 9.201-1.089.728-.095 2.478 1.036 1.774 3.669-2.282 6.848-6.233 7.658-10.544.196-1.035-1.154-1.366-1.544-.426v-.005ZM258.047 3.608c4.498-.207 8.831-1.568 13.394-1.568 2.693 0 5.391.231 8.049.698 1.823.32 5.173.515 6.587 1.674 1.882 1.531-.384 1.97-1.692 2.217a52.38 52.38 0 0 1-3.96.598 56.98 56.98 0 0 1-7.031.366 55.033 55.033 0 0 1-7.765-.603 48.787 48.787 0 0 1-3.196-.585c-.468-.1-4.771-1.692-2.38-2.324.32-.083.586-.48.462-.81l-.148-.39c-.189-.486-.521-.734-1.036-.787-2.255-.231-3.456 2.01-2.509 3.98 1.326 2.761 5.534 2.933 8.144 3.329 4.042.609 8.138.816 12.222.574 3.379-.202 7.895-.338 10.978-1.822 1.788-.857 2.841-2.744 1.332-4.447-1.977-2.235-6.694-2.643-9.422-3.093a47.11 47.11 0 0 0-11.245-.479c-3.753.29-7.854.698-11.015 2.602-.379.23-.236.887.237.864l-.006.006ZM365.108 212.295c-2.178-2.945-5.895-4.642-9.256-5.884-3.362-1.242-8.263-2.697-11.843-1.473-.391.136-.409.686 0 .816 3.527 1.094 7.374.864 10.967 2.005 3.592 1.141 6.569 3.288 10.002 4.701.095.036.189-.094.13-.171v.006ZM370.966 203.501c1.149-4.033-.799-9.243-2.219-13.016a50.563 50.563 0 0 0-2.592-5.772c-.906-1.72-1.557-3.613-3.475-4.269-.402-.136-.739.219-.775.585-.148 1.762 1.042 2.975 1.87 4.489a50.887 50.887 0 0 1 3.013 6.54c1.385 3.678 1.704 8.114 3.652 11.508.124.213.455.166.521-.065h.005ZM.859 398.144c10.345.585 20.791.307 31.155.313l31.155.03c20.768.023 41.536.041 62.304.053l17.045.012c5.712 0 11.648.479 17.312-.337.947-.136.947-1.775 0-1.911-4.717-.68-9.612-.343-14.37-.343h-15.868c-10.387.012-20.768.018-31.155.03l-62.304.065c-11.725.012-23.556-.343-35.268.319-1.143.065-1.143 1.709 0 1.775l-.006-.006ZM122.525 381.142c4.297.591 8.789.325 13.128.337 4.338.012 8.605.018 12.908.03 9.191.017 18.383.041 27.574.041 18.188 0 36.393.207 54.563-.225 1.261-.029 1.261-1.922 0-1.951-18.17-.432-36.381-.225-54.563-.225-8.996 0-17.992.024-26.988.042-4.498.011-8.996.017-13.494.029-4.498.012-8.831-.254-13.128.337-.781.107-.781 1.467 0 1.579v.006ZM360.046 378.292c15.134.674 30.356.295 45.502.301l45.501.024 90.412.053c17.075.012 34.368.751 51.408-.414 1.142-.077 1.142-1.697 0-1.774-15.092-1.035-30.38-.42-45.502-.414-15.169 0-30.332.018-45.501.024l-90.412.053c-17.11.012-34.315-.461-51.408.307-1.183.054-1.189 1.792 0 1.846v-.006ZM618.449 400.988c-3.498-.656-7.215-.361-10.766-.39-3.912-.03-7.824-.047-11.736-.053l-22.887-.03c-7.629-.012-15.258-.006-22.887 0-7.866 0-15.625.367-23.473.822-.509.03-.509.763 0 .793 7.848.455 15.601.816 23.473.822 7.629 0 15.258.005 22.887 0l22.887-.03c3.912 0 7.824-.03 11.736-.053 3.545-.024 7.274.272 10.766-.391.734-.136.734-1.342 0-1.484v-.006Z" fill="#000"/></g><defs><clipPath id="a"><path fill="#fff" d="M0 0h619v411H0z"/></clipPath></defs></svg>