<svg width="500" height="232" viewBox="0 0 500 232" fill="none" xmlns="http://www.w3.org/2000/svg">
<g clip-path="url(#clip0_357_5827)">
<mask id="mask0_357_5827" style="mask-type:luminance" maskUnits="userSpaceOnUse" x="0" y="0" width="500" height="232">
<path d="M0 0H500V232H0V0Z" fill="white"/>
</mask>
<g mask="url(#mask0_357_5827)">
<path d="M2.94471 231.401C6.30082 226.8 9.41274 221.983 12.593 217.241C14.0465 215.083 10.7688 212.947 9.33571 215.116C6.28193 219.748 3.13947 224.326 0.26156 229.089C-0.811114 230.856 1.71506 233.09 2.94471 231.401ZM28.7892 195.789C32.0087 193.816 35.0915 191.582 38.2136 189.424C40.3895 187.92 43.5494 186.611 44.2819 183.668C44.3793 183.286 44.1642 182.764 43.7848 182.698C41.0421 182.175 38.7703 184.682 36.5653 186.273C33.4825 188.507 30.3502 190.667 27.3749 193.076C25.9302 194.241 27.1802 196.781 28.7994 195.789H28.7892ZM63.4127 174.196C67.0915 172.921 70.6918 171.373 74.3008 169.891C76.8866 168.833 80.0377 168.375 81.5886 165.705C81.8808 165.203 81.5886 164.527 81.1002 164.374C78.1845 163.427 74.8866 165.836 72.1744 166.98C68.8764 168.387 65.5595 169.738 62.3212 171.318C60.8575 172.039 61.9011 174.709 63.404 174.185L63.4127 174.196ZM105.538 157.137C109.246 157.377 112.699 156.592 116.328 155.885C119.753 155.231 123.83 155.143 126.786 153.029C127.411 152.581 127.382 151.35 126.573 151.163C123.206 150.38 119.664 151.775 116.328 152.494C112.504 153.311 108.778 153.998 105.206 155.787C104.573 156.102 104.953 157.105 105.538 157.137ZM165.481 145.868C168.27 147.185 171.685 146.324 174.67 146.171C177.655 146.019 181.148 146.467 183.939 144.963C184.525 144.646 184.289 143.741 183.773 143.535C180.788 142.334 177.109 143.295 173.988 143.512C171.187 143.709 167.978 143.272 165.49 144.831C165.169 145.026 165.11 145.691 165.49 145.866H165.481V145.868ZM207.4 140.308C209.868 140.47 212.201 139.151 214.482 138.236C216.307 137.506 218.59 137.102 219.731 135.238C219.917 134.933 219.731 134.497 219.429 134.411C217.342 133.799 215 135.478 213.068 136.317C211 137.222 208.776 137.899 207.166 139.675C206.952 139.915 207.118 140.285 207.4 140.308ZM233.235 115.411C233.967 110.833 236.026 104.565 234.592 99.9985C234.523 99.7697 234.202 99.5961 234.035 99.8363C231.362 103.639 231.469 110.07 230.836 114.67C230.592 116.414 232.952 117.188 233.235 115.411ZM233.567 82.9181C233.283 80.749 231.333 78.6561 230.113 76.9883C228.581 74.8954 227.205 73.1514 225.107 71.7886C224.718 71.5387 224.103 71.9638 224.289 72.4976C225.167 74.9928 226.416 76.7158 228.025 78.7324C229.362 80.4115 230.952 82.9506 232.932 83.6157C233.342 83.7569 233.615 83.3221 233.567 82.9068V82.9181ZM208.494 64.5074C205.919 63.0034 202.436 63.4836 199.587 63.4723C196.602 63.4609 193.392 62.9596 190.641 64.4311C190.125 64.7037 190.125 65.6739 190.641 65.9561C193.392 67.4293 196.602 66.9279 199.587 66.9166C202.573 66.9052 205.91 67.3855 208.494 65.8815C208.953 65.609 208.953 64.7799 208.494 64.5187V64.5074ZM175.948 75.2443C174.554 77.2284 173.842 79.7236 173.061 82.0777C172.281 84.4334 171.305 86.7437 171.616 89.2064C171.666 89.5666 172.086 89.5991 172.289 89.4027C173.871 87.8777 174.494 85.3922 175.206 83.2669C176.016 80.8463 177.001 78.3836 177.1 75.7878C177.119 75.1794 176.32 74.7316 175.948 75.2556V75.2443ZM176.544 116.753C177.937 119.063 179.937 121.003 181.685 122.988C182.826 124.285 184.426 126.987 186.24 126.693C186.347 126.672 186.474 126.541 186.484 126.421C186.786 124.415 184.357 122.54 183.225 121.265C181.469 119.28 179.782 117.035 177.733 115.434C177.02 114.877 176.065 115.979 176.544 116.764V116.753ZM225.682 152.374C228.443 154.261 231.692 155.132 234.764 156.178C237.458 157.093 240.317 158.664 243.155 158.183C243.545 158.119 243.663 157.476 243.389 157.204C241.232 155.099 238.033 154.718 235.34 153.878C232.238 152.92 229.106 151.709 225.868 151.644C225.507 151.644 225.4 152.179 225.692 152.385L225.682 152.374ZM266.962 160.93C271.264 161.367 275.312 160.572 279.557 159.863C283.801 159.154 287.898 158.816 291.683 156.832C291.956 156.691 291.907 156.113 291.596 156.058C287.967 155.502 284.385 156.276 280.786 156.886C276.035 157.693 271.352 158.227 266.884 160.276C266.571 160.419 266.621 160.898 266.962 160.93ZM316.911 149.278C325.458 147.829 337.311 141.528 340.727 131.946C341.166 130.705 339.673 130.16 338.951 130.791C335.35 133.963 332.814 138.128 328.892 141.061C324.971 143.993 320.843 145.944 316.464 147.447C315.4 147.818 315.859 149.453 316.911 149.267V149.278ZM356.551 112.458C357.975 109.144 359.408 105.831 360.764 102.473C361.692 100.174 363.408 97.5682 362.756 95.0064C362.648 94.5927 362.248 94.4386 361.916 94.6252C359.623 95.9004 358.951 99.6708 357.984 102.156C356.785 105.253 355.673 108.381 354.522 111.498C354.044 112.784 356.004 113.711 356.551 112.458ZM372.794 75.9743C375.897 73.7728 378.785 71.2759 381.701 68.7807C384.013 66.7965 387.203 64.8773 388.384 61.8369C388.677 61.0841 388.199 60.3654 387.467 60.5066C384.57 61.042 382.073 64.0823 379.828 66.0762C376.951 68.6282 374.092 71.1786 371.429 74.0129C370.52 74.9831 371.702 76.7482 372.785 75.9743H372.794ZM420.802 17.7683C426.988 17.4519 433.173 15.1725 439.222 13.7351C446.208 12.0673 453.192 10.4416 460.217 9.0042C466.935 7.62815 473.678 6.40355 480.44 5.33114C486.674 4.33825 493.972 4.51346 499.738 1.59156C500.167 1.37416 500.049 0.577574 499.61 0.468875C493.923 -0.893922 487.231 1.04644 481.523 1.95173C474.459 3.07909 467.417 4.37567 460.403 5.84057C453.388 7.30071 446.997 8.73976 440.353 10.4968C433.709 12.249 426.637 13.5582 420.618 16.9814C420.286 17.1664 420.442 17.7878 420.812 17.7667L420.802 17.7683Z" fill="#5F7381"/>
<path d="M498.956 0.642456C492.869 1.28654 486.391 5.177 480.751 7.76145C474.449 10.6395 468.275 13.9524 462.217 17.4081C449.923 24.4168 437.788 32.0355 427.378 42.25C427.241 42.3911 427.417 42.6199 427.573 42.5322C439.436 35.4035 450.714 27.1635 462.664 20.2197C468.372 16.9068 474.167 13.821 480.02 10.8683C483.669 9.02528 487.269 7.12872 491.006 5.51446C493.815 4.30578 496.654 3.4005 499.151 1.4942C499.445 1.26383 499.377 0.610008 498.946 0.665169L498.956 0.642456ZM418.949 16.3503C417.417 18.5081 415.885 20.6561 414.374 22.8139C413.32 24.3178 411.515 26.0197 411.641 28.0688C411.661 28.3413 411.846 28.4825 412.08 28.4387C413.895 28.1126 415.036 25.6595 416.129 24.1653C417.593 22.1373 419.036 20.0996 420.49 18.0733C421.359 16.863 419.817 15.1303 418.958 16.3617L418.949 16.3503Z" fill="#5F7381"/>
<path d="M413.25 27.3598C425.123 25.9532 437.123 20.6561 448.586 17.0366C460.84 13.1672 473.455 9.63531 485.347 4.54429C485.551 4.45831 485.474 4.13058 485.259 4.17439C472.751 6.83509 460.362 11.2382 448.128 15.1514C436.674 18.8131 423.962 21.3537 413.212 27.1408C413.123 27.1846 413.163 27.3711 413.26 27.3598H413.25Z" fill="#5F7381"/>
<path d="M419.212 25.6368C421.475 30.9014 423.583 36.8539 426.675 41.5848C427.163 42.3246 428.372 41.9222 428.099 40.9196C426.568 35.2299 423.544 29.6701 421.115 24.4054C420.461 22.9891 418.616 24.2318 419.221 25.6482L419.212 25.6368Z" fill="#5F7381"/>
</g>
</g>
<defs>
<clipPath id="clip0_357_5827">
<rect width="500" height="232" fill="white"/>
</clipPath>
</defs>
</svg>
