<svg width="183" height="84" viewBox="0 0 183 84" fill="none" xmlns="http://www.w3.org/2000/svg">
    <path d="M32.4395 83.2122C46.8789 83.4189 61.3348 83.2645 75.7776 83.2645L119.116 83.2694H131.035C135.009 83.2694 139.365 83.4286 143.496 83.1599C144.139 83.1174 144.144 82.1909 143.496 82.2353C142.965 82.2706 142.434 82.3155 141.902 82.3599C141.807 82.3636 141.718 82.401 141.652 82.4641C141.586 82.5273 141.549 82.6113 141.549 82.6988C141.549 82.7863 141.586 82.8704 141.652 82.9336C141.718 82.9967 141.807 83.034 141.902 83.0377C142.434 83.0827 142.965 83.1247 143.496 83.1624V82.2377C139.901 82.0061 136.261 82.1307 132.661 82.1283C129.062 82.1259 125.438 82.1283 121.827 82.1283H100.158L56.819 82.1356C48.6956 82.1356 40.5662 82.0712 32.4421 82.1855C31.7239 82.1958 31.7206 83.2019 32.4421 83.2122H32.4395Z" fill="black"/>
    <path d="M26.1737 40.8005C26.7269 44.3155 27.6543 47.7909 28.288 51.2961C28.9418 54.9221 29.4932 58.5631 29.9416 62.2155C30.5871 67.4521 31.0194 72.7092 31.2374 77.9756C31.3081 79.6772 30.98 81.6547 31.5655 83.1873C31.7041 83.5532 32.2593 83.5709 32.3926 83.1873C32.9234 81.6523 32.4983 79.5751 32.4329 77.9756C32.3603 76.1914 32.2619 74.4102 32.1405 72.629C31.8929 68.9887 31.5393 65.3551 31.0803 61.7322C30.6471 58.3062 30.1228 54.8905 29.5079 51.4882C28.8524 47.8535 28.2636 44.0966 27.1229 40.5592C26.9381 39.9859 26.0846 40.2376 26.1737 40.8005ZM144.26 83.1648C144.57 81.5629 144.377 79.8365 144.391 78.2121C144.407 76.4309 144.453 74.6522 144.507 72.8734C144.615 69.3135 144.825 65.7584 145.134 62.2082C145.598 56.8529 146.292 51.5166 147.212 46.2115C147.5 44.5422 148.128 42.7288 147.909 41.0394C147.874 40.7604 147.449 40.5786 147.275 40.8826C146.421 42.3701 146.329 44.2687 146.041 45.9149C144.517 54.676 143.61 63.5188 143.325 72.3877C143.271 74.1668 143.247 75.9466 143.255 77.7264C143.26 79.4924 143.079 81.4359 143.493 83.1624C143.575 83.501 144.19 83.5186 144.26 83.1624V83.1648Z" fill="black"/>
    <path d="M147.581 40.3525C131.897 39.9835 116.175 40.2054 100.485 40.1756C84.7875 40.1452 69.0873 40.1209 53.3897 40.0984C44.5586 40.0856 35.6945 39.8692 26.8661 40.088C26.0872 40.1081 26.0872 41.1744 26.8661 41.1969C34.7915 41.4212 42.7532 41.2613 50.6845 41.2765L73.9609 41.3239C89.6585 41.3561 105.359 41.3811 121.056 41.406C129.896 41.4212 138.744 41.5403 147.581 41.3634C148.288 41.3488 148.288 40.3695 147.581 40.3549V40.3525Z" fill="black"/>
    <path d="M147.591 41.1494C148.507 40.6388 149.071 39.6199 149.738 38.8673C150.504 37.9983 151.304 37.1542 152.134 36.3366C153.863 34.6436 155.74 33.0838 157.745 31.6727C160.596 29.6744 163.692 27.9921 166.97 26.6604C168.084 26.2093 169.292 25.9923 170.19 25.3151C170.526 25.061 170.238 24.5601 169.848 24.5576C168.786 24.5528 167.694 25.123 166.729 25.5042C165.544 25.9721 164.382 26.4859 163.245 27.044C160.973 28.1649 158.806 29.4582 156.767 30.9103C154.853 32.269 153.061 33.7669 151.407 35.3894C150.555 36.2224 149.746 37.0912 148.981 37.9931C148.307 38.7925 147.271 39.7646 147.07 40.7835C147.019 41.0473 147.307 41.3063 147.588 41.1494H147.591ZM27.4127 40.6613C25.9056 38.6509 23.5715 37.0412 21.5033 35.5366C19.3611 33.9728 17.121 32.5263 14.7945 31.2046C11.2898 29.2204 7.60382 27.5215 3.77849 26.1273C2.72627 25.7437 1.41197 25.0087 0.273267 25.2549C-0.0383086 25.3224 -0.0706544 25.6586 0.099656 25.8555C0.750532 26.5954 2.06549 26.7796 3.00549 27.1188C4.37894 27.6138 5.73424 28.1505 7.06918 28.7279C9.4942 29.775 11.8518 30.9496 14.1305 32.2459C16.4079 33.5414 18.6523 34.9663 20.7712 36.5007C22.8348 37.9931 24.6831 39.8242 26.8575 41.1646C27.185 41.3665 27.6378 40.9604 27.41 40.6564L27.4127 40.6613ZM28.1098 40.2528C28.053 38.967 27.4186 37.6716 26.9955 36.4509C26.4921 34.9962 25.9953 33.5396 25.505 32.0812C24.5463 29.2415 23.6282 26.3903 22.7509 23.5284C21.0016 17.8032 19.4207 12.0354 18.01 6.23148C17.8337 5.50685 16.6191 5.81323 16.798 6.53847C18.2121 12.3414 19.7992 18.1074 21.5574 23.83C22.4143 26.6139 23.3119 29.3871 24.2501 32.1487C24.7481 33.6054 25.2613 35.0578 25.7895 36.5056C26.2529 37.781 26.6159 39.3062 27.4648 40.412C27.649 40.6509 28.1263 40.5914 28.1098 40.2528Z" fill="black"/>
    <path d="M17.3426 6.67284C20.1508 6.21691 22.9074 5.42723 25.6911 4.8491C28.4755 4.27097 31.454 3.71291 34.3519 3.23205C38.6461 2.51662 42.9647 1.93169 47.3008 1.47822C48.6969 1.3311 50.2317 1.34873 51.5757 0.970005C52.1612 0.805868 52.0015 0.090352 51.437 0.0356398C50.0112 -0.106004 48.4665 0.210113 47.0433 0.362091C45.6967 0.506774 44.352 0.663612 43.01 0.83322C40.0907 1.19972 37.1804 1.62495 34.2812 2.10862C31.4676 2.57792 28.6658 3.10532 25.8779 3.69041C22.9483 4.30319 19.8986 4.8412 17.0799 5.80839C16.4884 6.00961 16.7168 6.7774 17.34 6.67527L17.3426 6.67284Z" fill="black"/>
    <path d="M50.8145 0.833218C53.6497 7.44489 56.716 13.9398 59.239 20.6658C61.7626 27.3875 63.9099 34.201 65.9048 41.0698C66.0864 41.6947 67.1221 41.4309 66.959 40.8029C65.151 33.8223 62.8551 26.9316 60.2826 20.16C57.7101 13.3891 55.1 6.78956 51.674 0.501906C51.4377 0.0708956 50.6165 0.37485 50.8145 0.835649V0.833218Z" fill="black"/>
    <path d="M59.4594 20.6464C60.4866 20.4646 60.8741 18.8998 61.286 18.1253C61.7606 17.2256 62.7039 16.1271 62.4676 15.1034C62.428 14.9216 62.189 14.8615 62.0286 14.9387C60.9856 15.4444 60.6028 17.0463 60.1367 17.9983C59.7816 18.7205 58.8792 19.8293 59.3479 20.6062C59.3697 20.6439 59.4159 20.6561 59.4594 20.6488V20.6464Z" fill="black"/>
    <path d="M61.6352 15.3721C62.1613 16.3235 64.1054 16.4159 65.1272 16.7545C65.9991 17.0434 66.8573 17.3661 67.6997 17.7217C68.3717 18.0056 68.7922 18.2943 69.5296 18.2597C69.7731 18.2469 69.9764 17.9952 69.8246 17.7861C69.0873 16.752 67.1115 16.3162 65.8864 15.9052C64.8236 15.549 62.7145 14.5125 61.69 15.1775C61.6194 15.225 61.5923 15.2997 61.6332 15.3745L61.6352 15.3721Z" fill="black"/>
    <path d="M68.5671 17.8408C68.1037 18.7326 67.738 19.6798 67.3446 20.6014C67.0733 21.2342 68.1849 21.5084 68.4536 20.8828C68.8272 20.0032 69.245 19.1241 69.5487 18.222C69.7243 17.6992 68.8325 17.3302 68.5671 17.8408Z" fill="black"/>
    <path d="M67.8165 21.3065C71.8664 22.7491 76.0568 23.9048 80.1746 25.1777C82.1939 25.8033 84.2132 26.4288 86.2325 27.0513C87.2438 27.3626 88.2551 27.672 89.2631 27.9808C90.2176 28.2744 91.1933 28.703 92.2099 28.6933C92.6977 28.6884 92.7763 28.1523 92.4403 27.9158C91.6923 27.3899 90.7405 27.2161 89.8513 26.9419C88.8406 26.6306 87.832 26.3188 86.8207 26.01C84.7149 25.365 82.6085 24.7248 80.5027 24.0817C76.3822 22.8263 72.2809 21.4312 68.1037 20.3497C67.4205 20.1728 67.1822 21.0798 67.8165 21.3065Z" fill="black"/>
    <path d="M91.5286 28.6933C92.7347 28.9498 93.8707 29.3206 94.9309 29.9164C95.6081 30.3 96.3237 31.2368 97.1753 31.0076C97.2617 30.9851 97.3482 30.9176 97.3647 30.8331L97.3971 30.6836C97.4354 30.5042 97.4109 30.2903 97.2479 30.1602C95.6867 28.9297 93.841 28.0854 91.8026 27.7765C91.1603 27.6793 90.8672 28.551 91.5286 28.6933Z" fill="black"/>
    <path d="M96.6961 30.1979C95.3897 31.762 94.6602 33.9894 93.7763 35.7834C93.3479 36.6527 92.9175 37.5245 92.4918 38.3938C92.1069 39.1786 91.497 39.9859 91.6191 40.8601C91.6488 41.0747 91.8924 41.2789 92.1313 41.1294C92.9334 40.6309 93.1723 39.7616 93.5598 38.967C94.0232 38.0229 94.4814 37.0758 94.9421 36.1317C95.8069 34.3554 97.108 32.4222 97.5093 30.5091C97.6097 30.0356 96.9997 29.8289 96.6961 30.1954V30.1979ZM92.7155 28.1401C93.377 27.348 92.439 25.8033 92.2251 24.9115C92.062 24.2336 91.9023 23.5461 91.8184 22.8537C91.7234 22.0664 91.9511 21.5254 92.1762 20.791C92.2766 20.4597 91.8831 20.2226 91.5742 20.3649C90.2434 20.9777 90.6065 22.7564 90.8236 23.8573C91.027 24.8963 91.3036 25.9303 91.6587 26.934C91.8699 27.5322 91.9135 28.0155 92.6099 28.1772C92.6535 28.1875 92.6885 28.1699 92.7129 28.1377L92.7155 28.1401Z" fill="black"/>
    <path d="M91.4982 21.0774C94.3203 21.0597 97.2069 20.5041 100.016 20.2251C102.86 19.9378 105.707 19.6772 108.557 19.4433C114.258 18.9882 119.97 18.6576 125.688 18.4518C126.475 18.4214 126.48 17.298 125.688 17.3253C119.88 17.5265 114.078 17.867 108.288 18.3466C105.439 18.5837 102.591 18.8475 99.7497 19.1643C96.9092 19.4804 94.0549 19.605 91.3821 20.2828C90.9048 20.4044 90.9972 21.0822 91.4982 21.0798V21.0774Z" fill="black"/>
    <path d="M125.22 18.0651C125.201 21.8299 125.811 25.6665 126.147 29.4179C126.486 33.2022 126.822 36.9889 127.193 40.7707C127.267 41.5081 128.522 41.5209 128.457 40.7707C128.126 36.902 127.757 33.0381 127.389 29.1717C127.036 25.4519 126.928 21.6178 126.228 17.9405C126.125 17.405 125.22 17.5472 125.217 18.0651H125.22ZM94.0952 23.6008C93.7407 24.3309 94.074 25.0811 94.2338 25.8483C94.4589 26.937 94.6998 28.0203 94.9329 29.1067C95.055 29.6775 96.0062 29.4356 95.8821 28.8653C95.6623 27.8459 95.4451 26.827 95.2207 25.8106C95.0497 25.0385 95.0497 24.1194 94.4048 23.5613C94.3203 23.4889 94.15 23.4865 94.0952 23.5984V23.6008Z" fill="black"/>
    <path d="M94.4939 24.0665C103.537 23.4889 112.634 22.7959 121.645 21.8695C122.26 21.8069 122.287 20.9229 121.645 20.9649C112.596 21.5479 103.507 22.3752 94.4939 23.3066C93.9764 23.3589 93.9546 24.0993 94.4939 24.0665Z" fill="black"/>
    <path d="M121.176 21.3886C120.881 27.7638 121.867 34.3183 123.521 40.4965C123.651 40.9871 124.456 40.778 124.342 40.2898C122.867 34.0216 122.32 27.7838 122.122 21.391C122.106 20.8305 121.2 20.833 121.176 21.391V21.3886ZM95.6814 32.7785C95.5758 34.1888 95.76 35.6436 96.0584 37.0266C96.3019 38.1646 96.5079 39.7768 97.4598 40.5987C97.603 40.7233 97.8037 40.626 97.8229 40.4594C97.9529 39.3579 97.2538 38.1074 97.0201 37.0187C96.7198 35.6065 96.6412 34.2034 96.5191 32.776C96.4756 32.283 95.7164 32.2781 95.6814 32.776V32.7785ZM101.7 34.4976C97.5661 33.4788 101.611 27.5595 104.858 30.1729C106.21 31.2617 106.099 33.0253 104.761 34.0666C103.524 35.0259 102.025 34.7742 100.553 34.6496C100.195 34.6198 100.079 35.108 100.374 35.26C102.459 36.3214 105.441 35.5615 106.517 33.5633C107.498 31.745 106.4 29.4605 104.305 28.8501C102.209 28.2398 99.9544 29.3456 99.2712 31.2617C98.7833 32.6319 99.518 35.8284 101.741 34.7846C101.873 34.722 101.838 34.5305 101.7 34.4952V34.4976Z" fill="black"/>
    <path d="M101.044 34.8588C99.7128 34.5177 98.7015 36.4959 98.5331 37.4497C98.3358 38.5731 98.7312 40.3768 100.022 40.8133C100.255 40.8929 100.471 40.6534 100.412 40.454C100.282 40.0181 99.9729 39.7069 99.7801 39.2911C99.5035 38.6904 99.4197 38.0229 99.5959 37.3852C99.7504 36.8296 100.071 36.3409 100.493 35.9275C100.813 35.6138 101.068 35.4965 101.174 35.0806C101.187 35.035 101.18 34.9865 101.155 34.9454C101.129 34.9044 101.088 34.8741 101.038 34.8612L101.044 34.8588ZM105.229 34.4879C106.814 34.7718 108.175 35.2752 109.118 36.5579C109.525 37.1087 109.842 37.784 109.885 38.4564C109.929 39.1293 109.509 39.595 109.503 40.2254C109.503 40.3695 109.65 40.5367 109.82 40.5166C111.71 40.3124 110.918 37.46 110.341 36.4758C109.406 34.8892 107.362 33.5688 105.342 33.7007C104.884 33.7305 104.713 34.3931 105.226 34.4855L105.229 34.4879ZM113.535 30.928C111.757 30.5967 110.547 29.2489 111.16 27.5322C111.689 26.055 113.692 25.3674 115.177 26.0647C116.552 26.7103 117.11 28.4811 116.327 29.7049C115.543 30.928 114.22 30.9553 112.906 31.1347C112.806 31.1468 112.816 31.269 112.881 31.3116C114.511 32.3955 116.863 30.8405 117.343 29.3359C117.923 27.5146 116.676 25.4793 114.624 25.1206C112.573 24.7619 110.578 26.01 110.339 27.951C110.16 29.4082 111.567 32.1858 113.57 31.1645C113.67 31.1122 113.656 30.9529 113.538 30.9304L113.535 30.928Z" fill="black"/>
    <path d="M113.393 30.9851C111.661 30.9024 111.056 33.0028 110.801 34.2186C110.422 36.0199 110.132 38.8874 111.238 40.5142C111.39 40.7354 111.723 40.6309 111.747 40.3871C111.827 39.5622 111.536 38.7628 111.479 37.9354C111.423 37.1086 111.471 36.2764 111.574 35.4545C111.788 33.7627 112.244 32.5073 113.52 31.269C113.631 31.162 113.55 30.9924 113.393 30.9851ZM115.483 30.6514C115.367 31.314 115.689 31.6155 116.025 32.2234C116.527 33.1329 116.974 34.0721 117.326 35.0411C118.001 36.8898 118.354 38.8053 118.459 40.7513C118.492 41.3488 119.487 41.3561 119.476 40.7513C119.44 38.7193 119.062 36.7047 118.356 34.7791C118.049 33.9314 117.677 33.1048 117.242 32.3055C116.857 31.6028 116.565 30.776 115.708 30.5316C115.621 30.5067 115.497 30.5614 115.48 30.6489L115.483 30.6514ZM69.0437 17.811C69.5183 18.4238 70.1745 18.5782 70.9171 18.8773C71.8037 19.2335 72.6922 19.5849 73.5814 19.9339C74.3544 20.2348 75.4574 20.467 76.1241 20.9327C77.0892 21.605 76.1835 22.3303 76.4278 23.1771C76.4452 23.2328 76.4857 23.2799 76.5405 23.3084C76.5954 23.3368 76.6601 23.3442 76.7209 23.3291C77.4338 23.1376 77.6913 22.5223 77.748 21.8622C77.8239 20.9624 77.3275 20.3971 76.4819 20.0159C75.2838 19.4755 74.0071 19.0366 72.7767 18.5636C71.665 18.1375 70.3884 17.3478 69.1738 17.5144C69.0411 17.532 68.9678 17.7113 69.0437 17.811Z" fill="black"/>
    <path d="M77.2899 21.3266C78.6511 21.9242 80.2122 22.1935 81.646 22.6269C82.6923 22.943 86.7586 24.1066 84.3406 25.5467C83.6033 25.985 84.5334 26.9388 85.037 26.3759C85.1644 26.2343 85.2027 26.1844 85.2054 26.0027L84.9209 26.4586C86.387 25.6586 86.5282 23.8154 85.1565 22.861C84.2568 22.2378 82.9801 21.9868 81.9312 21.6749C80.508 21.2567 78.9923 20.7187 77.4965 20.6263C77.1031 20.6013 76.9295 21.1643 77.2899 21.3235V21.3266ZM126.34 18.2743C128.113 16.4086 129.672 14.3508 131.287 12.3702L133.844 9.2364C134.567 8.34945 135.64 7.42239 135.885 6.31659C135.93 6.10686 135.708 5.94029 135.496 6.04242C134.508 6.52085 133.922 7.55673 133.266 8.36161L130.715 11.4984C129.023 13.5787 127.221 15.6286 125.7 17.8214C125.457 18.1745 126.031 18.5958 126.34 18.2743Z" fill="black"/>
    <path d="M135.247 6.68984C136.947 8.14518 139.251 9.1762 141.208 10.3197C143.165 11.4632 145.165 12.634 147.15 13.7799C151.273 16.1593 155.398 18.5387 159.527 20.9126C160.183 21.2913 160.784 20.3369 160.134 19.9612C156.016 17.5721 151.893 15.1879 147.773 12.8036C145.789 11.6577 143.797 10.5215 141.804 9.38289C139.812 8.24427 137.831 6.8096 135.665 6.02964C135.258 5.88253 134.949 6.4333 135.247 6.68741V6.68984Z" fill="black"/>
    <path d="M159.671 19.9016C156.616 23.0725 153.965 26.6501 151.159 30.0112C148.259 33.4861 145.367 36.9639 142.471 40.4418C141.981 41.0297 143.067 41.6029 143.553 41.0224C146.399 37.6144 149.251 34.2089 152.092 30.7954C154.932 27.3826 158.012 24.0993 160.568 20.5369C160.923 20.0433 160.102 19.4505 159.671 19.8992V19.9016ZM128.411 34.5554C129.749 35.3524 131.311 35.8952 132.764 36.4983C134.216 37.1013 135.713 37.7263 137.202 38.3092C137.795 38.5415 138.32 37.7567 137.716 37.4971C136.168 36.8344 134.602 36.2071 133.038 35.5767C131.62 35.0058 130.183 34.3232 128.684 33.9523C128.283 33.8526 128.069 34.3536 128.407 34.5554H128.411ZM127.348 26.289C129.14 27.1759 131.154 27.7267 133.005 28.5085C134.857 29.2908 136.684 30.2003 138.489 31.1146C139.088 31.4185 139.614 30.5942 139.026 30.2726C137.185 29.2708 135.25 28.4015 133.296 27.6069C131.488 26.8744 129.565 26.0276 127.609 25.7236C127.256 25.6689 126.988 26.1096 127.348 26.289ZM130.338 21.2366C132.305 22.3704 134.588 23.1448 136.695 24.0342L139.782 25.34C140.638 25.7011 141.473 26.2166 142.433 26.1966C142.717 26.1893 142.823 25.895 142.652 25.7084C141.983 24.971 140.787 24.6823 139.844 24.2932L136.743 23.0105C134.743 22.1831 132.734 21.1843 130.631 20.5989C130.208 20.4816 129.977 21.0323 130.338 21.239V21.2366ZM134.143 17.963C134.642 18.7356 135.824 18.8548 136.7 19.1515C138.186 19.6577 139.652 20.2145 141.094 20.8208C142.357 21.3515 143.603 21.9096 144.829 22.512C145.981 23.078 147.136 23.9199 148.412 24.1941C148.797 24.2762 149.028 23.8725 148.784 23.6081C147.944 22.6968 146.537 22.1661 145.403 21.6105C144.037 20.9364 142.641 20.3122 141.221 19.7393C139.98 19.2419 138.723 18.7801 137.45 18.3545C136.466 18.0256 135.225 17.3429 134.211 17.7514C134.127 17.7837 134.108 17.8985 134.152 17.963H134.143ZM134.384 13.5064C135.217 14.2164 136.333 14.6176 137.339 15.0833C138.228 15.4967 139.169 16.1471 140.183 16.1672C140.445 16.1721 140.521 15.8906 140.381 15.7283C139.738 14.9909 138.51 14.6748 137.596 14.2711C136.64 13.845 135.672 13.307 134.617 13.1398C134.401 13.1051 134.197 13.3441 134.384 13.5064ZM23.2309 11.254C24.0415 11.0498 24.8033 10.7033 25.6192 10.499C26.3427 10.3173 27.0939 10.2127 27.7824 9.93123C27.9342 9.86862 27.8827 9.6522 27.7362 9.61754C26.2839 9.25097 24.1253 9.81147 22.9384 10.6212C22.613 10.8431 22.7866 11.3683 23.2289 11.2565L23.2309 11.254ZM24.4666 14.9812C28.3131 14.7769 32.225 13.8596 36.0226 13.2741C37.9713 12.9732 39.9206 12.6693 41.8666 12.355C43.6939 12.0614 45.7811 11.9738 47.4697 11.2516C47.811 11.1045 47.5998 10.6832 47.2961 10.6583C45.5204 10.5118 43.5856 11.062 41.8396 11.3386C39.893 11.6479 37.9477 11.9634 36.0035 12.2851C34.0601 12.6067 32.116 12.9307 30.1727 13.2523C28.2293 13.5732 26.2423 13.7775 24.3636 14.2881C23.9623 14.3982 24.0197 15.0061 24.4666 14.9836V14.9812ZM26.4813 20.1059C28.0834 20.098 29.7205 19.5752 31.2737 19.2439C32.827 18.9125 34.54 18.7004 35.952 18.0232C36.1527 17.9259 36.0523 17.6444 35.8411 17.642C34.2416 17.6195 32.5933 18.1447 31.0486 18.4913C29.504 18.8378 27.7929 19.0493 26.3618 19.7022C26.1479 19.7995 26.2568 20.1059 26.4813 20.1059ZM39.9068 17.6694C41.4468 17.9156 43.241 17.3229 44.7646 17.0639C46.6591 16.7447 48.5569 16.4262 50.4482 16.0918C51.0991 15.9775 50.8225 15.0705 50.1749 15.1806C48.3668 15.487 46.5588 15.8055 44.7533 16.1222C43.2113 16.3933 41.192 16.4383 39.8388 17.1934C39.6467 17.3004 39.6546 17.6292 39.9068 17.6694ZM28.3943 25.554C29.8611 25.599 31.3384 25.2926 32.7801 25.0908C34.4773 24.8513 36.1744 24.5947 37.8683 24.343C41.0943 23.8622 44.6127 23.633 47.7159 22.684C48.0632 22.5795 48.017 22.0761 47.6268 22.081C44.488 22.1235 41.2376 22.9229 38.1528 23.4239C36.554 23.6828 34.9512 23.9369 33.3551 24.2063C31.7583 24.4756 29.9231 24.6549 28.3454 25.2154C28.1534 25.2823 28.1725 25.5467 28.3943 25.554ZM49.5834 21.8919C49.9742 21.8542 50.3617 21.7947 50.7492 21.7351C51.0773 21.6852 51.3968 21.6524 51.5974 21.3861C51.6549 21.3089 51.606 21.2117 51.5328 21.1618C51.2641 20.9825 50.9419 21.0597 50.635 21.1047C50.2561 21.1618 49.8739 21.222 49.4996 21.3041C49.1524 21.3813 49.2177 21.9217 49.5861 21.8895L49.5834 21.8919ZM30.8915 31.8842C34.7651 31.4581 38.6281 30.4392 42.4363 29.672C46.2452 28.9048 50.4515 28.227 54.3581 27.2154C55.038 27.0385 54.7429 26.1546 54.0702 26.2592C50.1557 26.8647 46.2776 27.8458 42.4093 28.6604C38.5628 29.4702 34.5374 30.0629 30.7938 31.2143C30.4228 31.3286 30.4525 31.9341 30.8915 31.8842ZM33.0376 36.3712C34.1421 36.3342 35.2434 36.2394 36.3362 36.0873C37.3745 35.9475 38.6598 35.9402 39.5212 35.3596C39.6354 35.2849 39.6302 35.1159 39.481 35.0758C38.5456 34.8289 37.562 35.1554 36.6266 35.3299C35.4015 35.5566 34.1974 35.8332 33.0131 36.1992C32.9154 36.229 32.9267 36.3736 33.0376 36.3712ZM43.0694 35.3548C45.6471 35.0581 48.2143 34.4855 50.7598 34.0119C52.0608 33.7706 53.3619 33.531 54.6604 33.2842C55.8829 33.0526 57.252 32.9584 58.3637 32.4253C58.7696 32.2283 58.5419 31.7128 58.1458 31.6848C56.8969 31.5979 55.574 32.0265 54.3541 32.2556C53.1342 32.4848 51.9308 32.7189 50.7188 32.9529C48.1384 33.4514 45.4841 33.8526 42.9499 34.5274C42.4759 34.6545 42.5439 35.4144 43.072 35.3524L43.0694 35.3548ZM42.1076 63.855C47.0572 61.182 51.9235 58.4762 56.6586 55.4895C56.7615 55.4244 56.6718 55.2749 56.5582 55.3326C51.5545 57.9205 46.7647 60.7437 41.9749 63.6483C41.8363 63.7328 41.9617 63.9346 42.1076 63.855ZM36.7567 70.9025C40.0936 69.632 43.2357 67.9329 46.434 66.3985C49.7073 64.828 53.0029 63.2974 56.3199 61.8069C63.0241 58.7997 69.7707 55.8732 76.5578 53.028C76.6119 53.0056 76.5743 52.9156 76.5176 52.9381C69.7 55.3768 62.9952 58.0746 56.4203 61.0245C53.1029 62.5138 49.809 64.0469 46.5396 65.6234C43.2707 67.2003 39.7734 68.7852 36.719 70.8132C36.6728 70.843 36.6999 70.9275 36.76 70.9025H36.7567ZM47.9542 71.2162C50.8872 70.6782 53.7956 69.1663 56.5331 68.0776C59.4581 66.914 62.597 65.8775 65.3266 64.3577C65.4487 64.2909 65.3701 64.1091 65.2289 64.1437C62.2881 64.8811 59.4502 66.1863 56.65 67.2854C53.7739 68.4113 50.4211 69.3408 47.8566 71.0047C47.7397 71.0819 47.8103 71.2442 47.9542 71.2193V71.2162ZM153.758 82.1307C150.646 74.5227 148.022 66.8368 145.629 59.0142C145.428 58.3619 144.352 58.6354 144.526 59.2932C146.586 67.1383 149.407 74.916 152.671 82.4049C152.934 83.0103 154.013 82.7587 153.755 82.1307H153.758Z" fill="black"/>
    <path d="M145.035 59.54C149.939 58.4063 154.756 56.65 159.559 55.2001C161.936 54.4828 164.308 53.7551 166.683 53.0329C168.9 52.3575 171.616 51.887 173.598 50.7308C173.917 50.5441 173.82 50.0007 173.392 50.0286C171.126 50.183 168.762 51.2293 166.615 51.8791C164.156 52.6268 161.695 53.3691 159.236 54.1241C154.436 55.5941 149.43 56.8294 144.756 58.6057C144.146 58.8373 144.358 59.6969 145.035 59.54Z" fill="black"/>
    <path d="M172.697 50.5964C173.794 55.0056 175.403 59.3504 176.871 63.6653C177.611 65.8324 178.374 67.9925 179.162 70.1451C179.872 72.0862 180.395 74.4552 181.596 76.1865C181.81 76.4953 182.458 76.406 182.412 75.9823C182.187 73.9245 181.062 71.8047 180.363 69.8411C179.594 67.6836 178.836 65.5228 178.089 63.3589C176.589 59.0367 175.342 54.622 173.746 50.332C173.521 49.7265 172.542 49.966 172.7 50.5988L172.697 50.5964ZM151.15 56.9017C150.296 54.2682 149.583 51.7897 150.478 49.0517C151.22 46.772 152.95 44.7246 155.319 43.7051C157.892 42.5993 161.101 42.868 163.294 44.5598C165.661 46.386 166.492 49.321 167.265 51.9466C167.479 52.6791 168.721 52.3673 168.504 51.6329C167.626 48.693 166.612 45.5088 163.887 43.5385C161.442 41.7695 158 41.468 155.154 42.5543C149.247 44.8042 147.035 52.2955 150.304 57.2281C150.573 57.6318 151.305 57.3722 151.153 56.8993L151.15 56.9017Z" fill="black"/>
    <path d="M153.647 55.9029C152.834 52.4524 152.818 47.5095 157.453 46.3489C159.546 45.8255 161.452 46.7471 162.693 48.287C163.864 49.7369 164.173 51.4609 164.932 53.0779C165.206 53.6634 166.057 53.2074 165.965 52.6767C165.295 48.7727 161.912 43.8899 156.932 45.3246C152.064 46.7277 151.096 52.2682 152.652 56.1522C152.88 56.72 153.786 56.5029 153.644 55.9005L153.647 55.9029ZM161.807 65.3572C161.219 65.0411 160.511 65.0581 160.283 64.3359C159.999 63.4465 160.752 62.6544 161.574 62.3152C162.395 61.9766 163.39 61.9389 163.755 62.8185C164.1 63.6435 163.549 64.4332 162.951 65.0107C162.403 65.539 163.276 66.3438 163.823 65.8131C164.837 64.8265 165.534 63.3991 164.728 62.1061C163.964 60.8805 162.327 60.8203 161.053 61.3614C159.779 61.9018 158.814 63.1523 159.131 64.4976C159.37 65.5067 160.795 66.7274 161.888 65.925C162.091 65.7754 162.007 65.4642 161.809 65.3572H161.807Z" fill="black"/>
    <path d="M161.123 65.6739C160.984 67.8587 161.369 70.1433 161.551 72.3226C161.572 72.6017 161.811 72.9111 162.158 72.8807C164.389 72.6843 166.807 72.2035 168.688 71.0302C169.165 70.7311 168.878 69.8764 168.265 70.1056C166.227 70.8728 164.381 71.5828 162.158 71.7676L162.765 72.3257C162.576 70.1007 162.567 67.7438 162.055 65.5614C161.939 65.0611 161.155 65.2076 161.126 65.6763L161.123 65.6739Z" fill="black"/>
    <path d="M168.792 70.2953C168.171 69.2089 167.149 68.2946 166.29 67.3651C165.598 66.6155 164.783 65.2125 163.687 65.0186C163.481 64.9809 163.254 65.1031 163.262 65.3177C163.303 66.3663 164.598 67.2332 165.306 67.9882C166.22 68.9597 167.081 70.0606 168.209 70.8308C168.575 71.0795 168.971 70.6114 168.792 70.2953ZM153.207 83.3143C155.517 83.0772 157.856 82.3052 160.1 81.7575L167.614 79.9185C170.033 79.3278 172.451 78.7357 174.868 78.1422L178.495 77.2504C179.644 76.9689 180.903 76.7969 181.943 76.2589C182.361 76.0425 182.177 75.4266 181.699 75.4315C180.585 75.4418 179.501 75.8303 178.427 76.0947L174.801 76.9866C172.296 77.6018 169.794 78.2243 167.292 78.8425L160.044 80.6383C157.721 81.214 155.18 81.6328 152.974 82.5198C152.562 82.6864 152.76 83.3593 153.207 83.3143Z" fill="black"/>
</svg>
