<svg width="128" height="70" viewBox="0 0 128 70" fill="none" xmlns="http://www.w3.org/2000/svg">
<g clip-path="url(#clip0_623_807)">
<path d="M68.3066 37.5894V16.6799H75.7634C77.4346 16.6799 78.7543 16.9841 79.7227 17.591C80.6911 18.198 81.3808 18.9803 81.7916 19.9354C82.2024 20.892 82.4072 21.8835 82.4072 22.9087C82.4072 23.6239 82.2867 24.3463 82.05 25.0746C81.8119 25.8 81.4301 26.4714 80.9015 27.0827C80.3731 27.694 79.6893 28.1884 78.8487 28.5612C78.008 28.9342 76.9815 29.1214 75.7649 29.1214H70.3828V37.5894H68.3066ZM70.3813 27.15H75.8824C76.9888 27.15 77.8701 26.9349 78.522 26.502C79.1738 26.0692 79.6385 25.5266 79.9143 24.8728C80.1902 24.222 80.3295 23.5669 80.3295 22.9101C80.3295 22.2535 80.2032 21.626 79.9507 20.9694C79.7009 20.3128 79.2494 19.7613 78.6033 19.3182C77.9557 18.875 77.0483 18.6529 75.8824 18.6529H70.3813V27.15Z" fill="white"/>
<path d="M70.7766 37.9871H67.9106V16.2821H75.7624C77.5017 16.2821 78.9042 16.6082 79.9321 17.2546C80.9601 17.9026 81.7078 18.7493 82.1506 19.776C82.5833 20.7808 82.8025 21.8352 82.8025 22.9087C82.8025 23.6604 82.6762 24.4298 82.4251 25.199C82.168 25.9742 81.7572 26.6952 81.1983 27.343C80.6334 27.9998 79.8943 28.5321 79.0058 28.9255C78.113 29.3204 77.0226 29.5193 75.7624 29.5193H70.7766V37.9871ZM68.7004 37.1902H69.9853V28.7222H75.761C76.9138 28.7222 77.8953 28.5452 78.6864 28.1956C79.4675 27.8491 80.1107 27.3855 80.5986 26.8195C81.0893 26.2521 81.4508 25.6231 81.67 24.9489C81.8951 24.2615 82.0098 23.5756 82.0098 22.9073C82.0098 21.9421 81.8124 20.9958 81.4261 20.0919C81.0457 19.2159 80.4041 18.4876 79.5111 17.9274C78.6124 17.3628 77.3493 17.0763 75.761 17.0763H68.7004V37.1902ZM75.8814 27.5463H69.9853V18.2521H75.8814C77.1199 18.2521 78.1115 18.4993 78.8243 18.9862C79.5373 19.4747 80.0411 20.0919 80.3198 20.8231C80.5855 21.5253 80.7219 22.2257 80.7219 22.9073C80.7219 23.5887 80.5709 24.3259 80.2777 25.025C79.9757 25.746 79.4559 26.353 78.7402 26.8326C78.0274 27.305 77.0661 27.545 75.8829 27.545L75.8814 27.5463ZM70.7753 26.7492H75.8814C76.9065 26.7492 77.7196 26.5532 78.3032 26.1672C78.8868 25.7782 79.3065 25.2882 79.5474 24.7135C79.8 24.1124 79.9308 23.504 79.9308 22.9073C79.9308 22.3106 79.8131 21.7182 79.5823 21.1085C79.363 20.5306 78.958 20.0393 78.3801 19.6444C77.7994 19.2481 76.9587 19.0477 75.8814 19.0477H70.7753V26.7492Z" fill="white"/>
<path d="M90.1868 37.9461C88.1905 37.9461 86.6152 37.2324 85.458 35.805C84.301 34.3761 83.7231 32.431 83.7231 29.9725C83.7231 28.3301 83.9845 26.91 84.5085 25.7167C85.0327 24.5203 85.7789 23.599 86.7488 22.9453C87.7172 22.2929 88.8642 21.9668 90.1882 21.9668C91.5124 21.9668 92.6738 22.2885 93.6422 22.9307C94.6106 23.5727 95.3554 24.4911 95.8738 25.6859C96.3936 26.8794 96.6521 28.2995 96.6521 29.9419C96.6521 31.5842 96.3907 33.0058 95.8665 34.2066C95.3425 35.4073 94.5961 36.3316 93.6264 36.978C92.6578 37.6244 91.5109 37.9461 90.1868 37.9461ZM90.1868 35.9747C91.5516 35.9747 92.6173 35.4424 93.3824 34.3776C94.1475 33.3115 94.5308 31.8328 94.5308 29.9419C94.5308 28.0509 94.1475 26.5635 93.3824 25.5076C92.6173 24.4516 91.5516 23.9236 90.1868 23.9236C88.8221 23.9236 87.7332 24.4488 86.9768 25.4988C86.2217 26.5503 85.8428 28.0407 85.8428 29.9711C85.8428 31.9016 86.2233 33.3496 86.9855 34.3996C87.7462 35.4511 88.8148 35.9747 90.1868 35.9747Z" fill="white"/>
<path d="M90.1872 38.3454C88.0776 38.3454 86.3848 37.5748 85.1522 36.0567C83.9412 34.5634 83.3271 32.5159 83.3271 29.9726C83.3271 28.2849 83.6016 26.7975 84.146 25.5558C84.6992 24.2966 85.5021 23.308 86.53 22.6132C87.5579 21.9201 88.7876 21.5676 90.1872 21.5676C91.5868 21.5676 92.8283 21.9141 93.8561 22.5972C94.8884 23.2787 95.6884 24.2629 96.2343 25.5266C96.7745 26.7639 97.0474 28.2497 97.0474 29.9404C97.0474 31.631 96.7729 33.117 96.2285 34.3645C95.6753 35.6311 94.8724 36.6198 93.8474 37.3071C92.8151 37.9959 91.5839 38.3454 90.1872 38.3454ZM90.1872 22.3647C88.9488 22.3647 87.8672 22.6718 86.9684 23.2758C86.0668 23.8842 85.3598 24.7587 84.8676 25.8776C84.3696 27.0168 84.1169 28.3946 84.1169 29.9726C84.1169 32.3272 84.6701 34.2051 85.7634 35.5535C86.8537 36.8961 88.2998 37.5498 90.1872 37.5498C91.4257 37.5498 92.5102 37.2456 93.409 36.6461C94.3077 36.045 95.0148 35.1703 95.507 34.0471C96.0049 32.902 96.2576 31.5215 96.2576 29.9434C96.2576 28.3654 96.0078 26.9862 95.5127 25.8483C95.0277 24.7295 94.3236 23.8623 93.425 23.2656C92.5262 22.6689 91.4387 22.3647 90.1872 22.3647ZM90.1872 36.3725C88.6859 36.3725 87.4998 35.7875 86.6664 34.6351C85.8577 33.5192 85.4498 31.9514 85.4498 29.9726C85.4498 27.9938 85.8577 26.3792 86.6577 25.2648C87.4911 24.1109 88.6772 23.526 90.1887 23.526C91.7 23.526 92.863 24.1138 93.7037 25.2735C94.5197 26.3953 94.9305 27.9646 94.9305 29.9419C94.9305 31.9193 94.5197 33.4827 93.7081 34.6117C92.8645 35.7802 91.6813 36.3725 90.1901 36.3725H90.1872ZM90.1872 24.3215C88.927 24.3215 87.9818 24.7837 87.2994 25.7328C86.5953 26.7084 86.2396 28.1342 86.2396 29.9726C86.2396 31.8111 86.5982 33.1901 87.3023 34.1656C87.9906 35.1148 88.9357 35.5769 90.1872 35.5769C91.4387 35.5769 92.3708 35.109 93.0634 34.1451C93.7762 33.1535 94.1378 31.7394 94.1378 29.9419C94.1378 28.1444 93.7762 26.7243 93.0663 25.743C92.3708 24.7881 91.4329 24.3215 90.1872 24.3215Z" fill="white"/>
<path d="M103.635 37.9463C102.626 37.9463 101.656 37.7284 100.729 37.2896C99.8008 36.8524 99.0197 36.244 98.3867 35.4688L99.8996 34.1701C100.443 34.7668 101.047 35.2303 101.709 35.558C102.369 35.8871 103.023 36.0509 103.666 36.0509C104.633 36.0509 105.382 35.852 105.912 35.4542C106.44 35.0549 106.703 34.4976 106.703 33.7826C106.703 33.335 106.583 32.9255 106.341 32.5569C106.098 32.1884 105.706 31.8433 105.163 31.5185C104.617 31.1953 103.901 30.8663 103.012 30.5269C101.411 29.9274 100.26 29.275 99.5584 28.5613C98.8542 27.8505 98.5057 26.9673 98.5057 25.9114C98.5057 24.7369 98.9574 23.7849 99.8618 23.0579C100.766 22.3325 101.945 21.9684 103.397 21.9684C104.355 21.9684 105.254 22.1556 106.095 22.5285C106.935 22.9015 107.653 23.4382 108.245 24.1344L106.793 25.3585C105.825 24.3625 104.682 23.8652 103.368 23.8652C102.509 23.8652 101.828 24.0481 101.33 24.4108C100.832 24.7749 100.581 25.2751 100.581 25.9127C100.581 26.5007 100.837 27.0052 101.35 27.4279C101.865 27.852 102.805 28.3171 104.167 28.8246C105.274 29.2429 106.164 29.6845 106.837 30.1482C107.509 30.6119 107.997 31.1353 108.297 31.7233C108.596 32.3112 108.749 32.9884 108.749 33.7547C108.749 35.0578 108.293 36.0845 107.384 36.8318C106.475 37.5778 105.225 37.9506 103.634 37.9506L103.635 37.9463Z" fill="white"/>
<path d="M103.637 38.3455C102.568 38.3455 101.533 38.1101 100.56 37.6508C99.5874 37.1916 98.7496 36.5437 98.0803 35.7232L97.8335 35.4206L99.9344 33.6187L100.191 33.9025C100.701 34.4611 101.273 34.8983 101.884 35.2011C102.487 35.5009 103.089 35.6544 103.67 35.6544C104.544 35.6544 105.221 35.4805 105.681 35.1367C106.103 34.8164 106.311 34.3733 106.311 33.7839C106.311 33.4125 106.215 33.0819 106.015 32.7777C105.807 32.4634 105.453 32.1561 104.965 31.8636C104.447 31.555 103.743 31.2318 102.877 30.9042C101.203 30.2768 100.029 29.6042 99.2825 28.8465C98.5072 28.0655 98.1152 27.0784 98.1152 25.9156C98.1152 24.6183 98.6219 23.5522 99.6194 22.7507C100.595 21.9697 101.868 21.5735 103.403 21.5735C104.411 21.5735 105.37 21.7737 106.26 22.1686C107.147 22.5606 107.915 23.1369 108.548 23.8769L108.811 24.184L106.77 25.9025L106.517 25.6393C105.616 24.715 104.586 24.2659 103.372 24.2659C102.603 24.2659 101.995 24.4239 101.565 24.7369C101.173 25.0236 100.981 25.4096 100.981 25.9142C100.981 26.3793 101.184 26.7742 101.606 27.1207C102.085 27.5142 102.995 27.9617 104.309 28.4502C105.443 28.8757 106.369 29.3365 107.067 29.819C107.793 30.3179 108.328 30.8969 108.656 31.5391C108.987 32.1884 109.154 32.9313 109.154 33.7532C109.154 35.1733 108.644 36.3126 107.644 37.1389C106.661 37.9418 105.318 38.3484 103.644 38.3484L103.637 38.3455ZM98.9486 35.5111C99.496 36.1006 100.151 36.5774 100.897 36.9283C101.765 37.3407 102.686 37.5484 103.637 37.5484C105.125 37.5484 106.302 37.2017 107.136 36.5188C107.957 35.8431 108.355 34.9379 108.355 33.7518C108.355 33.06 108.216 32.4355 107.944 31.9017C107.679 31.3796 107.231 30.8984 106.616 30.4743C105.967 30.0296 105.099 29.5982 104.027 29.196C102.613 28.6695 101.655 28.1927 101.099 27.735C100.493 27.2333 100.184 26.6206 100.184 25.9112C100.184 25.1449 100.49 24.5292 101.096 24.0876C101.664 23.6736 102.43 23.4659 103.367 23.4659C104.667 23.4659 105.822 23.9223 106.81 24.8232L107.673 24.0962C107.175 23.5874 106.591 23.1852 105.937 22.8941C105.145 22.5445 104.293 22.3662 103.397 22.3662C102.044 22.3662 100.939 22.704 100.107 23.3694C99.2941 24.0217 98.8992 24.8539 98.8992 25.9112C98.8992 26.8678 99.2055 27.6443 99.8385 28.2806C100.493 28.946 101.606 29.5763 103.15 30.154C104.058 30.4991 104.802 30.8429 105.361 31.1763C105.961 31.5346 106.389 31.9134 106.668 32.3346C106.956 32.7704 107.098 33.256 107.098 33.781C107.098 34.6277 106.78 35.2976 106.15 35.773C105.55 36.2219 104.714 36.45 103.667 36.45C102.963 36.45 102.243 36.2701 101.533 35.9148C100.941 35.6208 100.38 35.2201 99.8748 34.7171L98.9486 35.5126V35.5111Z" fill="white"/>
<path d="M115.407 37.9463C114.408 37.9463 113.651 37.6406 113.131 37.0278C112.612 36.4165 112.353 35.5258 112.353 34.363V24.1636H109.848V22.3252H112.353V17.0397L114.43 16.0232V22.3252H118.195V24.1636H114.43V33.7371C114.43 34.5327 114.561 35.1075 114.822 35.4614C115.085 35.8154 115.506 35.9908 116.091 35.9908C116.804 35.9908 117.55 35.732 118.331 35.2157L118.093 37.2749C117.697 37.506 117.272 37.6742 116.819 37.7839C116.363 37.8936 115.895 37.9477 115.409 37.9477L115.407 37.9463Z" fill="white"/>
<path d="M115.41 38.3454C114.295 38.3454 113.426 37.9886 112.834 37.2881C112.253 36.6036 111.96 35.6207 111.96 34.363V24.5627H109.456V21.9274H111.96V16.7924L114.826 15.3871V21.9274H118.591V24.5627H114.826V33.7371C114.826 34.6161 114.996 35.03 115.138 35.223C115.327 35.4716 115.636 35.593 116.092 35.593C116.722 35.593 117.402 35.3532 118.114 34.8822L118.822 34.4143L118.463 37.5206L118.29 37.6215C117.868 37.8673 117.403 38.0529 116.909 38.17C116.43 38.287 115.925 38.3454 115.41 38.3454ZM110.245 23.7658H112.75V34.363C112.75 35.4263 112.978 36.2351 113.432 36.7718C113.876 37.2939 114.523 37.5498 115.41 37.5498C115.864 37.5498 116.305 37.4987 116.725 37.3963C117.081 37.3129 117.413 37.1872 117.723 37.0262L117.849 35.9513C116.49 36.6036 115.115 36.5231 114.507 35.6997C114.189 35.2742 114.035 34.6322 114.035 33.7385V23.7687H117.799V22.7258H114.035V16.6623L112.75 17.2926V22.7273H110.245V23.77V23.7658Z" fill="white"/>
<path d="M66.3293 63.679C64.7976 63.679 63.4894 63.3792 62.4005 62.7768C61.3145 62.1726 60.4288 61.3596 59.748 60.3271C59.0656 59.2975 58.5632 58.1376 58.2423 56.8478C57.9216 55.5593 57.7617 54.2313 57.7617 52.8683C57.7617 51.5051 57.9331 50.164 58.2728 48.8742C58.6126 47.5857 59.1324 46.4289 59.8307 45.4035C60.5276 44.3783 61.4132 43.5637 62.4919 42.9598C63.5708 42.3587 64.8499 42.0574 66.3322 42.0574C67.5199 42.0574 68.5159 42.2211 69.3274 42.5503C70.1375 42.8779 70.8112 43.3049 71.3514 43.8255C71.89 44.3491 72.3444 44.8947 72.7103 45.4606L70.8563 46.5663C70.3917 45.8891 69.8152 45.2997 69.1213 44.7967C68.4302 44.2949 67.4995 44.042 66.3336 44.042C65.1677 44.042 64.1311 44.3053 63.3095 44.8332C62.4906 45.3612 61.8314 46.0617 61.3378 46.932C60.8441 47.8021 60.4869 48.7571 60.2634 49.7912C60.0412 50.8281 59.9295 51.8533 59.9295 52.8683C59.9295 54.0032 60.0529 55.0985 60.2996 56.1545C60.548 57.2104 60.9312 58.1522 61.4481 58.9771C61.9679 59.805 62.6285 60.4572 63.4358 60.9399C64.2416 61.4239 65.2071 61.6651 66.3336 61.6651C67.3326 61.6651 68.1994 61.4414 68.9369 60.9925C69.673 60.545 70.2435 59.8999 70.6486 59.0575C71.0522 58.2166 71.2555 57.2046 71.2555 56.0199V55.3472H67.2977V53.4211H73.4347V55.4204C73.4347 57.2732 73.124 58.809 72.4997 60.0287C71.8769 61.2483 71.0304 62.1624 69.9589 62.7695C68.8846 63.3748 67.6767 63.679 66.3336 63.679H66.3293Z" fill="white"/>
<path d="M66.3286 64.0769C64.7344 64.0769 63.3508 63.7566 62.2081 63.1248C61.0685 62.4916 60.129 61.6257 59.4191 60.5463C58.7149 59.4802 58.1894 58.2678 57.8598 56.9413C57.5317 55.6279 57.3662 54.2561 57.3662 52.8653C57.3662 51.4745 57.5419 50.0953 57.8918 48.7673C58.2445 47.4408 58.7847 46.2313 59.5047 45.174C60.2395 44.0975 61.1788 43.2361 62.2997 42.6087C63.4336 41.9755 64.7896 41.6552 66.33 41.6552C67.5815 41.6552 68.6095 41.8263 69.4749 42.1773C70.3241 42.521 71.0471 42.9772 71.625 43.5345C72.1869 44.0829 72.6631 44.6562 73.0392 45.2413L73.2643 45.5893L70.735 47.0957L70.5274 46.7886C70.0919 46.1539 69.5387 45.5908 68.8868 45.1183C68.2654 44.6679 67.4074 44.4383 66.3286 44.4383C65.2498 44.4383 64.2685 44.684 63.5178 45.1681C62.7585 45.6581 62.1371 46.3176 61.6768 47.1264C61.2079 47.9571 60.8579 48.8814 60.6445 49.8715C60.4282 50.8763 60.3207 51.884 60.3207 52.8653C60.3207 53.9651 60.4413 55.0401 60.6823 56.0595C60.9175 57.067 61.2877 57.9782 61.7784 58.7621C62.2604 59.53 62.8847 60.1472 63.6311 60.5947C64.373 61.0392 65.2774 61.2644 66.3271 61.2644C67.2592 61.2644 68.0448 61.0642 68.7271 60.6503C69.395 60.2437 69.9191 59.6483 70.2864 58.8835C70.6639 58.0997 70.8541 57.1343 70.8541 56.0184V55.7449H66.8978V53.0218H73.8232V55.4188C73.8232 57.3318 73.495 58.9435 72.8475 60.21C72.1898 61.4956 71.2809 62.4725 70.1485 63.1159C69.0145 63.7537 67.7296 64.0754 66.3271 64.0754L66.3286 64.0769ZM66.3286 42.4522C64.9232 42.4522 63.6964 42.7403 62.68 43.3064C61.6667 43.8708 60.8173 44.6519 60.1566 45.6258C59.486 46.6072 58.9836 47.7333 58.6555 48.9735C58.3215 50.2327 58.1545 51.5417 58.1545 52.8653C58.1545 54.1888 58.3114 55.4978 58.6235 56.7482C58.9327 57.9855 59.4206 59.1131 60.0754 60.1032C60.7186 61.0744 61.5606 61.8553 62.59 62.4257C63.6122 62.9918 64.8694 63.2783 66.3271 63.2783C67.5931 63.2783 68.7489 62.9887 69.7622 62.4213C70.7568 61.8553 71.5597 60.9881 72.1434 59.8443C72.7328 58.6919 73.0334 57.2017 73.0334 55.4173V53.816H67.6905V54.945H71.6467V56.0155C71.6467 57.2543 71.4276 58.3351 70.9978 59.2287C70.5623 60.1355 69.9351 60.8418 69.1351 61.3303C68.3379 61.8144 67.3929 62.06 66.3271 62.06C65.1323 62.06 64.0912 61.7969 63.226 61.2777C62.3709 60.7658 61.6565 60.0609 61.1105 59.1862C60.5705 58.3263 60.1655 57.3347 59.9084 56.2407C59.6586 55.1615 59.528 54.0235 59.528 52.8638C59.528 51.8254 59.6428 50.7637 59.8706 49.7033C60.103 48.6313 60.4762 47.631 60.9886 46.73C61.5142 45.8072 62.2183 45.0555 63.0895 44.494C63.9693 43.9279 65.0596 43.6398 66.3271 43.6398C67.5946 43.6398 68.5877 43.9177 69.3485 44.469C69.9699 44.9194 70.51 45.446 70.9572 46.034L72.1405 45.3305C71.8384 44.9137 71.4799 44.5026 71.0718 44.1064C70.568 43.6223 69.9322 43.2201 69.1757 42.9129C68.4164 42.6044 67.4581 42.4493 66.3271 42.4493L66.3286 42.4522Z" fill="white"/>
<path d="M82.3306 63.6791C80.5404 63.6791 79.2104 63.1322 78.335 62.0367C77.4595 60.9427 77.021 59.274 77.021 57.0335V48.0566H79.0987V57.3758C79.0987 58.8105 79.3934 59.8941 79.9886 60.6312C80.5811 61.3684 81.4405 61.7369 82.5686 61.7369C83.8216 61.7369 84.7697 61.3509 85.407 60.5801C86.0444 59.8093 86.3638 58.6759 86.3638 57.1827V48.058H88.4386V63.3223H86.3638V61.4839C85.908 62.221 85.3475 62.7723 84.6812 63.1351C84.0133 63.4993 83.2307 63.6806 82.3319 63.6806L82.3306 63.6791Z" fill="white"/>
<path d="M82.3308 64.0767C80.4245 64.0767 78.977 63.4743 78.0245 62.2882C77.0954 61.1226 76.625 59.3558 76.625 57.0349V47.6602H79.491V57.3771C79.491 58.7109 79.7595 59.7215 80.291 60.3826C80.8092 61.026 81.5541 61.339 82.5645 61.339C83.7072 61.339 84.5348 61.0069 85.101 60.324C85.676 59.6322 85.9663 58.5749 85.9663 57.1811V47.6587H88.8322V63.7185H85.9663V62.6407C85.6324 62.9843 85.265 63.2681 84.8673 63.4845C84.1471 63.8778 83.292 64.0767 82.3308 64.0767ZM77.4162 48.4558V57.0334C77.4162 59.1687 77.8271 60.7686 78.643 61.788C79.4459 62.7913 80.6509 63.2798 82.3308 63.2798C83.1583 63.2798 83.8872 63.113 84.4897 62.784C85.0893 62.4593 85.6048 61.9503 86.0243 61.2717L86.7561 60.0959V62.923H88.0411V48.4558H86.7561V57.1811C86.7561 58.7665 86.4033 59.995 85.7064 60.8344C84.9965 61.6973 83.9394 62.1345 82.5645 62.1345C81.3203 62.1345 80.3461 61.7133 79.6796 60.8828C79.0306 60.0768 78.701 58.8966 78.701 57.3756V48.4558H77.4162Z" fill="white"/>
<path d="M96.7414 63.679C95.1398 63.679 93.8854 63.2286 92.9751 62.3277C92.0663 61.4267 91.6133 60.1836 91.6133 58.6026C91.6133 57.5863 91.8383 56.7043 92.287 55.9585C92.7356 55.2111 93.373 54.6377 94.199 54.2327C95.0252 53.8305 95.9994 53.6287 97.1275 53.6287C97.8694 53.6287 98.5778 53.7236 99.2559 53.911C99.9325 54.101 100.586 54.3848 101.219 54.7621V53.2995C101.219 52.0067 100.94 51.0547 100.383 50.4463C99.8222 49.8408 98.9555 49.5366 97.7794 49.5366C97.0781 49.5366 96.3333 49.6682 95.5479 49.9315C94.7624 50.1961 94.0191 50.5675 93.3163 51.0458L92.7095 49.2835C93.5094 48.7746 94.3734 48.3855 95.3039 48.1121C96.2316 47.8386 97.142 47.701 98.0305 47.701C99.7308 47.701 101.014 48.1486 101.885 49.0452C102.756 49.9417 103.191 51.2609 103.191 53.0026V63.3206H101.219V61.5877C100.616 62.256 99.9267 62.7708 99.1499 63.1321C98.3761 63.4962 97.5718 63.679 96.7414 63.679ZM97.0085 61.8435C97.7692 61.8435 98.5097 61.6417 99.2313 61.2381C99.9543 60.8359 100.615 60.2552 101.219 59.4991V56.6458C100.637 56.2671 100.007 55.976 99.3285 55.7713C98.6519 55.5694 97.9986 55.4656 97.3657 55.4656C96.2303 55.4656 95.3228 55.7523 94.6447 56.3255C93.9682 56.8987 93.6285 57.6608 93.6285 58.6188C93.6285 59.5767 93.9305 60.3884 94.5331 60.9689C95.1356 61.5525 95.9603 61.8435 97.0085 61.8435Z" fill="white"/>
<path d="M96.7401 64.0769C95.0385 64.0769 93.6796 63.584 92.6938 62.6129C91.7108 61.6374 91.2144 60.289 91.2144 58.6026C91.2144 57.519 91.4612 56.5595 91.9461 55.7522C92.431 54.945 93.1322 54.3116 94.0252 53.8744C94.8992 53.4459 95.943 53.2309 97.1263 53.2309C97.8958 53.2309 98.6464 53.3304 99.3593 53.5278C99.853 53.6682 100.345 53.8583 100.82 54.0937V53.301C100.82 52.115 100.576 51.2462 100.091 50.7183C99.609 50.2006 98.8308 49.9359 97.7782 49.9359C97.1234 49.9359 96.4163 50.0617 95.6715 50.3102C94.921 50.5617 94.2009 50.9216 93.5372 51.3765L93.1104 51.6674L92.2335 49.1153L92.4992 48.9472C93.3268 48.4193 94.2313 48.0098 95.1924 47.7275C96.1565 47.4437 97.1104 47.3019 98.0308 47.3019C99.8341 47.3019 101.225 47.7948 102.167 48.7658C103.107 49.7354 103.584 51.1599 103.584 53.0028V63.7201H100.82V62.5266C100.357 62.9199 99.853 63.2432 99.3158 63.4962C98.4941 63.8823 97.6258 64.0769 96.7401 64.0769ZM97.1263 54.0264C96.0636 54.0264 95.1372 54.2167 94.3706 54.5896C93.6041 54.964 93.0335 55.4817 92.6198 56.1662C92.2117 56.8462 92.0055 57.6652 92.0055 58.6026C92.0055 60.0681 92.4252 61.225 93.2499 62.0454C94.0905 62.8761 95.2331 63.2812 96.7401 63.2812C97.5126 63.2812 98.2661 63.1102 98.9833 62.7737C99.7064 62.4345 100.361 61.946 100.923 61.3229L101.611 60.5609V62.9244H102.794V53.0041C102.794 51.3779 102.392 50.1407 101.602 49.3246C100.816 48.5129 99.6134 48.1005 98.0323 48.1005C97.1888 48.1005 96.306 48.2321 95.4161 48.4952C94.6291 48.7249 93.8815 49.0496 93.1889 49.4576L93.5257 50.4389C94.1253 50.0733 94.7642 49.7779 95.4248 49.5556C96.2466 49.2806 97.0377 49.1403 97.7782 49.1403C99.0603 49.1403 100.033 49.4883 100.669 50.1757C101.296 50.8573 101.611 51.9088 101.611 53.301V55.4598L101.014 55.1043C100.412 54.7461 99.7818 54.474 99.1488 54.2956C98.5056 54.1171 97.8233 54.0264 97.1263 54.0264ZM97.0059 62.2399C95.8574 62.2399 94.9326 61.908 94.2574 61.2556C93.5779 60.6005 93.2325 59.7127 93.2325 58.6174C93.2325 57.5219 93.6215 56.6708 94.391 56.0199C95.5438 55.0459 97.3964 54.7812 99.4377 55.3896C100.155 55.6045 100.824 55.916 101.43 56.3109L101.613 56.4294V59.6382L101.526 59.7464C100.893 60.5419 100.185 61.1607 99.4217 61.5848C98.6464 62.0191 97.8335 62.2399 97.0059 62.2399ZM97.3616 55.862C96.3264 55.862 95.4988 56.1208 94.8963 56.6283C94.3097 57.127 94.0223 57.7778 94.0223 58.6159C94.0223 59.4977 94.2792 60.172 94.8034 60.678C95.3347 61.1928 96.0549 61.4414 97.0059 61.4414C97.6983 61.4414 98.3808 61.2542 99.0385 60.8857C99.6744 60.5302 100.274 60.014 100.821 59.353V56.8624C100.323 56.5611 99.7833 56.3212 99.2127 56.1487C98.5695 55.9571 97.9467 55.8591 97.3631 55.8591L97.3616 55.862Z" fill="white"/>
<path d="M106.982 63.3208V48.0567H109.057V50.4757C109.433 49.5791 109.952 48.8917 110.62 48.4165C111.288 47.9382 112.062 47.6984 112.94 47.6984C113.819 47.6984 114.591 47.9411 115.165 48.4311L114.853 50.4157C114.558 50.2065 114.233 50.0529 113.881 49.9549C113.53 49.8541 113.152 49.8044 112.747 49.8044C112.016 49.8044 111.374 50.0135 110.821 50.4319C110.266 50.85 109.835 51.4321 109.523 52.1721C109.212 52.9137 109.057 53.778 109.057 54.7623V63.3208H106.982Z" fill="white"/>
<path d="M109.452 63.7186H106.586V47.6587H109.452V48.9998C109.73 48.643 110.042 48.3403 110.392 48.0917C111.123 47.568 111.983 47.3019 112.943 47.3019C113.902 47.3019 114.778 47.5797 115.423 48.1297L115.592 48.2744L115.145 51.1073L114.63 50.7431C114.373 50.5633 114.087 50.4272 113.775 50.3381C113.462 50.2474 113.12 50.202 112.75 50.202C112.101 50.202 111.547 50.3805 111.06 50.7491C110.566 51.1219 110.173 51.6528 109.889 52.3271C109.599 53.0189 109.454 53.8393 109.454 54.7622L109.452 63.7186ZM107.376 62.9215H108.661V54.7622C108.661 53.734 108.828 52.8097 109.159 52.0185C109.499 51.2126 109.978 50.5721 110.583 50.1128C111.208 49.6449 111.937 49.4064 112.748 49.4064C113.192 49.4064 113.611 49.462 113.989 49.5732C114.184 49.6272 114.373 49.6989 114.554 49.7838L114.74 48.6036C114.264 48.2642 113.674 48.099 112.943 48.099C112.148 48.099 111.444 48.3154 110.849 48.7425C110.25 49.171 109.767 49.8071 109.422 50.6321L108.663 52.4382V48.4558H107.378V62.923L107.376 62.9215Z" fill="white"/>
<path d="M121.467 63.679C119.588 63.679 118.103 62.9609 117.011 61.5218C115.918 60.0826 115.372 58.1347 115.372 55.6746C115.372 54.022 115.617 52.6019 116.114 51.41C116.608 50.221 117.316 49.3055 118.24 48.6634C119.163 48.0213 120.263 47.6996 121.538 47.6996C123.111 47.6996 124.44 48.3065 125.528 49.5219V42.7564L127.603 41.7545V63.3208H125.528V61.7967C124.47 63.0502 123.115 63.6776 121.466 63.6776L121.467 63.679ZM121.778 61.7076C122.52 61.7076 123.225 61.4925 123.897 61.0596C124.571 60.6268 125.114 60.0359 125.529 59.29V51.9701C125.085 51.255 124.529 50.6876 123.861 50.2766C123.193 49.8626 122.501 49.6565 121.778 49.6565C120.416 49.6565 119.359 50.1757 118.613 51.217C117.868 52.2583 117.493 53.7441 117.493 55.6746C117.493 56.8593 117.678 57.905 118.043 58.8118C118.409 59.7171 118.912 60.4278 119.556 60.9383C120.198 61.4531 120.937 61.7076 121.778 61.7076Z" fill="white"/>
<path d="M121.469 64.077C119.471 64.077 117.864 63.2989 116.696 61.7647C115.557 60.2583 114.979 58.2093 114.979 55.6749C114.979 53.9798 115.239 52.4924 115.751 51.2566C116.274 50.0003 117.036 49.016 118.019 48.3344C119.005 47.65 120.191 47.3019 121.54 47.3019C122.889 47.3019 124.11 47.7349 125.135 48.589V42.5079L128.001 41.1229V63.7201H125.135V62.7621C124.119 63.6367 122.889 64.077 121.469 64.077ZM121.54 48.0975C120.354 48.0975 119.319 48.3974 118.469 48.9912C117.611 49.5849 116.943 50.4507 116.48 51.5637C116.008 52.7015 115.77 54.0836 115.77 55.6733C115.77 58.031 116.293 59.9176 117.327 61.2806C118.349 62.6246 119.702 63.2799 121.469 63.2799C123.011 63.2799 124.239 62.7109 125.231 61.5395L125.926 60.7146V62.9215H127.211V42.3879L125.926 43.0065V50.5576L125.238 49.7868C124.219 48.649 123.011 48.0975 121.54 48.0975ZM121.778 62.1054C120.852 62.1054 120.02 61.8174 119.31 61.2484C118.625 60.7059 118.071 59.9351 117.68 58.9611C117.293 58.0046 117.099 56.8989 117.099 55.6733C117.099 53.6668 117.501 52.0887 118.291 50.9817C119.112 49.8379 120.286 49.2574 121.778 49.2574C122.572 49.2574 123.345 49.4855 124.071 49.9359C124.783 50.3777 125.389 50.9903 125.865 51.7582L125.928 51.8547V59.394L125.878 59.4847C125.431 60.2876 124.837 60.9296 124.114 61.3946C123.379 61.8656 122.593 62.1054 121.778 62.1054ZM121.778 50.0545C120.537 50.0545 119.606 50.5107 118.934 51.4482C118.241 52.4164 117.89 53.838 117.89 55.6733C117.89 56.7952 118.066 57.7998 118.413 58.6597C118.752 59.5037 119.221 60.1648 119.802 60.6225C120.887 61.4913 122.381 61.5599 123.687 60.7205C124.274 60.3446 124.762 59.8254 125.136 59.1819V52.0843C124.734 51.4672 124.238 50.9713 123.657 50.6131C123.057 50.2416 122.424 50.0529 121.78 50.0529L121.778 50.0545Z" fill="white"/>
<path d="M54.2169 36.8858C54.3054 36.6358 54.3766 36.3681 54.4651 36.1006C57.6723 24.9605 58.6829 15.3387 58.6829 15.3387L58.6711 15.3343C52.4238 12.3582 35.7302 3.73229 29.7803 0.893555C22.0883 4.90083 8.69629 11.2876 0.880859 15.3358H0.883764C0.883764 15.3358 6.01758 64.1397 29.7803 69.105H29.7774C41.4564 66.6611 48.6155 53.6476 52.9044 41.0452" fill="#0071EB"/>
<path d="M29.7783 70.0002C29.6942 70.0002 29.6099 69.9885 29.533 69.965C5.47252 64.8477 0.216745 17.4465 0.004772 15.4296C-0.0329766 15.064 0.155767 14.7101 0.480986 14.5419C4.30667 12.5587 9.55665 9.97299 14.6338 7.47065C19.952 4.85275 25.4504 2.14419 29.3762 0.0996104C29.6186 -0.0276277 29.9133 -0.0334777 30.1617 0.0849854C33.0915 1.48314 38.4881 4.21511 44.1998 7.10648C49.9419 10.0125 55.8801 13.0165 59.051 14.5273C59.4648 14.6472 59.6099 14.9996 59.565 15.4326C59.5547 15.5306 58.5094 25.2606 55.3182 36.3494L55.2035 36.7135C55.1557 36.8759 55.1048 37.0367 55.0511 37.1888C54.8826 37.6524 54.3803 37.8878 53.9157 37.7256C53.4555 37.5588 53.2159 37.0454 53.3829 36.5819C53.4278 36.456 53.4671 36.3259 53.5078 36.1928L53.6268 35.8126C56.3069 26.4993 57.4496 18.144 57.7298 15.8581C54.3019 14.2143 48.7688 11.415 43.4056 8.70062C37.9509 5.9394 32.7852 3.3259 29.7972 1.88533C25.8786 3.91822 20.5429 6.54488 15.3786 9.08818C10.5584 11.4618 5.58287 13.913 1.83269 15.8435C2.54264 21.597 8.4329 63.5051 29.7827 68.191C39.0688 66.1464 46.5649 56.9151 52.0675 40.753C52.2243 40.2864 52.7281 40.0362 53.1927 40.1986C53.6558 40.3566 53.9026 40.8669 53.7429 41.3321C47.9863 58.2402 39.9851 67.8795 29.9569 69.9783C29.8959 69.9929 29.8363 69.9973 29.7769 69.9973L29.7783 70.0002Z" fill="#181817"/>
<path d="M11.0356 49.9198L43.2222 53.0701C43.2222 53.0701 41.9271 61.2382 40.8775 62.2605C39.8262 63.2828 32.6541 69.0012 29.7096 68.7366C26.7652 68.4718 12.7953 59.9922 11.0356 49.9198Z" fill="white"/>
<path d="M29.7783 70.0002C29.6942 70.0002 29.6099 69.9885 29.533 69.965C5.47252 64.8477 0.216745 17.4465 0.004772 15.4296C-0.0329766 15.064 0.155767 14.7101 0.480986 14.5419C4.30667 12.5587 9.55665 9.97299 14.6338 7.47065C19.952 4.85275 25.4504 2.14419 29.3762 0.0996104C29.6186 -0.0276277 29.9133 -0.0334777 30.1617 0.0849854C33.0915 1.48314 38.4881 4.21511 44.1998 7.10648C49.9419 10.0125 55.8801 13.0165 59.051 14.5273C59.4648 14.6472 59.6099 14.9996 59.565 15.4326C59.5547 15.5306 58.5094 25.2606 55.3182 36.3494L55.2035 36.7135C55.1557 36.8759 55.1048 37.0367 55.0511 37.1888C54.8826 37.6524 54.3803 37.8878 53.9157 37.7256C53.4555 37.5588 53.2159 37.0454 53.3829 36.5819C53.4278 36.456 53.4671 36.3259 53.5078 36.1928L53.6268 35.8126C56.3069 26.4993 57.4496 18.144 57.7298 15.8581C54.3019 14.2143 48.7688 11.415 43.4056 8.70062C37.9509 5.9394 32.7852 3.3259 29.7972 1.88533C25.8786 3.91822 20.5429 6.54488 15.3786 9.08818C10.5584 11.4618 5.58287 13.913 1.83269 15.8435C2.54264 21.597 8.4329 63.5051 29.7827 68.191C39.0688 66.1464 46.5649 56.9151 52.0675 40.753C52.2243 40.2864 52.7281 40.0362 53.1927 40.1986C53.6558 40.3566 53.9026 40.8669 53.7429 41.3321C47.9863 58.2402 39.9851 67.8795 29.9569 69.9783C29.8959 69.9929 29.8363 69.9973 29.7769 69.9973L29.7783 70.0002Z" fill="#181817"/>
<path d="M45.7945 32.4573L55.3332 36.4762L56.6819 39.4993L43.9883 43.1921L45.7945 32.4573Z" fill="white"/>
<path d="M29.7803 67.6498C29.696 67.6498 29.6117 67.6381 29.5348 67.6146C6.88852 62.7913 1.94488 18.2111 1.74598 16.3142C1.70824 15.9487 1.89698 15.5947 2.2222 15.4266C5.81993 13.5618 10.7592 11.1297 15.5345 8.7765C20.5289 6.31656 25.6932 3.77327 29.378 1.85446C29.6206 1.72721 29.9153 1.71991 30.1635 1.83982C32.9191 3.15462 37.9934 5.72278 43.3653 8.44158C48.7591 11.1721 54.3372 13.9947 57.3164 15.4134C57.7114 15.5465 57.8724 15.9018 57.8289 16.3186C57.8202 16.4093 56.8358 25.5603 53.8348 35.9865L53.7289 36.3257C53.6824 36.4779 53.6373 36.627 53.5851 36.7732C53.424 37.2369 52.9172 37.49 52.4527 37.3144C51.9924 37.1506 51.7515 36.6402 51.9154 36.1737C51.9576 36.0551 51.9939 35.9339 52.0315 35.808L52.1405 35.4541C54.6435 26.761 55.7193 18.9555 55.9924 16.7487C52.7924 15.2115 47.6004 12.5834 42.5684 10.0372C37.4548 7.44854 32.61 4.99738 29.799 3.6431C26.1214 5.55022 21.1198 8.01308 16.2793 10.3984C11.761 12.6229 7.09614 14.9205 3.57679 16.7325C4.26353 22.2726 9.81984 61.4458 29.786 65.845C38.49 63.9203 45.5171 55.258 50.6784 40.0946C50.8338 39.6296 51.342 39.3795 51.8037 39.5404C52.2668 39.6983 52.5137 40.2087 52.354 40.6738C46.9399 56.5829 39.4075 65.6534 29.9617 67.6321C29.9006 67.6467 29.8412 67.6512 29.7816 67.6512L29.7803 67.6498Z" fill="white"/>
<path d="M29.7783 70.0002C29.6942 70.0002 29.6099 69.9885 29.533 69.965C5.47253 64.8477 0.216745 17.4465 0.004772 15.4296C-0.0329766 15.064 0.155767 14.7101 0.480986 14.5419C4.30667 12.5587 9.55665 9.97299 14.6338 7.47065C19.952 4.85275 25.4504 2.14419 29.3762 0.0996104C29.6186 -0.0276277 29.9133 -0.0334777 30.1617 0.0849854C33.0915 1.48314 38.4881 4.21511 44.1998 7.10648C49.9419 10.0125 55.8801 13.0165 59.051 14.5273C59.4648 14.6472 59.6099 14.9996 59.565 15.4326C59.5547 15.5306 58.5094 25.2606 55.3182 36.3494L55.2035 36.7135C55.1557 36.8759 55.1048 37.0367 55.0511 37.1888C54.8826 37.6524 54.3803 37.8878 53.9157 37.7256C53.4555 37.5588 53.2159 37.0454 53.3829 36.5819C53.4278 36.456 53.4671 36.3259 53.5078 36.1928L53.6268 35.8126C56.3069 26.4993 57.4496 18.144 57.7298 15.8581C54.3019 14.2143 48.7688 11.415 43.4056 8.70062C37.9509 5.9394 32.7852 3.3259 29.7972 1.88533C25.8786 3.91822 20.5429 6.54488 15.3786 9.08818C10.5584 11.4618 5.58287 13.913 1.83269 15.8435C2.54264 21.597 8.4329 63.5051 29.7827 68.191C39.0688 66.1464 46.5649 56.9151 52.0675 40.753C52.2243 40.2864 52.7281 40.0362 53.1927 40.1986C53.6558 40.3566 53.9026 40.8669 53.7429 41.3321C47.9863 58.2402 39.9851 67.8795 29.9569 69.9783C29.8959 69.9929 29.8363 69.9973 29.7769 69.9973L29.7783 70.0002Z" fill="#022E3D"/>
<path d="M45.4398 44.7438C45.0797 44.7438 44.7428 44.523 44.6093 44.1633C44.4394 43.7011 44.6717 43.1863 45.1305 43.0137L55.9398 38.961C56.0225 38.9303 56.0659 38.869 56.0675 38.7796C56.0688 38.6905 56.0297 38.6276 55.9498 38.5925L45.9872 34.2738C45.537 34.0807 45.3295 33.5541 45.5239 33.1022C45.7156 32.6473 46.2354 32.4338 46.6869 32.6358L56.6497 36.9545C57.3915 37.2748 57.859 38.0104 57.8403 38.825C57.8198 39.6397 57.3174 40.349 56.5597 40.6342L45.7505 44.6867C45.6489 44.7248 45.5428 44.7423 45.4412 44.7423L45.4398 44.7438Z" fill="#022E3D"/>
<path d="M43.5939 53.4867L43.9119 50.9829L44.8033 43.8532L46.1854 32.8112C46.274 32.1326 46.3089 31.473 46.3089 30.8119C46.3089 22.9393 40.4782 16.067 32.5045 15.0666C23.8746 13.9595 15.9879 20.1371 14.8889 28.8303L13.241 41.8949L13.2759 41.6507C13.2759 41.6507 12.6879 46.5295 11.0327 51.132" fill="white"/>
<path d="M44.4737 53.5993L42.7154 53.3726L45.3084 32.6987C45.3883 32.0888 45.4261 31.4731 45.4261 30.8105C45.4261 23.2713 39.8262 16.8831 32.3984 15.9499C24.2751 14.9072 16.8097 20.7338 15.7701 28.9415L14.1541 41.7545H14.1571C14.1324 41.9577 13.5371 46.7884 11.8674 51.4334L10.2021 50.8264C11.5974 46.9464 12.2246 42.8061 12.3654 41.7809L14.0119 28.7148C15.1734 19.5332 23.5042 13.0147 32.619 14.1789C40.9296 15.2216 47.1973 22.3718 47.1973 30.8105C47.1973 31.552 47.1538 32.2438 47.0652 32.9268L44.4722 53.5993H44.4737Z" fill="#022E3D"/>
<path d="M35.2086 31.261C35.9708 29.1726 39.0198 29.2881 39.7036 31.4029C39.8997 32.007 40.0071 32.6636 39.9519 33.3481C39.891 34.11 39.6368 34.8164 39.2956 35.4394C38.1443 37.5455 34.9764 36.9385 34.7702 34.543C34.7382 34.1715 34.7338 33.7678 34.7673 33.3304C34.8254 32.5495 34.988 31.8608 35.2073 31.2597L35.2086 31.261Z" fill="#022E3D"/>
<path d="M38.8646 65.4516C38.6496 65.4516 38.4347 65.3726 38.2663 65.2161C37.9049 64.8826 37.8816 64.3182 38.2127 63.9554C42.018 59.7814 42.8266 52.5157 42.8353 52.4425C42.8862 51.9527 43.3204 51.5957 43.8097 51.6498C44.2961 51.7025 44.6488 52.1412 44.5965 52.6312C44.5632 52.9515 43.7225 60.5493 39.5165 65.162C39.3421 65.3536 39.1026 65.4516 38.8646 65.4516Z" fill="#022E3D"/>
<path d="M32.7768 28.8494C32.5909 28.8494 32.4065 28.7923 32.2481 28.6738C31.8547 28.38 31.7735 27.8227 32.0624 27.4293C32.1336 27.3327 33.8046 25.0936 36.4485 24.706C38.015 24.4779 39.5512 24.9312 41.0335 26.0515C41.4241 26.3484 41.5024 26.9072 41.2077 27.3021C40.9174 27.694 40.3612 27.7802 39.9664 27.4776C38.4549 26.3325 36.9319 26.1305 35.4408 26.8809C34.2445 27.4833 33.4939 28.4808 33.4867 28.491C33.3124 28.7251 33.0453 28.8479 32.7752 28.8479L32.7768 28.8494Z" fill="#022E3D"/>
</g>
<defs>
<clipPath id="clip0_623_807">
<rect width="128" height="70" fill="white"/>
</clipPath>
</defs>
</svg>
