<svg xmlns="http://www.w3.org/2000/svg" viewBox="0 0 300 162"><path fill-opacity=".5" d="M28.7 161.1h102v2.4h-102zm17.6-41h77.3v2.4H46.3zM276.4 12.8l-3.8-7.4 33.5-17 3.7 7.3zm-120 116.7-28 11.7 2.3-21z"/><path fill="none" stroke="#000" stroke-opacity=".5" stroke-width=".6" d="M29.2 166.5q-1-54.9-20.3-91.4"/><path fill="none" stroke="#000" stroke-opacity=".5" stroke-width=".6" d="M17.8 116q137.4-37.4 143.6 40.9"/><path fill-opacity=".5" d="m49.3 95.7 1-2.1 51.6 25.2-1 2zm89.9 16.4 18.5-40.3-13 28.4-25.4 29zM-17.6 98l44 23.8 18 10.2-42-26.3z"/><path fill="none" stroke="#000" stroke-opacity=".5" stroke-width=".6" d="M150.3 110.2q-47.5-17.2-84-2.8"/><path fill-opacity=".5" d="m130.5 137.3-6.4 43.8 36.2-43.2-30.8 39.9z"/><path fill="none" stroke="#000" stroke-opacity=".5" stroke-width=".6" d="M30 169q.3-29.8-14.1-83"/><path fill-opacity=".5" d="M80.9 106 91 130l-5.4-23.8 104.5-13.3zm62.1 67-5-13-7.8-20.2 2.8 16z"/><circle r="1" fill-opacity=".5" transform="matrix(1.10503 -.39012 8.17797 23.16447 52.7 100.3)"/><path fill="none" stroke="#000" stroke-opacity=".5" stroke-width=".6" d="M44.6 83q-26.7 5.5-27.3 5.3"/><path fill-opacity=".5" d="M25.9 122 13.2 78.4l15.6 67.1-6.7-52.8zm98.4-32.4 18 10.8-.6 1-18-10.8zm9.2 34.2L112 113.5l-26.7-3.4 24.4 4.9z"/><path fill="none" stroke="#000" stroke-opacity=".5" stroke-width=".6" d="M9.8 121q118.7 3.4 121.8-1"/><circle r="1" fill-opacity=".5" transform="rotate(68.8 129.3 201) scale(2.78336 4.73614)"/><path fill="none" stroke="#000" stroke-opacity=".5" stroke-width=".6" d="M88.2 117.6q65.2-26.5 79.5 57.4"/><path fill-opacity=".5" d="m112.3 106.8 16.6 5.5-20-3.4 13.6-24.4z"/><path fill="none" stroke="#000" stroke-opacity=".5" stroke-width=".6" d="M114.8 99.7q-71.2 3.7-95 18.5m-26.3 61.9q70 1 174.6-25.1"/><path fill-opacity=".5" d="m147 140 6 9.4-10.6-5.8z"/><path fill="none" stroke="#000" stroke-opacity=".5" stroke-width=".6" d="M148.4 108.2q-25.8 18.3-28.6 24.1m-13.3-57.7q15.8-16.3 49-18.7M-4.7 99.8q30.7-18 51-15.7M204.7 57q19 3.6 30.8-8.5M120.6 89.3q-12.2 13-4.6 34.7"/><path fill="none" stroke="#000" stroke-opacity=".5" stroke-width=".6" d="M125.8 107.4Q107 92.1 87.3 105"/></svg>