<svg xmlns="http://www.w3.org/2000/svg" viewBox="0 0 299 332"><circle r="1" fill-opacity=".5" transform="matrix(-.45748 1.2135 -279.10632 -105.22055 216.7 331.4)"/><path fill-opacity=".5" d="m86.8 235.5 51.4-3.1-42.8 7.4-65.6 6.9zm-12.1-79.9 56.2 17.3-75.5-30.5L33 141z"/><path fill="none" stroke="#000" stroke-opacity=".5" stroke-width=".6" d="M117.8 168.9 263.9 223"/><path fill-opacity=".5" d="M212.7 82.4-73.7 138l-.3-1.3L212.5 81zM93.2 251.7l85.6-2.8 53.7-11.3-78 10.5z"/><path fill-opacity=".5" d="m153.4 251-5-9.5 91 110.6-48-52.3z"/><circle r="1" fill-opacity=".5" transform="rotate(-159.6 146.2 109.1) scale(1.29688 74.12212)"/><path fill-opacity=".5" d="m-1.4 120.2 36.5 140L2.5 118.8l-22.6 75.6zM158 26.5l1 .9-64.2 64.2-1-1z"/><path fill-opacity=".5" d="m34.6 181.2 21.2-57-16.1 53.9-44.4 106zm220.1-69.4 60.6 76.6-29.6-32-21-29z"/><circle r="1" fill-opacity=".5" transform="matrix(31.77784 -32.05603 .92102 .91302 110 85.8)"/><path fill-opacity=".5" d="m206.7 105.8-29.4 29.9 35.6-45.2 21.3-28.9zm49.7 19-64.9 7 40.1-7-16.7-1.3zM100.6 226.7l-42.2-60.3 44.7 56 33 28.5zM203 198l59.9 25-31.1-8.9-78.9-34.5z"/><path fill-opacity=".5" d="m276.5 212.3-11.7 10.4L199 247l50.7-23.6z"/><circle r="1" fill-opacity=".5" transform="matrix(-1.28802 -.1513 2.17872 -18.54655 129.5 262.2)"/><path fill-opacity=".5" d="m194.7 122.6-41.3 39.3-17.6 20.2 1.1-9.9zm-4.3 43.4 5.4-25.2-7 14.2-2.3 74.3zM101.2 35.5l3.6 6.4L69.6.4l44.1 60.2z"/><circle r="1" fill-opacity=".5" transform="matrix(13.67133 -11.19767 .82176 1.0033 44.2 127.8)"/><circle r="1" fill-opacity=".5" transform="matrix(.4732 -1.20747 22.37261 8.76773 183.6 78.3)"/><path fill-opacity=".5" d="m53.8 246.5-33 3.8-20.2 9.6 17.4-13zM220.9 92.2l-.6-37.3 2.1 32.9 11.6 44.6zM57.7 154.7 0 120l.7-1.1 57.8 34.7z"/><path fill="none" stroke="#000" stroke-opacity=".5" stroke-width=".6" d="M95 215.5q-18.3-21-42-65.2"/><path fill-opacity=".5" d="m269 218.8 4.8-8.6 45.9-46.1-65.9 71.4zM123 250l3.8-.2-23.2 26.4 11.7-4zm6.7-128.2 5.3-24.1-5-12.4 3 20.4z"/><path fill="none" stroke="#000" stroke-opacity=".5" stroke-width=".6" d="M22.3 74.4Q80.8 82 93.9 88.8"/></svg>