<?xml version="1.0" encoding="UTF-8"?><svg xmlns="http://www.w3.org/2000/svg" viewBox="0 0 881.62 478.63"><defs><style>.d{fill:#fff;}.e{fill:#54d6a7;}.f{fill:#022e3d;}.g{fill:#181817;}</style></defs><g id="a"/><g id="b"><g id="c"><g><g><path class="f" d="M470.47,257.02V114.05h51.36c11.51,0,20.6,2.08,27.27,6.23,6.67,4.15,11.42,9.5,14.25,16.03,2.83,6.54,4.24,13.32,4.24,20.33,0,4.89-.83,9.83-2.46,14.81-1.64,4.96-4.27,9.55-7.91,13.73-3.64,4.18-8.35,7.56-14.14,10.11-5.79,2.55-12.86,3.83-21.24,3.83h-37.07v57.9h-14.29Zm14.29-71.38h37.89c7.62,0,13.69-1.47,18.18-4.43,4.49-2.96,7.69-6.67,9.59-11.14,1.9-4.45,2.86-8.93,2.86-13.42s-.87-8.78-2.61-13.27c-1.72-4.49-4.83-8.26-9.28-11.29-4.46-3.03-10.71-4.55-18.74-4.55h-37.89v58.11Z"/><path class="f" d="M487.49,259.74h-19.74V111.33h54.08c11.98,0,21.64,2.23,28.72,6.65,7.08,4.43,12.23,10.22,15.28,17.24,2.98,6.87,4.49,14.08,4.49,21.42,0,5.14-.87,10.4-2.6,15.66-1.77,5.3-4.6,10.23-8.45,14.66-3.89,4.49-8.98,8.13-15.1,10.82-6.15,2.7-13.66,4.06-22.34,4.06h-34.34v57.9Zm-14.3-5.45h8.85v-57.9h39.78c7.94,0,14.7-1.21,20.15-3.6,5.38-2.37,9.81-5.54,13.17-9.41,3.38-3.88,5.87-8.18,7.38-12.79,1.55-4.7,2.34-9.39,2.34-13.96,0-6.6-1.36-13.07-4.02-19.25-2.62-5.99-7.04-10.97-13.19-14.8-6.19-3.86-14.89-5.82-25.83-5.82h-48.63V254.29Zm49.46-65.94h-40.61v-63.55h40.61c8.53,0,15.36,1.69,20.27,5.02,4.91,3.34,8.38,7.56,10.3,12.56,1.83,4.8,2.77,9.59,2.77,14.25s-1.04,9.7-3.06,14.48c-2.08,4.93-5.66,9.08-10.59,12.36-4.91,3.23-11.53,4.87-19.68,4.87Zm-35.17-5.45h35.17c7.06,0,12.66-1.34,16.68-3.98,4.02-2.66,6.91-6.01,8.57-9.94,1.74-4.11,2.64-8.27,2.64-12.35s-.81-8.13-2.4-12.3c-1.51-3.95-4.3-7.31-8.28-10.01-4-2.71-9.79-4.08-17.21-4.08h-35.17v52.65Z"/></g><g><path class="f" d="M621.18,259.46c-13.75,0-24.6-4.88-32.57-14.64-7.97-9.77-11.95-23.07-11.95-39.88,0-11.23,1.8-20.94,5.41-29.1,3.61-8.18,8.75-14.48,15.43-18.95,6.67-4.46,14.57-6.69,23.69-6.69s17.12,2.2,23.79,6.59c6.67,4.39,11.8,10.67,15.37,18.84,3.58,8.16,5.36,17.87,5.36,29.1s-1.8,20.95-5.41,29.16c-3.61,8.21-8.75,14.53-15.43,18.95-6.67,4.42-14.57,6.63-23.69,6.63Zm0-13.48c9.4,0,16.74-3.64,22.01-10.92,5.27-7.29,7.91-17.4,7.91-30.33s-2.64-23.1-7.91-30.32c-5.27-7.22-12.61-10.83-22.01-10.83s-16.9,3.59-22.11,10.77c-5.2,7.19-7.81,17.38-7.81,30.58s2.62,23.1,7.87,30.28c5.24,7.19,12.6,10.77,22.05,10.77Z"/><path class="f" d="M621.18,262.19c-14.53,0-26.19-5.27-34.68-15.65-8.34-10.21-12.57-24.21-12.57-41.6,0-11.54,1.89-21.71,5.64-30.2,3.81-8.61,9.34-15.37,16.42-20.12,7.08-4.74,15.55-7.15,25.19-7.15s18.19,2.37,25.27,7.04c7.11,4.66,12.62,11.39,16.38,20.03,3.72,8.46,5.6,18.62,5.6,30.18s-1.89,21.72-5.64,30.25c-3.81,8.66-9.34,15.42-16.4,20.12-7.11,4.71-15.59,7.1-25.21,7.1Zm0-109.27c-8.53,0-15.98,2.1-22.17,6.23-6.21,4.16-11.08,10.14-14.47,17.79-3.43,7.79-5.17,17.21-5.17,28,0,16.1,3.81,28.94,11.34,38.16,7.51,9.18,17.47,13.65,30.47,13.65,8.53,0,16-2.08,22.19-6.18,6.19-4.11,11.06-10.09,14.45-17.77,3.43-7.83,5.17-17.27,5.17-28.06s-1.72-20.22-5.13-28c-3.34-7.65-8.19-13.58-14.38-17.66-6.19-4.08-13.68-6.15-22.3-6.15Zm0,95.78c-10.34,0-18.51-4-24.25-11.88-5.57-7.63-8.38-18.35-8.38-31.88s2.81-24.57,8.32-32.19c5.74-7.89,13.91-11.89,24.32-11.89s18.42,4.02,24.21,11.95c5.62,7.67,8.45,18.4,8.45,31.92s-2.83,24.21-8.42,31.93c-5.81,7.99-13.96,12.04-24.23,12.04Zm0-82.4c-8.68,0-15.19,3.16-19.89,9.65-4.85,6.67-7.3,16.42-7.3,28.99s2.47,22,7.32,28.67c4.74,6.49,11.25,9.65,19.87,9.65s15.04-3.2,19.81-9.79c4.91-6.78,7.4-16.45,7.4-28.74s-2.49-22-7.38-28.71c-4.79-6.53-11.25-9.71-19.83-9.71Z"/></g><g><path class="f" d="M713.8,259.46c-6.95,0-13.63-1.49-20.02-4.49-6.39-2.99-11.77-7.15-16.13-12.45l10.42-8.88c3.74,4.08,7.9,7.25,12.46,9.49,4.55,2.25,9.05,3.37,13.48,3.37,6.66,0,11.82-1.36,15.47-4.08,3.64-2.73,5.45-6.54,5.45-11.43,0-3.06-.83-5.86-2.49-8.38-1.68-2.52-4.38-4.88-8.12-7.1-3.76-2.21-8.69-4.46-14.81-6.78-11.03-4.1-18.96-8.56-23.79-13.44-4.85-4.86-7.25-10.9-7.25-18.12,0-8.03,3.11-14.54,9.34-19.51,6.23-4.96,14.35-7.45,24.35-7.45,6.6,0,12.79,1.28,18.58,3.83,5.79,2.55,10.73,6.22,14.81,10.98l-10,8.37c-6.67-6.81-14.54-10.21-23.59-10.21-5.92,0-10.61,1.25-14.04,3.73-3.43,2.49-5.16,5.91-5.16,10.27,0,4.02,1.77,7.47,5.3,10.36,3.55,2.9,10.02,6.08,19.4,9.55,7.63,2.86,13.76,5.88,18.39,9.05,4.63,3.17,7.99,6.75,10.06,10.77,2.06,4.02,3.11,8.65,3.11,13.89,0,8.91-3.14,15.93-9.4,21.04-6.26,5.1-14.87,7.65-25.83,7.65Z"/><path class="f" d="M713.81,262.19c-7.36,0-14.49-1.61-21.19-4.75-6.7-3.14-12.47-7.57-17.08-13.18l-1.7-2.07,14.47-12.32,1.77,1.94c3.51,3.82,7.45,6.81,11.66,8.88,4.15,2.05,8.3,3.1,12.3,3.1,6.02,0,10.68-1.19,13.85-3.54,2.91-2.19,4.34-5.22,4.34-9.25,0-2.54-.66-4.8-2.04-6.88-1.43-2.15-3.87-4.25-7.23-6.25-3.57-2.11-8.42-4.32-14.38-6.56-11.53-4.29-19.62-8.89-24.76-14.07-5.34-5.34-8.04-12.09-8.04-20.04,0-8.87,3.49-16.16,10.36-21.64,6.72-5.34,15.49-8.05,26.06-8.05,6.94,0,13.55,1.37,19.68,4.07,6.11,2.68,11.4,6.62,15.76,11.68l1.81,2.1-14.06,11.75-1.74-1.8c-6.21-6.32-13.3-9.39-21.66-9.39-5.3,0-9.49,1.08-12.45,3.22-2.7,1.96-4.02,4.6-4.02,8.05,0,3.18,1.4,5.88,4.3,8.25,3.3,2.69,9.57,5.75,18.62,9.09,7.81,2.91,14.19,6.06,19,9.36,5,3.41,8.68,7.37,10.94,11.76,2.28,4.44,3.43,9.52,3.43,15.14,0,9.71-3.51,17.5-10.4,23.15-6.77,5.49-16.02,8.27-27.55,8.27Zm-32.29-19.38c3.77,4.03,8.28,7.29,13.42,9.69,5.98,2.82,12.32,4.24,18.87,4.24,10.25,0,18.36-2.37,24.1-7.04,5.66-4.62,8.4-10.81,8.4-18.92,0-4.73-.96-9-2.83-12.65-1.83-3.57-4.91-6.86-9.15-9.76-4.47-3.04-10.45-5.99-17.83-8.74-9.74-3.6-16.34-6.86-20.17-9.99-4.17-3.43-6.3-7.62-6.3-12.47,0-5.24,2.11-9.45,6.28-12.47,3.91-2.83,9.19-4.25,15.64-4.25,8.96,0,16.91,3.12,23.72,9.28l5.94-4.97c-3.43-3.48-7.45-6.23-11.96-8.22-5.45-2.39-11.32-3.61-17.49-3.61-9.32,0-16.93,2.31-22.66,6.86-5.6,4.46-8.32,10.15-8.32,17.38,0,6.54,2.11,11.85,6.47,16.2,4.51,4.55,12.17,8.86,22.81,12.81,6.25,2.36,11.38,4.71,15.23,6.99,4.13,2.45,7.08,5.04,9,7.92,1.98,2.98,2.96,6.3,2.96,9.89,0,5.79-2.19,10.37-6.53,13.62-4.13,3.07-9.89,4.63-17.1,4.63-4.85,0-9.81-1.23-14.7-3.66-4.08-2.01-7.94-4.75-11.42-8.19l-6.38,5.44Z"/></g><g><path class="f" d="M794.88,259.46c-6.88,0-12.1-2.09-15.68-6.28-3.57-4.18-5.36-10.27-5.36-18.22v-69.74h-17.25v-12.57h17.25v-36.14l14.31-6.95v43.09h25.93v12.57h-25.93v65.46c0,5.44,.9,9.37,2.7,11.79,1.81,2.42,4.71,3.62,8.74,3.62,4.91,0,10.05-1.77,15.43-5.3l-1.64,14.08c-2.73,1.58-5.66,2.73-8.78,3.48-3.14,.75-6.36,1.12-9.71,1.12Z"/><path class="f" d="M794.89,262.19c-7.68,0-13.66-2.44-17.74-7.23-4-4.68-6.02-11.4-6.02-20v-67.01h-17.25v-18.02h17.25v-35.11l19.74-9.61v44.72h25.93v18.02h-25.93v62.73c0,6.01,1.17,8.84,2.15,10.16,1.3,1.7,3.43,2.53,6.57,2.53,4.34,0,9.02-1.64,13.93-4.86l4.87-3.2-2.47,21.24-1.19,.69c-2.91,1.68-6.11,2.95-9.51,3.75-3.3,.8-6.79,1.2-10.34,1.2Zm-35.57-99.69h17.25v72.46c0,7.27,1.57,12.8,4.7,16.47,3.06,3.57,7.51,5.32,13.62,5.32,3.13,0,6.17-.35,9.06-1.05,2.45-.57,4.74-1.43,6.87-2.53l.87-7.35c-9.36,4.46-18.83,3.91-23.02-1.72-2.19-2.91-3.25-7.3-3.25-13.41v-68.17h25.93v-7.13h-25.93v-41.46l-8.85,4.31v37.16h-17.25v7.13Z"/></g><g><path class="f" d="M456.86,435.41c-10.55,0-19.56-2.05-27.06-6.17-7.48-4.13-13.58-9.69-18.27-16.75-4.7-7.04-8.16-14.97-10.37-23.79-2.21-8.81-3.31-17.89-3.31-27.21s1.18-18.49,3.52-27.31c2.34-8.81,5.92-16.72,10.73-23.73,4.8-7.01,10.9-12.58,18.33-16.71,7.43-4.11,16.24-6.17,26.45-6.17,8.18,0,15.04,1.12,20.63,3.37,5.58,2.24,10.22,5.16,13.94,8.72,3.71,3.58,6.84,7.31,9.36,11.18l-12.77,7.56c-3.2-4.63-7.17-8.66-11.95-12.1-4.76-3.43-11.17-5.16-19.2-5.16s-15.17,1.8-20.83,5.41c-5.64,3.61-10.18,8.4-13.58,14.35-3.4,5.95-5.86,12.48-7.4,19.55-1.53,7.09-2.3,14.1-2.3,21.04,0,7.76,.85,15.25,2.55,22.47,1.71,7.22,4.35,13.66,7.91,19.3,3.58,5.66,8.13,10.12,13.69,13.42,5.55,3.31,12.2,4.96,19.96,4.96,6.88,0,12.85-1.53,17.93-4.6,5.07-3.06,9-7.47,11.79-13.23,2.78-5.75,4.18-12.67,4.18-20.77v-4.6h-27.26v-13.17h42.27v13.67c0,12.67-2.14,23.17-6.44,31.51-4.29,8.34-10.12,14.59-17.5,18.74-7.4,4.14-15.72,6.22-24.97,6.22Z"/><path class="f" d="M456.85,438.13c-10.98,0-20.51-2.19-28.38-6.51-7.85-4.33-14.32-10.25-19.21-17.63-4.85-7.29-8.47-15.58-10.74-24.65-2.26-8.98-3.4-18.36-3.4-27.87s1.21-18.94,3.62-28.02c2.43-9.07,6.15-17.34,11.11-24.57,5.06-7.36,11.53-13.25,19.25-17.54,7.81-4.33,17.15-6.52,27.76-6.52,8.62,0,15.7,1.17,21.66,3.57,5.85,2.35,10.83,5.47,14.81,9.28,3.87,3.75,7.15,7.67,9.74,11.67l1.55,2.38-17.42,10.3-1.43-2.1c-3-4.34-6.81-8.19-11.3-11.42-4.28-3.08-10.19-4.65-17.62-4.65s-14.19,1.68-19.36,4.99c-5.23,3.35-9.51,7.86-12.68,13.39-3.23,5.68-5.64,12-7.11,18.77-1.49,6.87-2.23,13.76-2.23,20.47,0,7.52,.83,14.87,2.49,21.84,1.62,6.89,4.17,13.12,7.55,18.48,3.32,5.25,7.62,9.47,12.76,12.53,5.11,3.04,11.34,4.58,18.57,4.58,6.42,0,11.83-1.37,16.53-4.2,4.6-2.78,8.21-6.85,10.74-12.08,2.6-5.36,3.91-11.96,3.91-19.59v-1.87h-27.25v-18.62h47.7v16.39c0,13.08-2.26,24.1-6.72,32.76-4.53,8.79-10.79,15.47-18.59,19.87-7.81,4.36-16.66,6.56-26.32,6.56Zm0-147.86c-9.68,0-18.13,1.97-25.13,5.84-6.98,3.86-12.83,9.2-17.38,15.86-4.62,6.71-8.08,14.41-10.34,22.89-2.3,8.61-3.45,17.56-3.45,26.61s1.08,18,3.23,26.55c2.13,8.46,5.49,16.17,10,22.94,4.43,6.64,10.23,11.98,17.32,15.88,7.04,3.87,15.7,5.83,25.74,5.83,8.72,0,16.68-1.98,23.66-5.86,6.85-3.87,12.38-9.8,16.4-17.62,4.06-7.88,6.13-18.07,6.13-30.27v-10.95h-36.8v7.72h27.25v7.32c0,8.47-1.51,15.86-4.47,21.97-3,6.2-7.32,11.03-12.83,14.37-5.49,3.31-12,4.99-19.34,4.99-8.23,0-15.4-1.8-21.36-5.35-5.89-3.5-10.81-8.32-14.57-14.3-3.72-5.88-6.51-12.66-8.28-20.14-1.72-7.38-2.62-15.16-2.62-23.09,0-7.1,.79-14.36,2.36-21.61,1.6-7.33,4.17-14.17,7.7-20.33,3.62-6.31,8.47-11.45,14.47-15.29,6.06-3.87,13.57-5.84,22.3-5.84s15.57,1.9,20.81,5.67c4.28,3.08,8,6.68,11.08,10.7l8.15-4.81c-2.08-2.85-4.55-5.66-7.36-8.37-3.47-3.31-7.85-6.06-13.06-8.16-5.23-2.11-11.83-3.17-19.62-3.17Z"/></g><g><path class="f" d="M567.05,435.41c-12.33,0-21.49-3.74-27.52-11.23-6.03-7.48-9.05-18.89-9.05-34.21v-61.38h14.31v63.72c0,9.81,2.03,17.22,6.13,22.26,4.08,5.04,10,7.56,17.77,7.56,8.63,0,15.16-2.64,19.55-7.91,4.39-5.27,6.59-13.02,6.59-23.23v-62.39h14.29v104.37h-14.29v-12.57c-3.14,5.04-7,8.81-11.59,11.29-4.6,2.49-9.99,3.73-16.18,3.73Z"/><path class="f" d="M567.06,438.13c-13.13,0-23.1-4.12-29.66-12.23-6.4-7.97-9.64-20.05-9.64-35.92v-64.1h19.74v66.44c0,9.12,1.85,16.03,5.51,20.55,3.57,4.4,8.7,6.54,15.66,6.54,7.87,0,13.57-2.27,17.47-6.94,3.96-4.73,5.96-11.96,5.96-21.49v-65.11h19.74v109.81h-19.74v-7.37c-2.3,2.35-4.83,4.29-7.57,5.77-4.96,2.69-10.85,4.05-17.47,4.05Zm-33.85-106.81v58.65c0,14.6,2.83,25.54,8.45,32.51,5.53,6.86,13.83,10.2,25.4,10.2,5.7,0,10.72-1.14,14.87-3.39,4.13-2.22,7.68-5.7,10.57-10.34l5.04-8.04v19.33h8.85v-98.92h-8.85v59.66c0,10.84-2.43,19.24-7.23,24.98-4.89,5.9-12.17,8.89-21.64,8.89-8.57,0-15.28-2.88-19.87-8.56-4.47-5.51-6.74-13.58-6.74-23.98v-60.99h-8.85Z"/></g><g><path class="f" d="M666.3,435.41c-11.03,0-19.67-3.08-25.94-9.24-6.26-6.16-9.38-14.66-9.38-25.47,0-6.95,1.55-12.98,4.64-18.08,3.09-5.11,7.48-9.03,13.17-11.8,5.69-2.75,12.4-4.13,20.17-4.13,5.11,0,9.99,.65,14.66,1.93,4.66,1.3,9.16,3.24,13.52,5.82v-10c0-8.84-1.92-15.35-5.76-19.51-3.86-4.14-9.83-6.22-17.93-6.22-4.83,0-9.96,.9-15.37,2.7-5.41,1.81-10.53,4.35-15.37,7.62l-4.18-12.05c5.51-3.48,11.46-6.14,17.87-8.01,6.39-1.87,12.66-2.81,18.78-2.81,11.71,0,20.55,3.06,26.55,9.19,6,6.13,8.99,15.15,8.99,27.06v70.55h-13.58v-11.85c-4.15,4.57-8.9,8.09-14.25,10.56-5.33,2.49-10.87,3.73-16.59,3.73Zm1.84-12.55c5.24,0,10.34-1.38,15.31-4.14,4.98-2.75,9.53-6.72,13.69-11.89v-19.51c-4.01-2.59-8.35-4.58-13.02-5.98-4.66-1.38-9.16-2.09-13.52-2.09-7.82,0-14.07,1.96-18.74,5.88-4.66,3.92-7,9.13-7,15.68s2.08,12.1,6.23,16.07c4.15,3.99,9.84,5.98,17.06,5.98Z"/><path class="f" d="M666.3,438.13c-11.72,0-21.08-3.37-27.87-10.01-6.77-6.67-10.19-15.89-10.19-27.42,0-7.41,1.7-13.97,5.04-19.49,3.34-5.52,8.17-9.85,14.32-12.84,6.02-2.93,13.21-4.4,21.36-4.4,5.3,0,10.47,.68,15.38,2.03,3.4,.96,6.79,2.26,10.06,3.87v-5.42c0-8.11-1.68-14.05-5.02-17.66-3.32-3.54-8.68-5.35-15.93-5.35-4.51,0-9.38,.86-14.51,2.56-5.17,1.72-10.13,4.18-14.7,7.29l-2.94,1.99-6.04-17.45,1.83-1.15c5.7-3.61,11.93-6.41,18.55-8.34,6.64-1.94,13.21-2.91,19.55-2.91,12.42,0,22,3.37,28.49,10.01,6.47,6.63,9.76,16.37,9.76,28.97v73.28h-19.04v-8.16c-3.19,2.69-6.66,4.9-10.36,6.63-5.66,2.64-11.64,3.98-17.74,3.98Zm2.66-68.72c-7.32,0-13.7,1.3-18.98,3.85-5.28,2.56-9.21,6.1-12.06,10.78-2.81,4.65-4.23,10.25-4.23,16.66,0,10.02,2.89,17.93,8.57,23.54,5.79,5.68,13.66,8.45,24.04,8.45,5.32,0,10.51-1.17,15.45-3.47,4.98-2.32,9.49-5.66,13.36-9.92l4.74-5.21v16.16h8.15v-67.83c0-11.12-2.77-19.58-8.21-25.16-5.42-5.55-13.7-8.37-24.59-8.37-5.81,0-11.89,.9-18.02,2.7-5.42,1.57-10.57,3.79-15.34,6.58l2.32,6.71c4.13-2.5,8.53-4.52,13.08-6.04,5.66-1.88,11.11-2.84,16.21-2.84,8.83,0,15.53,2.38,19.91,7.08,4.32,4.66,6.49,11.85,6.49,21.37v14.76l-4.11-2.43c-4.15-2.45-8.49-4.31-12.85-5.53-4.43-1.22-9.13-1.84-13.93-1.84Zm-.83,56.16c-7.91,0-14.28-2.27-18.93-6.73-4.68-4.48-7.06-10.55-7.06-18.04s2.68-13.31,7.98-17.76c7.94-6.66,20.7-8.47,34.76-4.31,4.94,1.47,9.55,3.6,13.72,6.3l1.26,.81v21.94l-.6,.74c-4.36,5.44-9.23,9.67-14.49,12.57-5.34,2.97-10.94,4.48-16.64,4.48Zm2.45-43.61c-7.13,0-12.83,1.77-16.98,5.24-4.04,3.41-6.02,7.86-6.02,13.59,0,6.03,1.77,10.64,5.38,14.1,3.66,3.52,8.62,5.22,15.17,5.22,4.77,0,9.47-1.28,14-3.8,4.38-2.43,8.51-5.96,12.28-10.48v-17.03c-3.43-2.06-7.15-3.7-11.08-4.88-4.43-1.31-8.72-1.98-12.74-1.98Z"/></g><g><path class="f" d="M736.86,432.96v-104.37h14.29v16.54c2.59-6.13,6.17-10.83,10.77-14.08,4.6-3.27,9.93-4.91,15.98-4.91s11.37,1.66,15.32,5.01l-2.15,13.57c-2.03-1.43-4.27-2.48-6.69-3.15-2.42-.69-5.02-1.03-7.81-1.03-5.04,0-9.46,1.43-13.27,4.29-3.82,2.86-6.79,6.84-8.94,11.9-2.14,5.07-3.21,10.98-3.21,17.71v58.52h-14.29Z"/><path class="f" d="M753.87,435.68h-19.74v-109.81h19.74v9.17c1.91-2.44,4.06-4.51,6.47-6.21,5.04-3.58,10.96-5.4,17.57-5.4s12.64,1.9,17.08,5.66l1.17,.99-3.08,19.37-3.55-2.49c-1.77-1.23-3.74-2.16-5.89-2.77-2.15-.62-4.51-.93-7.06-.93-4.47,0-8.28,1.22-11.64,3.74-3.4,2.55-6.11,6.18-8.06,10.79-2,4.73-3,10.34-3,16.65v61.24Zm-14.3-5.45h8.85v-55.79c0-7.03,1.15-13.35,3.43-18.76,2.34-5.51,5.64-9.89,9.81-13.03,4.3-3.2,9.32-4.83,14.91-4.83,3.06,0,5.94,.38,8.55,1.14,1.34,.37,2.64,.86,3.89,1.44l1.28-8.07c-3.28-2.32-7.34-3.45-12.38-3.45-5.47,0-10.32,1.48-14.42,4.4-4.13,2.93-7.45,7.28-9.83,12.92l-5.23,12.35v-27.23h-8.85v98.92Z"/></g><g><path class="f" d="M836.62,435.41c-12.94,0-23.17-4.91-30.69-14.75-7.53-9.84-11.29-23.16-11.29-39.98,0-11.3,1.69-21.01,5.11-29.16,3.4-8.13,8.28-14.39,14.64-18.78,6.36-4.39,13.94-6.59,22.72-6.59,10.83,0,19.99,4.15,27.48,12.46v-46.26l14.29-6.85v147.46h-14.29v-10.42c-7.29,8.57-16.62,12.86-27.98,12.86Zm2.14-13.48c5.11,0,9.97-1.47,14.6-4.43,4.64-2.96,8.38-7,11.24-12.1v-50.05c-3.06-4.89-6.89-8.77-11.49-11.58-4.6-2.83-9.37-4.24-14.35-4.24-9.38,0-16.66,3.55-21.8,10.67-5.13,7.12-7.71,17.28-7.71,30.48,0,8.1,1.27,15.25,3.79,21.45,2.52,6.19,5.98,11.05,10.42,14.54,4.42,3.52,9.52,5.26,15.31,5.26Z"/><path class="f" d="M836.63,438.13c-13.76,0-24.83-5.32-32.87-15.81-7.85-10.3-11.83-24.31-11.83-41.64,0-11.59,1.79-21.76,5.32-30.21,3.6-8.59,8.85-15.32,15.62-19.98,6.79-4.68,14.96-7.06,24.25-7.06s17.7,2.96,24.76,8.8v-41.58l19.74-9.47v154.51h-19.74v-6.55c-7,5.98-15.47,9-25.25,9Zm.49-109.26c-8.17,0-15.3,2.05-21.15,6.11-5.91,4.06-10.51,9.98-13.7,17.59-3.25,7.78-4.89,17.23-4.89,28.1,0,16.12,3.6,29.02,10.72,38.34,7.04,9.19,16.36,13.67,28.53,13.67,10.62,0,19.08-3.89,25.91-11.9l4.79-5.64v15.09h8.85v-140.4l-8.85,4.23v51.63l-4.74-5.27c-7.02-7.78-15.34-11.56-25.47-11.56Zm1.64,95.78c-6.38,0-12.11-1.97-17-5.86-4.72-3.71-8.53-8.98-11.23-15.64-2.66-6.54-4-14.1-4-22.48,0-13.72,2.77-24.51,8.21-32.08,5.66-7.82,13.74-11.79,24.02-11.79,5.47,0,10.79,1.56,15.79,4.64,4.91,3.02,9.08,7.21,12.36,12.46l.43,.66v51.55l-.34,.62c-3.08,5.49-7.17,9.88-12.15,13.06-5.06,3.22-10.47,4.86-16.08,4.86Zm0-82.4c-8.55,0-14.96,3.12-19.59,9.53-4.77,6.62-7.19,16.34-7.19,28.89,0,7.67,1.21,14.54,3.6,20.42,2.34,5.77,5.57,10.29,9.57,13.42,7.47,5.94,17.76,6.41,26.76,.67,4.04-2.57,7.4-6.12,9.98-10.52v-48.53c-2.77-4.22-6.19-7.61-10.19-10.06-4.13-2.54-8.49-3.83-12.93-3.83Z"/></g><g><g><path class="e" d="M373.43,252.21c.61-1.71,1.1-3.54,1.71-5.37,22.09-76.17,29.05-141.96,29.05-141.96l-.08-.03C361.08,84.5,246.1,25.52,205.12,6.11,152.14,33.51,59.9,77.18,6.07,104.86h.02S41.45,438.56,205.12,472.51h-.02c80.44-16.71,129.75-105.69,159.29-191.86"/><path class="g" d="M205.1,478.63c-.58,0-1.16-.08-1.69-.24C37.69,443.4,1.49,119.29,.03,105.5c-.26-2.5,1.04-4.92,3.28-6.07,26.35-13.56,62.51-31.24,97.48-48.35C137.42,33.18,175.29,14.66,202.33,.68c1.67-.87,3.7-.91,5.41-.1,20.18,9.56,57.35,28.24,96.69,48.01,39.55,19.87,80.45,40.41,102.29,50.74,2.85,.82,3.85,3.23,3.54,6.19-.07,.67-7.27,67.2-29.25,143.02l-.79,2.49c-.33,1.11-.68,2.21-1.05,3.25-1.16,3.17-4.62,4.78-7.82,3.67-3.17-1.14-4.82-4.65-3.67-7.82,.31-.86,.58-1.75,.86-2.66l.82-2.6c18.46-63.68,26.33-120.81,28.26-136.44-23.61-11.24-61.72-30.38-98.66-48.94-37.57-18.88-73.15-36.75-93.73-46.6-26.99,13.9-63.74,31.86-99.31,49.25-33.2,16.23-67.47,32.99-93.3,46.19,4.89,39.34,45.46,325.89,192.51,357.93,63.96-13.98,115.59-77.1,153.49-187.61,1.08-3.19,4.55-4.9,7.75-3.79,3.19,1.08,4.89,4.57,3.79,7.75-39.65,115.61-94.76,181.52-163.83,195.87-.42,.1-.83,.13-1.24,.13Z"/></g><path class="d" d="M76,341.33l221.69,21.54s-8.92,55.85-16.15,62.84c-7.24,6.99-56.64,46.09-76.92,44.28-20.28-1.81-116.5-59.79-128.62-128.66Z"/><path class="g" d="M205.1,478.63c-.58,0-1.16-.08-1.69-.24C37.69,443.4,1.49,119.29,.03,105.5c-.26-2.5,1.04-4.92,3.28-6.07,26.35-13.56,62.51-31.24,97.48-48.35C137.42,33.18,175.29,14.66,202.33,.68c1.67-.87,3.7-.91,5.41-.1,20.18,9.56,57.35,28.24,96.69,48.01,39.55,19.87,80.45,40.41,102.29,50.74,2.85,.82,3.85,3.23,3.54,6.19-.07,.67-7.27,67.2-29.25,143.02l-.79,2.49c-.33,1.11-.68,2.21-1.05,3.25-1.16,3.17-4.62,4.78-7.82,3.67-3.17-1.14-4.82-4.65-3.67-7.82,.31-.86,.58-1.75,.86-2.66l.82-2.6c18.46-63.68,26.33-120.81,28.26-136.44-23.61-11.24-61.72-30.38-98.66-48.94-37.57-18.88-73.15-36.75-93.73-46.6-26.99,13.9-63.74,31.86-99.31,49.25-33.2,16.23-67.47,32.99-93.3,46.19,4.89,39.34,45.46,325.89,192.51,357.93,63.96-13.98,115.59-77.1,153.49-187.61,1.08-3.19,4.55-4.9,7.75-3.79,3.19,1.08,4.89,4.57,3.79,7.75-39.65,115.61-94.76,181.52-163.83,195.87-.42,.1-.83,.13-1.24,.13Z"/><polygon class="d" points="315.41 221.93 381.11 249.41 390.4 270.08 302.97 295.33 315.41 221.93"/><path class="d" d="M205.11,462.56c-.58,0-1.16-.08-1.69-.24C47.44,429.34,13.39,124.52,12.02,111.55c-.26-2.5,1.04-4.92,3.28-6.07,24.78-12.75,58.8-29.38,91.69-45.47,34.4-16.82,69.97-34.21,95.35-47.33,1.67-.87,3.7-.92,5.41-.1,18.98,8.99,53.93,26.55,90.93,45.14,37.15,18.67,75.57,37.97,96.09,47.67,2.72,.91,3.83,3.34,3.53,6.19-.06,.62-6.84,63.19-27.51,134.48l-.73,2.32c-.32,1.04-.63,2.06-.99,3.06-1.11,3.17-4.6,4.9-7.8,3.7-3.17-1.12-4.83-4.61-3.7-7.8,.29-.81,.54-1.64,.8-2.5l.75-2.42c17.24-59.44,24.65-112.81,26.53-127.9-22.04-10.51-57.8-28.48-92.46-45.89-35.22-17.7-68.59-34.46-87.95-43.72-25.33,13.04-59.78,29.88-93.12,46.19-31.12,15.21-63.25,30.92-87.49,43.31,4.73,37.88,43,305.73,180.52,335.81,59.95-13.16,108.35-72.39,143.9-176.07,1.07-3.18,4.57-4.89,7.75-3.79,3.19,1.08,4.89,4.57,3.79,7.75-37.29,108.78-89.17,170.8-154.23,184.33-.42,.1-.83,.13-1.24,.13Z"/><path class="f" d="M205.1,478.63c-.58,0-1.16-.08-1.69-.24C37.69,443.4,1.49,119.29,.03,105.5c-.26-2.5,1.04-4.92,3.28-6.07,26.35-13.56,62.51-31.24,97.48-48.35C137.42,33.18,175.29,14.66,202.33,.68c1.67-.87,3.7-.91,5.41-.1,20.18,9.56,57.35,28.24,96.69,48.01,39.55,19.87,80.45,40.41,102.29,50.74,2.85,.82,3.85,3.23,3.54,6.19-.07,.67-7.27,67.2-29.25,143.02l-.79,2.49c-.33,1.11-.68,2.21-1.05,3.25-1.16,3.17-4.62,4.78-7.82,3.67-3.17-1.14-4.82-4.65-3.67-7.82,.31-.86,.58-1.75,.86-2.66l.82-2.6c18.46-63.68,26.33-120.81,28.26-136.44-23.61-11.24-61.72-30.38-98.66-48.94-37.57-18.88-73.15-36.75-93.73-46.6-26.99,13.9-63.74,31.86-99.31,49.25-33.2,16.23-67.47,32.99-93.3,46.19,4.89,39.34,45.46,325.89,192.51,357.93,63.96-13.98,115.59-77.1,153.49-187.61,1.08-3.19,4.55-4.9,7.75-3.79,3.19,1.08,4.89,4.57,3.79,7.75-39.65,115.61-94.76,181.52-163.83,195.87-.42,.1-.83,.13-1.24,.13Z"/><path class="f" d="M312.96,305.94c-2.48,0-4.8-1.51-5.72-3.97-1.17-3.16,.43-6.68,3.59-7.86l74.45-27.71c.57-.21,.87-.63,.88-1.24,.01-.61-.26-1.04-.81-1.28l-68.62-29.53c-3.1-1.32-4.53-4.92-3.19-8.01,1.32-3.11,4.9-4.57,8.01-3.19l68.62,29.53c5.11,2.19,8.33,7.22,8.2,12.79-.14,5.57-3.6,10.42-8.82,12.37l-74.45,27.71c-.7,.26-1.43,.38-2.13,.38Z"/><g><path class="d" d="M300.26,365.72l2.19-17.12,6.14-48.75,9.52-75.5c.61-4.64,.85-9.15,.85-13.67,0-53.83-40.16-100.82-95.08-107.66-59.44-7.57-113.76,34.67-121.33,94.11l-11.35,89.33,.24-1.67s-4.05,33.36-15.45,64.83"/><path class="f" d="M306.32,366.49l-12.11-1.55,17.86-141.36c.55-4.17,.81-8.38,.81-12.91,0-51.55-38.57-95.23-89.73-101.61-55.95-7.13-107.37,32.71-114.53,88.83l-11.13,87.61h.02c-.17,1.39-4.27,34.42-15.77,66.18l-11.47-4.15c9.61-26.53,13.93-54.84,14.9-61.85h-.01l11.35-89.34c8-62.78,65.38-107.35,128.16-99.39,57.24,7.13,100.41,56.02,100.41,113.72,0,5.07-.3,9.8-.91,14.47l-17.86,141.35Z"/></g><path class="f" d="M242.5,213.75c5.25-14.28,26.25-13.49,30.96,.97,1.35,4.13,2.09,8.62,1.71,13.3-.42,5.21-2.17,10.04-4.52,14.3-7.93,14.4-29.75,10.25-31.17-6.13-.22-2.54-.25-5.3-.02-8.29,.4-5.34,1.52-10.05,3.03-14.16Z"/><path class="f" d="M267.68,447.53c-1.48,0-2.96-.54-4.12-1.61-2.49-2.28-2.65-6.14-.37-8.62,26.21-28.54,31.78-78.22,31.84-78.72,.35-3.35,3.34-5.79,6.71-5.42,3.35,.36,5.78,3.36,5.42,6.71-.23,2.19-6.02,54.14-34.99,85.68-1.2,1.31-2.85,1.98-4.49,1.98Z"/><path class="f" d="M225.76,197.26c-1.28,0-2.55-.39-3.64-1.2-2.71-2.01-3.27-5.82-1.28-8.51,.49-.66,12-15.97,30.21-18.62,10.79-1.56,21.37,1.54,31.58,9.2,2.69,2.03,3.23,5.85,1.2,8.55-2,2.68-5.83,3.27-8.55,1.2-10.41-7.83-20.9-9.21-31.17-4.08-8.24,4.12-13.41,10.94-13.46,11.01-1.2,1.6-3.04,2.44-4.9,2.44Z"/></g></g></g></g></svg>