<?xml version="1.0" encoding="UTF-8" standalone="no"?><!DOCTYPE svg PUBLIC "-//W3C//DTD SVG 1.1//EN" "http://www.w3.org/Graphics/SVG/1.1/DTD/svg11.dtd"><svg width="100%" height="100%" viewBox="0 0 759 188" version="1.1" xmlns="http://www.w3.org/2000/svg" xmlns:xlink="http://www.w3.org/1999/xlink" xml:space="preserve" xmlns:serif="http://www.serif.com/" style="fill-rule:evenodd;clip-rule:evenodd;stroke-linejoin:round;stroke-miterlimit:2;"><g id="Laag_1"><g><g><g><path d="M199.815,143.862l0,-94.616l33.999,0c7.595,0 13.628,1.349 18.029,4.117c4.401,2.768 7.524,6.317 9.44,10.576c1.845,4.33 2.839,8.802 2.839,13.486c0,3.265 -0.568,6.53 -1.633,9.795c-1.065,3.265 -2.839,6.317 -5.253,9.085c-2.413,2.768 -5.536,4.969 -9.369,6.672c-3.833,1.704 -8.518,2.555 -14.054,2.555l-24.559,0l0,38.329l-9.44,0Zm9.44,-47.273l25.056,0c5.04,0 9.085,-0.994 12.067,-2.91c2.981,-1.916 5.111,-4.401 6.317,-7.382c1.278,-2.91 1.916,-5.891 1.916,-8.872c0,-2.981 -0.568,-5.82 -1.704,-8.802c-1.136,-2.981 -3.194,-5.465 -6.175,-7.453c-2.981,-1.987 -7.098,-2.981 -12.421,-2.981l-25.056,0l0,38.471l0,-0.071Z" style="fill:#022e3d;fill-rule:nonzero;"/><path d="M211.03,145.636l-13.06,0l0,-98.236l35.774,0c7.95,0 14.338,1.491 19.023,4.401c4.685,2.91 8.092,6.743 10.079,11.428c1.987,4.543 2.981,9.298 2.981,14.196c0,3.407 -0.568,6.885 -1.704,10.363c-1.136,3.478 -3.052,6.743 -5.607,9.724c-2.555,2.981 -5.962,5.394 -10.008,7.169c-4.046,1.774 -9.014,2.697 -14.764,2.697l-22.714,0l0,38.329l0,-0.071Zm-9.44,-3.62l5.891,0l0,-38.329l26.334,0c5.253,0 9.724,-0.781 13.344,-2.413c3.549,-1.562 6.459,-3.691 8.731,-6.246c2.271,-2.555 3.904,-5.394 4.898,-8.447c0.994,-3.123 1.562,-6.246 1.562,-9.227c0,-4.401 -0.923,-8.66 -2.626,-12.776c-1.704,-3.975 -4.685,-7.24 -8.731,-9.795c-4.117,-2.555 -9.866,-3.833 -17.106,-3.833l-32.225,0l0,90.996l-0.071,0.071Zm32.722,-43.653l-26.901,0l0,-42.091l26.901,0c5.678,0 10.15,1.136 13.415,3.336c3.265,2.2 5.536,5.04 6.814,8.305c1.207,3.194 1.845,6.317 1.845,9.44c0,3.123 -0.71,6.388 -2.058,9.582c-1.349,3.265 -3.762,6.033 -7.027,8.163c-3.265,2.129 -7.666,3.194 -13.06,3.194l0.071,0.071Zm-23.281,-3.62l23.281,0c4.685,0 8.376,-0.852 11.073,-2.626c2.626,-1.774 4.543,-3.975 5.678,-6.601c1.136,-2.697 1.774,-5.465 1.774,-8.163c0,-2.697 -0.568,-5.394 -1.562,-8.163c-0.994,-2.626 -2.839,-4.827 -5.465,-6.601c-2.626,-1.774 -6.459,-2.697 -11.428,-2.697l-23.281,0l0,34.851l-0.071,0Z" style="fill:#022e3d;fill-rule:nonzero;"/></g><g><path d="M299.542,143.933c-9.085,0 -16.254,-3.194 -21.578,-9.724c-5.323,-6.53 -7.879,-15.261 -7.879,-26.405c0,-7.453 1.207,-13.841 3.549,-19.236c2.413,-5.394 5.82,-9.582 10.221,-12.563c4.401,-2.981 9.653,-4.401 15.687,-4.401c6.033,0 11.357,1.42 15.758,4.33c4.401,2.91 7.808,7.027 10.15,12.492c2.342,5.394 3.549,11.854 3.549,19.236c0,7.382 -1.207,13.841 -3.549,19.307c-2.413,5.465 -5.82,9.582 -10.221,12.563c-4.401,2.91 -9.653,4.401 -15.687,4.401Zm0,-8.943c6.246,0 11.073,-2.413 14.551,-7.24c3.478,-4.827 5.253,-11.499 5.253,-20.087c0,-8.589 -1.774,-15.261 -5.253,-20.087c-3.478,-4.827 -8.376,-7.169 -14.551,-7.169c-6.175,0 -11.215,2.413 -14.622,7.098c-3.478,4.756 -5.182,11.499 -5.182,20.229c0,8.731 1.704,15.261 5.182,20.016c3.478,4.756 8.305,7.098 14.622,7.098l0,0.142Z" style="fill:#022e3d;fill-rule:nonzero;"/><path d="M299.542,145.707c-9.653,0 -17.319,-3.478 -22.927,-10.363c-5.536,-6.743 -8.305,-16.041 -8.305,-27.54c0,-7.666 1.278,-14.338 3.762,-20.016c2.555,-5.678 6.175,-10.15 10.86,-13.344c4.685,-3.194 10.292,-4.756 16.68,-4.756c6.388,0 12.067,1.562 16.751,4.685c4.685,3.052 8.376,7.524 10.86,13.273c2.484,5.607 3.691,12.351 3.691,19.945c0,7.595 -1.278,14.409 -3.762,20.016c-2.555,5.749 -6.175,10.221 -10.86,13.344c-4.685,3.123 -10.292,4.685 -16.68,4.685l-0.071,0.071Zm0,-72.329c-5.678,0 -10.576,1.42 -14.693,4.117c-4.117,2.768 -7.311,6.743 -9.582,11.783c-2.271,5.182 -3.407,11.428 -3.407,18.526c0,10.647 2.555,19.165 7.524,25.269c4.969,6.104 11.57,9.014 20.158,9.014c5.678,0 10.576,-1.349 14.693,-4.117c4.117,-2.697 7.311,-6.672 9.582,-11.783c2.271,-5.182 3.407,-11.428 3.407,-18.597c0,-7.169 -1.136,-13.415 -3.407,-18.526c-2.2,-5.04 -5.394,-9.014 -9.511,-11.712c-4.117,-2.697 -9.085,-4.046 -14.764,-4.046l0,0.071Zm0,63.385c-6.814,0 -12.28,-2.626 -16.041,-7.879c-3.691,-5.04 -5.536,-12.138 -5.536,-21.081c0,-8.943 1.845,-16.254 5.536,-21.294c3.833,-5.253 9.227,-7.879 16.112,-7.879c6.885,0 12.209,2.626 16.041,7.879c3.691,5.111 5.607,12.209 5.607,21.152c0,8.943 -1.845,16.041 -5.607,21.152c-3.833,5.323 -9.227,7.95 -16.041,7.95l-0.071,0Zm0,-54.513c-5.749,0 -10.079,2.058 -13.202,6.388c-3.194,4.401 -4.827,10.86 -4.827,19.165c0,8.305 1.633,14.551 4.827,18.952c3.123,4.33 7.453,6.388 13.131,6.388c5.678,0 9.937,-2.129 13.131,-6.459c3.265,-4.472 4.898,-10.86 4.898,-19.023c0,-8.163 -1.633,-14.551 -4.898,-19.023c-3.194,-4.33 -7.453,-6.459 -13.131,-6.459l0.071,0.071Z" style="fill:#022e3d;fill-rule:nonzero;"/></g><g><path d="M360.868,143.791c-4.614,0 -9.014,-0.994 -13.273,-2.981c-4.259,-1.987 -7.808,-4.756 -10.647,-8.234l6.885,-5.891c2.484,2.697 5.253,4.827 8.234,6.246c2.981,1.491 5.962,2.2 8.943,2.2c4.401,0 7.808,-0.923 10.221,-2.697c2.413,-1.774 3.62,-4.33 3.62,-7.595c0,-2.058 -0.568,-3.904 -1.633,-5.536c-1.136,-1.633 -2.91,-3.194 -5.394,-4.685c-2.484,-1.491 -5.749,-2.981 -9.795,-4.472c-7.311,-2.697 -12.563,-5.678 -15.758,-8.872c-3.194,-3.194 -4.827,-7.24 -4.827,-11.996c0,-5.323 2.058,-9.653 6.175,-12.918c4.117,-3.265 9.511,-4.969 16.112,-4.969c4.401,0 8.447,0.852 12.28,2.555c3.833,1.704 7.098,4.117 9.795,7.24l-6.601,5.536c-4.401,-4.472 -9.653,-6.743 -15.616,-6.743c-3.904,0 -7.027,0.852 -9.298,2.484c-2.271,1.633 -3.407,3.904 -3.407,6.814c0,2.697 1.136,4.969 3.478,6.885c2.342,1.916 6.601,4.046 12.847,6.317c5.04,1.916 9.085,3.904 12.138,5.962c3.052,2.058 5.253,4.472 6.672,7.098c1.349,2.697 2.058,5.749 2.058,9.227c0,5.891 -2.058,10.576 -6.246,13.912c-4.117,3.407 -9.866,5.04 -17.106,5.04l0.142,0.071Z" style="fill:#022e3d;fill-rule:nonzero;"/><path d="M360.868,145.565c-4.898,0 -9.582,-1.065 -14.054,-3.123c-4.401,-2.058 -8.234,-5.04 -11.286,-8.731l-1.136,-1.349l9.582,-8.163l1.136,1.278c2.342,2.555 4.898,4.472 7.737,5.891c2.768,1.349 5.465,2.058 8.163,2.058c3.975,0 7.098,-0.781 9.156,-2.342c1.916,-1.42 2.839,-3.478 2.839,-6.104c0,-1.704 -0.426,-3.194 -1.349,-4.543c-0.923,-1.42 -2.555,-2.839 -4.756,-4.117c-2.342,-1.42 -5.607,-2.839 -9.511,-4.33c-7.666,-2.839 -12.989,-5.891 -16.396,-9.298c-3.549,-3.549 -5.323,-8.021 -5.323,-13.273c0,-5.891 2.342,-10.718 6.885,-14.338c4.472,-3.549 10.221,-5.323 17.248,-5.323c4.614,0 8.943,0.923 13.06,2.697c4.046,1.774 7.524,4.401 10.434,7.737l1.207,1.42l-9.298,7.808l-1.136,-1.207c-4.117,-4.188 -8.802,-6.246 -14.338,-6.246c-3.478,0 -6.246,0.71 -8.234,2.129c-1.774,1.278 -2.626,3.052 -2.626,5.323c0,2.129 0.923,3.904 2.839,5.465c2.2,1.774 6.317,3.833 12.351,6.033c5.182,1.916 9.369,4.046 12.563,6.175c3.336,2.271 5.749,4.898 7.24,7.808c1.491,2.91 2.271,6.317 2.271,10.008c0,6.459 -2.342,11.57 -6.885,15.332c-4.472,3.62 -10.576,5.465 -18.242,5.465l-0.142,-0.142Zm-21.365,-12.847c2.484,2.697 5.465,4.827 8.872,6.388c3.975,1.845 8.163,2.839 12.492,2.839c6.814,0 12.138,-1.562 15.97,-4.685c3.762,-3.052 5.536,-7.169 5.536,-12.492c0,-3.123 -0.639,-5.962 -1.845,-8.376c-1.207,-2.342 -3.265,-4.543 -6.033,-6.459c-2.981,-1.987 -6.885,-3.975 -11.783,-5.82c-6.459,-2.413 -10.789,-4.543 -13.344,-6.601c-2.768,-2.271 -4.188,-5.04 -4.188,-8.234c0,-3.478 1.42,-6.246 4.188,-8.234c2.626,-1.845 6.104,-2.839 10.363,-2.839c5.962,0 11.215,2.058 15.687,6.175l3.904,-3.265c-2.271,-2.271 -4.898,-4.117 -7.95,-5.465c-3.62,-1.562 -7.524,-2.413 -11.57,-2.413c-6.175,0 -11.215,1.562 -14.977,4.543c-3.691,2.981 -5.536,6.743 -5.536,11.499c0,4.33 1.42,7.879 4.259,10.718c2.981,2.981 8.021,5.891 15.119,8.447c4.117,1.562 7.524,3.123 10.079,4.614c2.697,1.633 4.685,3.336 5.962,5.253c1.278,1.987 1.987,4.188 1.987,6.53c0,3.833 -1.42,6.885 -4.33,9.014c-2.697,2.058 -6.53,3.052 -11.357,3.052c-3.194,0 -6.459,-0.852 -9.724,-2.413c-2.697,-1.349 -5.253,-3.123 -7.595,-5.394l-4.259,3.62l0.071,0Z" style="fill:#022e3d;fill-rule:nonzero;"/></g><g><path d="M414.529,143.862c-4.543,0 -8.021,-1.42 -10.363,-4.188c-2.342,-2.768 -3.549,-6.814 -3.549,-12.067l0,-46.137l-11.428,0l0,-8.305l11.428,0l0,-23.92l9.44,-4.614l0,28.534l17.177,0l0,8.305l-17.177,0l0,43.298c0,3.62 0.568,6.175 1.774,7.808c1.207,1.633 3.123,2.413 5.749,2.413c3.265,0 6.672,-1.136 10.221,-3.478l-1.065,9.298c-1.774,1.065 -3.762,1.774 -5.82,2.271c-2.058,0.497 -4.188,0.71 -6.459,0.71l0.071,0.071Z" style="fill:#022e3d;fill-rule:nonzero;"/><path d="M414.529,145.636c-5.111,0 -9.014,-1.633 -11.712,-4.756c-2.626,-3.123 -3.975,-7.524 -3.975,-13.202l0,-44.362l-11.428,0l0,-11.925l11.428,0l0,-23.21l13.06,-6.388l0,29.599l17.177,0l0,11.925l-17.177,0l0,41.523c0,3.975 0.781,5.82 1.42,6.743c0.852,1.136 2.271,1.704 4.33,1.704c2.839,0 5.962,-1.065 9.227,-3.194l3.194,-2.129l-1.633,14.054l-0.781,0.426c-1.916,1.136 -4.046,1.916 -6.317,2.484c-2.2,0.497 -4.472,0.781 -6.814,0.781l0,-0.071Zm-23.565,-66.011l11.428,0l0,47.982c0,4.827 1.065,8.447 3.123,10.931c2.058,2.342 4.969,3.549 9.014,3.549c2.058,0 4.117,-0.213 6.033,-0.71c1.633,-0.355 3.123,-0.923 4.543,-1.704l0.568,-4.898c-6.175,2.981 -12.492,2.626 -15.261,-1.136c-1.42,-1.916 -2.129,-4.827 -2.129,-8.872l0,-45.143l17.177,0l0,-4.685l-17.177,0l0,-27.469l-5.891,2.839l0,24.63l-11.428,0l0,4.685Z" style="fill:#022e3d;fill-rule:nonzero;"/></g><g><path d="M481.818,143.933c-6.956,0 -12.918,-1.349 -17.887,-4.117c-4.969,-2.697 -9.014,-6.388 -12.067,-11.073c-3.123,-4.685 -5.394,-9.937 -6.885,-15.758c-1.491,-5.82 -2.2,-11.854 -2.2,-18.029c0,-6.175 0.781,-12.209 2.342,-18.1c1.562,-5.82 3.904,-11.073 7.098,-15.687c3.194,-4.614 7.24,-8.305 12.138,-11.073c4.898,-2.697 10.718,-4.117 17.532,-4.117c5.394,0 9.937,0.71 13.628,2.2c3.691,1.491 6.743,3.407 9.227,5.749c2.484,2.342 4.543,4.827 6.175,7.382l-8.447,4.969c-2.129,-3.052 -4.756,-5.749 -7.879,-8.021c-3.123,-2.271 -7.382,-3.407 -12.705,-3.407c-5.323,0 -10.079,1.207 -13.77,3.549c-3.762,2.413 -6.743,5.536 -9.014,9.511c-2.271,3.975 -3.904,8.234 -4.898,12.918c-0.994,4.685 -1.491,9.298 -1.491,13.912c0,5.111 0.568,10.079 1.704,14.906c1.136,4.756 2.91,9.014 5.253,12.776c2.342,3.762 5.394,6.672 9.085,8.872c3.691,2.2 8.092,3.265 13.202,3.265c4.543,0 8.518,-0.994 11.854,-3.052c3.336,-2.058 5.962,-4.969 7.808,-8.731c1.845,-3.833 2.768,-8.376 2.768,-13.77l0,-3.052l-18.029,0l0,-8.731l27.966,0l0,9.085c0,8.376 -1.42,15.332 -4.259,20.868c-2.839,5.536 -6.672,9.653 -11.57,12.421c-4.898,2.768 -10.434,4.117 -16.538,4.117l-0.142,0.213Z" style="fill:#022e3d;fill-rule:nonzero;"/><path d="M481.818,145.707c-7.24,0 -13.557,-1.42 -18.81,-4.33c-5.182,-2.839 -9.511,-6.814 -12.705,-11.641c-3.194,-4.827 -5.607,-10.292 -7.098,-16.325c-1.491,-5.962 -2.271,-12.138 -2.271,-18.455c0,-6.317 0.781,-12.563 2.413,-18.526c1.633,-6.033 4.046,-11.499 7.382,-16.254c3.336,-4.898 7.666,-8.802 12.776,-11.641c5.182,-2.839 11.357,-4.33 18.384,-4.33c5.678,0 10.363,0.781 14.338,2.342c3.904,1.562 7.169,3.62 9.795,6.175c2.555,2.484 4.756,5.111 6.459,7.737l0.994,1.562l-11.499,6.814l-0.923,-1.42c-1.987,-2.839 -4.472,-5.394 -7.453,-7.595c-2.839,-2.058 -6.743,-3.052 -11.641,-3.052c-4.898,0 -9.369,1.136 -12.847,3.336c-3.478,2.2 -6.317,5.182 -8.376,8.872c-2.129,3.762 -3.762,7.95 -4.685,12.421c-0.994,4.543 -1.491,9.085 -1.491,13.557c0,4.969 0.568,9.866 1.633,14.48c1.065,4.543 2.768,8.66 4.969,12.209c2.2,3.478 5.04,6.246 8.447,8.305c3.407,1.987 7.524,3.052 12.28,3.052c4.259,0 7.808,-0.923 10.931,-2.768c3.052,-1.845 5.465,-4.543 7.098,-8.021c1.704,-3.549 2.626,-7.95 2.626,-12.989l0,-1.207l-18.029,0l0,-12.351l31.586,0l0,10.86c0,8.66 -1.491,15.97 -4.472,21.72c-2.981,5.82 -7.169,10.221 -12.28,13.131c-5.182,2.91 -11.002,4.33 -17.39,4.33l-0.142,0Zm0,-97.881c-6.388,0 -11.996,1.278 -16.609,3.833c-4.614,2.555 -8.518,6.104 -11.499,10.505c-3.052,4.472 -5.323,9.511 -6.814,15.119c-1.491,5.678 -2.271,11.641 -2.271,17.603c0,5.962 0.71,11.925 2.129,17.603c1.42,5.607 3.62,10.718 6.601,15.19c2.91,4.401 6.743,7.95 11.499,10.505c4.685,2.555 10.363,3.833 17.035,3.833c5.749,0 11.073,-1.278 15.687,-3.904c4.543,-2.555 8.163,-6.459 10.86,-11.641c2.697,-5.253 4.046,-11.996 4.046,-20.016l0,-7.24l-24.346,0l0,5.111l18.029,0l0,4.827c0,5.607 -0.994,10.505 -2.981,14.551c-1.987,4.117 -4.827,7.311 -8.518,9.511c-3.62,2.2 -7.95,3.336 -12.776,3.336c-5.465,0 -10.221,-1.207 -14.125,-3.549c-3.904,-2.342 -7.169,-5.536 -9.653,-9.44c-2.484,-3.904 -4.33,-8.376 -5.465,-13.344c-1.136,-4.898 -1.704,-10.008 -1.704,-15.261c0,-4.685 0.497,-9.511 1.562,-14.338c1.065,-4.827 2.768,-9.369 5.111,-13.486c2.413,-4.188 5.607,-7.595 9.582,-10.15c4.046,-2.555 9.014,-3.833 14.764,-3.833c5.749,0 10.292,1.278 13.77,3.762c2.839,2.058 5.323,4.401 7.311,7.098l5.394,-3.194c-1.349,-1.916 -2.981,-3.762 -4.898,-5.536c-2.271,-2.2 -5.182,-4.046 -8.66,-5.394c-3.478,-1.42 -7.808,-2.129 -12.989,-2.129l-0.071,0.071Z" style="fill:#022e3d;fill-rule:nonzero;"/></g><g><path d="M550.548,143.862c-8.163,0 -14.196,-2.484 -18.242,-7.453c-4.046,-4.969 -5.962,-12.492 -5.962,-22.643l0,-40.601l9.44,0l0,42.162c0,6.53 1.349,11.428 4.046,14.764c2.697,3.336 6.601,4.969 11.783,4.969c5.749,0 10.008,-1.774 12.918,-5.253c2.91,-3.478 4.33,-8.589 4.33,-15.403l0,-41.31l9.44,0l0,69.063l-9.44,0l0,-8.305c-2.058,3.336 -4.614,5.82 -7.666,7.453c-3.052,1.633 -6.601,2.484 -10.718,2.484l0.071,0.071Z" style="fill:#022e3d;fill-rule:nonzero;"/><path d="M550.548,145.636c-8.66,0 -15.261,-2.697 -19.661,-8.092c-4.259,-5.253 -6.388,-13.273 -6.388,-23.778l0,-42.446l13.06,0l0,44.008c0,6.033 1.207,10.576 3.62,13.628c2.342,2.91 5.749,4.33 10.363,4.33c5.182,0 9.014,-1.491 11.57,-4.614c2.626,-3.123 3.975,-7.95 3.975,-14.196l0,-43.085l13.06,0l0,72.683l-13.06,0l0,-4.898c-1.491,1.562 -3.194,2.839 -5.04,3.833c-3.265,1.774 -7.169,2.697 -11.57,2.697l0.071,-0.071Zm-22.43,-70.696l0,38.826c0,9.653 1.845,16.893 5.607,21.507c3.691,4.543 9.156,6.743 16.822,6.743c3.762,0 7.098,-0.781 9.866,-2.271c2.697,-1.491 5.111,-3.762 7.027,-6.814l3.336,-5.323l0,12.776l5.891,0l0,-65.443l-5.891,0l0,39.465c0,7.169 -1.633,12.705 -4.756,16.538c-3.265,3.904 -8.021,5.891 -14.338,5.891c-5.678,0 -10.079,-1.916 -13.131,-5.678c-2.981,-3.62 -4.472,-9.014 -4.472,-15.9l0,-40.388l-5.891,0l-0.071,0.071Z" style="fill:#022e3d;fill-rule:nonzero;"/></g><g><path d="M616.275,143.933c-7.311,0 -12.989,-2.058 -17.177,-6.104c-4.117,-4.046 -6.246,-9.724 -6.246,-16.893c0,-4.614 0.994,-8.589 3.052,-11.996c2.058,-3.407 4.969,-5.962 8.731,-7.808c3.762,-1.845 8.234,-2.697 13.344,-2.697c3.407,0 6.601,0.426 9.724,1.278c3.052,0.852 6.033,2.129 8.943,3.833l0,-6.601c0,-5.82 -1.278,-10.15 -3.833,-12.918c-2.555,-2.768 -6.53,-4.117 -11.854,-4.117c-3.194,0 -6.601,0.568 -10.15,1.774c-3.549,1.207 -6.956,2.91 -10.15,5.04l-2.768,-7.95c3.62,-2.271 7.595,-4.046 11.854,-5.323c4.259,-1.207 8.376,-1.845 12.421,-1.845c7.737,0 13.628,2.058 17.603,6.104c3.975,4.046 5.962,10.008 5.962,17.887l0,46.705l-9.014,0l0,-7.808c-2.768,3.052 -5.891,5.323 -9.44,7.027c-3.549,1.633 -7.169,2.484 -11.002,2.484l0,-0.071Zm1.207,-8.305c3.478,0 6.814,-0.923 10.15,-2.768c3.265,-1.845 6.317,-4.472 9.085,-7.879l0,-12.918c-2.626,-1.704 -5.536,-3.052 -8.589,-3.975c-3.052,-0.923 -6.033,-1.42 -8.943,-1.42c-5.182,0 -9.298,1.278 -12.421,3.904c-3.052,2.626 -4.614,6.033 -4.614,10.363c0,4.33 1.349,8.021 4.117,10.647c2.768,2.626 6.53,3.975 11.286,3.975l-0.071,0.071Z" style="fill:#022e3d;fill-rule:nonzero;"/><path d="M616.275,145.707c-7.737,0 -13.983,-2.2 -18.455,-6.601c-4.472,-4.401 -6.743,-10.505 -6.743,-18.171c0,-4.898 1.136,-9.227 3.336,-12.918c2.2,-3.691 5.394,-6.53 9.511,-8.518c3.975,-1.916 8.731,-2.91 14.125,-2.91c3.478,0 6.956,0.426 10.15,1.349c2.271,0.639 4.472,1.491 6.672,2.555l0,-3.62c0,-5.394 -1.136,-9.298 -3.336,-11.712c-2.2,-2.342 -5.749,-3.549 -10.576,-3.549c-2.981,0 -6.175,0.568 -9.582,1.704c-3.407,1.136 -6.672,2.768 -9.724,4.827l-1.916,1.349l-3.975,-11.57l1.207,-0.781c3.762,-2.413 7.879,-4.259 12.28,-5.536c4.401,-1.278 8.731,-1.916 12.918,-1.916c8.234,0 14.551,2.2 18.881,6.601c4.259,4.401 6.459,10.86 6.459,19.165l0,48.479l-12.634,0l0,-5.394c-2.129,1.774 -4.401,3.265 -6.885,4.401c-3.762,1.774 -7.737,2.626 -11.712,2.626l0,0.142Zm1.774,-45.498c-4.827,0 -9.085,0.852 -12.563,2.555c-3.478,1.704 -6.104,4.046 -7.95,7.098c-1.845,3.052 -2.768,6.814 -2.768,11.002c0,6.601 1.916,11.854 5.678,15.616c3.833,3.762 9.014,5.607 15.9,5.607c3.549,0 6.956,-0.781 10.221,-2.271c3.265,-1.562 6.246,-3.762 8.872,-6.601l3.123,-3.478l0,10.718l5.394,0l0,-44.93c0,-7.382 -1.845,-12.989 -5.465,-16.68c-3.62,-3.691 -9.085,-5.536 -16.254,-5.536c-3.833,0 -7.879,0.568 -11.925,1.774c-3.62,1.065 -7.027,2.484 -10.15,4.33l1.562,4.472c2.697,-1.633 5.678,-2.981 8.66,-3.975c3.762,-1.278 7.382,-1.845 10.718,-1.845c5.82,0 10.292,1.562 13.202,4.685c2.839,3.052 4.33,7.879 4.33,14.125l0,9.795l-2.697,-1.633c-2.768,-1.633 -5.607,-2.839 -8.518,-3.691c-2.91,-0.781 -6.033,-1.207 -9.227,-1.207l-0.142,0.071Zm-0.568,37.193c-5.253,0 -9.44,-1.491 -12.563,-4.472c-3.123,-2.981 -4.685,-6.956 -4.685,-11.925c0,-4.969 1.774,-8.802 5.253,-11.783c5.253,-4.401 13.699,-5.607 22.997,-2.839c3.265,0.994 6.317,2.413 9.085,4.188l0.852,0.568l0,14.551l-0.426,0.497c-2.91,3.62 -6.104,6.388 -9.582,8.305c-3.549,1.987 -7.24,2.981 -11.002,2.981l0.071,-0.071Zm1.633,-28.889c-4.685,0 -8.518,1.136 -11.215,3.478c-2.697,2.271 -3.975,5.182 -3.975,9.014c0,3.975 1.136,7.027 3.549,9.369c2.413,2.342 5.678,3.478 10.008,3.478c3.123,0 6.246,-0.852 9.298,-2.484c2.91,-1.633 5.607,-3.975 8.092,-6.956l0,-11.286c-2.271,-1.349 -4.756,-2.484 -7.311,-3.265c-2.91,-0.852 -5.749,-1.278 -8.447,-1.278l0,-0.071Z" style="fill:#022e3d;fill-rule:nonzero;"/></g><g><path d="M662.98,143.933l0,-69.134l9.44,0l0,10.931c1.704,-4.046 4.117,-7.169 7.098,-9.298c3.052,-2.2 6.601,-3.265 10.576,-3.265c3.975,0 7.524,1.136 10.15,3.336l-1.42,9.014c-1.349,-0.923 -2.839,-1.633 -4.401,-2.058c-1.633,-0.426 -3.336,-0.71 -5.182,-0.71c-3.336,0 -6.246,0.923 -8.802,2.839c-2.555,1.916 -4.472,4.543 -5.891,7.879c-1.42,3.336 -2.129,7.24 -2.129,11.712l0,38.755l-9.44,0Z" style="fill:#022e3d;fill-rule:nonzero;"/><path d="M674.266,145.636l-13.06,0l0,-72.683l13.06,0l0,6.104c1.278,-1.633 2.697,-2.981 4.259,-4.117c3.336,-2.342 7.24,-3.549 11.641,-3.549c4.401,0 8.376,1.278 11.286,3.762l0.781,0.639l-2.058,12.847l-2.342,-1.633c-1.136,-0.852 -2.484,-1.42 -3.904,-1.845c-1.42,-0.426 -2.981,-0.639 -4.685,-0.639c-2.981,0 -5.465,0.781 -7.737,2.484c-2.271,1.704 -4.046,4.117 -5.323,7.169c-1.349,3.123 -1.987,6.814 -1.987,11.002l0,40.53l0.071,-0.071Zm-9.511,-3.62l5.962,0l0,-36.91c0,-4.685 0.781,-8.802 2.271,-12.421c1.562,-3.62 3.762,-6.53 6.459,-8.66c2.839,-2.129 6.175,-3.194 9.866,-3.194c2.058,0 3.904,0.284 5.678,0.781c0.852,0.213 1.774,0.568 2.555,0.923l0.852,-5.323c-2.2,-1.562 -4.827,-2.271 -8.163,-2.271c-3.62,0 -6.814,0.994 -9.582,2.91c-2.697,1.916 -4.898,4.827 -6.53,8.589l-3.478,8.163l0,-18.029l-5.891,0l0,65.443Z" style="fill:#022e3d;fill-rule:nonzero;"/></g><g><path d="M728.991,143.862c-8.589,0 -15.332,-3.265 -20.3,-9.795c-4.969,-6.53 -7.453,-15.332 -7.453,-26.476c0,-7.453 1.136,-13.912 3.407,-19.307c2.271,-5.394 5.465,-9.511 9.724,-12.421c4.188,-2.91 9.227,-4.33 15.048,-4.33c7.169,0 13.202,2.768 18.171,8.234l0,-30.592l9.44,-4.543l0,97.597l-9.44,0l0,-6.885c-4.827,5.678 -11.002,8.518 -18.526,8.518l-0.071,0Zm1.42,-8.943c3.407,0 6.601,-0.994 9.653,-2.91c3.052,-1.987 5.536,-4.614 7.453,-8.021l0,-33.148c-2.058,-3.265 -4.543,-5.82 -7.595,-7.666c-3.052,-1.845 -6.175,-2.839 -9.511,-2.839c-6.246,0 -11.002,2.342 -14.409,7.027c-3.407,4.685 -5.111,11.428 -5.111,20.158c0,5.394 0.852,10.079 2.484,14.196c1.633,4.117 3.975,7.311 6.885,9.653c2.91,2.342 6.317,3.478 10.15,3.478l0,0.071Z" style="fill:#022e3d;fill-rule:nonzero;"/><path d="M728.991,145.636c-9.085,0 -16.467,-3.549 -21.791,-10.434c-5.182,-6.814 -7.808,-16.112 -7.808,-27.54c0,-7.666 1.207,-14.409 3.549,-20.016c2.413,-5.678 5.891,-10.15 10.363,-13.202c4.472,-3.123 9.866,-4.685 16.041,-4.685c6.175,0 11.712,1.987 16.396,5.82l0,-27.54l13.06,-6.246l0,102.282l-13.06,0l0,-4.33c-4.614,3.975 -10.221,5.962 -16.751,5.962l0,-0.071Zm0.355,-72.329c-5.394,0 -10.15,1.349 -13.983,4.046c-3.904,2.697 -6.956,6.601 -9.085,11.641c-2.129,5.182 -3.265,11.428 -3.265,18.597c0,10.647 2.413,19.236 7.098,25.411c4.685,6.104 10.86,9.014 18.881,9.014c7.027,0 12.634,-2.555 17.177,-7.879l3.194,-3.762l0,10.008l5.891,0l0,-92.913l-5.891,2.768l0,34.212l-3.123,-3.478c-4.614,-5.182 -10.15,-7.666 -16.822,-7.666l-0.071,0Zm1.065,63.385c-4.259,0 -8.021,-1.278 -11.286,-3.904c-3.123,-2.484 -5.678,-5.962 -7.453,-10.363c-1.774,-4.33 -2.626,-9.369 -2.626,-14.906c0,-9.085 1.845,-16.254 5.465,-21.223c3.762,-5.182 9.085,-7.808 15.9,-7.808c3.62,0 7.169,1.065 10.434,3.052c3.265,1.987 6.033,4.756 8.163,8.234l0.284,0.426l0,34.141l-0.213,0.426c-2.058,3.62 -4.756,6.53 -8.021,8.66c-3.336,2.129 -6.956,3.194 -10.647,3.194l0,0.071Zm0,-54.513c-5.678,0 -9.866,2.058 -12.989,6.317c-3.123,4.401 -4.756,10.789 -4.756,19.094c0,5.111 0.781,9.653 2.413,13.486c1.562,3.833 3.691,6.814 6.317,8.872c4.969,3.904 11.783,4.259 17.745,0.426c2.697,-1.704 4.898,-4.046 6.601,-6.956l0,-32.154c-1.845,-2.768 -4.117,-5.04 -6.743,-6.672c-2.697,-1.704 -5.607,-2.555 -8.589,-2.555l0,0.142Z" style="fill:#022e3d;fill-rule:nonzero;"/></g></g><g><g><path d="M148.844,98c0.25,-0.667 0.417,-1.375 0.667,-2.083c8.583,-29.583 11.292,-55.167 11.292,-55.167c-16.708,-7.917 -61.417,-30.833 -77.333,-38.375c-20.625,10.667 -56.458,27.625 -77.375,38.375c-20.917,10.75 13.75,129.667 77.333,142.875c31.25,-6.5 50.417,-41.083 61.917,-74.542" style="fill:#0071eb;fill-rule:nonzero;"/><path d="M83.428,186c-0.208,0 -0.458,0 -0.667,-0.083c-64.417,-13.625 -78.458,-139.542 -79.042,-144.917c-0.083,-0.958 0.417,-1.917 1.292,-2.375c10.25,-5.292 24.292,-12.125 37.875,-18.792c14.25,-6.958 28.958,-14.125 39.458,-19.583c0.667,-0.333 1.417,-0.333 2.083,0c7.833,3.708 22.292,10.958 37.583,18.667c15.375,7.708 31.25,15.708 39.75,19.708c1.125,0.333 1.5,1.25 1.375,2.417c0,0.25 -2.833,26.125 -11.375,55.583l-0.292,0.958c-0.125,0.417 -0.25,0.875 -0.417,1.25c-0.458,1.25 -1.792,1.875 -3.042,1.417c-1.25,-0.458 -1.875,-1.792 -1.417,-3.042c0.125,-0.333 0.208,-0.667 0.333,-1.042l0.333,-1c7.167,-24.75 10.25,-46.958 11,-53c-9.167,-4.375 -24,-11.792 -38.333,-19c-14.583,-7.333 -28.417,-14.292 -36.417,-18.125c-10.5,5.417 -24.75,12.375 -38.583,19.125c-12.917,6.292 -26.208,12.833 -36.25,17.958c1.917,15.292 17.667,126.625 74.792,139.083c24.875,-5.417 44.917,-29.958 59.625,-72.917c0.417,-1.25 1.75,-1.917 3,-1.458c1.25,0.417 1.917,1.792 1.458,3c-15.417,44.917 -36.833,70.542 -63.667,76.125c-0.167,0 -0.333,0.042 -0.5,0.042l0.042,0Z" style="fill:#181817;fill-rule:nonzero;"/></g><path d="M33.261,132.625l86.167,8.375c0,0 -3.458,21.708 -6.292,24.417c-2.833,2.708 -22,17.917 -29.875,17.208c-7.875,-0.708 -45.25,-23.25 -49.958,-50l-0.042,0Z" style="fill:#fff;fill-rule:nonzero;"/><path d="M83.428,186c-0.208,0 -0.458,0 -0.667,-0.083c-64.417,-13.625 -78.458,-139.542 -79.042,-144.917c-0.083,-0.958 0.417,-1.917 1.292,-2.375c10.25,-5.292 24.292,-12.125 37.875,-18.792c14.25,-6.958 28.958,-14.125 39.458,-19.583c0.667,-0.333 1.417,-0.333 2.083,0c7.833,3.708 22.292,10.958 37.583,18.667c15.375,7.708 31.25,15.708 39.75,19.708c1.125,0.333 1.5,1.25 1.375,2.417c0,0.25 -2.833,26.125 -11.375,55.583l-0.292,0.958c-0.125,0.417 -0.25,0.875 -0.417,1.25c-0.458,1.25 -1.792,1.875 -3.042,1.417c-1.25,-0.458 -1.875,-1.792 -1.417,-3.042c0.125,-0.333 0.208,-0.667 0.333,-1.042l0.333,-1c7.167,-24.75 10.25,-46.958 11,-53c-9.167,-4.375 -24,-11.792 -38.333,-19c-14.583,-7.333 -28.417,-14.292 -36.417,-18.125c-10.5,5.417 -24.75,12.375 -38.583,19.125c-12.917,6.292 -26.208,12.833 -36.25,17.958c1.917,15.292 17.667,126.625 74.792,139.083c24.875,-5.417 44.917,-29.958 59.625,-72.917c0.417,-1.25 1.75,-1.917 3,-1.458c1.25,0.417 1.917,1.792 1.458,3c-15.417,44.917 -36.833,70.542 -63.667,76.125c-0.167,0 -0.333,0.042 -0.5,0.042l0.042,0Z" style="fill:#181817;fill-rule:nonzero;"/><path d="M126.261,86.25l25.542,10.667l3.625,8.042l-33.958,9.792l4.792,-28.5Z" style="fill:#fff;fill-rule:nonzero;"/><path d="M83.428,179.75c-0.208,0 -0.458,0 -0.667,-0.083c-60.625,-12.833 -73.833,-131.292 -74.375,-136.333c-0.083,-0.958 0.417,-1.917 1.292,-2.375c9.625,-4.958 22.833,-11.417 35.625,-17.667c13.375,-6.542 27.208,-13.292 37.042,-18.375c0.667,-0.333 1.417,-0.375 2.083,-0c7.375,3.5 20.958,10.333 35.333,17.542c14.417,7.25 29.375,14.75 37.333,18.542c1.042,0.333 1.5,1.292 1.375,2.417c0,0.25 -2.667,24.542 -10.708,52.25l-0.292,0.917c-0.125,0.417 -0.25,0.792 -0.375,1.208c-0.417,1.25 -1.792,1.917 -3.042,1.417c-1.25,-0.417 -1.875,-1.792 -1.417,-3.042c0.125,-0.333 0.208,-0.625 0.292,-0.958l0.292,-0.958c6.708,-23.083 9.583,-43.833 10.292,-49.708c-8.583,-4.083 -22.458,-11.083 -35.917,-17.833c-13.667,-6.875 -26.667,-13.375 -34.167,-17c-9.833,5.083 -23.208,11.625 -36.167,17.958c-12.083,5.917 -24.583,12 -34,16.833c1.833,14.708 16.708,118.792 70.125,130.5c23.292,-5.125 42.083,-28.125 55.917,-68.417c0.417,-1.25 1.792,-1.917 3,-1.458c1.25,0.417 1.917,1.792 1.458,3c-14.5,42.25 -34.667,66.375 -59.917,71.625c-0.167,0 -0.333,0.042 -0.5,0.042l0.083,-0.042Z" style="fill:#fff;fill-rule:nonzero;"/><path d="M83.428,186c-0.208,0 -0.458,0 -0.667,-0.083c-64.417,-13.625 -78.458,-139.542 -79.042,-144.917c-0.083,-0.958 0.417,-1.917 1.292,-2.375c10.25,-5.292 24.292,-12.125 37.875,-18.792c14.25,-6.958 28.958,-14.125 39.458,-19.583c0.667,-0.333 1.417,-0.333 2.083,0c7.833,3.708 22.292,10.958 37.583,18.667c15.375,7.708 31.25,15.708 39.75,19.708c1.125,0.333 1.5,1.25 1.375,2.417c0,0.25 -2.833,26.125 -11.375,55.583l-0.292,0.958c-0.125,0.417 -0.25,0.875 -0.417,1.25c-0.458,1.25 -1.792,1.875 -3.042,1.417c-1.25,-0.458 -1.875,-1.792 -1.417,-3.042c0.125,-0.333 0.208,-0.667 0.333,-1.042l0.333,-1c7.167,-24.75 10.25,-46.958 11,-53c-9.167,-4.375 -24,-11.792 -38.333,-19c-14.583,-7.333 -28.417,-14.292 -36.417,-18.125c-10.5,5.417 -24.75,12.375 -38.583,19.125c-12.917,6.292 -26.208,12.833 -36.25,17.958c1.917,15.292 17.667,126.625 74.792,139.083c24.875,-5.417 44.917,-29.958 59.625,-72.917c0.417,-1.25 1.75,-1.917 3,-1.458c1.25,0.417 1.917,1.792 1.458,3c-15.417,44.917 -36.833,70.542 -63.667,76.125c-0.167,0 -0.333,0.042 -0.5,0.042l0.042,0Z" style="fill:#022e3d;fill-rule:nonzero;"/><path d="M125.344,118.875c-0.958,0 -1.875,-0.583 -2.208,-1.542c-0.458,-1.208 0.167,-2.583 1.375,-3.042l28.917,-10.75c0.208,-0.083 0.333,-0.25 0.333,-0.5c0,-0.25 -0.083,-0.417 -0.333,-0.5l-26.667,-11.458c-1.208,-0.5 -1.75,-1.917 -1.25,-3.125c0.5,-1.208 1.917,-1.792 3.125,-1.25l26.667,11.458c2,0.833 3.25,2.792 3.167,4.958c-0.042,2.167 -1.417,4.042 -3.417,4.792l-28.917,10.75c-0.292,0.083 -0.542,0.167 -0.833,0.167l0.042,0.042Z" style="fill:#022e3d;fill-rule:nonzero;"/><g><path d="M120.386,142.125l0.833,-6.667l2.375,-18.958l3.708,-29.333c0.25,-1.792 0.333,-3.542 0.333,-5.292c0,-20.917 -15.625,-39.167 -36.958,-41.833c-23.083,-2.958 -44.208,13.458 -47.125,36.583l-4.417,34.708l0.083,-0.667c0,0 -1.583,12.958 -6,25.208" style="fill:#fff;fill-rule:nonzero;"/><path d="M122.761,142.417l-4.708,-0.583l6.958,-54.917c0.208,-1.625 0.333,-3.25 0.333,-5c0,-20.042 -15,-37 -34.875,-39.5c-21.75,-2.75 -41.708,12.708 -44.5,34.5l-4.333,34.042c-0.083,0.542 -1.667,13.375 -6.125,25.708l-4.458,-1.625c3.75,-10.292 5.417,-21.292 5.792,-24.042c0.375,-2.75 4.417,-34.708 4.417,-34.708c3.125,-24.417 25.417,-41.708 49.792,-38.625c22.25,2.75 39,21.75 39,44.208c0,1.958 -0.125,3.792 -0.333,5.625l-6.958,54.917Z" style="fill:#022e3d;fill-rule:nonzero;"/></g><path d="M97.969,83.042c2.042,-5.542 10.208,-5.25 12.042,0.375c0.542,1.625 0.792,3.333 0.667,5.167c-0.167,2.042 -0.833,3.917 -1.75,5.542c-3.083,5.583 -11.542,4 -12.125,-2.375c-0.083,-1 -0.083,-2.042 0,-3.208c0.167,-2.083 0.583,-3.917 1.167,-5.5Z" style="fill:#022e3d;fill-rule:nonzero;"/><path d="M107.719,173.917c-0.583,0 -1.167,-0.208 -1.583,-0.625c-0.958,-0.875 -1.042,-2.375 -0.125,-3.333c10.167,-11.083 12.333,-30.375 12.375,-30.583c0.125,-1.292 1.292,-2.25 2.625,-2.125c1.292,0.125 2.25,1.292 2.125,2.625c-0.083,0.833 -2.333,21.042 -13.583,33.292c-0.458,0.5 -1.125,0.75 -1.75,0.75l-0.083,0Z" style="fill:#022e3d;fill-rule:nonzero;"/><path d="M91.428,76.667c-0.5,0 -1,-0.167 -1.417,-0.458c-1.042,-0.792 -1.25,-2.25 -0.5,-3.292c0.208,-0.25 4.667,-6.208 11.75,-7.25c4.208,-0.625 8.292,0.583 12.25,3.583c1.042,0.792 1.25,2.292 0.458,3.333c-0.792,1.042 -2.25,1.25 -3.333,0.458c-4.042,-3.042 -8.125,-3.583 -12.125,-1.583c-3.208,1.583 -5.208,4.25 -5.25,4.292c-0.458,0.625 -1.167,0.958 -1.917,0.958l0.083,-0.042Z" style="fill:#022e3d;fill-rule:nonzero;"/></g></g></g></svg>