<?xml version="1.0" encoding="UTF-8"?><svg xmlns="http://www.w3.org/2000/svg" viewBox="0 0 266.7 161.16"><defs><style>.d{stroke-miterlimit:10;}.d,.e{fill:none;stroke:#022e3d;}.e{stroke-linecap:round;stroke-linejoin:round;}</style></defs><g id="a"/><g id="b"><g id="c"><g><g><rect class="d" x="7.26" y="77.21" width="89.34" height="55.88" transform="translate(-31.16 22.39) rotate(-18.83)"/><path class="d" d="M.63,93.12l47.68,10.62c2.86,.64,5.83-.41,7.65-2.71l29.22-36.75"/></g><g><rect class="d" x="140.85" y="7.87" width="59.84" height="84.85" transform="translate(24.33 -50.93) rotate(18.24)"/><line class="d" x1="158.84" y1="15.94" x2="187.03" y2="25.23"/><line class="d" x1="154.61" y1="28.76" x2="193.4" y2="41.54"/><line class="d" x1="150.09" y1="42.48" x2="180.69" y2="52.56"/><line class="d" x1="145.57" y1="56.2" x2="181.42" y2="68.02"/><line class="d" x1="141.04" y1="69.91" x2="169.23" y2="79.21"/></g><path class="e" d="M248.46,131.54c.92,4.27,5.13,6.99,9.41,6.07,2-.43,3.66-1.58,4.77-3.11l3.56,16.57-44.64,9.59-9.59-44.63,16.03-3.44c-1.63-1.11-2.84-2.81-3.29-4.89-.92-4.27,1.8-8.48,6.08-9.4,4.27-.92,8.48,1.8,9.4,6.08,.45,2.07,.04,4.13-.98,5.81l17.41-3.74,3.56,16.57c-1.64-.94-3.63-1.31-5.62-.88-4.28,.92-7,5.13-6.09,9.4Z"/><circle class="d" cx="50.48" cy="30.64" r="13.58"/><circle class="d" cx="128.91" cy="128.87" r="5.15"/><circle class="d" cx="252.3" cy="56.2" r="10.61"/></g></g></g></svg>